<?xml version="1.0" encoding="UTF-8"?>
<svg id="Calque_2" data-name="Calque 2" xmlns="http://www.w3.org/2000/svg" viewBox="0 0 128.82 254.72">
  <defs>
    <style>
      .cls-1 {
        fill: #110e0e;
      }

      .cls-1, .cls-2, .cls-3, .cls-4, .cls-5, .cls-6 {
        stroke-width: 0px;
      }

      .cls-2 {
        fill: #dcc582;
      }

      .cls-3 {
        fill: #998443;
      }

      .cls-4 {
        fill: #8d6756;
      }

      .cls-5 {
        fill: #fff;
      }

      .cls-6 {
        fill: #a676b1;
      }
    </style>
  </defs>
  <g id="Calque_1-2" data-name="Calque 1">
    <g>
      <path class="cls-5" d="M64.79,36.36c.43.07.51-.31.68-.55,3.21-4.7,6.7-9.15,11.09-12.83.23-.19.28-.47.21-.77.09-.15.19-.29.28-.44,3.16-3.37,6.08-6.98,9.42-10.19.28-.27.47-.64.68-.98,1.83-2.85.21-5.45-2.6-5.79-3.45-.42-6.95-.22-10.28.97-9.69,3.47-18.04,8.93-24.9,16.65-6.88,7.74-12.18,16.35-14.9,26.44-1.58,5.85-2.01,11.78-1.27,17.78.49,3.91,2.08,7.51,3.43,11.18.91,2.48,2.05,4.85,3.72,6.93,1.22,1.52,2.73,2.55,4.76,2.62.34.97.61,1.98,1.04,2.91.36.78.19,1.32-.23,2.03-1.84,3.09-3.75,6.21-3.13,10.04.53,3.29,1.13,6.59,2.41,9.7.68,1.66,1.44,3.29,2.91,4.45,6.89,5.45,14.56,7.63,23.24,5.53.84-.2.96,0,.85.76-.25,1.73-.52,3.47-.66,5.21-.07.83-.38,1.27-1.12,1.61-10.34,4.67-20.68,9.36-31.01,14.08-.8.36-1.24.26-1.82-.37-8.34-9.05-16.69-18.08-25.07-27.09-.61-.66-.81-1.31-.7-2.14.14-1.11.27-2.22.39-3.33.12-1.19.23-2.38.31-3.58.04-.62-.33-.99-.92-1.04-.53-.04-.92.26-1,.82-.09.59-.15,1.19-.22,1.78-.16,1.45-.31,2.89-.46,4.34l-.38.23c-.04-.16-.04-.37-.13-.48-1.84-2-3.69-3.99-5.54-5.98-.46-.49-.97-.77-1.55-.25-.57.51-.43,1.06.04,1.57.51.56,1.05,1.1,1.56,1.66,1.24,1.35,2.48,2.7,3.87,4.23-2.39-.21-4.49-.39-6.6-.58-.64-.06-1.14.15-1.2.85-.06.73.36,1.07,1.08,1.13,2.62.23,5.24.51,7.86.7.65.05,1.08.26,1.52.73,6.74,7.31,13.51,14.6,20.26,21.9,2.09,2.26,4.22,4.47,6.21,6.82.62.73,1.06.9,1.88.52,8.13-3.71,16.26-7.39,24.4-11.08,2.58-1.17,5.16-2.35,7.81-3.56,0,.39.03.63,0,.86-.48,3.89-.65,7.79-.74,11.71-.07,3.11-.16,6.23-.26,9.34-.32,9.42-.27,18.84.58,28.24.37,4.06,1.53,7.96,3.81,11.42,1.1,1.67,2.33,3.25,4.37,3.91,3.88,1.25,8.13-.3,10.29-3.79.51-.82.96-1.68,1.5-2.63.17.45.28.75.39,1.04,1.3,3.21,2.63,6.46,4.89,9.11,3.48,4.08,7.97,6.25,13.39,6.31,2.3.03,4.2.67,5.37,2.85.51.95,1.25,1.74,2.3,2.18,3.72,1.58,7.1.04,8.27-3.87.77-2.59.27-5.11-.56-7.61-.87-2.66.13-6.26,2.07-7.64,0,.46,0,.9,0,1.34,0,19.46-.02,38.91-.03,58.37,0,.36-.02.72,0,1.08.05.6.4.98,1,.99.6,0,.95-.4.99-.99.04-.6.02-1.2.02-1.8.05-83.34.1-166.68.14-250.02,0-.28,0-.56,0-.84.01-.69-.37-1.09-1-1.07-.56.02-.94.39-.93,1.03,0,.28,0,.56,0,.84-.01,19.18-.02,38.35-.03,57.53,0,9.39-.02,18.78-.04,28.17,0,.45.11.88-.4,1.27-5.85,4.43-11.7,8.85-17.49,13.36-1.88,1.46-3.79,2.59-6.22,3-5.01.85-10.01,1.71-14.96,2.89-.61.15-.87-.13-.67-.77.44-1.41.61-2.87.81-4.33.83-6.23-1.31-11.6-5.4-15.99-4.23-4.54-9.73-6.94-16.08-6.99-1.9-.02-1.92-.05-1.84-1.93,3.68-.94,6.31-3.22,8.21-6.44.22-.24.43-.48.65-.72.24-.26.5-.5.73-.77,2.51-2.95,4.25-6.41,6.34-9.63.81-1.25,1.77-2.43,2.28-3.86.08-.1.16-.2.25-.3.23-.27.49-.52.69-.8,3.72-5.06,7.41-10.14,11.16-15.17,1.13-1.51,2.44-2.89,3.67-4.33.06-.06.13-.13.19-.19.94-.46,1.66-1.21,2.37-1.94,3.72-3.82,7.89-7.07,12.49-9.79,1.56-.93,3.08-2.09,3.23-4.19.16-2.22-1.35-4.26-4.04-5.16-3.33-1.12-6.75-1.87-10.27-2.11-3.72-.25-7,1.18-10.31,2.61-6.7,2.89-12.46,7.09-17.57,12.23-6.17,6.19-10.21,13.73-13.65,21.64-2.26,5.21-3.48,10.67-3.79,16.33-.18,3.24.05,6.47,1.15,9.55.68,1.89,1.86,3.36,4.1,3.5.3.98.13,1.44-1.04,1.8-2.88.88-5.69,2.04-8.05,4.01-1.87,1.56-3.84,3.01-5.36,5.19-.39-1.17-.83-2.05-.97-3.04.78-.77,1.34-1.69,1.72-2.71.67-1.83,1.35-3.66,1.89-5.53,1.28-4.44,2.08-8.98,3.02-13.5,1.12-5.39,3.15-10.52,5.01-15.68,1.5-4.16,3.16-8.26,5.86-11.84.19-.25.41-.5.27-.86h0Z"/>
      <path class="cls-1" d="M73.43,70.91c-.22.24-.43.48-.65.72-1.61-.19-3.23-.35-4.83-.59-2.79-.43-2.79-.45-3.14,2.47-.16.63.19.75.71.7.77-.08,1.3.18,1.45,1-.27.85-.92,1.02-1.7.94-.56-.06-.81.15-.74.73.04.39.03.79.05,1.19-.09,1.88-.06,1.92,1.84,1.93,6.35.05,11.85,2.45,16.08,6.99,4.09,4.38,6.23,9.76,5.4,15.99-.2,1.46-.37,2.92-.81,4.33-.2.65.05.92.67.77,4.94-1.19,9.95-2.04,14.96-2.89,2.42-.41,4.34-1.54,6.22-3,5.79-4.5,11.64-8.93,17.49-13.36.51-.39.4-.82.4-1.27.02-9.39.03-18.78.04-28.17.01-19.18.02-38.35.03-57.53,0-.28,0-.56,0-.84-.01-.64.37-1.01.93-1.03.63-.02,1.02.38,1,1.07,0,.28,0,.56,0,.84-.05,83.34-.1,166.68-.14,250.02,0,.6.01,1.2-.02,1.8-.04.6-.39.99-.99.99-.59,0-.95-.39-1-.99-.03-.36,0-.72,0-1.08,0-19.46.02-38.91.03-58.37,0-.44,0-.88,0-1.34-1.95,1.38-2.94,4.98-2.07,7.64.82,2.5,1.32,5.03.56,7.61-1.17,3.92-4.54,5.46-8.27,3.87-1.05-.45-1.79-1.24-2.3-2.18-1.17-2.17-3.07-2.82-5.37-2.85-5.42-.06-9.91-2.23-13.39-6.31-2.26-2.65-3.59-5.9-4.89-9.11-.12-.29-.22-.59-.39-1.04-.54.95-.99,1.8-1.5,2.63-2.16,3.48-6.41,5.04-10.29,3.79-2.04-.66-3.27-2.23-4.37-3.91-2.28-3.46-3.44-7.35-3.81-11.42-.85-9.39-.9-18.81-.58-28.24.1-3.11.19-6.23.26-9.34.09-3.91.26-7.82.74-11.71.03-.23,0-.48,0-.86-2.66,1.21-5.23,2.39-7.81,3.56-8.13,3.69-16.27,7.38-24.4,11.08-.82.38-1.26.21-1.88-.52-1.99-2.34-4.12-4.56-6.21-6.82-6.76-7.3-13.52-14.59-20.26-21.9-.44-.47-.87-.68-1.52-.73-2.62-.19-5.24-.47-7.86-.7-.71-.06-1.14-.4-1.08-1.13.06-.7.56-.9,1.2-.85,2.1.19,4.21.37,6.6.58-1.39-1.52-2.63-2.88-3.87-4.23-.51-.56-1.05-1.1-1.56-1.66-.47-.51-.61-1.06-.04-1.57.58-.52,1.09-.25,1.55.25,1.84,1.99,3.7,3.98,5.54,5.98.1.11.09.31.13.48l.38-.23c.15-1.45.3-2.89.46-4.34.06-.59.13-1.19.22-1.78.09-.56.47-.86,1-.82.58.05.96.42.92,1.04-.08,1.19-.19,2.39-.31,3.58-.11,1.11-.25,2.22-.39,3.33-.11.83.09,1.48.7,2.14,8.38,9.01,16.73,18.04,25.07,27.09.58.63,1.03.73,1.82.37,10.32-4.72,20.66-9.41,31.01-14.08.75-.34,1.06-.77,1.12-1.61.14-1.74.41-3.48.66-5.21.11-.75-.01-.96-.85-.76-8.68,2.1-16.35-.08-23.24-5.53-1.46-1.16-2.22-2.79-2.91-4.45-1.28-3.11-1.87-6.4-2.41-9.7-.62-3.83,1.29-6.95,3.13-10.04.42-.71.59-1.25.23-2.03-.43-.93-.7-1.94-1.04-2.91-.14-.53-.34-1.06-.41-1.61-.17-1.2-.36-2.27-2.05-1.73-.58.19-.96-.31-1.05-.89-.09-.55.18-1.05.72-1.05,1.6-.02,1.5-1.04,1.39-2.13-.09-.95-.18-1.91-.19-2.87,0-.58-.22-.74-.78-.73-1.48.03-2.95,0-4.43,0-.94,0-1.44-.39-1.27-1.39.34-.47.8-.57,1.36-.56,1.28.04,2.56-.02,3.83.05.97.06,1.47-.17,1.19-1.24.03-1.39.01-2.78.11-4.17.05-.7-.2-.85-.83-.9-2.13-.18-4.26-.41-6.39-.64-1.13-.12-1.35-.55-.95-1.69.62-.41,1.31-.25,1.97-.2,1.69.13,3.41.18,5.07.51,1.29.26,1.51-.28,1.49-1.31.27-2.53.66-5.05,1.19-7.54.16-.76.13-1.2-.84-1.4-2.64-.55-5.26-1.24-7.87-1.9-1.4-.35-1.56-1.01-.56-2.06,3,.5,5.91,1.37,8.87,2.06.83.19,1.23,0,1.18-.89.78-2.49,1.39-5.04,2.43-7.45.33-.75.18-.99-.6-1.22-2.48-.71-4.93-1.49-7.38-2.27-1.32-.42-1.43-1.02-.42-1.99.53-.06,1.02.13,1.51.28,2.36.71,4.72,1.4,7.06,2.17.81.27,1.22.15,1.29-.73,1.72-3.36,3.27-6.81,5.24-10.04.28-.47.31-.81-.28-1.21-2.01-1.36-3.96-2.82-5.93-4.24-.52-.37-.96-.79-.59-1.48.48-.89,1.12-.7,1.79-.22,1.94,1.4,3.9,2.78,5.81,4.21.61.46.91.41,1.36-.23,1.53-2.19,3.28-4.22,5.03-6.24.34-.28.77-.59.28-1.03-1.61-1.44-3.07-3.05-4.87-4.26-.02-.6-.11-1.22.58-1.55.72-.34,1.1.24,1.53.62,1.34,1.19,2.65,2.4,3.99,3.59.22.2.39.66.85.24,1.44-1.3,2.91-2.56,4.37-3.84.83-.28.39-.64.07-1.01-1.03-1.18-2.3-2.15-3.04-3.58.41-1.2,1.07-1.37,1.95-.47.91.94,1.81,1.9,2.68,2.87.37.41.65.6,1.15.15.8-.71,1.66-1.34,2.49-2.01,1.05-.47,1.02-.97.15-1.67-.6-.48-1.33-.91-1.5-1.78.46-1.09.97-1.25,1.84-.53.58.48,1.16.97,1.67,1.53.43.46.77.42,1.15,0,.43-.18.61-.46.36-.91-.24-.44-.08-.82.14-1.2.66-.38,1.19-.24,1.67.34.59.71,1.2,1.39,1.83,2.06.38.4.62.82.54,1.39-.42.64-1.05.56-1.68.48h0c0-.15-.09-.23-.24-.24h0c-.09-.39-.26-.71-.74-.71-1.05.29-1.03.73-.21,1.35.57.43,1.07.96,1.61,1.42.62.52.78,1.08.27,1.76-.6.39-1.08.22-1.57-.26-.7-.69-1.47-1.31-2.19-1.99-.42-.4-.78-.58-1.03.14-1.47.59-2.49,1.81-3.82,2.68,1.35,1.45,2.64,2.85,3.96,4.23.41.43.7.86.62,1.47-.09.15-.19.29-.28.44-.64.54-1.16.28-1.65-.24-1.2-1.28-2.44-2.53-3.59-3.86-.54-.63-.97-.53-1.48-.11-1.26,1.04-2.51,2.1-3.78,3.13-.5.4-.47.67,0,1.09,1.27,1.1,2.49,2.25,3.74,3.37.58.52,1.06,1.04.39,1.81-.73.83-1.28.2-1.81-.26-1.14-1-2.32-1.97-3.34-3.08-.76-.83-1.25-.63-1.87.07-1.64,1.86-3.18,3.79-4.69,5.75-.45.58-.42.88.21,1.3,1.72,1.16,3.37,2.42,5.07,3.61.57.4.92.87.82,1.59,0,0,0,0,0,0-.39.18-.68.58-1.16.55-1.94-1.37-3.91-2.69-5.8-4.12-.74-.56-1.01-.32-1.25.38-1.47,2.22-2.62,4.62-3.77,7.01-.37.77-.89,1.5-.94,2.41-.44.44-.78.89.12,1.16,2.01.61,4.02,1.19,6.03,1.78.53.33,1.22.61.88,1.43-.35.84-1.01.68-1.71.45-1.93-.62-3.89-1.15-5.81-1.8-.7-.23-.98-.11-1.23.57-.88,2.35-1.68,4.72-2.25,7.16-.55,1.1-.13,1.55,1.02,1.74,1.51.26,3,.68,4.49,1.03.59.28,1.05.69.73,1.39-.29.66-.85.67-1.51.49-1.56-.43-3.15-.78-4.73-1.17-.41-.1-.76-.22-.87.41-.42,2.54-.97,5.06-1.15,7.64.18.57-.68,1.55.59,1.68,1.22.13,2.44.4,3.68.27.68.17,1.42.34,1.22,1.27-.19.9-.89.83-1.61.73-1.11-.15-2.22-.21-3.33-.34-.65-.08-.91.14-.95.81-.09,1.48-.17,2.95-.06,4.42-.14.58.1.77.67.76,1.02-.01,2.04.03,3.07.04.34.39.71.78.43,1.36-.28.58-.81.55-1.33.55-.72-.01-1.43,0-2.15-.02-.37,0-.65.08-.59.52.16,1.25-.1,2.55.32,3.78,0,.35-.09.78.47.73.49-.05.81.24,1.16.48.09.53.15,1.18-.43,1.34-1.02.29-.78.87-.57,1.54.17.56.2,1.16.53,1.67.13.99.58,1.88.97,3.05,1.52-2.17,3.49-3.63,5.36-5.19,2.36-1.97,5.17-3.12,8.05-4.01,1.17-.36,1.34-.83,1.04-1.8.03-.27.05-.54.09-.81.13-.94.06-1.55-1.23-1.42-.97.1-1.24-.67-.74-1.74.48-.15.95-.32,1.47-.28.51.04.7-.21.66-.69.2-1,.77-2.14.47-2.96-.22-.62-1.63-.39-2.52-.52-.08-.01-.15-.03-.23-.05-1.17-.26-1.34-.6-.84-1.75,1.13-.56,2.24,0,3.33.13.78.1,1.01-.11,1.01-.81.6-1.88,1.18-3.76,1.8-5.63.18-.54-.08-.7-.51-.83-1.17-.35-2.35-.69-3.52-1.07-1.17-.39-1.27-1.09-.29-1.94,1.42.02,2.7.6,3.99,1.05,1.02.35,1.48.11,1.63-.91.78-1.69,1.53-3.4,2.35-5.06.32-.65.17-.87-.48-1.08-1.36-.43-2.7-.93-4.03-1.44-1.25-.48-1.33-1.14-.27-2.06,1.64.29,3.17.95,4.69,1.58,1.12.46,1.69.23,1.98-.89,1.27-2.16,2.55-4.32,3.82-6.48.3-.29.57-.55.01-.9-1.98-1.23-3.94-2.49-5.91-3.74-.35-.54-.54-1.08.05-1.59.56-.47,1.03-.14,1.51.17,1.27.82,2.54,1.64,3.8,2.46,2.1,1.35,2.09,1.34,3.65-.57,1.35-1.66,2.74-3.29,4.11-4.94.42-.24.92-.45.32-1.02-1.82-1.72-3.47-3.61-5.39-5.23-.15-.61-.22-1.21.47-1.55.65-.32,1.04.15,1.44.54,1.56,1.54,3.15,3.06,4.67,4.64.52.54.81.51,1.34.02,1.25-1.17,2.57-2.27,3.86-3.39,1.16-.49,1.09-1.07.32-1.97-1.37-1.61-2.61-3.32-3.9-4.99.02-.56.18-1.03.79-1.19.61-.15.95.23,1.29.66,1.24,1.62,2.52,3.2,3.73,4.84.43.58.76.64,1.35.22,1.72-1.23,3.61-2.19,5.52-3.11.7-.14.63-.51.33-1.01-.77-1.29-1.5-2.61-2.25-3.91-.26-.45-.56-.88-.39-1.44.96-.83,1.4-.77,2.03.31.82,1.41,1.61,2.83,2.42,4.25.18.32.26.71.85.44,1.22-.55,2.5-.98,3.76-1.46,1.04.05,1.14-.4.81-1.3-.35-.95-.86-1.87-.81-2.94,1.3-.76,1.64-.63,2.14.8.23.67.5,1.33.69,2.02.15.55.41.8,1.01.69.3-.05.62.03.93.05.17.31.34.61.51.92-.12.2-.2.55-.36.59-1.56.39-.84,1.34-.57,2.18.11.34.25.66.36,1,.42,1.27.25,1.56-1.09,1.87-.99-.84-1.06-2.11-1.44-3.21-.3-.88-.67-1.13-1.48-.69-1.03.17-1.97.62-2.95.93-.82.26-1.07.57-.51,1.41.83,1.26,1.51,2.62,2.26,3.93.34.59.41,1.14-.25,1.55-.62.38-1.07.02-1.43-.44-.27-.34-.49-.72-.71-1.1-.64-1.1-1.29-2.2-1.88-3.32-.26-.48-.52-.64-1.03-.39-2.07,1.01-4.12,2.05-6.01,3.47,1.77,2.27,3.49,4.5,5.25,6.72.42.53.7,1.06.44,1.74-.06.06-.13.13-.19.19-.44.14-.88.17-1.32-.01-1.78-2.31-3.56-4.61-5.33-6.92-.5-.64-.89-.54-1.24.13-1.66.78-2.77,2.24-4.19,3.33-.58.44-.48.71,0,1.16,1.93,1.85,3.82,3.75,5.73,5.62.43.43.91.83.63,1.54-.27.69-.89.54-1.44.57-2-2.28-4.27-4.3-6.4-6.44-.66-.66-.94-.03-1.27.4-1.83,1.73-3.37,3.72-4.94,5.69-.37.46-.33.69.17,1,1.69,1.05,3.36,2.15,5.03,3.23,1.11.71,2.21,1.44,3.31,2.15.52.33.67.81.44,1.34-.26.6-.82.6-1.34.42-.41-.14-.79-.38-1.15-.62-2.42-1.55-4.84-3.09-7.23-4.68-.6-.4-1-.38-1.37.2-1.26,1.98-2.56,3.94-3.48,6.11-.71.69-.67,1.17.36,1.45.54.14,1.04.39,1.57.56,2.3.74,4.5,1.79,6.86,2.33.65.39,1.23.83,1.05,1.73-.08.1-.16.2-.25.3-.6.22-1.16.08-1.74-.13-2.91-1.06-5.83-2.09-8.73-3.16-.46-.17-.76-.26-1.02.31-.77,1.74-1.7,3.41-2.3,5.23-.68.94-.29,1.32.7,1.61,2.19.63,4.35,1.36,6.52,2.05.25.43.43.86.05,1.32-.41.49-.93.4-1.43.25-2.09-.63-4.2-1.24-6.26-1.95-.7-.24-.92-.04-1.09.55-.46,1.6-.94,3.21-1.41,4.81-.61,1.1.07,1.29.95,1.4,1.96.25,3.91.52,5.86.78.36.31.55.7.54,1.18ZM116.81,178.99h.01c-.14-.43-.59-.49-.92-.67-3.2-1.72-6.21-3.72-9.21-5.77-6.51-4.45-12.36-9.56-17.1-15.9-1.91-2.55-3.52-5.29-5.36-7.88-.03-.08-.02-.23-.17-.15-.02.01.03.18.05.27.1,2.35.53,4.66.95,6.97,1.07,5.94,2.32,11.86,3.2,17.83.97,6.53,2.67,12.82,5.29,18.87,1.11,2.56,2.26,5.12,4.15,7.21,3.42,3.78,7.83,5.25,12.83,5.33,2.55.04,4.42,1.32,5.69,3.53.37.64.8,1.25,1.57,1.57,2.53,1.05,4.65.04,5.42-2.71.62-2.17.07-4.25-.59-6.31-.72-2.25-.63-4.45.4-6.61.85-1.77,1.99-3.35,3.16-4.92.22-.3.41-.53.42-.92.02-1.76.05-3.51.09-5.26.01-.45.03-.87-.55-1.02-3.23-.86-6.28-2.19-9.36-3.46ZM126.53,163.29c-1.04.93-1.97,1.74-2.87,2.58-.57.53-1.16.77-1.77.14-.61-.63-.22-1.15.29-1.63,1.28-1.2,2.55-2.42,3.84-3.6.48-.44.69-.91.69-1.57.01-11.22-.07-22.45.15-33.67.01-.59-.13-1.04-.57-1.48-2.98-2.95-6.69-4.55-10.56-5.87-.54-.19-.8,0-.83.61-.04.75-.12,1.51-.28,2.25-.14.65-.3,1.47-1.22,1.33-1.01-.15-1.07-.99-.86-1.77.23-.87.15-1.74.19-2.62.02-.46-.16-.73-.65-.84-3.04-.65-5.92-1.88-8.97-2.52-.73-.15-.92.04-1.22.66-1.17,2.5-2.52,4.9-4.54,6.84-.48.46-1.02.71-1.56.15-.51-.52-.4-1.06.09-1.58,1.61-1.69,2.74-3.7,3.86-5.74.56-1.03.2-1.2-.69-1.39-4.13-.88-8.26-1.77-12.11-3.56-.67-.31-.93.01-1.29.56-2.62,3.97-5.28,7.93-9.82,10.02-.56.26-.46.58-.32,1.06.84,2.74,1.66,5.49,2.45,8.24.15.52.32.74.9.62,2.93-.59,5.88-1.08,8.49-2.68.54-.33,1.09-.23,1.48.31.43.6.1,1.06-.36,1.44-.24.2-.53.35-.81.5-2.49,1.36-5.21,1.95-7.98,2.32-.82.11-.94.28-.68,1.04,2.02,6.02,5.18,11.47,8.55,16.8.29.46.57.48.97.21,4.37-2.93,8.82-5.75,12.74-9.29,4.63-4.17,7.82-9.31,9.97-15.13.23-.64.57-1.13,1.29-.92.77.22.89.9.69,1.56-.24.8-.59,1.56-.91,2.34-2.34,5.72-5.92,10.58-10.59,14.59-3.6,3.09-7.56,5.72-11.57,8.27-.89.57-.85.97-.32,1.75,2.44,3.52,5.28,6.71,8.31,9.72,3.39,3.36,7.45,5.87,11.26,8.69,1.65,1.22,1.64,1.2,3.32.13.7-.45,1.49-1.35,2.26-.31.74,1.02-.33,1.57-.95,2.11-.53.45-.69.65.03,1.08,3.64,2.18,7.45,3.96,11.52,5.23,1.14.35,1.27,0,1.27-.99-.03-4.39-.02-8.79,0-13.18,0-.91-.08-1.8-.3-2.79ZM65.35,121c.5-.06,1.09-.14,1.68-.21,5.19-.62,9.84-2.1,13.44-6.35,3.95-4.65,6.17-9.68,5.45-15.84-.48-4.08-2.29-7.62-5.06-10.48-3.48-3.59-7.95-5.58-12.93-6.11-1.4-.15-2.89-.35-4.27-.12-3.39.56-6.44,2.03-9.19,4.1-3.94,2.97-6.85,6.76-8.92,11.21-.63,1.36-1.08,2.81-.86,4.29.53,3.5,1.16,6.99,2.56,10.28.47,1.1.98,2.19,1.9,3.01,4.58,4.1,10.14,5.67,16.2,6.21ZM75.78,129.59c-2.47.1-2.93,1.68-2.87,3.66.01.47-.15.95-.19,1.42-.61,7.73-.64,15.48-.9,23.22-.19,5.74-.02,11.5.23,17.25.1,2.35-.17,4.78,1.1,7.05,1.4,2.5,4.13,4.94,7.51,4.4,2.96-.47,4.95-2.22,6.62-4.51.36-.5.34-1.03.22-1.6-.25-1.13-.5-2.25-.7-3.38-.78-4.46-1.52-8.94-2.33-13.39-.81-4.46-1.85-8.88-2.26-13.4-.36-3.93-.93-7.79-3.13-11.21-.28-.43-.41-.95-.61-1.42-1.16-2.65-2.04-5.39-2.7-8.07ZM99.83,111.71c1.29.41,2.48.77,3.64.97,1.76.3,3.35,1.21,5.36.72,5.71-1.38,11.35-3.11,17.19-3.94.6-.09.87-.38.84-1.04-.07-1.43-.15-2.87-.08-4.31.11-2.13.17-2.06-1.95-1.73-4.29.66-8.47,1.81-12.71,2.7-1.79.37-3.74.43-5.3,1.32-2.5,1.43-4.64,3.44-6.99,5.31ZM73.56,186.15c.85,3.25,2.16,6.04,4.54,8.24.36.33.79.53,1.24.68,2.5.85,5.61.02,7.39-2.05,1.91-2.21,3.24-6.07,1.52-8.87-4.03,5-10.27,5.89-14.7,1.99ZM126.84,121.76c0-3.29-.04-6.28.02-9.28.02-1.01-.26-1.16-1.22-1.02-4.02.59-7.89,1.87-11.85,2.71-.85.18-1.74.28-2.64.74,5.67,1.28,10.95,3.16,15.69,6.84ZM110.89,103.16c.61.19,1.02-.07,1.43-.16,4.53-.99,9.03-2.14,13.63-2.79.42-.06.87-.02.87-.7-.03-2.77-.01-5.54-.01-8.55-5.4,4.14-10.62,8.14-15.91,12.2ZM101.94,107.52c-.03-.07-.06-.14-.1-.21-3.53.67-7.05,1.34-10.58,2.01,1.83,1.01,3.81,1.3,5.74,1.79.13.03.32-.05.43-.13,1.5-1.14,3-2.3,4.5-3.45ZM73.49,128.3c.6-.58,1.7-.34,1.59-1.24-.14-1.06-.46-2.13-1.06-3.21-.18,1.49-.34,2.83-.53,4.45Z"/>
      <path class="cls-2" d="M37.04,75c-.17,1,.33,1.4,1.27,1.39,1.48,0,2.95.03,4.43,0,.56-.01.77.14.78.73.01.96.1,1.91.19,2.87.1,1.09.2,2.11-1.39,2.13-.53,0-.81.5-.72,1.05.1.57.47,1.07,1.05.89,1.69-.54,1.87.52,2.05,1.73.08.54.27,1.07.41,1.61-2.03-.07-3.54-1.1-4.76-2.62-1.67-2.08-2.81-4.45-3.72-6.93-1.34-3.66-2.94-7.27-3.43-11.18-.74-6-.31-11.92,1.27-17.78,2.72-10.09,8.02-18.7,14.9-26.44,6.86-7.72,15.21-13.19,24.9-16.65,3.33-1.19,6.83-1.39,10.28-.97,2.81.34,4.44,2.94,2.6,5.79-.22.34-.4.71-.68.98-3.34,3.21-6.26,6.81-9.42,10.19.07-.61-.22-1.04-.62-1.47-1.32-1.38-2.61-2.78-3.96-4.23,1.33-.86,2.35-2.09,3.82-2.68.62,1.38,2.02,1.94,3.07,2.85.95.82,1.46.55,1.72-.75.51-.68.35-1.24-.27-1.76-.55-.46-1.05-.99-1.61-1.42-.82-.62-.84-1.06.21-1.35.08.41.28.69.74.71,0,0,0,0,0,0,0,.15.09.23.24.24,0,0,0,0,0,0,0,.44.4.54.64.77.48.45,1.02.69,1.51.06.5-.63-.02-.98-.48-1.31.08-.56-.16-.99-.54-1.39-.63-.67-1.24-1.35-1.83-2.06-.48-.58-1.01-.73-1.67-.34-.42-.28-.84-.29-1.13.14-.24.36-.15.75.14,1.08.23.26.56.46.49.89-.39.41-.73.45-1.15,0-.51-.55-1.09-1.04-1.67-1.53-.86-.72-1.37-.57-1.84.53-1.22.26-1.39.69-.57,1.58.6.66,1.28,1.24,1.93,1.86-.83.66-1.7,1.3-2.49,2.01-.51.45-.79.26-1.15-.15-.88-.97-1.77-1.93-2.68-2.87-.87-.9-1.53-.73-1.95.47-.45.34-.61.8-.22,1.23,1.04,1.14,1.89,2.46,3.19,3.36-1.46,1.28-2.93,2.55-4.37,3.84-.46.42-.63-.04-.85-.24-1.34-1.19-2.65-2.4-3.99-3.59-.43-.38-.8-.96-1.53-.62-.69.32-.6.95-.58,1.55-.53.91.35,1.23.76,1.67,1.2,1.29,2.79,2.15,3.83,3.62-1.76,2.02-3.5,4.04-5.03,6.24-.45.64-.75.69-1.36.23-1.92-1.43-3.87-2.81-5.81-4.21-.67-.48-1.31-.67-1.79.22-.37.7.06,1.11.59,1.48,1.98,1.42,3.92,2.88,5.93,4.24.59.4.56.74.28,1.21-1.97,3.23-3.52,6.68-5.24,10.04-2.9-.93-5.8-1.89-8.72-2.79-.9-.28-1.08.38-1.14,1.08-1.01.97-.9,1.57.42,1.99,2.45.78,4.91,1.57,7.38,2.27.78.22.93.46.6,1.22-1.04,2.4-1.65,4.95-2.43,7.45-2.25-.65-4.51-1.29-6.76-1.95-.84-.25-1.67-.5-2.57-.46-.91.04-1.15.42-.71,1.23-1.01,1.05-.85,1.71.56,2.06,2.62.66,5.23,1.35,7.87,1.9.96.2,1,.64.84,1.4-.53,2.49-.92,5-1.19,7.54-1.83.11-3.64-.14-5.45-.37-.91-.11-1.83-.18-2.73.02-.92.21-1,.61-.35,1.35-.41,1.13-.18,1.56.95,1.69,2.13.23,4.26.46,6.39.64.63.05.88.2.83.9-.1,1.38-.08,2.78-.11,4.17-1.84-.32-3.64.05-5.45.21-1.23.11-1.31.61-.92,1.53ZM82.83,6.92c-.86-.05-.95.51-.67,1.07.31.62.74,1.23,1.25,1.7.52.48,1.16.65,1.29-.41.74-.86.7-1.55-.12-2.45-.63-.68-1.19-.37-1.74.09Z"/>
      <path class="cls-2" d="M104.86,19.38c-1.26.48-2.53.91-3.76,1.46-.6.27-.67-.12-.85-.44-.81-1.42-1.6-2.84-2.42-4.25-.63-1.08-1.07-1.14-2.03-.31-1.13.2-1.35.55-.76,1.46.73,1.14,1.56,2.22,2.31,3.34.32.48.87.87.76,1.56-1.9.92-3.79,1.88-5.52,3.11-.59.42-.92.36-1.35-.22-1.21-1.64-2.49-3.22-3.73-4.84-.33-.43-.68-.81-1.29-.66-.61.15-.77.63-.79,1.19-1.25.36-.77,1.08-.31,1.72,1.28,1.76,2.59,3.5,3.89,5.25-1.29,1.13-2.61,2.22-3.86,3.39-.53.49-.82.52-1.34-.02-1.52-1.58-3.1-3.1-4.67-4.64-.4-.39-.78-.86-1.44-.54-.69.34-.62.94-.47,1.55-.52.46-.2.87.11,1.22,1.55,1.78,3.16,3.51,4.97,5.03-1.37,1.64-2.75,3.28-4.11,4.94-1.56,1.91-1.55,1.92-3.65.57-1.27-.82-2.54-1.64-3.8-2.46-.48-.31-.95-.64-1.51-.17-.6.51-.4,1.05-.05,1.59-.22.51.08.76.44,1.08,1.65,1.45,3.67,2.33,5.45,3.56-1.27,2.16-2.55,4.32-3.82,6.48-1.77-.57-3.54-1.15-5.31-1.71-1.18-.38-1.38-.22-1.36,1.03-1.06.92-.98,1.58.27,2.06,1.33.51,2.67,1.01,4.03,1.44.65.21.8.42.48,1.08-.83,1.67-1.57,3.37-2.35,5.06-1.48-.47-2.96-.93-4.44-1.4-.43-.14-.89-.31-1.24.04-.37.37-.11.82.05,1.23-.98.85-.89,1.55.29,1.94,1.16.39,2.34.72,3.52,1.07.43.13.68.29.51.83-.62,1.87-1.2,3.76-1.8,5.63-1.04-.13-2.1-.22-3.13-.42-.98-.19-1.33.16-1.21,1.1-.5,1.15-.33,1.49.84,1.75.08.02.15.04.23.05.89.12,2.3-.1,2.52.52.29.83-.28,1.96-.47,2.96-.43-.01-.85-.03-1.28-.04-.71-.02-.99.32-.86,1.02-.5,1.07-.23,1.84.74,1.74,1.29-.14,1.36.48,1.23,1.42-.04.27-.06.54-.09.81-2.24-.14-3.42-1.61-4.1-3.5-1.1-3.08-1.33-6.31-1.15-9.55.31-5.66,1.53-11.13,3.79-16.33,3.44-7.91,7.48-15.45,13.65-21.64,5.12-5.14,10.88-9.34,17.57-12.23,3.32-1.43,6.59-2.86,10.31-2.61,3.52.24,6.94.98,10.27,2.11,2.69.91,4.2,2.94,4.04,5.16-.15,2.1-1.66,3.26-3.23,4.19-4.6,2.72-8.76,5.96-12.49,9.79-.71.73-1.43,1.48-2.37,1.94.26-.68-.02-1.21-.44-1.74-1.76-2.22-3.48-4.45-5.25-6.72,1.89-1.42,3.95-2.45,6.01-3.47.51-.25.77-.09,1.03.39.59,1.12,1.24,2.22,1.88,3.32.22.38.44.76.71,1.1.36.47.81.82,1.43.44.65-.4.59-.95.25-1.55-.75-1.31-1.43-2.67-2.26-3.93-.56-.84-.3-1.15.51-1.41.98-.32,1.92-.76,2.95-.93.2,1.4,1,2.55,1.63,3.76.28.53.79.81,1.29.14,1.34-.31,1.51-.6,1.09-1.87-.11-.34-.25-.66-.36-1-.28-.84-.99-1.79.57-2.18.16-.04.24-.39.36-.59.12.24.22.48.35.72.48.91.92.91,1.56,0,1.1-.48.72-1.37.55-2.16-.18-.84-.86-.81-1.53-.72-.17-.47-.52-.58-.95-.45-.41.13-.49.47-.49.86,0,.28,0,.55,0,.83-.31-.02-.64-.11-.93-.05-.6.11-.86-.14-1.01-.69-.19-.68-.45-1.34-.69-2.02-.5-1.43-.83-1.55-2.14-.8-.22-.51-.55-.34-.85-.11-.34.26-.3.59-.18.96.36,1.13.86,2.21,1.03,3.39Z"/>
      <path class="cls-2" d="M45.89,64.87c.18-2.58.73-5.1,1.15-7.64.11-.63.46-.51.87-.41,1.58.39,3.16.74,4.73,1.17.66.18,1.22.17,1.51-.49.31-.7-.14-1.11-.73-1.39.23-1.3-.05-1.61-1.31-1.78-1.43-.19-2.94-.08-4.19-.99.57-2.44,1.38-4.81,2.25-7.16.25-.67.53-.8,1.23-.57,1.92.65,3.88,1.18,5.81,1.8.71.23,1.36.39,1.71-.45.34-.82-.36-1.1-.88-1.43.51-.71.25-1.23-.48-1.46-1.87-.59-3.72-1.25-5.68-1.48.05-.91.57-1.63.94-2.41,1.15-2.39,2.29-4.79,3.77-7.01.21.1.44.19.63.32,1.57,1.06,3.11,2.15,4.71,3.17.48.31,1.01,1.09,1.71.26.49.02.77-.37,1.16-.55.15.36-.08.62-.27.86-2.7,3.58-4.36,7.68-5.86,11.84-1.87,5.16-3.89,10.29-5.01,15.68-.94,4.52-1.73,9.06-3.02,13.5-.54,1.87-1.22,3.7-1.89,5.53-.37,1.01-.93,1.94-1.72,2.71-.33-.51-.36-1.11-.53-1.67-.21-.67-.46-1.25.57-1.54.58-.16.51-.82.43-1.34.46-.3.41-.72.18-1.11-.23-.39-.66-.36-1.04-.3-.26.04-.52.13-.78.2-.43-1.23-.17-2.52-.32-3.78-.06-.44.22-.53.59-.52.72.01,1.43,0,2.15.02.52,0,1.05.03,1.33-.55.29-.59-.09-.97-.43-1.36.06-.59-.34-.67-.79-.82-1-.34-1.96.08-2.94.01-.11-1.48-.03-2.95.06-4.42.04-.68.29-.89.95-.81,1.11.14,2.23.2,3.33.34.72.1,1.43.17,1.61-.73.19-.93-.54-1.11-1.22-1.27.5-1.23.29-1.6-.96-1.7-1.1-.09-2.2-.17-3.31-.25Z"/>
      <path class="cls-2" d="M91.41,41.45c.54-.03,1.17.12,1.44-.57.28-.71-.2-1.11-.63-1.54-1.91-1.87-3.8-3.77-5.73-5.62-.47-.45-.58-.72,0-1.16,1.42-1.08,2.53-2.54,4.19-3.33-.06.32.14.55.32.74,1.74,1.91,3.57,3.75,5.18,5.78.28.35.65.45,1.07.27.44.18.88.16,1.32.01-1.23,1.44-2.54,2.82-3.67,4.33-3.75,5.03-7.44,10.11-11.16,15.17-.21.28-.46.53-.69.8.19-.9-.39-1.34-1.05-1.73.5-.65-.03-.91-.47-1.12-2.69-1.28-5.52-2.23-8.32-3.23.92-2.17,2.22-4.13,3.48-6.11.37-.59.77-.61,1.37-.2,2.39,1.59,4.81,3.13,7.23,4.68.37.24.75.47,1.15.62.52.18,1.07.18,1.34-.42.24-.54.09-1.01-.44-1.34-1.11-.71-2.21-1.43-3.31-2.15-1.67-1.08-3.34-2.18-5.03-3.23-.51-.31-.54-.54-.17-1,1.57-1.96,3.1-3.95,4.94-5.69,2.03,1.89,4.28,3.54,6.19,5.57.37.39.77,1.02,1.48.47Z"/>
      <path class="cls-2" d="M64.79,36.36c.1-.72-.25-1.19-.82-1.59-1.7-1.19-3.35-2.44-5.07-3.61-.62-.42-.65-.72-.21-1.3,1.5-1.97,3.05-3.9,4.69-5.75.62-.7,1.11-.9,1.87-.07,1.02,1.11,2.21,2.08,3.34,3.08.53.47,1.09,1.09,1.81.26.67-.77.19-1.29-.39-1.81-1.25-1.12-2.47-2.27-3.74-3.37-.48-.41-.5-.69,0-1.09,1.27-1.03,2.52-2.09,3.78-3.13.52-.42.95-.52,1.48.11,1.14,1.33,2.39,2.58,3.59,3.86.49.53,1.01.78,1.65.24.06.29.02.57-.21.77-4.39,3.68-7.88,8.14-11.09,12.83-.16.24-.24.63-.68.55Z"/>
      <path class="cls-2" d="M73.43,70.91c.01-.48-.18-.87-.53-1.18.15-.9-.3-1.29-1.13-1.49-1.87-.45-3.77-.57-5.68-.69.47-1.6.94-3.2,1.41-4.81.17-.59.4-.79,1.09-.55,2.07.71,4.17,1.32,6.26,1.95.5.15,1.03.24,1.43-.25.38-.46.19-.89-.05-1.32.22-.77-.1-1.15-.85-1.4-2.14-.72-4.26-1.5-6.38-2.26.6-1.82,1.53-3.49,2.3-5.23.25-.58.56-.48,1.02-.31,2.91,1.07,5.82,2.1,8.73,3.16.58.21,1.14.35,1.74.13-.51,1.43-1.47,2.61-2.28,3.86-2.09,3.22-3.84,6.68-6.34,9.63-.23.27-.49.52-.73.77Z"/>
      <path class="cls-2" d="M64.82,73.51c.35-2.92.35-2.9,3.14-2.47,1.6.24,3.22.4,4.83.59-1.89,3.22-4.52,5.5-8.21,6.44-.01-.4,0-.79-.05-1.19-.06-.58.18-.79.74-.73.77.08,1.43-.09,1.7-.94.46-.09.91-.29.83-.81-.09-.55-.58-.69-1.11-.67-.64.02-1.27.01-1.88-.22Z"/>
      <path class="cls-4" d="M126.53,163.29c.22.99.31,1.88.3,2.79-.02,4.39-.03,8.79,0,13.18,0,1-.13,1.35-1.27.99-4.06-1.27-7.87-3.05-11.52-5.23-.72-.43-.56-.63-.03-1.08.62-.53,1.7-1.09.95-2.11-.76-1.04-1.56-.14-2.26.31-1.67,1.07-1.67,1.08-3.32-.13-3.81-2.82-7.87-5.33-11.26-8.69-3.03-3.01-5.87-6.19-8.31-9.72-.54-.77-.58-1.18.32-1.75,4-2.55,7.96-5.18,11.57-8.27,4.67-4.01,8.24-8.87,10.59-14.59.32-.77.67-1.54.91-2.34.2-.66.08-1.34-.69-1.56-.72-.21-1.05.29-1.29.92-2.14,5.82-5.33,10.96-9.97,15.13-3.92,3.53-8.37,6.36-12.74,9.29-.41.27-.68.25-.97-.21-3.38-5.33-6.53-10.77-8.55-16.8-.25-.76-.14-.93.68-1.04,2.77-.37,5.49-.97,7.98-2.32.28-.15.57-.3.81-.5.46-.38.79-.84.36-1.44-.39-.54-.93-.65-1.48-.31-2.61,1.6-5.56,2.09-8.49,2.68-.59.12-.75-.1-.9-.62-.79-2.75-1.6-5.5-2.45-8.24-.15-.47-.24-.8.32-1.06,4.54-2.09,7.19-6.05,9.82-10.02.36-.54.62-.87,1.29-.56,3.86,1.8,7.99,2.68,12.11,3.56.89.19,1.25.37.69,1.39-1.12,2.03-2.24,4.05-3.86,5.74-.49.52-.6,1.06-.09,1.58.54.56,1.09.31,1.56-.15,2.02-1.94,3.37-4.34,4.54-6.84.29-.62.49-.82,1.22-.66,3.05.64,5.93,1.87,8.97,2.52.49.11.67.38.65.84-.04.87.04,1.74-.19,2.62-.21.78-.15,1.62.86,1.77.92.14,1.08-.68,1.22-1.33.16-.74.24-1.49.28-2.25.03-.61.29-.8.83-.61,3.87,1.33,7.59,2.93,10.56,5.87.44.44.58.89.57,1.48-.21,11.22-.13,22.44-.15,33.67,0,.65-.21,1.13-.69,1.57-1.3,1.18-2.56,2.4-3.84,3.6-.51.48-.91,1-.29,1.63.61.63,1.2.39,1.77-.14.91-.84,1.84-1.65,2.87-2.58ZM93.11,125.63c-.02-.66-.45-1-.99-1.02-.67-.02-1.14.43-1.2,1.09-.06.65.36,1.07,1.02,1.05.69-.02,1.06-.47,1.16-1.12ZM117.81,170.68c.73-.01,1.14-.45,1.14-1.12,0-.59-.45-.92-1.05-.9-.7.02-1.11.41-1.11,1.13,0,.68.43.88,1.02.89Z"/>
      <path class="cls-6" d="M84.24,148.78c1.84,2.59,3.45,5.34,5.36,7.88,4.74,6.34,10.6,11.45,17.1,15.9,3,2.05,6.01,4.05,9.21,5.77.33.18.77.24.92.68-.49.45-.71-.13-.95-.31-2.62-1.83-5.4-1.97-8.26-.73-4.58,1.99-7.79,8.77-6.51,13.58,1.07,4.03,3.73,5.87,8.47,5.65,4.33-.2,7.65-2.33,9.32-6.24,1.67-3.9,1.26-7.81-1.73-11.16-.18-.2-.73-.33-.36-.81,3.08,1.27,6.13,2.6,9.36,3.46.58.15.56.57.55,1.02-.04,1.75-.08,3.51-.09,5.26,0,.39-.19.62-.42.92-1.16,1.56-2.31,3.14-3.16,4.92-1.04,2.16-1.12,4.36-.4,6.61.66,2.06,1.2,4.14.59,6.31-.78,2.74-2.89,3.76-5.42,2.71-.78-.32-1.21-.93-1.57-1.57-1.28-2.21-3.14-3.49-5.69-3.53-5-.08-9.41-1.55-12.83-5.33-1.89-2.09-3.04-4.65-4.15-7.21-2.62-6.05-4.33-12.33-5.29-18.87-.88-5.97-2.13-11.89-3.2-17.83-.41-2.31-.84-4.62-.95-6.97.04-.04.08-.08.12-.12Z"/>
      <path class="cls-4" d="M65.35,121c-6.06-.55-11.62-2.12-16.2-6.21-.92-.82-1.43-1.91-1.9-3.01-1.4-3.29-2.03-6.78-2.56-10.28-.22-1.48.23-2.93.86-4.29,2.07-4.46,4.98-8.24,8.92-11.21,2.75-2.07,5.8-3.54,9.19-4.1,1.38-.23,2.88-.03,4.27.12,4.99.53,9.45,2.52,12.93,6.11,2.77,2.86,4.58,6.4,5.06,10.48.73,6.16-1.5,11.19-5.45,15.84-3.61,4.25-8.26,5.73-13.44,6.35-.59.07-1.18.15-1.68.21ZM70.52,115.23c.7.1,1.35-.15,2.01-.27,3.92-.72,6.6-4.44,5.45-7.8-.45-1.29-.21-2.01.69-2.83.77-.7,1.39-1.55,1.65-2.59.16-.62-.06-1.14-.7-1.33-.5-.15-.93-.01-1.16.55-.84,2.11-2.34,3.44-4.51,4.25-3.27,1.22-6.32,2.88-8.38,5.88-1,1.47-2.37,2.21-4.13,2.21-.71,0-1.21.28-1.17,1.02.03.66.54.92,1.18.9,1.41-.04,2.79-.22,3.94-1.14.44-.35.74-.45,1.29-.05,1.11.81,2.45,1.09,3.82,1.18ZM71.72,102.77c3.02-.04,5.85-2.42,5.11-5.78-.42-1.89-1.12-3.68-2.09-5.31-1.01-1.7-2.36-3.21-4.14-4.22-1.48-.84-3-1.14-4.48-.01-1.56,1.19-2.4,2.73-2.15,4.75.44,3.45,2.13,6.31,4.39,8.85.91,1.03,2.12,1.68,3.36,1.73ZM63.86,103.3c.16-3.43-2.11-6.02-5.13-8.12-1.13-.78-2.32-1.65-3.82-1.43-2.58.38-4.18,2.42-3.72,5.18.64,3.9,2.33,7.36,5.36,10.01,1.81,1.58,4,1.37,5.67-.34,1.28-1.32,1.63-2.96,1.64-5.3Z"/>
      <path class="cls-6" d="M75.78,129.59c.66,2.68,1.54,5.42,2.7,8.07.21.47.34.99.61,1.42,2.2,3.42,2.77,7.29,3.13,11.21.42,4.53,1.45,8.95,2.26,13.4.81,4.46,1.54,8.93,2.33,13.39.2,1.13.45,2.26.7,3.38.12.57.14,1.1-.22,1.6-1.67,2.29-3.67,4.04-6.62,4.51-3.38.54-6.11-1.9-7.51-4.4-1.27-2.27-1-4.7-1.1-7.05-.25-5.74-.42-11.51-.23-17.25.26-7.74.29-15.49.9-23.22.04-.48.2-.95.19-1.42-.06-1.98.4-3.56,2.87-3.66Z"/>
      <path class="cls-6" d="M99.83,111.71c2.36-1.87,4.49-3.88,6.99-5.31,1.56-.89,3.51-.95,5.3-1.32,4.24-.89,8.42-2.04,12.71-2.7,2.12-.33,2.06-.39,1.95,1.73-.07,1.43,0,2.87.08,4.31.03.66-.23.95-.84,1.04-5.84.84-11.48,2.56-17.19,3.94-2.01.49-3.6-.42-5.36-.72-1.16-.2-2.35-.56-3.64-.97Z"/>
      <path class="cls-2" d="M73.56,186.15c4.43,3.9,10.67,3.01,14.7-1.99,1.71,2.8.38,6.65-1.52,8.87-1.78,2.06-4.88,2.9-7.39,2.05-.46-.16-.88-.35-1.24-.68-2.39-2.2-3.69-4.99-4.54-8.24Z"/>
      <path class="cls-6" d="M126.84,121.76c-4.74-3.68-10.02-5.57-15.69-6.84.9-.46,1.79-.56,2.64-.74,3.96-.84,7.83-2.12,11.85-2.71.96-.14,1.24,0,1.22,1.02-.06,2.99-.02,5.99-.02,9.28Z"/>
      <path class="cls-6" d="M101.94,107.52c-1.5,1.15-2.99,2.31-4.5,3.45-.12.09-.31.17-.43.13-1.93-.49-3.91-.78-5.74-1.79,3.53-.67,7.05-1.34,10.58-2.01.03.07.06.14.1.21Z"/>
      <path class="cls-3" d="M35.8,51.96c-.44-.8-.2-1.18.71-1.23.9-.04,1.73.21,2.57.46,2.25.66,4.51,1.3,6.76,1.95.05.88-.35,1.08-1.18.89-2.95-.69-5.87-1.57-8.87-2.06Z"/>
      <path class="cls-3" d="M73.19,50.26c2.8,1,5.63,1.95,8.32,3.23.45.21.97.47.47,1.12-2.37-.54-4.56-1.59-6.86-2.33-.53-.17-1.04-.41-1.57-.56-1.03-.28-1.07-.76-.36-1.45Z"/>
      <path class="cls-3" d="M39.88,40.21c.07-.7.25-1.36,1.14-1.08,2.91.9,5.81,1.86,8.72,2.79-.07.88-.48,1-1.29.73-2.34-.77-4.7-1.46-7.06-2.17-.49-.15-.98-.33-1.51-.28Z"/>
      <path class="cls-3" d="M35.36,65.86c-.65-.74-.57-1.14.35-1.35.9-.2,1.82-.13,2.73-.02,1.81.23,3.61.48,5.45.37.02,1.02-.2,1.56-1.49,1.31-1.66-.33-3.38-.38-5.07-.51-.66-.05-1.35-.2-1.97.2Z"/>
      <path class="cls-3" d="M89.03,27.75c-1.3-1.75-2.61-3.49-3.89-5.25-.46-.64-.94-1.35.31-1.72,1.29,1.67,2.53,3.39,3.9,4.99.77.9.83,1.48-.32,1.97Z"/>
      <path class="cls-3" d="M66.09,67.55c1.91.12,3.81.24,5.68.69.83.2,1.29.59,1.13,1.49-1.95-.26-3.91-.53-5.86-.78-.88-.11-1.56-.31-.95-1.4Z"/>
      <path class="cls-3" d="M91.41,41.45c-.71.55-1.11-.07-1.48-.47-1.91-2.03-4.16-3.68-6.19-5.57.33-.43.6-1.07,1.27-.4,2.14,2.14,4.4,4.16,6.4,6.44Z"/>
      <path class="cls-3" d="M69,58.9c2.13.76,4.24,1.55,6.38,2.26.75.25,1.07.63.85,1.4-2.17-.69-4.33-1.42-6.52-2.05-.99-.29-1.38-.67-.7-1.61Z"/>
      <path class="cls-3" d="M64.6,48.63c-.01-1.25.18-1.4,1.36-1.03,1.77.56,3.54,1.14,5.31,1.71-.29,1.12-.86,1.36-1.98.89-1.52-.63-3.05-1.29-4.69-1.58Z"/>
      <path class="cls-3" d="M51.87,42.59c1.96.23,3.81.89,5.68,1.48.73.23.99.75.48,1.46-2.01-.59-4.03-1.17-6.03-1.78-.9-.27-.56-.72-.12-1.16Z"/>
      <path class="cls-3" d="M97.24,36.03c-.43.19-.8.08-1.07-.27-1.61-2.03-3.44-3.86-5.18-5.78-.18-.19-.38-.43-.32-.74.34-.68.74-.78,1.24-.13,1.78,2.31,3.56,4.61,5.33,6.92Z"/>
      <path class="cls-3" d="M37.04,75c-.39-.93-.31-1.43.92-1.53,1.82-.16,3.62-.53,5.45-.21.28,1.06-.22,1.3-1.19,1.24-1.27-.08-2.55-.01-3.83-.05-.56-.02-1.02.09-1.36.56Z"/>
      <path class="cls-3" d="M82.33,33.74c-1.81-1.52-3.42-3.24-4.97-5.03-.3-.35-.63-.77-.11-1.22,1.92,1.61,3.58,3.51,5.39,5.23.61.57.11.78-.32,1.02Z"/>
      <path class="cls-3" d="M61.41,58.13c-.16-.41-.42-.86-.05-1.23.35-.35.81-.17,1.24-.04,1.48.47,2.96.94,4.44,1.4-.15,1.01-.61,1.26-1.63.91-1.3-.45-2.58-1.02-3.99-1.05Z"/>
      <path class="cls-3" d="M47.91,53.34c1.26.91,2.77.8,4.19.99,1.26.17,1.54.49,1.31,1.78-1.5-.35-2.98-.77-4.49-1.03-1.15-.2-1.57-.64-1.02-1.74Z"/>
      <path class="cls-3" d="M45.89,64.87c1.1.08,2.2.17,3.31.25,1.26.1,1.47.47.96,1.7-1.24.13-2.46-.14-3.68-.27-1.27-.13-.41-1.11-.59-1.68Z"/>
      <path class="cls-3" d="M63.63,36.91c-.7.83-1.22.05-1.71-.26-1.6-1.02-3.14-2.11-4.71-3.17-.19-.13-.42-.21-.63-.32.24-.7.51-.94,1.25-.38,1.89,1.43,3.86,2.75,5.8,4.12Z"/>
      <path class="cls-3" d="M75.1,42.84c-1.78-1.23-3.8-2.11-5.45-3.56-.36-.32-.66-.57-.44-1.08,1.97,1.25,3.93,2.51,5.91,3.74.55.35.29.6-.01.9Z"/>
      <path class="cls-3" d="M62.18,22.47c-1.04-1.46-2.63-2.33-3.83-3.62-.41-.44-1.3-.76-.76-1.67,1.81,1.21,3.27,2.82,4.87,4.26.49.44.06.75-.28,1.03Z"/>
      <path class="cls-3" d="M98.11,22.2c.1-.69-.44-1.08-.76-1.56-.75-1.13-1.58-2.2-2.31-3.34-.58-.91-.37-1.26.76-1.46-.17.56.13.99.39,1.44.75,1.3,1.48,2.62,2.25,3.91.3.5.38.87-.33,1.01Z"/>
      <path class="cls-3" d="M81.08,15.49c-.26,1.3-.77,1.57-1.72.75-1.06-.91-2.45-1.48-3.07-2.85.25-.72.61-.54,1.03-.14.72.67,1.49,1.3,2.19,1.99.49.48.97.64,1.57.26Z"/>
      <path class="cls-3" d="M108.49,25.25c-.51.68-1.02.4-1.29-.14-.63-1.21-1.43-2.36-1.63-3.76.81-.44,1.18-.19,1.48.69.38,1.1.45,2.37,1.44,3.21Z"/>
      <path class="cls-3" d="M74.21,12.2c-.65-.62-1.33-1.21-1.93-1.86-.82-.89-.64-1.32.57-1.58.17.87.9,1.29,1.5,1.78.87.7.9,1.2-.15,1.67Z"/>
      <path class="cls-3" d="M104.86,19.38c-.17-1.18-.67-2.27-1.03-3.39-.12-.37-.16-.7.18-.96.31-.23.63-.39.85.11-.05,1.06.46,1.99.81,2.94.33.9.23,1.35-.81,1.3Z"/>
      <path class="cls-3" d="M68.9,16.24c-1.3-.89-2.15-2.22-3.19-3.36-.39-.43-.23-.89.22-1.23.74,1.42,2.01,2.4,3.04,3.58.32.37.76.73-.07,1.01Z"/>
      <path class="cls-6" d="M73.49,128.3c.19-1.62.35-2.96.53-4.45.61,1.08.93,2.15,1.06,3.21.12.9-.99.66-1.59,1.24Z"/>
      <path class="cls-3" d="M109.63,18.69c0-.28.01-.55,0-.83,0-.38.08-.73.49-.86.43-.13.78-.01.95.45-.8,1.46-.41,2.6.97,2.87-.64.91-1.08.9-1.56,0-.12-.24-.23-.48-.35-.72-.17-.31-.34-.61-.51-.92Z"/>
      <path class="cls-3" d="M59.58,68.29c-.12-.94.23-1.3,1.21-1.1,1.03.2,2.09.29,3.13.42,0,.69-.23.9-1.01.81-1.1-.13-2.2-.69-3.33-.13Z"/>
      <path class="cls-3" d="M45.44,73.72c.98.07,1.95-.35,2.94-.01.45.15.85.24.79.82-1.02-.02-2.04-.06-3.07-.04-.57,0-.81-.19-.67-.76Z"/>
      <path class="cls-3" d="M82.06,11.43c.46.33.97.68.48,1.31-.49.62-1.03.39-1.51-.06-.24-.23-.65-.33-.64-.77.63.08,1.25.16,1.68-.48Z"/>
      <path class="cls-3" d="M64.82,73.51c.61.23,1.24.24,1.88.22.52-.02,1.02.11,1.11.67.08.52-.37.73-.83.81-.15-.82-.68-1.08-1.45-1-.52.05-.86-.07-.71-.7Z"/>
      <path class="cls-3" d="M45.85,80.72c.26-.07.52-.16.78-.2.39-.06.81-.1,1.04.3.23.39.27.81-.18,1.11-.35-.24-.67-.53-1.16-.48-.57.06-.47-.38-.47-.73Z"/>
      <path class="cls-3" d="M77.51,9.76c.07-.42-.26-.63-.49-.89-.29-.33-.38-.73-.14-1.08.29-.44.71-.43,1.13-.14-.22.38-.39.77-.14,1.2.25.45.07.73-.36.91Z"/>
      <path class="cls-3" d="M60.57,74.55c-.14-.7.15-1.04.86-1.02.43.01.85.03,1.28.04.04.48-.16.73-.66.69-.51-.04-.99.13-1.47.28Z"/>
      <path class="cls-3" d="M80.14,11.67c-.45-.02-.66-.3-.74-.71.47,0,.64.32.74.71Z"/>
      <path class="cls-3" d="M80.38,11.91c-.15,0-.23-.09-.24-.24.15,0,.23.09.24.24Z"/>
      <path class="cls-6" d="M84.12,148.89c-.02-.09-.07-.26-.05-.27.15-.07.14.07.17.15-.04.04-.08.08-.12.12Z"/>
      <path class="cls-1" d="M82.83,6.92c.56-.47,1.12-.78,1.74-.09.83.9.86,1.59.12,2.45-1.25-.13-1.85-.87-1.87-2.36Z"/>
      <path class="cls-3" d="M82.83,6.92c.02,1.48.62,2.23,1.87,2.36-.13,1.06-.77.9-1.29.41-.51-.47-.94-1.08-1.25-1.7-.28-.56-.19-1.11.67-1.07Z"/>
      <path class="cls-1" d="M112.04,20.34c-1.39-.27-1.77-1.41-.97-2.87.67-.09,1.34-.12,1.53.72.17.78.54,1.68-.55,2.16Z"/>
      <path class="cls-1" d="M93.11,125.63c-.1.65-.47,1.1-1.16,1.12-.66.02-1.08-.4-1.02-1.05.06-.66.52-1.11,1.2-1.09.54.02.97.35.99,1.02Z"/>
      <path class="cls-1" d="M117.81,170.68c-.59,0-1.02-.21-1.02-.89,0-.72.41-1.11,1.11-1.13.6-.02,1.05.32,1.05.9,0,.67-.41,1.1-1.14,1.12Z"/>
      <path class="cls-1" d="M116.81,178.99c-.38.48.18.6.36.81,2.99,3.35,3.4,7.26,1.73,11.16-1.68,3.91-5,6.05-9.32,6.24-4.74.21-7.4-1.63-8.47-5.65-1.28-4.81,1.94-11.6,6.51-13.58,2.85-1.24,5.63-1.09,8.26.73.25.17.47.76.95.31,0,0-.01-.01-.01-.01ZM117.8,186.79c.02-3.51-1.63-6-4.58-7.29-2.09-.91-5.5.11-7.41,2.24-1.56,1.75-2.53,3.77-2.87,6.07-.65,4.33,1.49,8.4,7.51,7.37,4.25-.73,7.33-4.12,7.36-8.38Z"/>
      <path class="cls-1" d="M70.52,115.23c-1.37-.09-2.71-.37-3.82-1.18-.55-.4-.85-.31-1.29.05-1.15.92-2.53,1.1-3.94,1.14-.65.02-1.15-.24-1.18-.9-.04-.74.46-1.02,1.17-1.02,1.76,0,3.13-.74,4.13-2.21,2.05-3,5.1-4.66,8.38-5.88,2.17-.81,3.67-2.14,4.51-4.25.23-.57.66-.7,1.16-.55.64.19.85.71.7,1.33-.27,1.04-.88,1.89-1.65,2.59-.91.82-1.14,1.54-.69,2.83,1.16,3.35-1.53,7.08-5.45,7.8-.66.12-1.31.37-2.01.27ZM76.27,108.85c.02-1.46-.45-2.22-1.18-1.94-2.61,1-5.12,2.21-7.04,4.33-.79.87-.69,1.15.43,1.54,2.48.88,4.69.39,6.62-1.38.77-.71,1.12-1.62,1.17-2.55Z"/>
      <path class="cls-1" d="M71.72,102.77c-1.24-.05-2.45-.7-3.36-1.73-2.25-2.54-3.95-5.4-4.39-8.85-.26-2.02.58-3.56,2.15-4.75,1.48-1.13,3-.83,4.48.01,1.78,1.01,3.13,2.52,4.14,4.22.97,1.63,1.67,3.42,2.09,5.31.74,3.36-2.09,5.75-5.11,5.78ZM74.94,97.59c-.66-3.01-2.03-5.99-4.82-8.12-.76-.58-1.65-1.12-2.63-.57-1.04.58-1.67,1.54-1.55,2.76.33,3.5,2.04,6.31,4.59,8.62.9.82,1.99.6,3.01.07.97-.51,1.47-1.3,1.41-2.76Z"/>
      <path class="cls-1" d="M63.86,103.3c-.01,2.34-.36,3.98-1.64,5.3-1.67,1.71-3.85,1.92-5.67.34-3.03-2.64-4.72-6.11-5.36-10.01-.46-2.76,1.14-4.8,3.72-5.18,1.5-.22,2.69.65,3.82,1.43,3.03,2.1,5.29,4.69,5.13,8.12ZM61.92,103.79c.02-3.12-3.2-7.26-6.24-8.01-1-.25-2.07.43-2.41,1.44-.37,1.1-.08,2.12.25,3.15.82,2.57,1.98,4.95,3.99,6.8,1.59,1.45,3.21.99,3.99-1.04.29-.75.43-1.53.42-2.33Z"/>
      <path class="cls-2" d="M117.8,186.79c-.03,4.26-3.11,7.65-7.36,8.38-6.02,1.03-8.16-3.03-7.51-7.37.34-2.29,1.31-4.32,2.87-6.07,1.9-2.13,5.31-3.15,7.41-2.24,2.96,1.29,4.61,3.78,4.58,7.29Z"/>
      <path class="cls-2" d="M76.27,108.85c-.06.93-.4,1.84-1.17,2.55-1.93,1.77-4.14,2.26-6.62,1.38-1.12-.4-1.21-.67-.43-1.54,1.92-2.12,4.43-3.33,7.04-4.33.73-.28,1.2.48,1.18,1.94Z"/>
      <path class="cls-5" d="M74.94,97.59c.06,1.45-.44,2.25-1.41,2.76-1.02.53-2.11.74-3.01-.07-2.55-2.31-4.26-5.12-4.59-8.62-.12-1.22.51-2.18,1.55-2.76.99-.55,1.87,0,2.63.57,2.8,2.13,4.16,5.11,4.82,8.12ZM68.13,93.75c-.07,1.11.57,1.71,1.28,2.26.55.42,1.19.53,1.78.12.61-.43.8-1.07.66-1.8-.13-.66-.53-1.15-.98-1.61-.49-.51-1.04-.95-1.78-.64-.75.32-.99.99-.96,1.68Z"/>
      <path class="cls-5" d="M61.92,103.79c0,.8-.13,1.58-.42,2.33-.78,2.03-2.4,2.5-3.99,1.04-2.01-1.85-3.17-4.23-3.99-6.8-.33-1.03-.61-2.05-.25-3.15.34-1.01,1.41-1.68,2.41-1.44,3.04.75,6.26,4.89,6.24,8.01ZM58.16,103.32c.87,0,1.43-.65,1.18-1.49-.33-1.11-1.17-1.79-2.22-2.14-.76-.26-1.42.34-1.41,1.15,0,1.16,1.31,2.47,2.46,2.48Z"/>
      <path class="cls-1" d="M68.13,93.75c-.03-.68.21-1.36.96-1.68.74-.31,1.29.13,1.78.64.45.47.85.96.98,1.61.14.73-.05,1.37-.66,1.8-.59.41-1.23.3-1.78-.12-.71-.54-1.35-1.14-1.28-2.26Z"/>
      <path class="cls-1" d="M58.16,103.32c-1.15,0-2.45-1.32-2.46-2.48,0-.81.65-1.41,1.41-1.15,1.05.36,1.89,1.03,2.22,2.14.25.83-.3,1.49-1.18,1.49Z"/>
    </g>
  </g>
</svg>