<?xml version="1.0" encoding="UTF-8"?>
<svg id="Calque_2" data-name="Calque 2" xmlns="http://www.w3.org/2000/svg" viewBox="0 0 198.46 150.33">
  <defs>
    <style>
      .cls-1 {
        fill: #110e0f;
      }

      .cls-1, .cls-2, .cls-3, .cls-4, .cls-5, .cls-6 {
        stroke-width: 0px;
      }

      .cls-2 {
        fill: #71568a;
      }

      .cls-3 {
        fill: #8e6757;
      }

      .cls-4 {
        fill: #dac480;
      }

      .cls-5 {
        fill: #fff;
      }

      .cls-6 {
        fill: #a677b1;
      }
    </style>
  </defs>
  <g id="Calque_1-2" data-name="Calque 1">
    <g>
      <path class="cls-1" d="M63.34,12.03s.07.03.07.03c.72,1.05.09,2.08-.09,3.1-.54,2.99-.57,2.98,2.41,3.75.51.37.91.42,1.1-.33.28-1.14.86-2.19,1.02-3.37.36-.3.75-.51,1.23-.51.13.08.25.15.38.23.27.47.33.92.11,1.46-.37.91-.63,1.87-.96,2.8-.19.54-.14.9.5,1.04.34.08.66.26.99.4.63.27,1.07.23,1.34-.55.2-.57.64-1.06,1.37-.68.71.37.76.98.4,1.61-.43.75-.17,1.06.6,1.13.68.67,1.32.58,2.04,0,3.3-2.69,7.2-3.96,11.35-4.05,6.81-.15,12.8,2.15,17.78,6.87,2.91,2.76,4.07,6.31,4.31,10.19.2,3.12-.07,6.2-1.18,9.14,1.56.53,3.06.29,4.6.16,2.91-.25,5.81.29,8.7.57,5.8.56,11.59,1.09,17.42,1.34,7.28.31,14.62.2,21.77,1.91,5.93,1.42,11.5,3.85,16.94,6.57,2.02,1.01,3.71,2.48,5.19,4.18,3.38,3.88,4.64,8.45,4.19,13.51-.05.6.12.85.42,1.18,1.26,1.38,2.45,2.82,3.51,4.38,2.09,3.07,2.39,6.46,2.3,10.05-.13,4.76-2.14,8.49-5.64,11.53-.69.6,0,.68.27.89,3.27,2.4,5.05,5.55,4.96,9.68-.03,1.6,0,3.2,0,4.79,0,2.56.72,4.82,2.53,6.73,1.4,1.47,2.64,3.06,3.07,5.16.78,3.83-2,6.69-5.79,5.9-1.05-.22-2.05-.56-3.07-1.01-.2.41.11.63.25.86.81,1.28,1.48,2.63,2.06,4.02,1.51,3.67-.56,7.53-4.47,8.42-1.5.34-2.93.19-4.33-.38-.59-.24-1.21-.44-1.74-.77-2.48-1.54-5.08-1.5-7.81-.81-2,.51-4.03.96-6.08,1.2-3.74.44-7.14-.88-10.37-2.56-3.12-1.62-5.97-3.67-8.46-6.18-1.22-1.22-2.35-2.5-3.14-4.2-.38.54-.71,1-1.03,1.47-2.86,4.35-7.21,6.93-11.52,9.51-5.41,3.24-11.39,4.54-17.64,4.88-4.78.26-9.43-.15-14.02-1.66-6.46-2.13-9.94-6.67-11.27-13.12-.67-3.25-.24-6.41.89-9.5.12-.34.5-.72-.03-1.15-2.72-2.21-5.4-4.47-8.19-6.78-1.82,5.17-3.6,10.24-5.39,15.31-2.07,5.87-4.17,11.73-6.19,17.62-.35,1.01-.94,1.35-1.9,1.44-2.98.28-5.95.58-8.92.9-.77.08-1.42-.04-1.5-.92-.07-.83.57-1.06,1.25-1.12,2.74-.26,5.48-.53,8.22-.74.64-.05.96-.2,1.19-.86,3.76-10.74,7.55-21.47,11.35-32.2.2-.58.14-.92-.35-1.32-3.03-2.48-6.02-4.99-9.03-7.49-.86-.71-2.68-.61-3.45.21-4.95,5.22-9.89,10.43-14.84,15.66-5,5.28-10,10.56-14.97,15.86-.54.57-1.09.76-1.87.79-2.87.1-5.74.29-8.61.47-.62.04-1.18-.07-1.33-.72-.17-.78.27-1.17,1.06-1.22,2.47-.15,4.94-.36,7.41-.44,1.18-.04,2.05-.39,2.9-1.29,9.47-10.07,18.98-20.1,28.49-30.12.53-.56.92-1.05.82-1.95-.14-1.25,1.2-2.46,2.54-2.5,1.17-.03,2.18.98,2.23,2.3.01.42.08.74.43,1.04,3.11,2.56,6.2,5.15,9.3,7.72.05.05.15.05.28.09,1.44-4.06,2.88-8.12,4.31-12.19.09-.25.11-.58.02-.82-.48-1.27,0-2.23,1.05-2.86,1.04-.63,2.12-.61,3.05.34.05.05.14.06.41.15-1.14-4.36-2.25-8.6-3.35-12.81-.37-.18-.48.11-.63.25-2.14,2.04-4.27,4.09-6.39,6.15-.29.28-.65.47-.42,1.08.36.94.03,1.82-.77,2.45-.74.58-1.56.62-2.31.04-.56-.43-.8.13-1.08.33-7.32,5.03-14.62,10.09-21.92,15.15-1.37.95-2.74,1.9-4.15,2.88.81.55,1.65.62,2.46.8.65.14,1.06.47.97,1.12-.09.64-.58.94-1.23.83-.73-.12-1.46-.28-2.33-.45.34.66.62,1.24.93,1.81.35.66.36,1.24-.38,1.6-.73.36-1.11-.14-1.41-.69-.39-.73-.74-1.48-1.17-2.35-.95,1.55-1.87,3.01-2.75,4.5-.38.65-.85,1.17-1.61.75-.78-.43-.56-1.09-.15-1.74,1.35-2.16,2.68-4.33,4.01-6.5.39-.64,1.02-.99,1.61-1.39,8.67-6.01,17.35-12.02,26.04-18.01.48-.33.79-.63.9-1.28.2-1.2,1.02-1.89,2.27-1.86.51.01.8-.19,1.13-.51,2.35-2.28,4.69-4.57,7.09-6.8.52-.49.61-.93.43-1.55-1.4-4.8-2.41-9.7-3.94-14.46-.14-.44-.17-.99-.03-1.41.22-.69.06-.85-.64-.97-5.27-.91-9.6-3.36-12.86-7.7-3.37-4.49-4.9-9.48-4.56-15.07.23-3.87,1.99-7.14,4.03-10.3.22-.33.44-.67.7-.96.71-.8.66-1.37-.44-1.67-1.63-1.12-1.63-1.13-2.99.03-.35.3-.72.33-1.1.19-.32-.12-.47-.41-.5-.75-.08-.91,1.37-2.18,2.26-2.31,1.3-.2,2.24.5,3.29.97.57.21.9,1.22,1.67.64.57-.43,1-1.06,1.49-1.6h0c.26-.01.4-.16.44-.4,0-.03-.25-.09-.39-.14-.38-.44-.63-.27-1.03.08-.64.57-1.67.19-1.69-.65-.04-1.38-1.23-1.2-1.95-1.45-.64-.22-.51.69-.71,1.11-.24.51-.37,1.11-1.06,1.15-.63.03-.88-.45-1.08-.95q.84-2.1-.47-2.59c-2.21-.76-2.22-.77-2.63,1.34-.11.56-.27,1.02-.91,1.08-.7.06-1.01-.35-1.08-.99.12-.65.18-1.32.37-1.95.23-.78-.21-.76-.73-.72-.37-.39-.9-.27-1.35-.36-2.34-.44-2.4-.36-2.22,1.98.02.2.04.4.06.6.05.68-.01,1.34-.88,1.41-.85.07-1.09-.59-1.17-1.23-.1-.71-.09-1.43-.07-2.15.02-.63-.28-.9-.85-.87-1.11.06-2.39-.13-3.26.37-.43.25.34,1.71.54,2.62.04.19.09.39.14.58.38,1.47-.03,1.9-1.55,1.63-.32-1.19-.7-2.36-.92-3.57-.18-.94-.54-1.32-1.48-.94-1.07.27-2.14.58-3.21.81-.71.16-.83.42-.41,1.03.66.99,1.25,2.02,1.88,3.03.28.46.52.92.18,1.43-.32.49-.82.4-1.29.3-.82-1.3-1.69-2.58-2.45-3.92-.48-.85-.95-.93-1.63-.31-1.06.37-1.95,1.05-2.91,1.62-.56.33-.62.6-.1,1.06.87.76,1.69,1.58,2.53,2.37.45.43.71.9.24,1.45-.46.54-.97.46-1.46.03-.96-.84-1.95-1.65-2.84-2.55-.45-.46-.81-.55-1.27-.16-1.14.98-2.39,1.85-3.28,3.1-.66.32-.21.51.1.67.98.51,1.97,1,2.95,1.5.13.08.26.18.4.25.65.32,1.26.73.82,1.55-.45.84-1.11.48-1.74.14-1.23-.66-2.47-1.28-3.7-1.94-.4-.21-.67-.27-.99.17-.78,1.06-1.48,2.17-2.13,3.31-.25.44-.23.69.33.85.77.21,1.52.48,2.25.79.58.25.85.75.6,1.37-.25.62-.74.76-1.37.51-.78-.31-1.57-.56-2.35-.86-.29-.11-.55-.24-.66.16-.22.8-.57,1.62-.56,2.42,0,.58.87.48,1.34.7.57.27.81.64.61,1.23-.21.62-.65.95-1.29.65-1.04-.49-1.46-.24-1.44.94.01.66-.4,1.2-1.14,1.07-.69-.12-1.03-.71-.81-1.36.49-1.46-.19-2.03-1.51-2.24-.27-.04-.53-.17-.79-.27-1.29-.47-1.4-.83-.61-2,1.03-.06,1.89.52,2.85.72.23.05.61.45.68-.18.46-.62.44-1.41.75-2.08.22-.49.04-.7-.4-.85-1.05-.35-2.09-.71-3.13-1.09-1.35-.5-1.44-1.15-.31-2.07,1.2.18,2.23.93,3.46,1.01.03.02.07.05.1.07.08.03.16.05.24.08.68.43,1.08.3,1.46-.47.53-1.06,1.16-2.09,1.89-3.03.56-.72.31-.94-.35-1.26-1.43-.69-2.82-1.48-4.25-2.17-.65-.32-1.01-.74-.94-1.48.09-.12.18-.25.28-.37.14-.04.28-.06.29-.25,0,0-.01.02-.01.02.75-.02,1.37.36,2.01.68,1.38.71,2.77,1.39,4.15,2.11.44.23.8.29,1.17-.12,1.06-1.2,2.27-2.24,3.49-3.28.46-.39.47-.74-.01-1.17-.83-.74-1.6-1.56-2.41-2.32-.58-.55-1.19-1.15-.49-1.91.69-.74,1.28-.1,1.81.4.95.91,1.91,1.81,2.87,2.71.25.23.44.56.9.26,1.25-.84,2.53-1.64,3.8-2.45.8-.04.91-.32.5-1.03-.7-1.23-1.74-2.29-2.02-3.75.9-.98,1.31-.97,1.99.09.62.97,1.24,1.95,1.81,2.95.28.49.56.67,1.14.48,1.24-.41,2.51-.75,3.76-1.12,1.01.06,1.39-.32,1-1.34-.24-.62-.35-1.29-.52-1.93-.17-.64-.45-1.28-.02-1.92.94-.37,1.54-.13,1.74.93.08.43.24.84.35,1.26q.66,2.5,3.16,2.33c.56-.04,1.11-.06,1.67-.1.83.15.66-.39.62-.87-.11-1.45-.33-2.9.08-4.34,1.39-.2,1.66,0,1.69,1.34.01.44.02.87.03,1.31q.1,2.58,2.65,2.86c.55.06,1.08.29,1.65.2.71.43.84.02.96-.59.29-1.53.43-3.1.97-4.59.41-.03.82-.06,1.23-.09ZM186.44,126.67c.12,1.03.68,1.86,1.21,2.7.1.15.31.37.43.35,1.78-.34,3.2.83,4.83,1.11,2.35.4,3.78-.89,3.48-3.27-.23-1.83-1.34-3.15-2.52-4.37-2.27-2.36-3.18-5.17-3.1-8.38.04-1.55,0-3.11,0-4.67-.03-3.6-1.63-6.28-4.6-8.3-1.03-.7-1.84-.72-2.8-.11-1.2.33-2.39.69-3.68.71.06.17.06.25.11.31,4.45,5.85,6.98,12.32,6.44,19.8-.1,1.36-.14,2.76.22,4.12ZM153.44,55.88c8.49,3.07,16.93,6.24,24.82,10.83.08-.36.15-.62.19-.88.82-4.68-.22-9.08-5.83-11.19-.63-.24-1.26-.5-1.87-.77-5.63-2.5-11.45-4.38-17.62-4.84-5.29-.39-10.6-.52-15.9-.79-3.98-.21-7.96-.37-11.92-.88-1.58-.2-3.18-.5-4.81-.13,1.7.35,3.4.71,5.1,1.06.06.05.11.13.18.14,9.28,2.27,18.5,4.75,27.66,7.45ZM131.56,56.43c1.51,1.76,3.01,3.53,4.52,5.29.81,1.18,1.62,2.37,2.43,3.55.64,1.32,1.3,2.48,2.66,3.4,3.29,2.24,6.3,4.9,9.5,7.28,7.61,5.67,14.55,12.1,21.22,18.82.94.94,1.79,1.31,3.01,1.05.23-.05.47-.07.71-.1,3.92-.49,8.29-4,9.13-7.52.92-3.85.72-7.65-.85-11.35-.83-1.96-2.02-3.71-3.22-5.43-.45-.65-.6-1.51-1.43-1.97-4.33-2.38-8.71-4.63-13.22-6.64-12.31-5.48-25.39-8.45-38.32-11.91-1.19-.32-2.38-.77-3.87-.72,1.32.9,2.46,1.68,3.6,2.46,1.43,1.21,2.85,2.43,4.12,3.8ZM147.77,127.11c-1.41,1.6-1.1,3.16.12,4.69.5.62.99,1.25,1.53,1.83,2.37,2.59,5.18,4.65,8.26,6.26,3.26,1.7,6.67,3.12,10.51,2.32,1.21-.25,2.4-.56,3.59-.87,3.56-.93,7.06-1.33,10.36.85.36.24.81.33,1.2.53,1,.51,2.07.58,3.15.47,2.78-.27,4.47-3.09,3.46-5.67-.89-2.29-2.16-4.37-3.58-6.34-2.13-2.95-2.42-6.24-2.15-9.69.07-.95.15-1.92.04-2.87-.82-7.13-3.89-13.11-9.24-17.9-1.4-1.25-2.7-2.6-3.96-3.99-2.74-3.01-5.79-5.7-8.77-8.47-3.5-3.2-7.03-6.37-10.84-9.2-3.04-2.26-5.86-4.79-9.01-6.89-.04-.11-.12-.22-.23-.12-.04.03.03.19.05.29.26.54.5,1.08.77,1.61,2.89,5.68,5.5,11.43,6.98,17.69,1.36,5.77,2.38,11.58,2.06,17.5-.33,6.23-1.41,12.34-4.31,17.98ZM132.26,60.33c-.68.8-1.16,1.6-1.88,2.18-.74.6-1.49,1.2-2.21,1.82-.57.5-1.19.82-1.76.14-.58-.7-.1-1.25.46-1.72.76-.65,1.55-1.25,2.28-1.93,1.92-1.79,1.91-1.87.24-3.8-.16-.18-.32-.36-.49-.52-5.83-5.55-13.03-8.3-20.7-10.08-.73-.17-1,.15-1.25.73-.76,1.77-1.82,3.35-2.96,4.9-1.08,1.47-2.45,2.71-3.46,4.1,4.32,3.47,7.2,7.92,9.7,12.83.21-.31.37-.53.51-.75,1.56-2.55,3.13-5.1,4.67-7.66.39-.65.89-1.14,1.64-.71.74.43.45,1.1.11,1.67-.78,1.3-1.58,2.59-2.37,3.88-1.16,1.89-2.32,3.79-3.58,5.86.99-.09,1.75,0,2.55-.17,2.44-.53,4.72-1.44,6.86-2.7.63-.37,1.2-.49,1.65.22.42.67.01,1.13-.47,1.53-.18.15-.41.25-.62.36-2.65,1.42-5.42,2.52-8.43,2.88-.69.08-.88.2-.67.93,1.17,4.15,2.07,8.35,2.01,12.7,0,.49.23.65.64.84,1.46.69,2.99,1.09,4.59,1.21,3.14.24,6.3.49,9.35-.55,2.25-.76,4.62-1.25,6.6-2.7.49-.36.98-.28,1.39.19.38.44.27.88,0,1.32-.29.46-.75.75-1.21.95-3.71,1.56-7.44,3.05-11.56,3.14-3.39.07-6.72-.22-9.93-1.56-.12.64-.25,1.18-.31,1.73-.34,2.97-1.19,5.76-2.87,8.27-1.31,1.96-2.81,3.77-4.24,5.64-.21.27-.54.49-.48.92.29,1.92.17,3.89.68,5.78.19.7.13,1.33-.68,1.5-.83.18-1.15-.33-1.37-1.11-.38-1.32-.29-2.71-.73-4.13-1.87,1.99-3.6,3.91-5.3,5.87-.57.66-.62,1.12-.25,1.88,2.31,4.82,4.56,9.67,6.83,14.5.31.65.54,1.34-.35,1.71-.79.34-1.16-.22-1.45-.84-.84-1.81-1.68-3.62-2.54-5.42-1.43-3.02-2.86-6.04-4.29-9.06-.15.05-.25.05-.29.1-3.42,4.42-5.53,9.28-4.44,14.97,1.13,5.92,4.51,9.92,10.45,11.72,6.77,2.06,13.52,1.75,20.31.34,5.98-1.24,10.98-4.39,15.78-7.96,1.47-1.09,2.78-2.33,3.69-3.95-.37-.24-.61-.04-.87.04-2.06.61-4.16,1.05-6.3,1.25-.75.07-1.32-.22-1.35-.99-.02-.71.52-.89,1.2-1.04,2.32-.5,4.67-1,6.61-2.54.4-.32.99-.61,1.45-.38,1.27.65,1.8-.12,2.34-1.03,3.18-5.34,4.39-11.26,4.84-17.33.41-5.68-.16-11.3-1.63-16.83-.91-3.42-1.67-6.89-3.06-10.17-.37-.86-.66-1.05-1.4-.33-.73.72-1.58,1.33-2.41,1.96-.55.42-1.14.41-1.59-.16-.44-.56-.2-1.06.29-1.45.62-.5,1.27-.96,1.89-1.45,1.38-1.08,1.56-2.01.84-3.59-1.81-3.92-3.85-7.71-5.91-11.49-1.28-2.35-2.95-4.44-4.78-6.48ZM66.43,39.98c2.3-.5,3.69.25,4.61,2.45.08.18.13.38.19.56.95,2.89,1.05,5.87.89,8.87-.05.86-.21,1.78-.97,2.36-.41.32-.29.5-.04.84,1.11,1.51,2.57,2.6,4.12,3.6.96.61,1.86,1.09,2.57-.32.11-.23.43-.35.64-.53,1.58-1.37,3.57-1.68,5.5-2.16,1.12-.28,1.98-.8,2.23-2.04.15-.72.66-1.04,1.34-.79.68.25.73.8.53,1.48-.45,1.54-1.35,2.6-2.91,3.04-.92.26-1.84.5-2.77.72-1.2.28-2.22.87-3.14,1.66-.35.31-.55.58.12.81,1.8.58,3.65.95,5.52.84,3.13-.19,6.08-1.22,8.93-2.49,2.5-1.12,4.27-3.12,6.1-5.09,3.99-4.3,6.78-9.11,7.33-15.06.48-5.18-.46-9.83-4.76-13.31-3.96-3.21-8.37-5.16-13.54-5.25-2.41-.04-4.68.32-6.97,1.17-1.84.68-3.58,1.4-5.16,2.56,1.08,1,2.54,1.56,3.25,2.95.3.58.29,1.07-.28,1.46-.55.37-1.04.16-1.33-.33-.56-.93-1.51-1.39-2.29-2.06-.77-.66-1.34-.61-2.07.11-3.11,3.07-5.46,6.65-7.09,10.69-.41,1.02-.76,2.1-.56,3.25ZM109.77,73.6c-4.99,8.15-9.82,16.05-14.66,23.94-.13.22-.22.41-.19.66.36,2.81-.41,3.83-3.11,4.08,1.71,3.62,3.41,7.22,5.16,10.94,3.34-3.99,7.01-7.54,10.08-11.63,1.72-2.3,3.43-4.6,4.1-7.45,1-4.27,1.24-8.59.49-12.92-.43-2.49-1.02-4.94-1.88-7.61ZM92.85,97.11c.16-.09.25-.11.29-.17,5.15-8.4,10.29-16.81,15.46-25.21.29-.48.24-.84.04-1.32-.64-1.55-1.49-2.98-2.31-4.43-.4-.72-.68-.81-1.33-.18-5.15,5.01-10.32,9.99-15.53,14.94-.63.6-.68,1.11-.49,1.85,1.29,4.82,2.57,9.65,3.87,14.53ZM90.58,62.19c.33.43.64.78.89,1.18.72,1.14.62,2.42-.2,3.43-.42.51-.93.66-1.47.31-.5-.33-.56-.87-.22-1.37.36-.52.49-1,.05-1.52-.48-.57-1.06-.81-1.73-.56.08.75.22,1.46.23,2.17,0,.57-.34,1.02-.93,1.06-.67.05-1.01-.4-1.1-1.02-.06-.45-.07-.9-.1-1.35-.69.58-1.45,1.02-1.19,2.03,1.09,4.17,2.17,8.34,3.26,12.51.54-.08.76-.46,1.03-.72,2.26-2.15,4.5-4.31,6.74-6.47,2.71-2.6,5.41-5.2,8.1-7.82.24-.24.86-.46.46-.93-1.56-1.85-2.9-3.92-5.05-5.21-.34-.2-.46-.11-.67.08-2.32,2.1-5.09,3.36-8.12,4.2ZM91.95,120.25c.9-1.77,1.94-3.28,3.1-4.7.31-.38.5-.71.23-1.27-2.18-4.54-4.31-9.1-6.46-13.66-.13-.27-.19-.62-.63-.6-.46.02-.45.39-.55.66-1.38,3.88-2.74,7.77-4.13,11.65-.17.48-.15.81.26,1.14,2.71,2.23,5.4,4.47,8.17,6.77ZM174.92,97.92c.63.59,1.14,1.1,1.67,1.57.82.71,1.47,1.94,2.88.97.14-.1.39,0,.59-.03,2.33-.29,4.6-.94,6.36-2.47,2.44-2.13,4.2-4.73,4.59-8.13.58-5.03-.16-9.62-3.88-13.38-.57-.58-.97-1.35-1.76-1.72-.21.34-.02.57.1.82,1.4,2.95,1.81,6.06,1.76,9.3-.1,6.49-4.24,10.57-9.26,12.3-.93.32-1.92.5-3.05.78ZM185.08,71.43c-.03-4.78-1.37-8.74-4.78-11.9.68,2.54.37,5.05-.06,7.56-.06.32-.15.61.23.82,1.64.89,2.97,2.2,4.61,3.52ZM69.12,42.84c-.45-.49-.7-1.35-1.54-1.01-.77.31-1.47.89-1.34,1.9.38,3.02,1.11,5.94,2.84,8.51.14.22.21.55.58.53.48-.03.37-.47.42-.73.41-2.06.11-4.11-.14-6.17-1.21.6-1.82.5-2.21-.35-.45-.98.09-2.07,1.39-2.67ZM185.1,74.35c-.09.07-.14.11-.19.15.08.06.15.13.23.17.02.01.13-.1.13-.1-.05-.08-.11-.15-.17-.22Z"/>
      <path class="cls-4" d="M63.34,12.03c-.41.03-.82.06-1.23.09-.53-.17-.81.05-.96.57-.43,1.51-.84,3.03-.97,4.61-.57.1-1.1-.13-1.65-.2q-2.54-.29-2.65-2.86c-.02-.44-.02-.87-.03-1.31-.03-1.33-.3-1.54-1.69-1.34-.14-.36-.49-.13-.71-.26.21-.51.44-1.01.62-1.53.3-.89.13-1.49-.99-1.4-.11-.5-.31-.9-.91-.93-.52-.03-.8.28-1.03.67-.14.24-.27.49-.42.72-.29.46-.52.92-.07,1.41.43.46.9.42,1.39.08.28.6.62,1.13,1.42.96-.13,1.83-.46,3.66,0,5.48-.56.03-1.11.06-1.67.1q-2.5.17-3.16-2.33c-.11-.42-.27-.83-.35-1.26-.2-1.06-.8-1.3-1.74-.93-.85-.03-.93.54-.96,1.19-.06,1.37.46,2.66.49,4.01-1.26.37-2.52.71-3.76,1.12-.58.19-.86.01-1.14-.48-.57-1-1.19-1.98-1.81-2.95-.68-1.06-1.09-1.07-1.99-.09-.3.18-.52.46-.35.78.72,1.29.89,2.84,1.87,4-1.27.81-2.55,1.61-3.8,2.45-.46.31-.65-.03-.9-.26-.96-.9-1.92-1.8-2.87-2.71-.53-.5-1.12-1.14-1.81-.4-.71.75-.09,1.36.49,1.91.81.77,1.58,1.58,2.41,2.32.48.43.47.78.01,1.17-1.21,1.04-2.42,2.08-3.49,3.28-.36.41-.73.36-1.17.12-1.37-.72-2.77-1.4-4.15-2.11-.64-.33-1.25-.7-2.01-.68.8-1.94,2.33-3.27,3.84-4.62.83-.74,1.7-1.43,2.8-2.35-1.53-.09-2.76-.24-4-.23-3.05.03-6.02-.47-9.01-.97-2.78-.46-5.62-.52-8.44-.76-1.64-.14-3.23-.46-4.72-1.22C-.08,13.78-.5,12.26.55,10.04c1.63-3.41,4.76-5.02,7.95-6.29,3.13-1.25,6.45-2.05,9.74-2.83C22.99-.19,27.8-.19,32.63.38c2.85.34,5.72.8,8.39,1.74,5.48,1.92,11.02,3.76,16.1,6.66.8.46,1.57.98,2.04,1.8.23.4.58.45.99.55,1.07.26,2.21.3,3.19.9ZM33.43,9.46c.27-1.31.67-2.62.76-3.95.07-1.05.62-2.34-.7-3.12-.16-.59-.45-1.03-1.16-.93-.72.11-.8.7-.89,1.24-.31,1.84-.6,3.68-.9,5.51-.06.39-.06.81-.68.7-1.48-.26-2.97-.5-4.45-.74.36-2.05.53-4.11.48-6.19,0-.41,0-.83-.51-.95-.47-.11-.76.14-.92.56-1.26-.48-1.68-.2-1.7,1.11-.01.72,0,1.43,0,2.15-.01,3.35,0,3.34-3.37,3.11-.56-.04-.84-.15-.88-.81-.07-1.26-.27-2.52-.41-3.78-.07-.65-.52-.92-1.07-.88-.65.05-.96.51-.91,1.17.05.71.2,1.43.19,2.14-.01.7.53,1.65.03,2.01-.51.36-1.45.12-2.2.14-.08-.94-.15-1.89-.26-2.82-.05-.42-.05-.9-.62-1.01-.38-.44-.76-.84-1.42-.52-.58.29-.57.81-.53,1.34.05.72.07,1.44.18,2.15.11.74.02,1.2-.9,1.2-.67,0-1.4.4-1.99.24-.83-.23-.47-1.19-.65-1.82-.16-.59-.54-.99-1.22-.91-.67.08-.82.55-.77,1.13.04.44.04.89.15,1.31.16.62.21,1.08-.62,1.22-.4.07-.65.47-.64.91,0,.39.26.81.59.81,1.31.01,1.14,1.01,1.27,1.8.13.82-.14,2.04,1.2,1.89,1.3-.15.83-1.33.79-2.13-.09-2.21-.12-2.18,2.13-2.5.6-.08.8.07.82.63.04,1.08.09,2.15.15,3.23.04.72.32,1.3,1.13,1.23.79-.07,1.08-.64.93-1.38-.19-.95-.02-1.92-.14-2.86-.14-1.1.56-1.18,1.32-1.14.73.04,1.74-.48,1.76,1,.03,1.59.25,3.18.39,4.77.06.72.45,1.1,1.18,1.02.7-.08.9-.58.86-1.21-.07-.99-.16-1.98-.25-2.97-.24-2.81-.25-2.78,2.62-2.6.83.05,1.19.26,1.14,1.19-.09,1.71-.04,3.43-.04,5.15,0,.42.08.81.5,1,.35.16.72.15,1.02-.1.42-.36.54-.86.53-1.4-.01-1.48.05-2.96-.02-4.43-.04-.89.33-1.14,1.12-1.03,1.14.16,2.28.37,3.43.46.67.05.79.34.69.91-.18,1.06-.38,2.12-.5,3.19-.15,1.37.33,1.69,1.69,1.19.53.14.78-.2.83-.6.17-1.33.77-2.56.82-3.91.81-.15,1.56.21,2.35.26.59.04.99.25.64.98-.22.46.04.87.46,1.09.42.21,1.05.2,1.15-.23.3-1.41,1.23-1.07,2.13-.92.55.09,1.13.07,1.63.26,1.81.69,2.89-.23,3.8-1.6.93.32,1.47,0,1.74-.96.2-.71.52-1.4.86-2.06.42-.8.34-1.35-.58-1.63.22-.65.53-1.36-.37-1.72-.9-.36-1.16.36-1.43,1-.41.95-.83,1.89-1.24,2.84q-1.08,2.45-3.71,1.94c-.06-.37.04-.7.14-1.05.34-1.27.72-2.53.94-3.82.11-.63.61-1.56-.61-1.81.04-.69.09-1.46-.8-1.6-.91-.15-1.06.65-1.26,1.28-.6,1.84-1.17,3.69-1.76,5.54-.11.34-.1.84-.72.7-.92-.21-1.84-.4-2.77-.6ZM3.87,11.54c-.13-.61-.09-1.46-1.07-1.51-.63-.03-1.16.36-1.04,1.02.13.7-.08,1.78,1.11,1.81.73.02.99-.56,1.01-1.32Z"/>
      <path class="cls-4" d="M30.68,28.84c.89-1.25,2.14-2.12,3.28-3.1.46-.4.82-.3,1.27.16.89.9,1.89,1.71,2.84,2.55.49.43,1,.51,1.46-.03.47-.55.22-1.03-.24-1.45-.84-.79-1.66-1.61-2.53-2.37-.51-.45-.46-.72.1-1.06.95-.57,1.85-1.24,2.91-1.62.63,1.51,1.6,2.8,2.51,4.14.46.67,1.01.67,1.57.09.48.09.97.18,1.29-.3.34-.51.11-.97-.18-1.43-.63-1.01-1.22-2.05-1.88-3.03-.41-.62-.3-.88.41-1.03,1.08-.24,2.14-.54,3.21-.81.41,1.39.79,2.78,1.23,4.16.28.86.63.93,1.18.35,1.52.27,1.92-.15,1.55-1.63-.05-.19-.09-.39-.14-.58-.21-.92-.97-2.37-.54-2.62.87-.5,2.15-.31,3.26-.37.57-.03.87.24.85.87-.02.72-.03,1.44.07,2.15.09.64.32,1.3,1.17,1.23.87-.08.93-.73.88-1.41-.01-.2-.04-.4-.06-.6-.18-2.34-.12-2.42,2.22-1.98.45.08.97-.04,1.35.35.02.54-.02,1.07-.18,1.6-.15.5-.07.93.53,1.08.07.65.39,1.06,1.08.99.63-.06.8-.53.91-1.08.41-2.1.42-2.1,2.63-1.34.11.44-.13.83-.18,1.24-.07.56-.22,1.22.65,1.34.2.5.46.98,1.08.95.69-.04.82-.64,1.06-1.15.19-.41.07-1.33.71-1.11.71.25,1.91.06,1.95,1.45.02.84,1.05,1.21,1.69.65.4-.35.64-.52,1.03-.08-.02.18-.03.36-.05.54,0,0,0,0,0,0-1.08.23-2.32-.06-3.16.96-1.05-.47-1.98-1.17-3.29-.97-.9.14-2.34,1.41-2.26,2.31.03.34.18.63.5.75.38.14.75.11,1.1-.19,1.35-1.16,1.36-1.15,2.99-.03-1.82,1.3-3.73.83-5.69.36-3.44-.82-6.79-1.92-10.13-3.04-.73-.24-1.33-.03-1.97.11-3.73.77-6.89,2.75-10.01,4.8-3.74,2.46-7.2,5.29-10.29,8.49-1.64,1.7-2.78,3.86-4.18,5.79-.96,1.32-2.02,2.56-3.73,2.93.08-.22.2-.43.22-.66.06-.6-.25-.99-.84-1.09-.58-.1-1.01.12-1.15.73-.15.61.12,1,.67,1.2.22.08.47.05.7.07-.98.7-2.62.09-3.21-1.31-.52-1.24-.96-2.54-.98-3.91-.07-4.73.3-9.39,1.98-13.87.3-.81.36-1.74,1.13-2.32-.07.74.29,1.16.94,1.48,1.43.7,2.82,1.48,4.25,2.17.66.32.91.54.35,1.26-.73.94-1.36,1.97-1.89,3.03-.38.76-.79.9-1.46.47-.05-.12-.12-.17-.24-.08-.03-.02-.07-.04-.1-.07-.49-.8-1.32-1.21-2.03-1.75-.94-.71-1.33-.49-1.43.74-1.13.91-1.04,1.57.31,2.07,1.04.38,2.08.74,3.13,1.09.45.15.62.36.4.85-.31.67-.28,1.47-.75,2.08-.82-.47-1.61-1-2.47-1.39-.73-.32-1.3-.19-1.05.84-.78,1.17-.67,1.53.61,2,.26.1.52.22.79.27,1.31.21,2,.78,1.51,2.24-.22.65.11,1.24.81,1.36.74.13,1.15-.41,1.14-1.07-.02-1.18.4-1.42,1.44-.94.63.3,1.08-.03,1.29-.65.2-.59-.03-.96-.61-1.23-.47-.22-1.33-.12-1.34-.7-.01-.8.34-1.62.56-2.42.11-.4.37-.27.66-.16.78.3,1.57.55,2.35.86.63.25,1.12.11,1.37-.51.25-.61-.02-1.12-.6-1.37-.73-.31-1.49-.58-2.25-.79-.56-.16-.58-.41-.33-.85.65-1.14,1.35-2.25,2.13-3.31.32-.44.59-.38.99-.17,1.23.66,2.47,1.28,3.7,1.94.63.34,1.29.7,1.74-.14.44-.82-.17-1.23-.82-1.55-.14-.07-.27-.16-.4-.25.11-.75-.25-1.21-.93-1.45-.7-.25-1.42-.48-2.12-.72ZM60.67,25.84c.01.43-.04.91.54,1.04.52.11.8-.23,1.04-.62.14-.23.26-.49.38-.74.26-.53.66-1.07.26-1.66-.44-.65-1.01-.02-1.52-.05-.83-.67-1.36-.07-1.91.46-.45.44-1.04.87-.52,1.59.55.76,1.15.41,1.72-.02Z"/>
      <path class="cls-4" d="M69.07,14.69c-.48,0-.88.21-1.23.51-1.41.83-1.69,2.31-2.11,3.7-2.97-.77-2.94-.77-2.41-3.75.18-1.01.82-2.04.09-3.1,2.19.23,3.95,1.37,5.66,2.63Z"/>
      <path class="cls-4" d="M73.8,22.14c-.77-.07-1.04-.38-.6-1.13.37-.63.31-1.24-.4-1.61-.73-.38-1.17.12-1.37.68-.27.77-.71.82-1.34.55-.33-.14-.65-.32-.99-.4-.64-.15-.69-.5-.5-1.04.33-.93.59-1.89.96-2.8.22-.54.17-.99-.11-1.46,2.09.92,3.82,2.15,4.42,4.55.23.92.16,1.79-.07,2.67Z"/>
      <path class="cls-1" d="M22.14,47.07c-.24-.02-.49,0-.7-.07-.55-.2-.82-.59-.67-1.2.15-.61.57-.84,1.15-.73.59.11.9.49.84,1.09-.02.22-.15.44-.22.66,0,0,0,0,0,0-.17,0-.29.07-.34.24l-.06.02Z"/>
      <path class="cls-4" d="M22.2,47.04c.05-.17.17-.24.34-.24-.03.19-.16.25-.34.24Z"/>
      <path class="cls-4" d="M21.63,25.03c0,.18-.15.21-.29.25.03-.16.11-.26.29-.25Z"/>
      <path class="cls-3" d="M132.26,60.33c1.83,2.05,3.5,4.13,4.78,6.48,2.06,3.78,4.1,7.58,5.91,11.49.73,1.58.54,2.5-.84,3.59-.63.49-1.27.96-1.89,1.45-.49.39-.73.89-.29,1.45.45.57,1.04.58,1.59.16.83-.62,1.67-1.23,2.41-1.96.74-.73,1.03-.53,1.4.33,1.39,3.28,2.15,6.75,3.06,10.17,1.47,5.52,2.04,11.15,1.63,16.83-.44,6.08-1.65,12-4.84,17.33-.54.91-1.07,1.68-2.34,1.03-.46-.23-1.05.06-1.45.38-1.94,1.54-4.28,2.04-6.61,2.54-.68.15-1.22.33-1.2,1.04.02.78.59,1.06,1.35.99,2.14-.2,4.24-.64,6.3-1.25.26-.08.5-.28.87-.04-.92,1.62-2.23,2.86-3.69,3.95-4.8,3.57-9.8,6.73-15.78,7.96-6.8,1.41-13.54,1.72-20.31-.34-5.94-1.81-9.32-5.8-10.45-11.72-1.09-5.69,1.02-10.56,4.44-14.97.04-.05.14-.05.29-.1,1.43,3.01,2.87,6.03,4.29,9.06.85,1.8,1.69,3.61,2.54,5.42.29.62.65,1.18,1.45.84.88-.38.65-1.06.35-1.71-2.27-4.84-4.53-9.68-6.83-14.5-.37-.76-.32-1.22.25-1.88,1.7-1.95,3.43-3.88,5.3-5.87.44,1.41.36,2.81.73,4.13.22.77.54,1.29,1.37,1.11.81-.17.87-.8.68-1.5-.51-1.89-.39-3.86-.68-5.78-.06-.43.27-.65.48-.92,1.44-1.86,2.93-3.68,4.24-5.64,1.68-2.51,2.53-5.3,2.87-8.27.06-.55.2-1.09.31-1.73,3.21,1.34,6.54,1.63,9.93,1.56,4.12-.09,7.85-1.57,11.56-3.14.46-.19.92-.49,1.21-.95.28-.44.39-.88,0-1.32-.4-.47-.9-.54-1.39-.19-1.98,1.45-4.35,1.93-6.6,2.7-3.05,1.03-6.21.78-9.35.55-1.6-.12-3.13-.52-4.59-1.21-.41-.19-.65-.35-.64-.84.06-4.35-.84-8.55-2.01-12.7-.21-.74-.02-.85.67-.93,3.01-.36,5.78-1.46,8.43-2.88.21-.11.44-.21.62-.36.48-.4.89-.86.47-1.53-.45-.71-1.02-.59-1.65-.22-2.14,1.26-4.43,2.17-6.86,2.7-.79.17-1.56.08-2.55.17,1.27-2.07,2.42-3.96,3.58-5.86.79-1.29,1.59-2.58,2.37-3.88.34-.57.63-1.25-.11-1.67-.75-.43-1.25.06-1.64.71-1.55,2.56-3.11,5.11-4.67,7.66-.14.23-.3.44-.51.75-2.5-4.9-5.38-9.35-9.7-12.83,1-1.39,2.37-2.62,3.46-4.1,1.14-1.55,2.2-3.13,2.96-4.9.25-.58.52-.9,1.25-.73,7.67,1.78,14.86,4.53,20.7,10.08.17.16.34.34.49.52,1.67,1.93,1.68,2.01-.24,3.8-.73.68-1.52,1.29-2.28,1.93-.55.47-1.04,1.03-.46,1.72.57.68,1.19.36,1.76-.14.72-.63,1.47-1.22,2.21-1.82.72-.59,1.2-1.38,1.88-2.18ZM122.23,133.42c.47,0,.88-.12,1-.66.13-.59-.12-1.02-.63-1.3-4.25-2.28-8.08-5.1-11.19-8.84-.39-.47-.95-.85-1.55-.27-.62.6-.39,1.16.11,1.77,3.04,3.68,6.81,6.46,10.92,8.8.41.24.82.5,1.33.49ZM108.38,117.47c-.12-.53-.27-1.16-1.1-1.17-.65,0-1.1.35-1.07,1,.03.73.38,1.29,1.25,1.25.62-.03.95-.33.92-1.08ZM125.9,66.26c-.07-.51-.32-1.01-1.01-.96-.64.04-1.15.45-1.17,1.12-.02.56.4.98.98.99.64,0,1.14-.3,1.2-1.15ZM130.2,133.55c0-.83-.51-1.11-1.15-1.16-.7-.05-1.02.46-1.04,1.05-.01.66.54,1,1.1,1.04.6.05,1.05-.3,1.08-.94Z"/>
      <path class="cls-3" d="M66.43,39.98c-.19-1.15.15-2.23.56-3.25,1.63-4.04,3.97-7.61,7.09-10.69.73-.72,1.3-.77,2.07-.11.78.67,1.73,1.13,2.29,2.06.29.49.78.7,1.33.33.56-.38.58-.87.28-1.46-.72-1.39-2.17-1.96-3.25-2.95,1.58-1.16,3.32-1.89,5.16-2.56,2.3-.84,4.56-1.21,6.97-1.17,5.17.09,9.58,2.04,13.54,5.25,4.3,3.48,5.24,8.13,4.76,13.31-.55,5.95-3.34,10.77-7.33,15.06-1.83,1.97-3.6,3.97-6.1,5.09-2.85,1.27-5.8,2.3-8.93,2.49-1.86.12-3.72-.25-5.52-.84-.68-.22-.47-.5-.12-.81.91-.8,1.94-1.38,3.14-1.66.93-.22,1.85-.46,2.77-.72,1.56-.44,2.47-1.5,2.91-3.04.2-.68.15-1.23-.53-1.48-.68-.25-1.19.07-1.34.79-.25,1.24-1.11,1.76-2.23,2.04-1.93.48-3.92.79-5.5,2.16-.21.18-.52.3-.64.53-.71,1.42-1.62.94-2.57.32-1.55-1-3.01-2.09-4.12-3.6-.25-.34-.38-.53.04-.84.76-.59.93-1.5.97-2.36.16-3,.06-5.98-.89-8.87-.06-.19-.12-.38-.19-.56-.91-2.2-2.3-2.95-4.61-2.45ZM73.74,40.83c.5,3.57,1.95,6.7,4.67,9.12,1.24,1.1,2.77,1.32,4.36.54,1.56-.77,2.27-2.07,2.34-3.74.13-3.22-.94-6.13-2.49-8.86-1.09-1.93-3.26-3.04-4.75-2.49-1.93.71-4.29,2.23-4.12,5.43Z"/>
      <path class="cls-6" d="M142.44,72.16c3.16,2.1,5.98,4.64,9.01,6.89,3.81,2.83,7.34,6,10.84,9.2.02.39,0,.77.28,1.13,2.05,2.69,4.23,5.27,6.51,7.78,2.4,2.65,4.63,5.45,6.79,8.32,1.73,2.29,2.84,4.89,4.14,7.39,1.08,2.08,1.78,4.45,1.58,6.8-.39,4.46.33,8.56,2.9,12.27,1.33,1.91,2.32,4,2.99,6.23.37,1.24-.27,2.19-1.56,2.37-1.06.15-1.91-.25-2.78-.83-1.55-1.03-3.28-1.97-5.15-1.43-2.85.82-5.71,1.36-8.67,1.52-1.88.1-3.74.08-5.53-.65-3.87-1.56-7.41-3.65-10.61-6.35-1.46-1.24-2.62-2.65-3.4-4.38-.39-.87-.99-1.44-2.04-1.3,2.91-5.64,3.98-11.75,4.31-17.98.32-5.92-.7-11.72-2.06-17.5-1.48-6.26-4.09-12.02-6.98-17.69-.27-.53-.52-1.08-.77-1.61.06-.06.12-.11.18-.17ZM166.41,106.74c-.87-.17-1.68.13-2.49.19-2.92.19-5.04,1.7-6.63,3.98-2.92,4.17-4.34,8.62-2.42,13.7,2.97,7.86,12.43,9.65,17.89,6.31,3.87-2.37,5.3-6.07,5.53-10.29.28-5.13-2.65-8.85-5.99-12.29-.24-.25-.6-.41-.93-.51-1.63-.49-3.21-1.23-4.96-1.08Z"/>
      <path class="cls-6" d="M127.44,52.63c-1.14-.78-2.27-1.55-3.6-2.46,1.49-.04,2.68.41,3.87.72,12.93,3.46,26.01,6.43,38.32,11.91,4.52,2.01,8.9,4.27,13.22,6.64.83.46.97,1.32,1.43,1.97,1.2,1.72,2.39,3.47,3.22,5.43,1.57,3.7,1.78,7.5.85,11.35-.85,3.52-5.21,7.03-9.13,7.52-.24.03-.48.05-.71.1-1.22.26-2.08-.1-3.01-1.05-6.67-6.72-13.61-13.15-21.22-18.82-3.2-2.38-6.21-5.04-9.5-7.28-1.36-.93-2.02-2.08-2.66-3.4,1.45.48,2.66,1.4,4,2.1,3.46,1.81,6.96,3.57,10.29,5.6,7.46,4.53,14.74,9.34,22.26,13.76,1.54.91,3.02,1.93,4.72,2.56.78.29,1.31-.01,1.8-.53.52-.54.45-1.16.18-1.78-.29-.66-.88-.99-1.48-1.33-4.28-2.46-8.58-4.89-12.82-7.43-7.38-4.43-14.71-8.95-22.53-12.61-2.27-1.06-4.59-2.05-6.72-3.39-.68-.43-1.36-.63-2.14-.49-1.51-1.76-3.01-3.53-4.52-5.29.45-.51.8,0,1.13.16,1.83.89,3.74,1.58,5.67,2.2,5.81,1.86,11.56,3.85,17.1,6.42,3.18,1.48,6.28,3.12,9.43,4.66,3.98,1.95,7.95,3.88,11.81,6.06.59.33,1.18.64,1.9.63.67-.01,1.14-.21,1.45-.82.34-.67.02-1.15-.4-1.61-.72-.78-1.68-1.19-2.59-1.69-4.01-2.21-8.25-4-12.32-6.09-6.36-3.26-12.88-6.08-19.68-8.32-4.12-1.36-8.32-2.43-12.37-4.02-1.67-.66-3.42-1.3-5.27-1.38Z"/>
      <path class="cls-2" d="M147.77,127.11c1.04-.14,1.64.43,2.04,1.3.78,1.74,1.94,3.15,3.4,4.38,3.19,2.7,6.74,4.79,10.61,6.35,1.79.72,3.65.75,5.53.65,2.95-.16,5.82-.69,8.67-1.52,1.86-.54,3.6.4,5.15,1.43.87.58,1.71.97,2.78.83,1.3-.18,1.94-1.13,1.56-2.37-.67-2.23-1.67-4.32-2.99-6.23-2.58-3.71-3.29-7.81-2.9-12.27.21-2.35-.5-4.71-1.58-6.8-1.29-2.5-2.41-5.1-4.14-7.39-2.16-2.86-4.39-5.67-6.79-8.32-2.28-2.51-4.46-5.08-6.51-7.78-.27-.36-.27-.73-.28-1.13,2.98,2.77,6.04,5.46,8.77,8.47,1.26,1.39,2.56,2.74,3.96,3.99,5.35,4.79,8.43,10.77,9.24,17.9.11.94.03,1.91-.04,2.87-.27,3.45.02,6.74,2.15,9.69,1.42,1.97,2.69,4.05,3.58,6.34,1.01,2.58-.69,5.4-3.46,5.67-1.08.11-2.15.04-3.15-.47-.39-.2-.84-.29-1.2-.53-3.31-2.18-6.81-1.78-10.36-.85-1.19.31-2.39.62-3.59.87-3.84.8-7.25-.62-10.51-2.32-3.08-1.61-5.89-3.67-8.26-6.26-.54-.59-1.03-1.21-1.53-1.83-1.22-1.53-1.53-3.09-.12-4.69Z"/>
      <path class="cls-6" d="M125.6,48.29c-1.7-.35-3.4-.71-5.1-1.06,1.63-.37,3.23-.07,4.81.13,3.96.51,7.94.67,11.92.88,5.3.28,10.61.41,15.9.79,6.17.45,11.99,2.34,17.62,4.84.62.27,1.24.53,1.87.77,5.6,2.11,6.65,6.51,5.83,11.19-.05.26-.11.52-.19.88-7.89-4.59-16.34-7.76-24.82-10.83.32-.38.75-.23,1.12-.16,2.35.43,4.67.96,6.94,1.72,3.93,1.31,7.77,2.87,11.76,4.02.74.21,1.48.46,2.15-.1.47-.39.82-.85.7-1.55-.19-1.03-.97-1.42-1.82-1.69-2.43-.78-4.86-1.53-7.3-2.26-3.35-1-6.64-2.24-10.11-2.82-6.11-1.02-12.21-2.08-18.25-3.5-3.86-.91-7.79-1.57-11.79-1.52-.42,0-.89-.15-1.23.26Z"/>
      <path class="cls-2" d="M127.44,52.63c1.86.08,3.6.72,5.27,1.38,4.05,1.6,8.25,2.67,12.37,4.02,6.79,2.24,13.32,5.06,19.68,8.32,4.07,2.09,8.3,3.87,12.32,6.09.9.5,1.87.91,2.59,1.69.42.45.74.94.4,1.61-.31.62-.78.81-1.45.82-.73.01-1.32-.29-1.9-.63-3.85-2.18-7.83-4.12-11.81-6.06-3.15-1.54-6.25-3.19-9.43-4.66-5.54-2.57-11.29-4.57-17.1-6.42-1.94-.62-3.84-1.31-5.67-2.2-.33-.16-.68-.67-1.13-.16-1.27-1.37-2.7-2.59-4.12-3.8Z"/>
      <path class="cls-2" d="M136.08,61.72c.78-.14,1.46.06,2.14.49,2.13,1.34,4.45,2.33,6.72,3.39,7.81,3.66,15.14,8.18,22.53,12.61,4.24,2.54,8.54,4.97,12.82,7.43.6.34,1.19.67,1.48,1.33.27.62.33,1.24-.18,1.78-.5.52-1.02.82-1.8.53-1.7-.63-3.18-1.65-4.72-2.56-7.52-4.42-14.8-9.23-22.26-13.76-3.33-2.03-6.83-3.79-10.29-5.6-1.33-.7-2.55-1.62-4-2.1-.81-1.18-1.62-2.37-2.43-3.55Z"/>
      <path class="cls-2" d="M125.6,48.29c.34-.41.81-.26,1.23-.26,4-.05,7.93.61,11.79,1.52,6.04,1.42,12.14,2.48,18.25,3.5,3.47.58,6.76,1.81,10.11,2.82,2.44.73,4.88,1.49,7.3,2.26.85.27,1.63.66,1.82,1.69.13.7-.23,1.16-.7,1.55-.67.56-1.42.31-2.15.1-3.98-1.15-7.83-2.71-11.76-4.02-2.27-.76-4.59-1.29-6.94-1.72-.37-.07-.79-.21-1.12.16-9.16-2.7-18.38-5.18-27.66-7.45-.07-.02-.12-.09-.18-.14Z"/>
      <path class="cls-4" d="M174.92,97.92c1.14-.29,2.12-.46,3.05-.78,5.01-1.74,9.16-5.82,9.26-12.3.05-3.23-.36-6.35-1.76-9.3-.12-.25-.31-.48-.1-.82.79.37,1.19,1.14,1.76,1.72,3.72,3.76,4.45,8.35,3.88,13.38-.39,3.4-2.15,6-4.59,8.13-1.76,1.53-4.03,2.18-6.36,2.47-.2.02-.45-.06-.59.03-1.4.97-2.06-.25-2.88-.97-.54-.47-1.04-.97-1.67-1.57Z"/>
      <path class="cls-2" d="M183.35,101.74c.96-.62,1.77-.59,2.8.11,2.97,2.02,4.57,4.7,4.6,8.3.01,1.56.04,3.11,0,4.67-.08,3.21.83,6.02,3.1,8.38,1.18,1.23,2.29,2.55,2.52,4.37.3,2.38-1.13,3.67-3.48,3.27-1.64-.28-3.06-1.45-4.83-1.11-.12.02-.33-.2-.43-.35-.53-.84-1.1-1.67-1.21-2.7,1.5-.3,2.78.57,4.18.82.66.12,1.29.49,1.98.26.69-.23,1.09-.56.37-1.25-.78-.74-1.56-1.49-2.29-2.28-1.9-2.06-2.82-4.52-2.69-7.3.12-2.61.66-5.21.2-7.84-.37-2.16-1.23-3.97-3.3-4.93-1.08-.5-1.65-1.21-1.53-2.42Z"/>
      <path class="cls-6" d="M183.35,101.74c-.11,1.2.46,1.92,1.53,2.42,2.08.96,2.93,2.77,3.3,4.93.45,2.64-.09,5.23-.2,7.84-.12,2.78.79,5.24,2.69,7.3.73.79,1.51,1.54,2.29,2.28.72.69.32,1.01-.37,1.25-.7.24-1.33-.14-1.98-.26-1.4-.25-2.67-1.12-4.18-.82-.36-1.36-.32-2.75-.22-4.12.54-7.49-1.99-13.95-6.44-19.8-.04-.06-.05-.14-.11-.31,1.28-.02,2.48-.38,3.68-.71Z"/>
      <path class="cls-4" d="M185.08,71.43c-1.64-1.32-2.97-2.64-4.61-3.52-.38-.21-.29-.51-.23-.82.44-2.51.75-5.02.06-7.56,3.41,3.16,4.75,7.13,4.78,11.9Z"/>
      <path class="cls-5" d="M69.12,42.84c-1.3.6-1.84,1.69-1.39,2.67.38.85,1,.95,2.21.35.24,2.06.55,4.11.14,6.17-.05.27.06.7-.42.73-.36.03-.43-.31-.58-.53-1.73-2.58-2.46-5.49-2.84-8.51-.13-1.01.57-1.59,1.34-1.9.84-.34,1.09.52,1.54,1.01Z"/>
      <path class="cls-3" d="M43.87,26.14c-.56.59-1.11.58-1.57-.09-.91-1.33-1.88-2.63-2.51-4.14.68-.62,1.15-.54,1.63.31.75,1.34,1.63,2.61,2.45,3.92Z"/>
      <path class="cls-3" d="M49.14,24.03c-.55.59-.9.51-1.18-.35-.44-1.38-.82-2.77-1.23-4.16.94-.38,1.3,0,1.48.94.23,1.2.61,2.38.92,3.57Z"/>
      <path class="cls-3" d="M46.07,17.58c-.03-1.35-.55-2.65-.49-4.01.03-.64.1-1.22.96-1.19-.43.65-.16,1.28.02,1.92.17.64.28,1.31.52,1.93.39,1.03.01,1.4-1,1.34Z"/>
      <path class="cls-3" d="M60.18,17.3c.13-1.58.54-3.09.97-4.61.15-.51.43-.74.96-.57-.54,1.48-.67,3.05-.97,4.59-.12.61-.25,1.03-.96.59Z"/>
      <path class="cls-3" d="M53.46,16.81c-.45-1.83-.12-3.66,0-5.48,0,0-.01,0-.01,0,.22.13.58-.1.71.26-.42,1.44-.19,2.89-.08,4.34.04.48.21,1.02-.62.87Z"/>
      <path class="cls-3" d="M38.89,19.95c-.98-1.17-1.14-2.71-1.87-4-.18-.31.05-.6.35-.78.28,1.46,1.32,2.52,2.02,3.75.41.71.3.99-.5,1.03Z"/>
      <path class="cls-3" d="M65.73,18.91c.43-1.39.71-2.87,2.11-3.7-.16,1.18-.73,2.23-1.02,3.37-.19.75-.59.7-1.1.33Z"/>
      <path class="cls-3" d="M19.44,32.9c.1-1.22.49-1.45,1.43-.74.71.54,1.54.95,2.03,1.75-1.23-.09-2.26-.83-3.46-1.01Z"/>
      <path class="cls-3" d="M19.02,38.44c-.26-1.03.32-1.17,1.05-.84.86.38,1.65.92,2.47,1.39-.07.63-.44.23-.68.18-.96-.2-1.82-.79-2.85-.72Z"/>
      <path class="cls-3" d="M30.68,28.84c.71.24,1.42.47,2.12.72.68.24,1.04.7.93,1.45-.99-.5-1.98-.99-2.96-1.5-.31-.16-.76-.35-.1-.67Z"/>
      <path class="cls-3" d="M65.2,23.29c-.87-.13-.72-.78-.65-1.34.05-.41.29-.8.18-1.24q1.31.49.47,2.59Z"/>
      <path class="cls-3" d="M60.1,22.13c-.6-.15-.68-.58-.53-1.08.15-.53.2-1.06.18-1.6.52-.04.96-.06.73.72-.19.63-.25,1.3-.37,1.95Z"/>
      <path class="cls-5" d="M72.66,24.54c.02-.18.03-.36.05-.54"/>
      <path class="cls-4" d="M185.1,74.35c.06.07.12.14.17.22,0,0-.11.11-.13.1-.08-.04-.15-.11-.23-.17.05-.04.1-.08.19-.15Z"/>
      <path class="cls-3" d="M23,33.98c.12-.09.19-.04.24.08-.08-.03-.16-.05-.24-.08Z"/>
      <path class="cls-6" d="M142.26,72.33c-.02-.1-.09-.26-.05-.29.12-.1.19,0,.23.12-.06.06-.12.11-.18.17Z"/>
      <path class="cls-1" d="M31.18,16.09c-1.36.5-1.85.18-1.69-1.19.12-1.07.31-2.13.5-3.19.1-.58-.02-.86-.69-.91-1.15-.09-2.29-.3-3.43-.46-.79-.11-1.16.14-1.12,1.03.06,1.48,0,2.96.02,4.43,0,.55-.11,1.04-.53,1.4-.3.25-.67.26-1.02.1-.43-.2-.51-.59-.5-1,0-1.72-.05-3.44.04-5.15.05-.93-.31-1.14-1.14-1.19-2.86-.18-2.86-.21-2.62,2.6.09.99.18,1.98.25,2.97.05.63-.15,1.13-.86,1.21-.73.09-1.12-.29-1.18-1.02-.14-1.59-.36-3.18-.39-4.77-.03-1.49-1.04-.96-1.76-1-.77-.05-1.46.04-1.32,1.14.12.95-.05,1.91.14,2.86.15.73-.14,1.31-.93,1.38-.82.07-1.1-.51-1.13-1.23-.06-1.08-.11-2.15-.15-3.23-.02-.56-.22-.71-.82-.63-2.25.32-2.23.28-2.13,2.5.03.8.51,1.98-.79,2.13-1.34.15-1.06-1.07-1.2-1.89-.13-.79.04-1.78-1.27-1.8-.34,0-.58-.42-.59-.81-.01-.45.24-.84.64-.91.83-.14.78-.6.62-1.22-.11-.42-.12-.87-.15-1.31-.05-.58.1-1.05.77-1.13.68-.08,1.06.32,1.22.91.18.64-.18,1.59.65,1.82.59.17,1.32-.23,1.99-.24.92,0,1.01-.46.9-1.2-.11-.71-.13-1.43-.18-2.15-.04-.53-.05-1.05.53-1.34.66-.33,1.04.08,1.42.52-.22,1.12.21,2.21.17,3.33-.02.51.3.58.71.51.75-.02,1.69.22,2.2-.14.5-.36-.04-1.31-.03-2.01.01-.71-.13-1.42-.19-2.14-.05-.65.26-1.12.91-1.17.55-.04,1,.23,1.07.88.14,1.26.33,2.52.41,3.78.04.65.32.77.88.81,3.36.23,3.36.24,3.37-3.11,0-.72,0-1.43,0-2.15.02-1.32.45-1.59,1.7-1.11.18.48.23.98.22,1.5-.02,1.42,0,2.84-.01,4.26,0,.52.01.99.74.82,1.48.25,2.97.48,4.45.74.62.11.62-.31.68-.7.3-1.84.59-3.68.9-5.51.09-.55.17-1.14.89-1.24.71-.1.99.34,1.16.93-.33,1.98-.59,3.97-1.02,5.92-.22.98.1,1.21.96,1.15.92.2,1.85.39,2.77.6.62.14.61-.36.72-.7.59-1.84,1.17-3.7,1.76-5.54.2-.63.36-1.43,1.26-1.28.89.15.84.91.8,1.6-.79,1.48-1.1,3.12-1.64,4.69-.56,1.62-.53,1.63,1.16,2q2.63.5,3.71-1.94c.42-.95.84-1.89,1.24-2.84.27-.64.54-1.36,1.43-1,.89.36.59,1.07.37,1.72-.68,1.55-1.35,3.09-2.03,4.64-.91,1.37-1.99,2.3-3.8,1.6-.5-.19-1.09-.17-1.63-.26-.9-.14-1.83-.49-2.13.92-.09.44-.73.45-1.15.23-.42-.22-.68-.63-.46-1.09.34-.74-.05-.94-.64-.98-.79-.05-1.54-.41-2.35-.26-.6-.41-.87-.31-.97.47-.17,1.35-.45,2.69-.68,4.04Z"/>
      <path class="cls-3" d="M40.27,10.83c-1.7-.36-1.73-.37-1.16-2,.54-1.56.85-3.21,1.64-4.69,1.22.25.72,1.18.61,1.81-.22,1.29-.6,2.55-.94,3.82-.09.35-.2.69-.14,1.05Z"/>
      <path class="cls-3" d="M33.43,9.46c-.86.06-1.17-.17-.96-1.15.43-1.95.69-3.94,1.02-5.92,1.32.79.77,2.07.7,3.12-.09,1.33-.49,2.63-.76,3.95Z"/>
      <path class="cls-3" d="M25.4,8.18c-.73.16-.75-.3-.74-.82.01-1.42,0-2.84.01-4.26,0-.52-.04-1.02-.22-1.5.16-.43.44-.67.92-.56.51.12.5.55.51.95.05,2.08-.12,4.14-.48,6.19Z"/>
      <path class="cls-3" d="M45,11.41c.68-1.55,1.35-3.09,2.03-4.64.92.28,1,.83.58,1.63-.34.66-.66,1.35-.86,2.06-.27.97-.81,1.28-1.74.96Z"/>
      <path class="cls-1" d="M52.04,10.36c-.48.34-.96.38-1.39-.08-.45-.49-.23-.95.07-1.41.15-.23.27-.48.42-.72.23-.39.51-.7,1.03-.67.6.03.8.43.91.93-.14.76-.72,1.28-1.04,1.95Z"/>
      <path class="cls-1" d="M3.87,11.54c-.02.76-.27,1.34-1.01,1.32-1.19-.03-.97-1.11-1.11-1.81-.12-.66.41-1.06,1.04-1.02.99.05.95.9,1.07,1.51Z"/>
      <path class="cls-3" d="M52.04,10.36c.32-.66.9-1.19,1.04-1.95,1.12-.1,1.29.51.99,1.4-.17.52-.41,1.02-.62,1.53,0,0,.01,0,.01,0-.81.17-1.14-.36-1.42-.96Z"/>
      <path class="cls-3" d="M31.18,16.09c.23-1.35.51-2.68.68-4.04.1-.78.37-.88.97-.47-.05,1.35-.65,2.58-.82,3.91-.05.4-.3.75-.83.6Z"/>
      <path class="cls-3" d="M14.12,7.97c-.41.07-.73,0-.71-.51.04-1.11-.39-2.2-.17-3.33.57.12.57.6.62,1.01.11.94.18,1.88.26,2.82Z"/>
      <path class="cls-1" d="M60.67,25.84c-.57.43-1.18.78-1.72.02-.52-.72.07-1.15.52-1.59.54-.53,1.07-1.13,1.91-.46.67.99-.28,1.42-.71,2.03Z"/>
      <path class="cls-3" d="M60.67,25.84c.42-.61,1.38-1.04.71-2.03.51.03,1.08-.6,1.52.05.39.58,0,1.13-.26,1.66-.12.25-.23.5-.38.74-.24.38-.52.73-1.04.62-.58-.12-.53-.6-.54-1.04Z"/>
      <path class="cls-1" d="M122.23,133.41c-.51.01-.92-.26-1.33-.49-4.11-2.35-7.88-5.12-10.92-8.8-.5-.61-.72-1.17-.11-1.77.59-.58,1.16-.2,1.55.27,3.1,3.74,6.93,6.56,11.19,8.84.51.27.75.71.63,1.3-.11.54-.53.65-1,.66Z"/>
      <path class="cls-1" d="M108.38,117.47c.03.75-.31,1.05-.92,1.08-.87.04-1.22-.53-1.25-1.25-.03-.64.42-1,1.07-1,.84,0,.98.64,1.1,1.17Z"/>
      <path class="cls-1" d="M125.9,66.26c-.06.85-.56,1.15-1.2,1.15-.58,0-1-.42-.98-.99.02-.67.53-1.07,1.17-1.12.68-.05.94.45,1.01.96Z"/>
      <path class="cls-1" d="M130.2,133.55c-.03.64-.48.98-1.08.94-.56-.04-1.12-.38-1.1-1.04.01-.59.34-1.11,1.04-1.05.63.05,1.15.33,1.15,1.16Z"/>
      <path class="cls-1" d="M73.74,40.83c-.17-3.2,2.19-4.72,4.12-5.43,1.49-.55,3.66.56,4.75,2.49,1.55,2.73,2.62,5.64,2.49,8.86-.07,1.68-.77,2.97-2.34,3.74-1.58.78-3.12.56-4.36-.54-2.72-2.42-4.17-5.55-4.67-9.12ZM83.18,45.98c.01-1.76-1.16-5.51-2.32-7.16-.42-.59-.93-1.08-1.58-1.41-.26-.13-.5-.23-.79-.17-1.44.3-2.78,1.84-2.74,3.34.08,2.89,1.57,5.19,3.33,7.32.64.78,1.47,1.39,2.6.94,1.17-.47,1.52-1.43,1.5-2.85Z"/>
      <path class="cls-1" d="M166.41,106.74c1.74-.15,3.32.59,4.96,1.08.34.1.7.27.93.51,3.34,3.44,6.26,7.17,5.99,12.29-.23,4.22-1.66,7.93-5.53,10.29-5.46,3.34-14.92,1.55-17.89-6.31-1.92-5.08-.49-9.53,2.42-13.7,1.59-2.27,3.71-3.78,6.63-3.98.82-.05,1.62-.36,2.49-.19ZM166.63,130.52c4.5,0,7.57-2.16,9.03-6.4.63-1.84,1.01-3.75.5-5.64-1.12-4.17-2.84-8.01-7.42-9.42-2.81-.87-5.7-.73-8.06,1.15-3.43,2.74-5,6.59-4.66,10.87.45,5.65,4.95,9.44,10.6,9.44Z"/>
      <path class="cls-5" d="M83.18,45.98c.01,1.42-.33,2.38-1.5,2.85-1.14.45-1.96-.16-2.6-.94-1.76-2.13-3.25-4.43-3.33-7.32-.04-1.49,1.3-3.04,2.74-3.34.29-.06.54.04.79.17.65.34,1.17.82,1.58,1.41,1.16,1.65,2.33,5.4,2.32,7.16ZM79.75,40.69c0-.8-.93-2.02-1.53-2.02-.72,0-1.3.83-1.27,1.85.03.92.37,1.64,1.39,1.75.75.08,1.41-.71,1.41-1.59Z"/>
      <path class="cls-4" d="M166.63,130.52c-5.66,0-10.16-3.79-10.6-9.44-.34-4.29,1.23-8.14,4.66-10.87,2.36-1.88,5.25-2.01,8.06-1.15,4.58,1.41,6.3,5.25,7.42,9.42.51,1.89.13,3.8-.5,5.64-1.46,4.24-4.53,6.4-9.03,6.4Z"/>
      <path class="cls-1" d="M79.75,40.69c0,.88-.66,1.67-1.41,1.59-1.02-.11-1.36-.84-1.39-1.75-.04-1.03.54-1.86,1.27-1.85.61,0,1.53,1.22,1.53,2.02Z"/>
    </g>
  </g>
</svg>