<?xml version="1.0" encoding="UTF-8"?>
<svg id="Calque_2" data-name="Calque 2" xmlns="http://www.w3.org/2000/svg" viewBox="0 0 235.12 254.72">
  <defs>
    <style>
      .cls-1 {
        fill: #110e0e;
      }

      .cls-1, .cls-2, .cls-3, .cls-4, .cls-5, .cls-6 {
        stroke-width: 0px;
      }

      .cls-2 {
        fill: #dcc582;
      }

      .cls-3 {
        fill: #998443;
      }

      .cls-4 {
        fill: #8d6756;
      }

      .cls-5 {
        fill: #fff;
      }

      .cls-6 {
        fill: #a676b1;
      }
    </style>
  </defs>
  <g id="Calque_1-2" data-name="Calque 1">
    <g>
      <path class="cls-5" d="M171.08,36.36c.43.07.52-.31.68-.55,3.21-4.7,6.7-9.15,11.09-12.83.23-.19.28-.47.21-.77.09-.15.19-.29.28-.44,3.15-3.39,6.11-6.95,9.39-10.21.31-.31.55-.69.77-1.06,1.58-2.58.26-5.47-2.78-5.73-3.3-.28-6.64-.19-9.82.91-8.46,2.92-16.01,7.4-22.36,13.72-6.21,6.18-11.36,13.17-14.89,21.25-2.42,5.55-3.97,11.33-4.47,17.4-.61,7.42,1.36,14.29,4.21,21,.86,2.03,1.84,3.99,3.23,5.71,1.23,1.52,2.73,2.55,4.76,2.62.34.97.61,1.98,1.04,2.91.36.78.19,1.32-.24,2.03-1.84,3.09-3.75,6.21-3.13,10.04.54,3.29,1.13,6.59,2.41,9.7.68,1.66,1.44,3.29,2.91,4.45,6.89,5.45,14.56,7.63,23.24,5.53.84-.2.96.01.85.76-.25,1.73-.52,3.47-.66,5.21-.07.83-.38,1.27-1.12,1.61-10.34,4.67-20.68,9.36-31.01,14.08-.8.36-1.25.26-1.82-.37-8.31-9.02-16.63-18.02-24.99-27-.67-.72-.91-1.42-.78-2.35.16-1.1.29-2.21.4-3.32.12-1.15.22-2.3.3-3.46.04-.62-.34-.99-.92-1.04-.53-.04-.92.26-1,.82-.09.59-.15,1.19-.22,1.78-.16,1.45-.31,2.89-.46,4.36-.49-.1-.62-.42-.82-.64-1.75-1.87-3.49-3.74-5.22-5.62-.46-.5-.97-.77-1.55-.25-.57.51-.42,1.06.04,1.57.27.3.54.59.81.88,1.49,1.6,2.97,3.2,4.64,4.99-.66-.04-1.08-.06-1.5-.1-1.71-.15-3.42-.31-5.12-.47-.64-.06-1.14.15-1.2.85-.06.73.37,1.07,1.08,1.13,2.62.23,5.24.51,7.86.7.65.05,1.08.26,1.52.73,6.74,7.31,13.51,14.6,20.26,21.9,2.09,2.26,4.22,4.47,6.21,6.82.62.73,1.06.9,1.88.52,8.13-3.71,16.26-7.39,24.4-11.09,2.58-1.17,5.16-2.35,7.81-3.56,0,.39.03.63,0,.87-.48,3.89-.65,7.79-.74,11.71-.07,3.11-.16,6.23-.26,9.34-.32,9.42-.27,18.84.58,28.24.37,4.06,1.53,7.96,3.81,11.41,1.1,1.67,2.33,3.25,4.37,3.91,3.88,1.25,8.13-.3,10.29-3.79.51-.82.96-1.68,1.5-2.62.17.45.28.75.39,1.05,1.3,3.21,2.63,6.46,4.89,9.11,3.48,4.08,7.97,6.25,13.39,6.31,2.3.03,4.2.68,5.37,2.85.51.95,1.25,1.74,2.3,2.18,3.73,1.58,7.1.04,8.27-3.87.76-2.55.37-5.08-.53-7.49-1.01-2.71.04-5.91,2.05-7.76,0,.51,0,.99,0,1.47,0,19.42-.02,38.83-.03,58.25,0,.36-.02.72,0,1.08.05.6.41.98,1,.98.6,0,.95-.4.99-.99.04-.6.02-1.2.02-1.8.05-83.34.1-166.68.14-250.02,0-.28,0-.56,0-.84.01-.69-.37-1.09-1.01-1.07-.56.02-.94.39-.93,1.03,0,.32,0,.64,0,.96-.01,19.26-.02,38.51-.03,57.77,0,9.27-.02,18.54-.04,27.81,0,.45.11.88-.4,1.27-5.85,4.43-11.7,8.85-17.49,13.36-1.88,1.46-3.79,2.59-6.22,3-5.01.85-10.01,1.71-14.96,2.89-.61.15-.87-.13-.67-.77.44-1.41.61-2.87.81-4.33.83-6.23-1.31-11.6-5.4-15.99-4.23-4.54-9.73-6.94-16.08-6.99-1.9-.02-1.92-.05-1.84-1.93,3.68-.94,6.32-3.21,8.21-6.44.22-.24.43-.48.65-.72.24-.26.5-.5.73-.77,2.51-2.95,4.25-6.41,6.34-9.63.81-1.25,1.76-2.43,2.28-3.86.08-.1.16-.2.25-.3.23-.27.49-.52.69-.8,3.72-5.06,7.41-10.14,11.16-15.17,1.13-1.51,2.44-2.89,3.67-4.33.06-.06.13-.13.19-.19.38.02.55-.29.77-.5,3.16-3.05,6.4-5.99,9.93-8.62,1.8-1.34,3.89-2.19,5.58-3.69,2.47-2.2,2.45-4.91-.07-7.03-1.68-1.42-3.75-1.72-5.73-2.23-4.2-1.09-8.47-1.83-12.7-.28-7.03,2.58-13.41,6.25-19.04,11.26-7.59,6.74-12.55,15.2-16.5,24.38-2.24,5.21-3.47,10.68-3.79,16.33-.18,3.24.05,6.47,1.15,9.55.68,1.89,1.86,3.36,4.1,3.5.3.98.13,1.44-1.04,1.8-2.88.88-5.69,2.04-8.05,4.01-1.87,1.56-3.84,3.01-5.41,5.25-.36-1.23-.64-2.17-.92-3.11.94-.91,1.5-2.06,1.96-3.25,1.21-3.12,2.11-6.35,2.84-9.61.81-3.61,1.39-7.27,2.29-10.85,1.12-4.44,2.72-8.74,4.28-13.04,1.58-4.34,3.22-8.67,6.05-12.41.21-.27.49-.55.34-.96h0ZM113.66,77.12c-2.11-1.53-3.79-3.53-5.71-5.27-6.09-5.51-11.57-11.56-16.36-18.24-2.16-3.01-4.21-6.08-5.65-9.51-.42-.99-.91-1.94-2.29-1.3-.13.06-.32,0-.48,0-9.14-.17-18.29-.33-27.43-.5-18.09-.33-36.18-.65-54.27-.99-.76-.01-1.47.11-1.47.98,0,.86.69,1.01,1.45,1.02,7.63.13,15.25.29,22.88.43,19.61.34,39.21.68,58.82.99.64.01.98.16,1.24.78,1.13,2.64,2.67,5.05,4.27,7.43,6.52,9.68,14.83,17.73,23.4,25.54,1.3,1.18,2.73,2.2,4.34,2.92.51.23,1,.25,1.41-.21.38-.43.26-.88.01-1.33-.31-.56-.63-1.1-.94-1.66-3.22-5.85-4.8-12.11-5.37-18.76-.43-5.01.5-9.74,1.63-14.51.2-.85.64-1.22,1.59-1.2,3.35.05,6.72-.13,10.06.04,2.7.14,5.01-.72,7.16-2.14,1.84-1.21,3.39-2.71,3.43-5.15.16-11.14.31-22.28.47-33.43.01-.71-.1-1.37-.91-1.4-.89-.04-1.03.64-1.04,1.4-.15,10.94-.31,21.89-.46,32.83-.01.78-.08,1.56-.56,2.16-1.63,2.02-3.69,3.47-6.34,3.57-3.99.14-7.99.06-11.98.08-1.56,0-2.7.81-3.19,2.32-.24.75-.36,1.55-.58,2.3-2.14,7.12-1.51,14.27-.11,21.4.62,3.17,1.91,6.13,3.18,9.08-.08.11-.15.22-.23.33Z"/>
      <path class="cls-1" d="M170.87,78.07c-.09,1.88-.06,1.92,1.84,1.93,6.35.05,11.85,2.45,16.08,6.99,4.09,4.38,6.23,9.76,5.4,15.99-.2,1.46-.37,2.92-.81,4.33-.2.65.05.92.67.77,4.94-1.19,9.95-2.04,14.96-2.89,2.42-.41,4.34-1.54,6.22-3,5.79-4.5,11.64-8.93,17.49-13.36.51-.38.4-.82.4-1.27.02-9.27.03-18.54.04-27.81.01-19.26.02-38.51.03-57.77,0-.32,0-.64,0-.96-.01-.64.37-1.01.93-1.03.63-.02,1.02.38,1.01,1.07,0,.28,0,.56,0,.84-.05,83.34-.1,166.68-.14,250.02,0,.6.01,1.2-.02,1.8-.04.6-.39.99-.99.99-.59,0-.95-.39-1-.98-.03-.36,0-.72,0-1.08,0-19.42.02-38.83.03-58.25,0-.48,0-.96,0-1.47-2.01,1.85-3.06,5.05-2.05,7.76.91,2.42,1.3,4.95.53,7.49-1.17,3.92-4.54,5.46-8.27,3.87-1.05-.45-1.79-1.24-2.3-2.18-1.17-2.17-3.07-2.82-5.37-2.85-5.42-.06-9.91-2.23-13.39-6.31-2.26-2.65-3.59-5.9-4.89-9.11-.12-.29-.22-.59-.39-1.05-.54.95-.99,1.8-1.5,2.62-2.16,3.48-6.41,5.04-10.29,3.79-2.04-.65-3.27-2.24-4.37-3.91-2.28-3.46-3.44-7.35-3.81-11.41-.85-9.39-.9-18.81-.58-28.24.1-3.11.19-6.23.26-9.34.09-3.91.26-7.82.74-11.71.03-.23,0-.48,0-.87-2.65,1.21-5.23,2.38-7.81,3.56-8.13,3.69-16.27,7.38-24.4,11.09-.82.38-1.26.21-1.88-.52-1.99-2.34-4.12-4.56-6.21-6.82-6.76-7.3-13.52-14.59-20.26-21.9-.44-.47-.87-.69-1.52-.73-2.62-.19-5.24-.47-7.86-.7-.71-.06-1.14-.4-1.08-1.13.06-.7.55-.91,1.2-.85,1.71.16,3.41.32,5.12.47.42.04.83.06,1.5.1-1.66-1.79-3.15-3.39-4.64-4.99-.27-.29-.55-.58-.81-.88-.46-.51-.61-1.06-.04-1.57.58-.52,1.09-.25,1.55.25,1.74,1.88,3.48,3.75,5.22,5.62.21.22.34.54.82.64.16-1.47.31-2.92.46-4.36.06-.59.13-1.19.22-1.78.09-.56.47-.86,1-.82.58.05.96.42.92,1.04-.07,1.15-.18,2.31-.3,3.46-.11,1.11-.24,2.22-.4,3.32-.14.93.11,1.64.78,2.35,8.35,8.98,16.68,17.98,24.99,27,.58.63,1.02.73,1.82.37,10.32-4.72,20.66-9.41,31.01-14.08.74-.34,1.06-.77,1.12-1.61.14-1.74.41-3.48.66-5.21.11-.75,0-.97-.85-.76-8.68,2.1-16.35-.08-23.24-5.53-1.46-1.16-2.22-2.79-2.91-4.45-1.28-3.11-1.87-6.41-2.41-9.7-.62-3.83,1.29-6.95,3.13-10.04.42-.71.59-1.25.24-2.03-.43-.93-.7-1.94-1.04-2.91-.14-.53-.34-1.06-.41-1.61-.17-1.2-.36-2.27-2.05-1.73-.58.19-.96-.31-1.05-.89-.09-.55.18-1.05.72-1.05,1.6-.02,1.5-1.04,1.39-2.13-.09-.95-.18-1.91-.19-2.87,0-.58-.22-.74-.78-.73-1.48.03-2.95,0-4.43,0-.94,0-1.44-.39-1.27-1.39.34-.47.8-.57,1.36-.56,1.28.04,2.56-.02,3.83.05.97.06,1.47-.17,1.19-1.24.03-1.39.01-2.78.11-4.17.05-.7-.2-.85-.83-.9-2.13-.18-4.26-.41-6.39-.64-1.13-.12-1.35-.55-.95-1.69.62-.41,1.31-.25,1.97-.2,1.69.13,3.41.18,5.07.51,1.29.26,1.51-.28,1.49-1.31.27-2.53.66-5.05,1.19-7.54.16-.76.13-1.2-.84-1.4-2.64-.55-5.26-1.24-7.87-1.9-1.4-.35-1.56-1.01-.56-2.06,3,.5,5.91,1.37,8.87,2.06.83.19,1.23,0,1.18-.89.78-2.49,1.39-5.04,2.43-7.45.33-.75.18-.99-.6-1.22-2.48-.71-4.93-1.49-7.38-2.27-1.32-.42-1.43-1.02-.42-1.99.53-.06,1.02.13,1.51.28,2.36.71,4.72,1.4,7.06,2.17.81.27,1.22.15,1.29-.73,1.71-3.36,3.27-6.81,5.24-10.04.28-.47.31-.81-.28-1.21-2.01-1.36-3.96-2.82-5.93-4.24-.52-.37-.96-.79-.59-1.48.48-.89,1.12-.7,1.79-.22,1.94,1.4,3.9,2.78,5.81,4.21.61.46.91.41,1.36-.23,1.53-2.19,3.28-4.22,5.03-6.23.34-.28.77-.59.28-1.03-1.61-1.44-3.07-3.05-4.87-4.26-.02-.6-.11-1.22.58-1.55.72-.34,1.1.24,1.53.62,1.34,1.19,2.65,2.4,3.99,3.59.22.2.39.66.85.24,1.44-1.3,2.91-2.56,4.37-3.84.83-.28.39-.64.07-1.01-1.03-1.18-2.3-2.15-3.04-3.58.41-1.2,1.07-1.37,1.95-.47.91.94,1.81,1.9,2.68,2.87.37.41.65.6,1.15.15.8-.71,1.66-1.34,2.49-2.01,1.05-.47,1.02-.97.15-1.67-.6-.48-1.33-.91-1.5-1.78.46-1.09.97-1.25,1.84-.53.58.48,1.16.97,1.67,1.53.43.46.77.42,1.15,0,.43-.18.61-.46.36-.91-.24-.44-.08-.82.14-1.2.66-.38,1.19-.24,1.67.34.59.71,1.2,1.39,1.83,2.06.38.4.62.82.54,1.39-.42.64-1.05.56-1.68.48h0c0-.15-.09-.23-.24-.24h0c-.09-.39-.26-.71-.74-.71-1.05.29-1.03.73-.21,1.35.57.43,1.07.96,1.61,1.42.62.52.78,1.08.27,1.76-.6.39-1.08.22-1.57-.26-.7-.69-1.47-1.31-2.19-1.99-.42-.4-.78-.58-1.03.14-1.47.59-2.49,1.81-3.82,2.68,1.35,1.45,2.64,2.85,3.96,4.23.41.43.7.86.62,1.47-.09.15-.19.29-.28.44-.64.54-1.16.28-1.65-.24-1.2-1.28-2.44-2.53-3.59-3.86-.54-.63-.97-.53-1.48-.11-1.26,1.04-2.51,2.1-3.78,3.13-.5.4-.47.67,0,1.09,1.27,1.1,2.49,2.25,3.74,3.37.58.52,1.06,1.04.39,1.81-.73.83-1.28.2-1.81-.26-1.14-1-2.32-1.97-3.34-3.08-.76-.83-1.25-.63-1.87.07-1.64,1.86-3.18,3.79-4.69,5.75-.45.58-.42.88.21,1.3,1.72,1.16,3.37,2.42,5.07,3.61.57.4.92.87.82,1.59,0,0,0,0,0,0-.39.18-.68.58-1.16.55-1.94-1.37-3.91-2.69-5.8-4.12-.74-.56-1.01-.32-1.25.38-1.47,2.22-2.62,4.62-3.77,7.01-.37.77-.89,1.5-.94,2.41-.44.44-.78.89.12,1.16,2.01.61,4.02,1.19,6.03,1.78.53.33,1.22.61.88,1.43-.35.84-1.01.68-1.71.45-1.93-.62-3.89-1.15-5.81-1.8-.7-.23-.98-.11-1.23.57-.88,2.35-1.68,4.72-2.25,7.16-.55,1.1-.13,1.55,1.02,1.74,1.51.26,3,.68,4.49,1.03.59.28,1.05.69.73,1.39-.29.66-.85.67-1.51.49-1.56-.43-3.15-.78-4.73-1.17-.41-.1-.76-.22-.87.41-.42,2.54-.97,5.06-1.15,7.64.18.57-.68,1.55.59,1.68,1.22.13,2.44.4,3.68.27.68.17,1.42.34,1.22,1.27-.19.9-.89.83-1.61.73-1.11-.15-2.22-.21-3.33-.34-.65-.08-.91.14-.95.81-.09,1.48-.17,2.95-.06,4.42-.14.58.1.77.67.76,1.02-.01,2.04.03,3.07.04.34.39.71.78.43,1.36-.28.58-.81.55-1.33.55-.72-.01-1.43,0-2.15-.02-.37,0-.65.08-.59.52.16,1.25-.1,2.55.32,3.78,0,.35-.09.78.47.73.49-.05.81.24,1.16.48.09.53.15,1.18-.43,1.34-1.02.29-.78.87-.57,1.54.17.56.2,1.16.53,1.67.28.94.56,1.88.92,3.11,1.56-2.24,3.53-3.69,5.41-5.25,2.36-1.97,5.17-3.12,8.05-4.01,1.17-.36,1.34-.83,1.04-1.8.03-.27.05-.54.09-.81.13-.94.06-1.55-1.23-1.42-.97.1-1.24-.67-.74-1.74.48-.15.95-.32,1.47-.28.51.04.7-.21.66-.69.2-1,.77-2.14.47-2.96-.22-.62-1.63-.39-2.52-.52-.08-.01-.15-.03-.23-.05-1.18-.26-1.34-.6-.84-1.75,1.13-.56,2.24,0,3.33.13.78.1,1.01-.11,1.01-.81.6-1.88,1.18-3.76,1.8-5.63.18-.54-.08-.7-.51-.83-1.17-.35-2.35-.69-3.52-1.07-1.17-.39-1.27-1.09-.29-1.94,1.42.02,2.7.6,3.99,1.05,1.02.35,1.48.11,1.63-.91.78-1.69,1.53-3.39,2.35-5.06.32-.65.17-.87-.48-1.08-1.36-.43-2.7-.93-4.03-1.44-1.25-.48-1.33-1.14-.27-2.06,1.64.29,3.17.95,4.69,1.58,1.12.46,1.69.23,1.98-.89,1.27-2.16,2.55-4.32,3.82-6.48.3-.29.57-.55.01-.9-1.98-1.23-3.94-2.49-5.91-3.74-.35-.54-.54-1.08.05-1.59.56-.47,1.03-.14,1.51.17,1.27.82,2.54,1.64,3.8,2.46,2.1,1.35,2.09,1.34,3.65-.57,1.35-1.66,2.74-3.29,4.11-4.94.42-.24.92-.45.32-1.02-1.82-1.72-3.47-3.61-5.39-5.23-.15-.61-.22-1.21.47-1.55.65-.32,1.04.15,1.44.54,1.56,1.54,3.15,3.06,4.67,4.64.52.54.81.51,1.34.02,1.25-1.17,2.57-2.27,3.86-3.39,1.16-.49,1.09-1.07.32-1.97-1.37-1.61-2.61-3.32-3.9-4.99.02-.56.18-1.03.79-1.19.61-.15.95.23,1.29.66,1.24,1.61,2.52,3.2,3.73,4.84.43.58.76.64,1.35.22,1.72-1.23,3.61-2.19,5.52-3.11.7-.14.63-.51.33-1.01-.77-1.29-1.5-2.61-2.25-3.91-.26-.45-.56-.88-.39-1.44.96-.83,1.4-.77,2.03.31.82,1.41,1.61,2.83,2.42,4.25.18.32.26.71.85.44,1.22-.55,2.5-.98,3.76-1.46,1.04.05,1.14-.4.81-1.3-.35-.95-.86-1.87-.81-2.94,1.3-.76,1.64-.63,2.14.8.23.67.5,1.33.69,2.02.15.55.41.8,1.01.69.3-.05.62.03.93.05.17.31.34.61.5.92-.12.2-.2.55-.36.59-1.57.39-.85,1.34-.57,2.18.11.34.25.66.36,1,.42,1.27.25,1.56-1.09,1.87-.99-.84-1.06-2.11-1.44-3.21-.3-.88-.67-1.13-1.48-.69-1.03.17-1.97.62-2.95.93-.82.26-1.07.57-.51,1.41.83,1.26,1.51,2.62,2.26,3.93.34.59.41,1.14-.25,1.55-.62.38-1.07.02-1.43-.44-.27-.34-.49-.72-.71-1.1-.64-1.1-1.29-2.2-1.88-3.32-.26-.48-.52-.64-1.03-.39-2.07,1.01-4.12,2.05-6.01,3.47,1.77,2.27,3.49,4.5,5.25,6.72.42.53.7,1.06.44,1.74-.06.06-.13.13-.19.19-.44.14-.88.17-1.32-.01-1.78-2.31-3.56-4.61-5.33-6.92-.5-.64-.89-.54-1.24.13-1.66.78-2.77,2.24-4.19,3.33-.58.44-.48.71,0,1.16,1.93,1.85,3.82,3.75,5.73,5.62.43.43.91.83.63,1.54-.27.69-.89.54-1.44.57-2-2.28-4.27-4.3-6.4-6.44-.66-.66-.94-.03-1.27.4-1.83,1.73-3.37,3.72-4.94,5.69-.37.46-.33.69.17,1,1.69,1.05,3.36,2.15,5.03,3.23,1.11.71,2.21,1.44,3.31,2.15.52.33.67.81.44,1.34-.26.6-.82.6-1.34.42-.41-.14-.79-.38-1.15-.62-2.42-1.55-4.84-3.09-7.23-4.68-.6-.4-1-.38-1.37.2-1.26,1.98-2.56,3.94-3.48,6.11-.71.69-.67,1.17.36,1.45.54.14,1.04.39,1.57.56,2.3.74,4.5,1.79,6.86,2.33.65.39,1.23.83,1.05,1.73-.08.1-.16.2-.25.3-.6.22-1.16.08-1.74-.13-2.91-1.06-5.83-2.09-8.73-3.16-.46-.17-.76-.26-1.02.31-.77,1.74-1.7,3.41-2.3,5.23-.68.94-.29,1.32.7,1.61,2.19.63,4.35,1.36,6.52,2.05.25.43.43.86.05,1.32-.41.49-.93.4-1.43.25-2.09-.63-4.2-1.24-6.26-1.95-.7-.24-.92-.04-1.09.55-.46,1.6-.94,3.21-1.41,4.81-.61,1.1.07,1.29.95,1.4,1.96.25,3.91.52,5.86.78.36.31.55.7.54,1.18-.22.24-.43.48-.65.72-1.61-.19-3.23-.35-4.83-.59-2.79-.43-2.79-.45-3.14,2.47-.16.63.19.75.71.7.77-.08,1.3.18,1.45,1-.27.85-.92,1.02-1.7.94-.56-.06-.81.15-.74.73.04.39.03.79.05,1.19ZM223.11,178.99h.01c-.14-.43-.59-.49-.92-.67-3.2-1.72-6.21-3.72-9.21-5.77-6.51-4.45-12.36-9.56-17.1-15.9-1.91-2.55-3.52-5.29-5.36-7.88-.03-.08-.02-.23-.17-.15-.02.01.03.17.05.27.1,2.35.53,4.66.94,6.97,1.07,5.94,2.32,11.86,3.2,17.83.97,6.53,2.67,12.82,5.29,18.87,1.11,2.56,2.26,5.12,4.15,7.21,3.42,3.78,7.83,5.25,12.83,5.33,2.55.04,4.42,1.32,5.69,3.53.37.64.8,1.25,1.57,1.57,2.53,1.06,4.65.04,5.43-2.71.62-2.18.06-4.25-.59-6.31-.72-2.29-.62-4.52.46-6.72.85-1.73,1.97-3.28,3.1-4.81.22-.3.41-.53.42-.92.02-1.75.05-3.51.09-5.26.01-.45.03-.87-.55-1.02-3.23-.86-6.28-2.19-9.36-3.46ZM232.8,163.32c-.97.87-1.92,1.7-2.85,2.55-.57.53-1.17.76-1.77.13-.61-.63-.2-1.15.3-1.63,1.28-1.2,2.55-2.42,3.84-3.6.48-.44.68-.92.68-1.57.04-11.22.09-22.44.14-33.67,0-.54-.07-.97-.49-1.4-2.99-3-6.74-4.62-10.65-5.95-.55-.19-.79.01-.83.62-.05.79-.16,1.58-.31,2.36-.13.63-.35,1.34-1.19,1.21-.93-.15-1.07-.9-.87-1.66.22-.87.18-1.74.21-2.61.02-.49-.08-.83-.65-.95-3-.63-5.84-1.85-8.85-2.49-.85-.18-1.06.06-1.38.76-1.13,2.43-2.45,4.75-4.4,6.65-.5.49-1.05.83-1.65.22-.57-.58-.33-1.13.18-1.67,1.55-1.64,2.66-3.57,3.71-5.55.49-.92.52-1.27-.63-1.5-4.13-.84-8.26-1.76-12.12-3.55-.67-.31-.93.03-1.28.56-2.63,3.97-5.28,7.93-9.82,10.02-.46.21-.5.48-.35.95.86,2.82,1.69,5.64,2.52,8.47.12.42.31.61.76.52,2.85-.57,5.73-1.04,8.29-2.53.73-.42,1.39-.57,1.83.25.45.82-.22,1.28-.82,1.59-1.16.62-2.32,1.2-3.62,1.54-1.87.49-3.74.93-5.66,1.16,1.88,6.49,5.28,12.12,8.77,17.7.29.46.58.47.98.2,4.37-2.93,8.82-5.75,12.74-9.29,4.63-4.17,7.82-9.32,9.96-15.14.23-.64.57-1.12,1.29-.91.77.23.88.9.68,1.57-.24.8-.59,1.56-.91,2.34-2.35,5.72-5.92,10.58-10.59,14.59-3.57,3.06-7.49,5.69-11.47,8.19-1.01.64-.91,1.07-.33,1.92,2.42,3.49,5.24,6.64,8.24,9.62,3.41,3.39,7.51,5.91,11.35,8.76,1.53,1.14,1.52,1.12,3.12.12.72-.45,1.54-1.46,2.35-.37.75,1-.34,1.58-.96,2.1-.55.46-.66.66.04,1.08,3.61,2.16,7.37,3.96,11.41,5.18,1.33.4,1.35.4,1.35-.95,0-4.11,0-8.23,0-12.34,0-1.18.08-2.37-.32-3.59ZM171.49,120.98c3.51-.24,6.86-.88,10.02-2.3,3.38-1.52,5.39-4.51,7.58-7.3,2.61-3.32,3.29-7.24,3.29-11.26,0-4.05-1.66-7.69-4.17-10.74-4-4.86-9.36-7.26-15.67-7.39-1.49-.03-2.95-.26-4.49.26-7.82,2.61-12.97,8-16.36,15.3-.59,1.28-.94,2.68-.71,4.08.54,3.34,1.14,6.68,2.42,9.84.48,1.18,1,2.37,1.97,3.25,4.59,4.16,10.19,5.74,16.12,6.27ZM182.09,129.6c-2.53.02-2.91,1.66-2.88,3.62,0,.47-.15.95-.19,1.42-.62,7.73-.64,15.48-.9,23.22-.19,5.74-.03,11.51.23,17.25.1,2.35-.17,4.77,1.1,7.05,1.42,2.56,4.19,4.94,7.5,4.42,2.96-.47,4.96-2.21,6.63-4.5.36-.49.36-1.03.24-1.6-.25-1.12-.5-2.25-.7-3.38-.78-4.46-1.5-8.94-2.32-13.39-.94-5.08-2.05-10.14-2.48-15.31-.13-1.54-.05-3.22-.68-4.56-2.19-4.68-4.41-9.32-5.53-14.25ZM206.06,111.71c2.28.58,4.34,1.1,6.4,1.65.83.22,1.55.26,2.47.06,5.74-1.26,11.36-3.09,17.19-3.92.87-.12,1.09-.53,1.04-1.35-.09-1.31-.15-2.63-.08-3.95.1-2.2.16-2.13-1.98-1.81-4.61.69-9.09,1.98-13.65,2.88-1.59.31-3.32.36-4.67,1.3-2.25,1.56-4.37,3.33-6.71,5.14ZM179.83,186.05c.85,3.25,2.09,5.94,4.33,8.12.47.46,1,.75,1.63.95,2.57.81,5.66-.1,7.42-2.29,1.91-2.38,2.99-6.06,1.33-8.68-4.13,5.15-10.43,5.79-14.7,1.9ZM233.14,121.75c0-3.3-.04-6.36.02-9.42.02-.97-.35-1-1.13-.88-3.31.52-6.53,1.38-9.76,2.23-.81.21-1.63.37-2.44.56-.76.18-1.55.25-2.37.67,5.69,1.28,10.96,3.17,15.68,6.83ZM217.31,103.06c.03.08.06.16.09.23,1.77-.41,3.54-.81,5.31-1.23,3.17-.75,6.36-1.36,9.57-1.87.37-.06.83.01.82-.61-.01-2.8,0-5.6,0-8.63-5.39,4.14-10.59,8.12-15.79,12.11ZM197.57,109.31c1.82.97,3.76,1.32,5.66,1.77.14.03.34,0,.44-.08,1.53-1.16,3.06-2.34,4.58-3.51-.04-.06-.08-.13-.11-.19-3.53.67-7.05,1.34-10.58,2.01ZM179.8,128.2c.61-.44,1.69-.24,1.57-1.21-.12-1.03-.58-2.02-.89-3.03-.06.01-.12.03-.18.04-.16,1.36-.32,2.71-.5,4.19Z"/>
      <path class="cls-2" d="M146.17,40.21c-1.01.97-.9,1.57.42,1.99,2.45.78,4.91,1.57,7.38,2.27.78.22.93.46.6,1.22-1.04,2.4-1.65,4.95-2.43,7.45-2.25-.65-4.51-1.29-6.76-1.95-.84-.25-1.67-.5-2.57-.46-.91.04-1.15.42-.71,1.23-1.01,1.05-.85,1.71.56,2.06,2.62.66,5.23,1.35,7.87,1.9.96.2,1,.64.84,1.4-.53,2.49-.92,5-1.19,7.54-1.83.11-3.64-.14-5.45-.37-.91-.11-1.83-.18-2.73.02-.92.21-1,.61-.35,1.35-.41,1.13-.18,1.56.95,1.69,2.13.23,4.26.46,6.39.64.63.05.88.2.83.9-.1,1.38-.08,2.78-.11,4.17-1.84-.32-3.64.05-5.45.21-1.23.11-1.31.61-.92,1.53-.17,1,.33,1.4,1.27,1.39,1.48,0,2.95.03,4.43,0,.56-.01.77.14.78.73.01.96.1,1.91.19,2.87.1,1.09.2,2.11-1.39,2.13-.53,0-.81.5-.72,1.05.1.57.47,1.07,1.05.89,1.69-.54,1.87.52,2.05,1.73.08.54.27,1.07.41,1.61-2.03-.07-3.54-1.11-4.76-2.62-1.39-1.72-2.37-3.68-3.23-5.71-2.85-6.71-4.83-13.58-4.21-21,.5-6.07,2.05-11.85,4.47-17.4,3.52-8.08,8.67-15.07,14.89-21.25,6.35-6.32,13.9-10.8,22.36-13.72,3.18-1.1,6.52-1.19,9.82-.91,3.04.26,4.36,3.14,2.78,5.73-.23.37-.47.76-.77,1.06-3.28,3.26-6.24,6.82-9.39,10.21.07-.61-.22-1.04-.62-1.47-1.32-1.38-2.61-2.78-3.96-4.23,1.33-.86,2.35-2.09,3.82-2.68.62,1.38,2.02,1.94,3.07,2.85.95.82,1.46.55,1.72-.75.51-.68.35-1.24-.27-1.76-.55-.46-1.05-.99-1.61-1.42-.82-.62-.84-1.06.21-1.35.08.41.28.69.74.71,0,0,0,0,0,0,0,.15.09.23.24.24,0,0,0,0,0,0,0,.44.4.54.64.77.48.45,1.02.69,1.51.06.5-.63-.02-.98-.48-1.31.08-.56-.16-.99-.54-1.39-.63-.67-1.24-1.35-1.83-2.06-.48-.58-1.01-.73-1.67-.34-.42-.28-.84-.29-1.13.14-.24.36-.15.75.14,1.08.23.26.56.46.49.89-.39.41-.73.45-1.15,0-.51-.55-1.09-1.04-1.67-1.53-.86-.72-1.37-.57-1.84.53-1.22.26-1.39.69-.57,1.58.6.66,1.28,1.24,1.93,1.86-.83.66-1.7,1.3-2.49,2.01-.51.45-.79.26-1.15-.15-.88-.97-1.77-1.93-2.68-2.87-.87-.9-1.53-.73-1.95.47-.45.34-.61.8-.22,1.23,1.04,1.14,1.89,2.46,3.19,3.36-1.46,1.28-2.93,2.55-4.37,3.84-.46.42-.63-.04-.85-.24-1.34-1.19-2.65-2.4-3.99-3.59-.43-.38-.8-.96-1.53-.62-.69.32-.6.95-.58,1.55-.53.91.35,1.23.76,1.67,1.2,1.29,2.8,2.15,3.83,3.62-1.76,2.02-3.5,4.04-5.03,6.23-.45.64-.75.69-1.36.23-1.92-1.43-3.87-2.81-5.81-4.21-.67-.48-1.31-.67-1.79.22-.37.7.06,1.11.59,1.48,1.98,1.42,3.92,2.88,5.93,4.24.59.4.56.74.28,1.21-1.97,3.23-3.52,6.68-5.24,10.04-2.9-.93-5.8-1.89-8.72-2.79-.9-.28-1.08.38-1.14,1.08ZM191,9.28c.74-.86.7-1.55-.12-2.45-.63-.68-1.19-.37-1.74.09-.86-.05-.95.51-.67,1.07.31.62.74,1.23,1.25,1.7.52.48,1.16.65,1.29-.41Z"/>
      <path class="cls-2" d="M195.32,27.75c-1.29,1.13-2.61,2.22-3.86,3.39-.53.49-.82.52-1.34-.02-1.52-1.58-3.11-3.1-4.67-4.64-.4-.39-.78-.86-1.44-.54-.69.34-.62.94-.47,1.55-.52.46-.2.87.11,1.22,1.55,1.78,3.16,3.51,4.97,5.03-1.37,1.64-2.75,3.28-4.11,4.94-1.56,1.91-1.55,1.92-3.65.57-1.27-.82-2.54-1.64-3.8-2.46-.48-.31-.95-.64-1.51-.17-.6.51-.4,1.05-.05,1.59-.22.51.08.76.44,1.08,1.65,1.45,3.67,2.33,5.45,3.56-1.27,2.16-2.55,4.32-3.82,6.48-1.77-.57-3.54-1.15-5.31-1.71-1.18-.38-1.38-.22-1.36,1.03-1.06.92-.98,1.58.27,2.06,1.33.51,2.67,1.01,4.03,1.44.65.21.8.42.48,1.08-.83,1.67-1.57,3.37-2.35,5.06-1.48-.47-2.96-.93-4.44-1.4-.43-.14-.89-.31-1.24.04-.37.37-.11.82.05,1.23-.98.85-.89,1.55.29,1.94,1.16.39,2.34.72,3.52,1.07.43.13.68.29.51.83-.62,1.87-1.2,3.76-1.8,5.63-1.04-.13-2.1-.22-3.13-.42-.98-.19-1.33.16-1.21,1.1-.5,1.15-.33,1.49.84,1.75.08.02.15.04.23.05.89.12,2.3-.1,2.52.52.29.83-.28,1.96-.47,2.96-.43-.01-.85-.03-1.28-.04-.71-.02-.99.32-.86,1.02-.5,1.07-.23,1.84.74,1.74,1.29-.14,1.36.48,1.23,1.42-.04.27-.06.54-.09.81-2.24-.14-3.42-1.61-4.1-3.5-1.1-3.08-1.34-6.31-1.15-9.55.32-5.65,1.55-11.12,3.79-16.33,3.95-9.17,8.91-17.64,16.5-24.38,5.63-5,12.01-8.68,19.04-11.26,4.23-1.55,8.5-.81,12.7.28,1.98.51,4.05.82,5.73,2.23,2.52,2.12,2.54,4.83.07,7.03-1.69,1.5-3.78,2.35-5.58,3.69-3.53,2.63-6.78,5.57-9.93,8.62-.22.21-.4.52-.77.5.26-.68-.02-1.21-.44-1.74-1.76-2.22-3.48-4.45-5.25-6.72,1.89-1.42,3.95-2.45,6.01-3.47.51-.25.77-.09,1.03.39.59,1.12,1.24,2.22,1.88,3.32.22.38.44.76.71,1.1.36.47.81.82,1.43.44.65-.4.59-.95.25-1.55-.75-1.31-1.43-2.67-2.26-3.93-.56-.84-.3-1.15.51-1.41.98-.32,1.92-.76,2.95-.93.2,1.4,1,2.55,1.63,3.76.28.53.79.81,1.29.14,1.34-.31,1.51-.6,1.09-1.87-.11-.34-.25-.66-.36-1-.28-.84-1-1.79.57-2.18.16-.04.24-.39.36-.59.12.24.22.48.35.72.48.91.92.91,1.56,0,1.1-.48.72-1.37.55-2.16-.18-.84-.86-.81-1.53-.72-.17-.47-.52-.58-.95-.45-.41.13-.49.47-.49.86,0,.28,0,.55,0,.83-.31-.02-.64-.11-.93-.05-.6.11-.86-.14-1.01-.69-.19-.68-.45-1.35-.69-2.02-.5-1.43-.83-1.56-2.14-.8-.22-.51-.55-.34-.85-.11-.34.26-.3.59-.18.96.36,1.13.86,2.21,1.03,3.39-1.26.48-2.53.91-3.76,1.46-.6.27-.67-.12-.85-.44-.81-1.42-1.6-2.84-2.42-4.25-.63-1.08-1.07-1.14-2.03-.31-1.13.2-1.35.55-.76,1.46.73,1.14,1.56,2.22,2.31,3.34.32.48.87.87.76,1.56-1.9.92-3.79,1.88-5.52,3.11-.59.42-.92.36-1.35-.22-1.21-1.64-2.49-3.22-3.73-4.84-.33-.43-.68-.81-1.29-.66-.61.15-.77.63-.79,1.19-1.25.36-.77,1.08-.31,1.72,1.28,1.76,2.59,3.5,3.89,5.25Z"/>
      <path class="cls-1" d="M113.89,76.79c-1.27-2.95-2.56-5.91-3.18-9.08-1.4-7.13-2.03-14.28.11-21.4.23-.76.34-1.55.58-2.3.49-1.51,1.63-2.31,3.19-2.32,3.99-.02,7.99.07,11.98-.08,2.65-.1,4.71-1.54,6.34-3.57.48-.6.55-1.38.56-2.16.15-10.94.31-21.89.46-32.83.01-.77.15-1.44,1.04-1.4.81.03.92.69.91,1.4-.16,11.14-.31,22.28-.47,33.43-.04,2.44-1.59,3.94-3.43,5.15-2.15,1.42-4.46,2.28-7.16,2.14-3.35-.17-6.71.01-10.06-.04-.96-.02-1.39.35-1.59,1.2-1.13,4.77-2.06,9.5-1.63,14.51.57,6.65,2.15,12.92,5.37,18.76.31.56.63,1.11.94,1.66.25.44.37.89-.01,1.33-.41.46-.9.44-1.41.21-1.61-.73-3.04-1.74-4.34-2.92-8.57-7.8-16.87-15.86-23.4-25.54-1.6-2.37-3.14-4.79-4.27-7.43-.27-.62-.6-.77-1.24-.78-19.61-.32-39.21-.65-58.82-.99-7.63-.13-15.25-.3-22.88-.43-.76-.01-1.46-.16-1.45-1.02,0-.87.71-1,1.47-.98,18.09.34,36.18.66,54.27.99,9.14.17,18.29.33,27.43.5.16,0,.33,0,.48,0,1.74,0,1.87.31,2.29,1.3,1.45,3.43,3.5,6.5,5.65,9.51,4.79,6.68,10.26,12.73,16.36,18.24,1.92,1.74,3.6,3.74,5.71,5.27.1.15.25.37.4.23.17-.18-.02-.39-.17-.55Z"/>
      <path class="cls-2" d="M169.92,36.91c.49.02.77-.37,1.16-.55.16.41-.13.69-.34.96-2.83,3.74-4.47,8.07-6.05,12.41-1.57,4.3-3.17,8.6-4.28,13.04-.9,3.58-1.48,7.24-2.29,10.85-.73,3.26-1.63,6.48-2.84,9.61-.46,1.19-1.03,2.34-1.96,3.25-.33-.51-.36-1.11-.53-1.67-.21-.67-.46-1.25.57-1.54.58-.16.51-.82.43-1.34.46-.3.41-.72.18-1.11-.23-.39-.66-.36-1.04-.3-.26.04-.52.13-.78.2-.43-1.23-.17-2.52-.32-3.78-.06-.44.22-.53.59-.52.72.01,1.43,0,2.15.02.52,0,1.05.03,1.33-.55.29-.59-.09-.97-.43-1.36.06-.59-.34-.67-.79-.82-1-.34-1.96.08-2.94.01-.11-1.48-.03-2.95.06-4.42.04-.68.29-.89.95-.81,1.11.14,2.23.2,3.33.34.72.1,1.43.17,1.61-.73.19-.93-.54-1.11-1.22-1.27.5-1.23.29-1.6-.96-1.7-1.1-.09-2.2-.17-3.31-.25.18-2.58.73-5.1,1.15-7.64.11-.63.46-.51.87-.41,1.58.39,3.16.74,4.73,1.17.66.18,1.22.17,1.51-.49.31-.7-.14-1.11-.73-1.39.23-1.3-.05-1.61-1.31-1.78-1.43-.19-2.94-.08-4.19-.99.57-2.44,1.38-4.81,2.25-7.16.25-.67.53-.8,1.23-.57,1.92.65,3.88,1.18,5.81,1.8.71.23,1.36.39,1.71-.45.34-.82-.36-1.1-.88-1.43.51-.71.25-1.23-.48-1.46-1.87-.59-3.72-1.25-5.68-1.48.05-.91.57-1.63.94-2.41,1.15-2.39,2.29-4.79,3.77-7.01.21.1.44.19.63.32,1.57,1.06,3.11,2.15,4.71,3.17.48.31,1.01,1.09,1.71.26Z"/>
      <path class="cls-2" d="M179.48,50.26c.92-2.17,2.22-4.13,3.48-6.11.37-.59.77-.61,1.37-.2,2.39,1.59,4.81,3.13,7.23,4.68.37.24.75.47,1.15.62.52.18,1.07.18,1.34-.42.24-.54.09-1.01-.44-1.34-1.11-.71-2.21-1.43-3.31-2.15-1.67-1.08-3.34-2.18-5.03-3.23-.51-.31-.54-.54-.17-1,1.57-1.96,3.1-3.95,4.94-5.69,2.03,1.89,4.28,3.54,6.19,5.57.37.39.77,1.02,1.48.47.54-.03,1.17.12,1.44-.57.28-.71-.2-1.11-.63-1.54-1.91-1.87-3.8-3.77-5.73-5.62-.47-.45-.58-.72,0-1.16,1.42-1.08,2.53-2.54,4.19-3.33-.06.32.14.55.32.74,1.74,1.91,3.57,3.75,5.18,5.78.28.35.65.45,1.07.27.44.18.88.16,1.32.01-1.23,1.44-2.54,2.82-3.67,4.33-3.75,5.03-7.44,10.11-11.16,15.17-.21.28-.46.53-.69.8.19-.9-.39-1.34-1.05-1.73.5-.65-.03-.91-.47-1.12-2.69-1.28-5.52-2.23-8.32-3.23Z"/>
      <path class="cls-2" d="M171.08,36.36c.1-.72-.25-1.19-.82-1.59-1.7-1.19-3.35-2.44-5.07-3.61-.62-.42-.65-.72-.21-1.3,1.5-1.97,3.05-3.9,4.69-5.75.62-.7,1.11-.9,1.87-.07,1.02,1.11,2.21,2.08,3.34,3.08.53.47,1.09,1.09,1.81.26.67-.77.19-1.29-.39-1.81-1.25-1.12-2.47-2.27-3.74-3.37-.48-.41-.5-.69,0-1.09,1.27-1.03,2.52-2.09,3.78-3.13.52-.42.95-.52,1.48.11,1.14,1.33,2.39,2.58,3.59,3.86.49.53,1.01.78,1.65.24.06.29.02.57-.21.77-4.39,3.68-7.88,8.14-11.09,12.83-.16.24-.24.63-.68.55Z"/>
      <path class="cls-2" d="M175.3,58.9c.6-1.82,1.53-3.49,2.3-5.23.25-.58.56-.48,1.02-.31,2.91,1.07,5.82,2.1,8.73,3.16.58.21,1.14.35,1.74.13-.51,1.43-1.47,2.61-2.28,3.86-2.09,3.22-3.84,6.68-6.34,9.63-.23.27-.49.52-.73.77.01-.48-.18-.87-.54-1.18.15-.9-.3-1.29-1.13-1.49-1.87-.45-3.77-.57-5.68-.69.47-1.6.94-3.2,1.41-4.81.17-.59.4-.79,1.09-.55,2.07.71,4.17,1.32,6.26,1.95.5.15,1.03.24,1.43-.25.38-.46.19-.89-.05-1.32.22-.77-.1-1.15-.85-1.4-2.14-.72-4.26-1.5-6.38-2.26Z"/>
      <path class="cls-2" d="M171.11,73.51c.35-2.92.35-2.9,3.14-2.47,1.6.24,3.22.4,4.83.59-1.89,3.22-4.52,5.5-8.21,6.44-.01-.4,0-.79-.05-1.19-.06-.58.18-.79.74-.73.77.08,1.43-.09,1.7-.94.46-.09.91-.29.83-.81-.09-.55-.58-.69-1.11-.67-.64.02-1.27.01-1.88-.22Z"/>
      <path class="cls-4" d="M232.8,163.32c.4,1.22.32,2.41.32,3.59,0,4.11,0,8.23,0,12.34,0,1.35-.03,1.35-1.35.95-4.03-1.22-7.8-3.02-11.41-5.18-.7-.42-.59-.62-.04-1.08.62-.53,1.71-1.1.96-2.1-.82-1.1-1.63-.08-2.35.37-1.6,1-1.59,1.02-3.12-.12-3.84-2.85-7.94-5.37-11.35-8.76-3-2.98-5.82-6.13-8.24-9.62-.59-.85-.68-1.28.33-1.92,3.98-2.5,7.9-5.13,11.47-8.19,4.67-4.01,8.24-8.86,10.59-14.59.32-.77.67-1.54.91-2.34.2-.66.09-1.34-.68-1.57-.72-.21-1.06.28-1.29.91-2.14,5.82-5.33,10.96-9.96,15.14-3.92,3.53-8.37,6.36-12.74,9.29-.4.27-.69.26-.98-.2-3.49-5.59-6.89-11.22-8.77-17.7,1.92-.22,3.8-.66,5.66-1.16,1.3-.34,2.46-.93,3.62-1.54.6-.32,1.26-.77.82-1.59-.45-.82-1.11-.67-1.83-.25-2.56,1.49-5.44,1.96-8.29,2.53-.46.09-.64-.1-.76-.52-.82-2.83-1.65-5.65-2.52-8.47-.14-.47-.11-.73.35-.95,4.54-2.09,7.19-6.05,9.82-10.02.36-.54.61-.88,1.28-.56,3.86,1.79,7.98,2.71,12.12,3.55,1.15.23,1.12.58.63,1.5-1.05,1.98-2.16,3.91-3.71,5.55-.51.54-.75,1.08-.18,1.67.6.61,1.15.26,1.65-.22,1.95-1.9,3.26-4.22,4.4-6.65.32-.69.53-.94,1.38-.76,3.01.64,5.85,1.86,8.85,2.49.57.12.67.47.65.95-.03.87.01,1.74-.21,2.61-.2.76-.06,1.51.87,1.66.84.13,1.06-.58,1.19-1.21.16-.78.27-1.57.31-2.36.04-.61.28-.81.83-.62,3.91,1.34,7.66,2.96,10.65,5.95.42.42.49.86.49,1.4-.06,11.22-.11,22.44-.14,33.67,0,.65-.2,1.13-.68,1.57-1.3,1.18-2.56,2.4-3.84,3.6-.51.48-.91.99-.3,1.63.6.63,1.2.4,1.77-.13.93-.86,1.88-1.69,2.85-2.55ZM199.41,125.64c-.02-.66-.44-1-.98-1.02-.67-.03-1.14.43-1.2,1.08-.06.65.36,1.07,1.02,1.05.69-.02,1.06-.46,1.17-1.11ZM224.02,170.68c.73.03,1.16-.37,1.22-1.04.05-.6-.37-.95-.97-.98-.7-.03-1.14.32-1.19,1.05-.05.65.32.94.94.97Z"/>
      <path class="cls-6" d="M190.53,148.77c1.84,2.59,3.45,5.34,5.36,7.88,4.74,6.34,10.6,11.45,17.1,15.9,3,2.05,6.01,4.05,9.21,5.77.33.18.77.24.92.68-.49.45-.71-.13-.95-.31-2.62-1.83-5.4-1.97-8.26-.73-4.58,1.99-7.79,8.77-6.51,13.58,1.07,4.03,3.73,5.87,8.47,5.65,4.33-.2,7.65-2.33,9.32-6.24,1.67-3.9,1.26-7.81-1.73-11.16-.18-.2-.73-.33-.36-.81,3.08,1.27,6.13,2.6,9.36,3.46.58.15.56.57.55,1.02-.04,1.75-.08,3.51-.09,5.26,0,.39-.2.62-.42.92-1.14,1.54-2.25,3.08-3.1,4.81-1.08,2.2-1.18,4.42-.46,6.72.65,2.06,1.21,4.13.59,6.31-.78,2.74-2.89,3.76-5.43,2.71-.78-.32-1.21-.93-1.57-1.57-1.28-2.21-3.14-3.49-5.69-3.53-5-.08-9.41-1.55-12.83-5.33-1.89-2.09-3.04-4.65-4.15-7.21-2.62-6.05-4.33-12.33-5.29-18.87-.88-5.97-2.13-11.89-3.2-17.83-.41-2.31-.84-4.62-.94-6.97.04-.04.08-.08.12-.12Z"/>
      <path class="cls-4" d="M171.49,120.98c-5.94-.54-11.53-2.12-16.12-6.27-.97-.88-1.49-2.07-1.97-3.25-1.28-3.16-1.87-6.5-2.42-9.84-.23-1.4.12-2.8.71-4.08,3.38-7.3,8.53-12.69,16.36-15.3,1.55-.52,3-.29,4.49-.26,6.31.13,11.66,2.53,15.67,7.39,2.51,3.05,4.16,6.69,4.17,10.74,0,4.02-.68,7.94-3.29,11.26-2.19,2.79-4.2,5.78-7.58,7.3-3.16,1.42-6.51,2.06-10.02,2.3ZM176.83,115.22c.7.12,1.35-.15,2.01-.27,3.92-.73,6.6-4.46,5.42-7.81-.46-1.32-.15-2.01.72-2.83.76-.71,1.39-1.55,1.64-2.6.15-.62-.07-1.13-.72-1.31-.51-.14-.92.02-1.15.58-.83,2.06-2.28,3.41-4.41,4.2-3.32,1.23-6.4,2.9-8.48,5.93-1.01,1.47-2.38,2.19-4.14,2.19-.66,0-1.14.26-1.15.93-.02.74.51,1.01,1.21,1,1.46-.03,2.86-.26,4.03-1.22.4-.33.63-.36,1.09-.02,1.15.85,2.52,1.14,3.92,1.22ZM178.09,102.77c3.04-.1,5.73-2.48,5.03-5.75-.41-1.9-1.12-3.68-2.08-5.32-.98-1.68-2.31-3.15-4.03-4.17-1.49-.89-3.05-1.26-4.58-.11-1.61,1.21-2.44,2.78-2.16,4.85.46,3.41,2.13,6.23,4.35,8.74.94,1.06,2.18,1.73,3.46,1.76ZM170.15,103.36c.18-3.47-2.09-6.06-5.11-8.16-1.13-.79-2.33-1.66-3.82-1.45-2.59.36-4.19,2.38-3.74,5.16.62,3.9,2.32,7.36,5.34,10.01,1.84,1.62,4.06,1.39,5.75-.4,1.23-1.3,1.56-2.91,1.58-5.17Z"/>
      <path class="cls-6" d="M182.09,129.6c1.12,4.92,3.34,9.57,5.53,14.25.63,1.33.55,3.02.68,4.56.43,5.17,1.54,10.22,2.48,15.31.82,4.46,1.54,8.93,2.32,13.39.2,1.13.45,2.26.7,3.38.13.57.12,1.11-.24,1.6-1.68,2.28-3.68,4.03-6.63,4.5-3.31.52-6.07-1.86-7.5-4.42-1.27-2.28-.99-4.71-1.1-7.05-.26-5.74-.42-11.51-.23-17.25.26-7.74.29-15.49.9-23.22.04-.48.19-.95.19-1.42-.02-1.96.35-3.6,2.88-3.62Z"/>
      <path class="cls-6" d="M206.06,111.71c2.34-1.81,4.45-3.58,6.71-5.14,1.35-.93,3.09-.98,4.67-1.3,4.56-.9,9.04-2.19,13.65-2.88,2.14-.32,2.08-.4,1.98,1.81-.06,1.31,0,2.63.08,3.95.06.82-.17,1.23-1.04,1.35-5.83.84-11.45,2.67-17.19,3.92-.92.2-1.64.17-2.47-.06-2.05-.56-4.12-1.07-6.4-1.65Z"/>
      <path class="cls-2" d="M179.83,186.05c4.27,3.9,10.57,3.26,14.7-1.9,1.66,2.61.58,6.3-1.33,8.68-1.75,2.19-4.85,3.1-7.42,2.29-.62-.2-1.16-.49-1.63-.95-2.24-2.17-3.47-4.87-4.33-8.12Z"/>
      <path class="cls-6" d="M233.14,121.75c-4.72-3.66-10-5.55-15.68-6.83.82-.42,1.61-.49,2.37-.67.81-.19,1.63-.35,2.44-.56,3.23-.85,6.45-1.71,9.76-2.23.78-.12,1.15-.09,1.13.88-.06,3.06-.02,6.12-.02,9.42Z"/>
      <path class="cls-5" d="M233.1,90.96c0,3.02,0,5.83,0,8.63,0,.62-.45.55-.82.61-3.21.51-6.41,1.12-9.57,1.87-1.77.42-3.54.82-5.31,1.23-.03-.08-.06-.16-.09-.23"/>
      <path class="cls-6" d="M197.57,109.31c3.53-.67,7.05-1.34,10.58-2.01.04.06.08.13.11.19-1.53,1.17-3.05,2.35-4.58,3.51-.11.08-.31.11-.44.08-1.91-.46-3.84-.81-5.66-1.77Z"/>
      <path class="cls-3" d="M142.1,51.96c-.44-.8-.2-1.18.71-1.23.9-.04,1.73.21,2.57.46,2.25.66,4.51,1.3,6.76,1.95.05.88-.35,1.08-1.18.89-2.95-.69-5.87-1.57-8.87-2.06Z"/>
      <path class="cls-3" d="M179.48,50.26c2.8,1,5.63,1.95,8.32,3.23.45.21.97.47.47,1.12-2.37-.54-4.56-1.59-6.86-2.33-.53-.17-1.04-.41-1.57-.56-1.03-.28-1.07-.76-.36-1.45Z"/>
      <path class="cls-3" d="M146.17,40.21c.07-.7.25-1.36,1.14-1.08,2.91.9,5.81,1.86,8.72,2.79-.07.88-.48,1-1.29.73-2.34-.77-4.7-1.46-7.06-2.17-.49-.15-.98-.33-1.51-.28Z"/>
      <path class="cls-3" d="M141.66,65.86c-.65-.74-.57-1.14.35-1.35.9-.2,1.82-.13,2.73-.02,1.81.23,3.61.48,5.45.37.02,1.02-.2,1.56-1.49,1.31-1.66-.33-3.38-.38-5.07-.51-.66-.05-1.35-.2-1.97.2Z"/>
      <path class="cls-3" d="M195.32,27.75c-1.3-1.75-2.61-3.49-3.89-5.25-.46-.64-.94-1.35.31-1.72,1.29,1.67,2.53,3.39,3.9,4.99.77.9.83,1.48-.32,1.97Z"/>
      <path class="cls-3" d="M172.39,67.55c1.91.12,3.81.24,5.68.69.83.2,1.29.59,1.13,1.49-1.95-.26-3.91-.53-5.86-.78-.88-.11-1.56-.31-.95-1.4Z"/>
      <path class="cls-3" d="M197.7,41.45c-.71.55-1.11-.07-1.48-.47-1.91-2.03-4.16-3.68-6.19-5.57.33-.43.6-1.07,1.27-.4,2.14,2.14,4.4,4.16,6.4,6.44Z"/>
      <path class="cls-3" d="M175.3,58.9c2.13.76,4.24,1.55,6.38,2.26.75.25,1.07.63.85,1.4-2.17-.69-4.33-1.42-6.52-2.05-.99-.29-1.38-.67-.7-1.61Z"/>
      <path class="cls-3" d="M170.9,48.63c-.01-1.25.18-1.4,1.36-1.03,1.77.56,3.54,1.14,5.31,1.71-.29,1.12-.86,1.36-1.98.89-1.52-.63-3.05-1.29-4.69-1.58Z"/>
      <path class="cls-3" d="M158.17,42.59c1.96.23,3.81.89,5.68,1.48.73.23.99.75.48,1.46-2.01-.59-4.03-1.17-6.03-1.78-.9-.27-.56-.72-.12-1.16Z"/>
      <path class="cls-3" d="M203.54,36.03c-.43.19-.8.08-1.07-.27-1.61-2.03-3.44-3.86-5.18-5.78-.18-.19-.38-.43-.32-.74.34-.68.74-.78,1.24-.13,1.78,2.31,3.56,4.61,5.33,6.92Z"/>
      <path class="cls-3" d="M143.34,75c-.39-.93-.31-1.43.92-1.53,1.82-.16,3.62-.53,5.45-.21.28,1.06-.22,1.3-1.19,1.24-1.27-.08-2.55-.01-3.83-.05-.56-.02-1.02.09-1.36.56Z"/>
      <path class="cls-3" d="M188.63,33.74c-1.81-1.52-3.42-3.24-4.97-5.03-.3-.35-.63-.77-.11-1.22,1.92,1.61,3.58,3.51,5.39,5.23.61.57.11.78-.32,1.02Z"/>
      <path class="cls-3" d="M167.7,58.13c-.16-.41-.42-.86-.05-1.23.35-.35.81-.17,1.24-.04,1.48.47,2.96.94,4.44,1.4-.15,1.01-.61,1.26-1.63.91-1.3-.45-2.58-1.02-3.99-1.05Z"/>
      <path class="cls-3" d="M154.21,53.34c1.26.91,2.77.8,4.19.99,1.26.17,1.54.49,1.31,1.78-1.5-.35-2.98-.77-4.49-1.03-1.15-.2-1.57-.64-1.02-1.74Z"/>
      <path class="cls-3" d="M152.19,64.87c1.1.08,2.2.17,3.31.25,1.26.1,1.47.47.96,1.7-1.24.13-2.46-.14-3.68-.27-1.27-.13-.41-1.11-.59-1.68Z"/>
      <path class="cls-3" d="M169.92,36.91c-.7.83-1.22.05-1.71-.26-1.6-1.02-3.14-2.11-4.71-3.17-.19-.13-.42-.21-.63-.32.24-.7.51-.94,1.25-.38,1.89,1.43,3.86,2.75,5.8,4.12Z"/>
      <path class="cls-3" d="M181.39,42.84c-1.78-1.23-3.8-2.11-5.45-3.56-.36-.32-.66-.57-.44-1.08,1.97,1.25,3.93,2.51,5.91,3.74.55.35.29.6-.01.9Z"/>
      <path class="cls-3" d="M168.47,22.47c-1.04-1.46-2.63-2.33-3.83-3.62-.41-.44-1.3-.76-.76-1.67,1.81,1.21,3.27,2.82,4.87,4.26.49.44.06.75-.28,1.03Z"/>
      <path class="cls-3" d="M204.41,22.2c.1-.69-.44-1.08-.76-1.56-.75-1.13-1.58-2.2-2.31-3.34-.58-.91-.37-1.26.76-1.46-.17.56.13.99.39,1.44.75,1.3,1.48,2.62,2.25,3.91.3.5.38.87-.33,1.01Z"/>
      <path class="cls-3" d="M187.37,15.49c-.26,1.3-.77,1.57-1.72.75-1.06-.91-2.45-1.48-3.07-2.85.25-.72.61-.54,1.03-.14.72.67,1.49,1.3,2.19,1.99.49.48.97.64,1.57.26Z"/>
      <path class="cls-3" d="M214.78,25.25c-.51.68-1.02.4-1.29-.14-.63-1.21-1.43-2.36-1.63-3.76.81-.44,1.18-.19,1.48.69.38,1.1.45,2.37,1.44,3.21Z"/>
      <path class="cls-3" d="M180.51,12.2c-.65-.62-1.33-1.21-1.93-1.86-.82-.89-.64-1.32.57-1.58.17.87.9,1.29,1.5,1.78.87.7.9,1.2-.15,1.67Z"/>
      <path class="cls-3" d="M211.16,19.38c-.17-1.18-.67-2.27-1.03-3.39-.12-.37-.16-.7.18-.96.31-.23.63-.39.85.11-.05,1.06.46,1.99.81,2.94.33.9.23,1.35-.81,1.3Z"/>
      <path class="cls-3" d="M175.2,16.24c-1.3-.89-2.15-2.22-3.19-3.36-.39-.43-.23-.89.22-1.23.74,1.42,2.01,2.4,3.04,3.58.32.37.76.73-.07,1.01Z"/>
      <path class="cls-6" d="M179.8,128.2c.18-1.48.34-2.84.5-4.19.06-.01.12-.03.18-.04.31,1.01.77,2,.89,3.03.11.97-.97.77-1.57,1.21Z"/>
      <path class="cls-3" d="M218.34,20.34c-.64.91-1.08.9-1.56,0-.12-.24-.23-.48-.35-.72-.17-.31-.34-.61-.5-.92,0-.28,0-.55,0-.83,0-.38.08-.73.49-.86.43-.13.78-.01.95.45-.8,1.46-.41,2.6.97,2.87Z"/>
      <path class="cls-3" d="M165.87,68.29c-.12-.94.23-1.3,1.21-1.1,1.03.2,2.09.29,3.13.42,0,.69-.23.9-1.01.81-1.1-.13-2.2-.69-3.33-.13Z"/>
      <path class="cls-3" d="M151.73,73.72c.98.07,1.95-.35,2.94-.01.45.15.85.24.79.82-1.02-.02-2.04-.06-3.07-.04-.57,0-.81-.19-.67-.76Z"/>
      <path class="cls-3" d="M188.36,11.43c.46.33.97.68.48,1.31-.49.62-1.03.39-1.51-.06-.24-.23-.65-.33-.64-.77.63.08,1.25.16,1.68-.48Z"/>
      <path class="cls-3" d="M171.11,73.51c.61.23,1.24.24,1.88.22.52-.02,1.02.11,1.11.67.08.52-.37.73-.83.81-.15-.82-.68-1.08-1.45-1-.52.05-.86-.07-.71-.7Z"/>
      <path class="cls-3" d="M152.15,80.72c.26-.07.52-.16.78-.2.39-.06.81-.1,1.04.3.23.39.27.81-.18,1.11-.35-.24-.67-.53-1.16-.48-.57.06-.47-.38-.47-.73Z"/>
      <path class="cls-3" d="M183.81,9.76c.07-.42-.26-.63-.49-.89-.29-.33-.38-.73-.14-1.08.29-.44.71-.43,1.13-.14-.22.38-.39.77-.14,1.2.25.45.07.73-.36.91Z"/>
      <path class="cls-3" d="M166.86,74.55c-.14-.7.15-1.04.86-1.02.43.01.85.03,1.28.04.04.48-.16.73-.66.69-.51-.04-.99.13-1.47.28Z"/>
      <path class="cls-3" d="M186.44,11.67c-.45-.02-.66-.3-.74-.71.47,0,.64.32.74.71Z"/>
      <path class="cls-3" d="M186.68,11.91c-.15,0-.23-.09-.24-.24.15,0,.23.09.24.24Z"/>
      <path class="cls-6" d="M190.42,148.89c-.02-.09-.07-.26-.05-.27.15-.07.14.07.17.15-.04.04-.08.08-.12.12Z"/>
      <path class="cls-1" d="M189.13,6.92c.56-.47,1.12-.78,1.74-.09.83.9.86,1.59.12,2.45-1.25-.13-1.85-.87-1.87-2.36Z"/>
      <path class="cls-3" d="M189.13,6.92c.02,1.48.62,2.23,1.87,2.36-.13,1.06-.77.9-1.29.41-.51-.47-.94-1.08-1.25-1.7-.28-.56-.19-1.11.67-1.07Z"/>
      <path class="cls-1" d="M218.34,20.34c-1.38-.27-1.77-1.41-.97-2.87.67-.09,1.34-.12,1.53.72.17.78.54,1.68-.55,2.16Z"/>
      <path class="cls-5" d="M113.89,76.79c.15.16.34.38.17.55-.15.15-.3-.07-.4-.23.08-.11.15-.22.23-.33Z"/>
      <path class="cls-1" d="M199.41,125.64c-.11.65-.48,1.1-1.17,1.11-.66.02-1.08-.4-1.02-1.05.06-.66.53-1.11,1.2-1.08.54.02.97.36.98,1.02Z"/>
      <path class="cls-1" d="M224.02,170.68c-.62-.02-.98-.31-.94-.97.05-.72.48-1.08,1.19-1.05.6.02,1.02.38.97.98-.05.67-.49,1.07-1.22,1.04Z"/>
      <path class="cls-1" d="M223.11,178.99c-.38.48.18.6.36.81,2.99,3.35,3.4,7.26,1.73,11.16-1.68,3.91-5,6.05-9.32,6.24-4.74.21-7.4-1.63-8.47-5.65-1.28-4.81,1.94-11.6,6.51-13.58,2.85-1.24,5.63-1.09,8.26.73.25.17.47.76.95.31,0,0-.01-.01-.01-.01ZM224.09,186.77c.02-3.51-1.64-6-4.59-7.29-2.09-.91-5.51.12-7.4,2.25-1.56,1.75-2.56,3.77-2.86,6.07-.71,5.38,2.12,8.1,7.51,7.33,4.26-.61,7.33-4.1,7.35-8.36Z"/>
      <path class="cls-1" d="M176.83,115.22c-1.4-.08-2.77-.37-3.92-1.22-.46-.34-.7-.3-1.09.02-1.17.96-2.57,1.19-4.03,1.22-.7.01-1.22-.26-1.21-1,.01-.67.49-.92,1.15-.93,1.76,0,3.13-.73,4.14-2.19,2.08-3.03,5.16-4.7,8.48-5.93,2.13-.79,3.58-2.14,4.41-4.2.23-.56.64-.72,1.15-.58.64.18.87.69.72,1.31-.25,1.04-.88,1.88-1.64,2.6-.87.82-1.18,1.51-.72,2.83,1.18,3.35-1.5,7.08-5.42,7.81-.66.12-1.31.39-2.01.27ZM182.58,108.6c-.29-.6.11-2.05-1.14-1.66-2.7.85-5.17,2.22-7.16,4.34-.69.74-.46,1.09.34,1.44,2.35,1.02,5.41.32,7.07-1.64.6-.7.82-1.52.89-2.48Z"/>
      <path class="cls-1" d="M178.09,102.77c-1.28-.03-2.53-.69-3.46-1.76-2.22-2.51-3.89-5.33-4.35-8.74-.28-2.08.55-3.65,2.16-4.85,1.53-1.15,3.09-.78,4.58.11,1.72,1.02,3.05,2.5,4.03,4.17.96,1.63,1.67,3.42,2.08,5.32.7,3.27-2,5.65-5.03,5.75ZM172.19,91.84c.51,3.29,2.04,6.07,4.47,8.32.97.9,2.1.84,3.31.11,1.05-.63,1.47-1.57,1.22-2.74-.67-3.2-2.11-5.97-4.73-8.02-.79-.62-1.71-1.19-2.73-.6-1.07.62-1.61,1.63-1.55,2.92Z"/>
      <path class="cls-1" d="M170.15,103.36c-.01,2.26-.35,3.87-1.58,5.17-1.69,1.79-3.91,2.01-5.75.4-3.02-2.65-4.72-6.11-5.34-10.01-.44-2.78,1.16-4.81,3.74-5.16,1.49-.21,2.69.66,3.82,1.45,3.02,2.11,5.28,4.7,5.11,8.16ZM168.19,104.39c.17-4.47-3.04-7.25-6.18-8.58-.94-.4-2.09.36-2.43,1.36-.37,1.09-.1,2.11.23,3.15.84,2.65,2.03,5.1,4.15,6.97,1.26,1.12,2.39.97,3.37-.3.72-.93.83-2.04.87-2.61Z"/>
      <path class="cls-2" d="M224.09,186.77c-.02,4.26-3.09,7.75-7.35,8.36-5.39.77-8.22-1.96-7.51-7.33.3-2.3,1.3-4.32,2.86-6.07,1.9-2.13,5.32-3.16,7.4-2.25,2.96,1.29,4.61,3.78,4.59,7.29Z"/>
      <path class="cls-2" d="M182.58,108.6c-.07.96-.3,1.77-.89,2.48-1.66,1.96-4.71,2.67-7.07,1.64-.8-.35-1.03-.7-.34-1.44,1.98-2.12,4.46-3.49,7.16-4.34,1.25-.4.85,1.06,1.14,1.66Z"/>
      <path class="cls-5" d="M172.19,91.84c-.06-1.3.48-2.3,1.55-2.92,1.02-.59,1.94-.02,2.73.6,2.62,2.05,4.05,4.82,4.73,8.02.25,1.17-.17,2.11-1.22,2.74-1.21.72-2.34.78-3.31-.11-2.44-2.25-3.96-5.02-4.47-8.32ZM174.43,93.72c0,1.13.86,2.31,1.82,2.57.68.19,1.29.05,1.66-.6.59-1.03.2-1.91-.5-2.72-.08-.09-.16-.18-.24-.26-.49-.51-1.04-.95-1.79-.63-.75.32-.98,1-.95,1.64Z"/>
      <path class="cls-5" d="M168.19,104.39c-.04.57-.15,1.68-.87,2.61-.98,1.27-2.12,1.41-3.37.3-2.11-1.87-3.3-4.32-4.15-6.97-.33-1.03-.59-2.06-.23-3.15.34-1,1.49-1.76,2.43-1.36,3.14,1.33,6.35,4.11,6.18,8.58ZM164.49,103.32c.91-.02,1.44-.76,1.1-1.64-.38-.98-1.15-1.62-2.1-1.97-.77-.28-1.45.25-1.49,1.05-.06,1.16,1.32,2.58,2.5,2.56Z"/>
      <path class="cls-1" d="M174.43,93.72c-.03-.63.2-1.31.95-1.64.74-.32,1.3.12,1.79.63.08.09.17.17.24.26.7.81,1.1,1.69.5,2.72-.37.64-.98.79-1.66.6-.95-.26-1.82-1.44-1.82-2.57Z"/>
      <path class="cls-1" d="M164.49,103.32c-1.18.02-2.56-1.4-2.5-2.56.04-.8.73-1.34,1.49-1.05.95.35,1.73.99,2.1,1.97.34.88-.19,1.63-1.1,1.64Z"/>
    </g>
  </g>
</svg>