<?xml version="1.0" encoding="UTF-8"?>
<svg id="Calque_2" data-name="Calque 2" xmlns="http://www.w3.org/2000/svg" viewBox="0 0 208.92 232.07">
  <defs>
    <style>
      .cls-1 {
        fill: #110e0f;
      }

      .cls-1, .cls-2, .cls-3, .cls-4, .cls-5, .cls-6 {
        stroke-width: 0px;
      }

      .cls-2 {
        fill: #71568a;
      }

      .cls-3 {
        fill: #8e6757;
      }

      .cls-4 {
        fill: #dac480;
      }

      .cls-5 {
        fill: #fff;
      }

      .cls-6 {
        fill: #a677b1;
      }
    </style>
  </defs>
  <g id="Calque_1-2" data-name="Calque 1">
    <g>
      <path class="cls-5" d="M33.01,128.54h0c1.71-.37,2.77-1.6,3.73-2.92,1.4-1.93,2.54-4.09,4.18-5.79,3.09-3.21,6.54-6.04,10.29-8.49,3.12-2.05,6.28-4.04,10.01-4.8.64-.13,1.24-.35,1.97-.11,3.35,1.1,6.69,2.22,10.13,3.04,1.97.47,3.87.92,5.7-.36,1.11.31,1.15.88.44,1.67-.26.3-.49.63-.7.96-2.04,3.16-3.8,6.43-4.03,10.3-.34,5.59,1.19,10.58,4.56,15.07,3.26,4.34,7.59,6.8,12.86,7.7.69.12.87.27.64.97-.14.43-.11.98.03,1.41,1.53,4.76,2.54,9.67,3.94,14.46.18.62.1,1.07-.43,1.55-2.39,2.23-4.74,4.52-7.09,6.8-.33.32-.62.52-1.13.51-1.25-.03-2.07.66-2.27,1.86-.11.64-.42.95-.89,1.28-8.69,5.99-17.36,12-26.04,18.01-.58.4-1.22.75-1.61,1.39-1.33,2.17-2.66,4.34-4.01,6.5-.41.65-.63,1.31.15,1.74.76.42,1.23-.1,1.61-.75.88-1.49,1.8-2.96,2.75-4.51.43.86.78,1.62,1.17,2.35.3.55.68,1.06,1.41.69.74-.36.74-.95.38-1.6-.31-.57-.59-1.16-.93-1.82.86.17,1.59.33,2.33.45.65.11,1.14-.19,1.23-.83.09-.64-.32-.98-.97-1.12-.81-.18-1.66-.26-2.47-.8,1.39-.95,2.73-1.87,4.06-2.8,7.33-5.08,14.66-10.16,22.01-15.22.28-.2.53-.76,1.08-.33.76.59,1.57.54,2.31-.04.8-.62,1.13-1.51.77-2.45-.24-.61.13-.8.41-1.08,2.12-2.06,4.25-4.11,6.39-6.15.15-.14.27-.44.63-.25,1.1,4.21,2.21,8.46,3.35,12.81-.26-.09-.36-.1-.4-.15-.92-.95-2.01-.97-3.05-.34-1.05.64-1.53,1.59-1.05,2.86.09.24.07.57-.02.82-1.43,4.07-2.87,8.13-4.31,12.19-.14-.04-.23-.04-.28-.09-3.1-2.57-6.19-5.16-9.3-7.72-.35-.29-.42-.61-.43-1.04-.05-1.32-1.05-2.33-2.23-2.3-1.34.03-2.69,1.24-2.54,2.5.1.9-.28,1.39-.82,1.95-9.51,10.03-19.02,20.05-28.49,30.12-.85.9-1.72,1.25-2.9,1.29-2.47.09-4.94.29-7.41.44-.78.05-1.23.44-1.06,1.22.14.65.71.76,1.33.72,2.87-.18,5.74-.37,8.61-.47.78-.03,1.33-.22,1.87-.79,4.98-5.3,9.98-10.58,14.97-15.86,4.94-5.22,9.89-10.44,14.84-15.66.78-.82,2.6-.92,3.45-.21,3.01,2.5,6,5.01,9.03,7.49.49.4.56.74.36,1.32-3.8,10.73-7.59,21.46-11.35,32.2-.23.66-.55.81-1.19.86-2.74.21-5.48.48-8.22.74-.68.06-1.33.29-1.25,1.12.08.88.73,1.01,1.5.93,2.97-.31,5.95-.62,8.92-.9.96-.09,1.56-.43,1.9-1.44,2.02-5.89,4.12-11.75,6.19-17.62,1.79-5.07,3.57-10.14,5.39-15.31,2.79,2.32,5.48,4.57,8.19,6.78.53.43.16.81.03,1.15-1.13,3.09-1.56,6.26-.89,9.5,1.32,6.45,4.81,11,11.27,13.12,4.59,1.51,9.24,1.92,14.02,1.66,6.25-.34,12.23-1.65,17.64-4.88,4.31-2.58,8.65-5.16,11.52-9.51.31-.48.65-.94,1.03-1.47.8,1.71,1.93,2.98,3.14,4.2,2.5,2.51,5.34,4.56,8.46,6.18,3.23,1.67,6.63,3,10.37,2.56,2.05-.24,4.08-.7,6.08-1.2,2.73-.69,5.33-.73,7.81.81.53.33,1.15.53,1.74.77,1.4.57,2.83.72,4.33.38,3.91-.88,5.98-4.74,4.47-8.42-.57-1.4-1.25-2.74-2.06-4.02-.15-.23-.45-.45-.26-.86,1.01.44,2.02.79,3.07,1.01,3.79.79,6.58-2.07,5.79-5.9-.43-2.1-1.67-3.69-3.07-5.16-1.81-1.91-2.53-4.17-2.53-6.73,0-1.6-.03-3.2,0-4.79.09-4.13-1.69-7.28-4.96-9.68-.28-.21-.96-.28-.27-.89,3.45-3.02,5.5-6.69,5.63-11.41.11-3.62-.17-7.05-2.29-10.17-1.06-1.56-2.24-3-3.51-4.38-.3-.33-.47-.58-.42-1.18.44-5.05-.81-9.62-4.19-13.51-1.48-1.7-3.17-3.17-5.19-4.18-5.44-2.73-11.01-5.15-16.94-6.57-7.15-1.71-14.49-1.59-21.77-1.91-5.82-.25-11.62-.78-17.42-1.34-2.9-.28-5.79-.82-8.7-.57-1.54.13-3.04.38-4.6-.16,1.11-2.93,1.38-6.02,1.18-9.14-.25-3.88-1.4-7.43-4.31-10.19-4.98-4.72-10.97-7.03-17.78-6.88-4.15.09-8.05,1.36-11.35,4.05-.72.59-1.36.67-2.04,0,.23-.89.3-1.75.07-2.67-.6-2.4-2.33-3.63-4.42-4.55-.13-.08-.25-.15-.38-.23-1.71-1.25-3.47-2.4-5.66-2.63,0,0-.07-.03-.07-.03-.17-.09-.33-.22-.51-.27-1.77-.46-3.7-.58-4.81-2.39-.09-.15-.32-.22-.5-.33-5.16-3.12-10.88-4.93-16.5-6.93-2.67-.95-5.54-1.4-8.39-1.74-4.83-.57-9.64-.57-14.38.55-3.29.78-6.61,1.59-9.74,2.83-3.19,1.27-6.32,2.88-7.95,6.28-1.08,2.25-.63,3.77,1.64,4.9,1.45.73,3.01,1.04,4.6,1.17,2.5.2,5.07.07,7.5.59,4.59.97,9.2,1.25,14.11,1.26-1.09.91-2.04,1.67-2.95,2.48-1.51,1.34-3.04,2.68-3.84,4.62v-.02c-.16-.01-.25.09-.28.25-.09.12-.18.25-.28.37-.77.58-.83,1.51-1.13,2.32-1.68,4.48-2.05,9.15-1.98,13.87.02,1.38.46,2.67.98,3.91.59,1.41,2.23,2.02,3.21,1.31l.06-.02c.18,0,.31-.04.34-.24ZM80.16,7.24c3.69-.38,6.9-1.65,9.7-3.91.65-.53,1.27-1.08,1.65-1.86.25-.52.13-.96-.3-1.26-.48-.33-1.01-.27-1.38.21-1.67,2.17-3.98,3.33-6.51,4.18-1.67.56-3.44.59-5.16.93-.62.12-1.04.41-1.21.99-.18.59.2,1,.59,1.34.59.54,1.29.96,1.81,1.55,5.03,5.6,3.09,15.02-3.72,18.56-1.35.7-2.88,1.21-4.47,1.01-.55-.07-.92,0-1.25.42-.34.44-.27.86-.03,1.33.62,1.21.96,2.51,1.23,3.84.98,4.83.45,9.61-.53,14.35-1.91,9.27-11.7,14.31-19.42,10.43-3.17-1.59-5.02-4.31-6.83-7.11-.27-.42-.34-1-.92-1.07-.64-.07-1,.4-1.25.93-.74,1.6-1.67,3.09-2.69,4.5-2.64,3.68-5.59,6.99-10.37,7.84-1.02.18-2.04.38-3.07.47-4.33.4-8.46-.1-12.29-2.44-5.01-3.07-9.02-7.05-11.68-12.32-.33-.66-.7-1.26-1.53-.82-.8.42-.58,1.07-.24,1.74,3.29,6.45,8.28,11.14,14.74,14.31,3.88,1.9,8.04,1.84,12.18,1.39,2.51-.27,5.06-.68,7.21-2.23,2.85-2.05,5.32-4.44,7.15-7.46.54-.9,1.12-1.77,1.72-2.72.23.36.37.55.49.76,2.5,3.98,6.02,6.8,10.66,7.37,6.25.78,11.52-1.45,15.27-6.7,2.12-2.96,2.91-6.39,3.42-9.93.67-4.58.79-9.14-.6-13.61-.31-.99-.15-1.31.86-1.52,8.16-1.72,11.82-9.69,10.46-16.88-.48-2.54-2.01-4.53-3.71-6.61ZM99.12,39.99c.16-.59.33-1.08.43-1.59.56-2.73-2.19-6.34-4.91-6.47-3.69-.18-9.48,3.85-9.19,8.47.02.37.06.65-.39.86-3.97,1.91-5.17,5.3-4.82,9.4.39,4.67,5.48,7.46,9.44,5.19,1.76-1.01,2.81-2.65,3.54-4.52.13-.32.06-.98.8-.62,1.72.84,3.48.51,5.25.14,2.99-.63,4.93-3.13,4.73-5.71-.25-3.21-1.51-4.67-4.88-5.14ZM112.67,71.07c-.05-.65-.03-.98-.1-1.29-.45-2.2-1.15-4.28-3.44-5.23-4.02-1.68-8.18,1.44-7.84,5.85.03.42.16.79-.46,1.02-3.5,1.27-5.64,4.96-4.72,8.55.66,2.55,1.87,4.9,4.79,5.58,2.16.5,4.09-.19,5.82-1.49.39-.3.69-.43,1.25-.15,2.69,1.3,5.33,1.02,7.83-.56,1.91-1.21,2.81-3.62,2.35-5.83-.4-1.95-1.72-3-3.42-3.67-1.47-.57-2.85-1.09-2.07-2.77Z"/>
      <path class="cls-1" d="M73.81,93.77s.07.03.07.03c.72,1.05.09,2.08-.09,3.1-.54,2.99-.57,2.98,2.41,3.75.51.37.91.42,1.1-.33.28-1.14.86-2.19,1.02-3.37.36-.3.75-.51,1.23-.51.13.08.25.15.38.23.27.47.33.92.11,1.46-.37.91-.63,1.87-.96,2.81-.19.54-.13.89.5,1.04.38.09.74.28,1.1.44.55.23.95.18,1.18-.48.22-.63.63-1.17,1.41-.78.72.35.77.98.4,1.61-.43.75-.17,1.06.6,1.13.68.67,1.32.58,2.04,0,3.3-2.69,7.2-3.96,11.35-4.05,6.81-.15,12.8,2.15,17.78,6.88,2.91,2.76,4.07,6.31,4.31,10.19.2,3.12-.07,6.2-1.18,9.14,1.56.53,3.06.29,4.6.16,2.91-.25,5.81.29,8.7.57,5.8.56,11.59,1.09,17.42,1.34,7.28.31,14.62.2,21.77,1.91,5.93,1.42,11.5,3.85,16.94,6.57,2.02,1.01,3.71,2.48,5.19,4.18,3.38,3.88,4.64,8.45,4.19,13.51-.05.6.12.85.42,1.18,1.26,1.39,2.45,2.82,3.51,4.38,2.11,3.11,2.39,6.54,2.29,10.17-.14,4.72-2.18,8.39-5.63,11.41-.69.6,0,.68.27.89,3.27,2.4,5.05,5.55,4.96,9.68-.03,1.6,0,3.2,0,4.79,0,2.56.72,4.82,2.53,6.73,1.4,1.47,2.64,3.06,3.07,5.16.78,3.83-2,6.69-5.79,5.9-1.05-.22-2.05-.56-3.07-1.01-.19.41.11.63.26.86.81,1.28,1.48,2.63,2.06,4.02,1.51,3.67-.56,7.53-4.47,8.42-1.5.34-2.93.19-4.33-.38-.59-.24-1.21-.44-1.74-.77-2.48-1.54-5.08-1.5-7.81-.81-2,.51-4.03.96-6.08,1.2-3.74.44-7.14-.88-10.37-2.56-3.12-1.62-5.97-3.67-8.46-6.18-1.22-1.22-2.35-2.5-3.14-4.2-.38.54-.71,1-1.03,1.47-2.86,4.35-7.21,6.93-11.52,9.51-5.41,3.24-11.39,4.54-17.64,4.88-4.78.26-9.43-.15-14.02-1.66-6.46-2.13-9.94-6.67-11.27-13.12-.67-3.25-.24-6.41.89-9.5.12-.34.5-.72-.03-1.15-2.72-2.21-5.4-4.47-8.19-6.78-1.82,5.17-3.6,10.24-5.39,15.31-2.07,5.87-4.17,11.73-6.19,17.62-.35,1.01-.94,1.35-1.9,1.44-2.98.28-5.95.58-8.92.9-.77.08-1.42-.05-1.5-.93-.07-.83.57-1.06,1.25-1.12,2.74-.26,5.48-.53,8.22-.74.64-.05.96-.2,1.19-.86,3.76-10.74,7.55-21.47,11.35-32.2.2-.58.14-.92-.36-1.32-3.03-2.48-6.02-4.99-9.03-7.49-.86-.71-2.68-.61-3.45.21-4.95,5.22-9.89,10.43-14.84,15.66-5,5.28-10,10.56-14.97,15.86-.54.57-1.09.76-1.87.79-2.87.1-5.74.29-8.61.47-.62.04-1.18-.07-1.33-.72-.17-.78.27-1.17,1.06-1.22,2.47-.15,4.94-.36,7.41-.44,1.18-.04,2.05-.39,2.9-1.29,9.47-10.07,18.98-20.09,28.49-30.12.53-.56.92-1.05.82-1.95-.14-1.25,1.21-2.46,2.54-2.5,1.17-.03,2.18.99,2.23,2.3.01.42.08.74.43,1.04,3.11,2.56,6.2,5.15,9.3,7.72.05.05.15.05.28.09,1.44-4.06,2.88-8.12,4.31-12.19.09-.25.11-.58.02-.82-.48-1.27,0-2.23,1.05-2.86,1.04-.63,2.12-.61,3.05.34.05.05.14.05.4.15-1.14-4.36-2.25-8.6-3.35-12.81-.37-.18-.48.11-.63.25-2.14,2.04-4.27,4.09-6.39,6.15-.29.28-.65.47-.41,1.08.36.94.03,1.82-.77,2.45-.74.58-1.55.62-2.31.04-.56-.43-.8.13-1.08.33-7.35,5.06-14.68,10.15-22.01,15.22-1.34.93-2.68,1.84-4.06,2.8.81.55,1.66.63,2.47.8.65.14,1.06.47.97,1.12-.09.64-.58.94-1.23.83-.73-.12-1.46-.28-2.33-.45.34.66.62,1.24.93,1.82.35.66.36,1.24-.38,1.6-.73.36-1.11-.15-1.41-.69-.39-.73-.74-1.48-1.17-2.35-.95,1.55-1.87,3.01-2.75,4.51-.38.65-.85,1.17-1.61.75-.78-.43-.56-1.09-.15-1.74,1.35-2.16,2.68-4.33,4.01-6.5.39-.64,1.03-.99,1.61-1.39,8.67-6.01,17.35-12.02,26.04-18.01.48-.33.79-.64.89-1.28.2-1.2,1.02-1.89,2.27-1.86.51.01.8-.19,1.13-.51,2.35-2.28,4.69-4.57,7.09-6.8.52-.49.61-.94.43-1.55-1.4-4.8-2.41-9.7-3.94-14.46-.14-.44-.17-.99-.03-1.41.22-.7.05-.85-.64-.97-5.27-.91-9.6-3.36-12.86-7.7-3.37-4.49-4.9-9.49-4.56-15.07.23-3.87,1.99-7.14,4.03-10.3.22-.33.44-.67.7-.96.7-.79.66-1.37-.44-1.67-1.63-1.12-1.63-1.13-2.99.03-.35.3-.72.33-1.1.19-.32-.12-.47-.41-.5-.75-.08-.91,1.37-2.18,2.26-2.31,1.3-.2,2.24.5,3.29.97.57.21.9,1.22,1.67.64.57-.43,1-1.06,1.49-1.6h0c.26-.01.4-.16.44-.4,0-.03-.25-.09-.39-.14-.38-.44-.63-.27-1.03.08-.64.57-1.67.19-1.69-.65-.04-1.38-1.23-1.2-1.95-1.45-.64-.22-.51.69-.71,1.11-.24.51-.37,1.11-1.06,1.15-.63.03-.88-.45-1.08-.95q.84-2.1-.47-2.59c-2.21-.76-2.22-.77-2.63,1.34-.11.56-.27,1.02-.91,1.08-.7.06-1.01-.35-1.08-.99.12-.65.18-1.32.37-1.95.23-.78-.21-.76-.73-.72-.37-.39-.9-.27-1.35-.36-2.34-.44-2.4-.36-2.22,1.98.02.2.04.4.06.6.05.68-.01,1.34-.88,1.41-.85.07-1.09-.59-1.17-1.23-.1-.71-.09-1.43-.07-2.15.02-.63-.28-.9-.85-.87-1.11.06-2.39-.13-3.26.37-.43.25.34,1.71.54,2.62.04.19.09.39.14.58.38,1.47-.03,1.9-1.55,1.63-.32-1.19-.7-2.36-.92-3.57-.18-.94-.54-1.32-1.48-.94-1.07.27-2.14.58-3.21.81-.71.16-.83.42-.41,1.03.66.99,1.25,2.02,1.88,3.03.28.46.52.92.18,1.43-.32.49-.82.4-1.29.3-.82-1.3-1.69-2.58-2.45-3.92-.48-.85-.95-.93-1.63-.31-1.06.37-1.95,1.05-2.91,1.62-.56.33-.62.6-.1,1.06.87.76,1.69,1.58,2.53,2.37.45.43.71.9.24,1.45-.46.54-.97.46-1.46.03-.96-.84-1.95-1.65-2.84-2.55-.45-.46-.81-.55-1.27-.16-1.14.98-2.39,1.85-3.28,3.1-.66.32-.21.51.1.67.98.51,1.97,1,2.95,1.5.13.08.26.18.4.25.65.32,1.26.73.82,1.55-.45.84-1.11.48-1.74.14-1.23-.66-2.47-1.28-3.7-1.94-.4-.21-.67-.27-.99.17-.78,1.06-1.48,2.17-2.13,3.31-.25.44-.23.69.33.85.77.21,1.52.48,2.25.79.58.25.85.75.6,1.37-.25.62-.74.76-1.37.51-.78-.31-1.57-.56-2.35-.86-.29-.11-.55-.24-.66.16-.22.8-.57,1.62-.56,2.42,0,.58.87.48,1.34.7.57.27.81.64.61,1.23-.21.62-.65.95-1.29.65-1.04-.49-1.46-.24-1.44.94.01.66-.4,1.2-1.14,1.07-.69-.12-1.03-.71-.81-1.36.49-1.46-.19-2.03-1.51-2.24-.27-.04-.53-.17-.79-.27-1.29-.47-1.4-.83-.61-2,1.03-.06,1.89.52,2.85.72.23.05.61.45.68-.18.46-.62.44-1.41.75-2.08.22-.49.05-.7-.4-.85-1.05-.35-2.09-.71-3.13-1.09-1.35-.5-1.44-1.15-.31-2.07,1.2.18,2.23.93,3.46,1.01.03.02.07.05.1.07.08.03.16.05.24.08.68.43,1.08.3,1.46-.47.53-1.06,1.16-2.09,1.89-3.03.56-.72.31-.94-.35-1.26-1.43-.69-2.82-1.48-4.25-2.17-.65-.32-1.01-.74-.94-1.48.09-.12.18-.25.28-.37.14-.04.28-.06.29-.25,0,0-.01.02-.01.02.75-.02,1.37.36,2.01.68,1.38.71,2.77,1.39,4.15,2.11.44.23.8.29,1.17-.12,1.06-1.2,2.27-2.24,3.49-3.28.46-.39.47-.74-.01-1.17-.83-.74-1.6-1.56-2.41-2.32-.58-.55-1.19-1.15-.49-1.91.69-.74,1.28-.1,1.81.4.95.91,1.91,1.81,2.87,2.71.25.23.44.56.9.26,1.25-.84,2.53-1.64,3.8-2.45.8-.04.91-.32.5-1.03-.7-1.23-1.74-2.29-2.02-3.75.9-.98,1.31-.97,1.99.09.62.97,1.24,1.95,1.81,2.95.28.49.56.67,1.14.48,1.24-.41,2.51-.75,3.76-1.12,1.01.06,1.39-.32,1-1.34-.24-.62-.35-1.29-.52-1.93-.17-.64-.45-1.28-.02-1.92.94-.37,1.54-.13,1.74.93.08.43.24.84.35,1.26q.66,2.5,3.16,2.33c.56-.04,1.11-.06,1.67-.1.83.15.66-.39.62-.87-.11-1.45-.33-2.9.08-4.34,1.39-.2,1.66,0,1.69,1.34.01.44.02.87.03,1.31q.1,2.58,2.65,2.86c.55.06,1.08.29,1.65.2.71.43.84.02.96-.59.29-1.53.43-3.1.97-4.59.41-.03.82-.06,1.23-.09ZM193.82,183.47c-1.2.33-2.39.69-3.68.71.06.17.06.25.11.31,4.45,5.85,6.98,12.32,6.44,19.8-.1,1.36-.14,2.76.22,4.12.12,1.03.68,1.86,1.21,2.7.1.15.31.37.43.35,1.78-.34,3.2.83,4.83,1.11,2.35.4,3.78-.89,3.48-3.27-.23-1.83-1.34-3.15-2.52-4.37-2.27-2.36-3.18-5.17-3.1-8.38.04-1.55,0-3.11,0-4.67-.03-3.6-1.63-6.28-4.6-8.3-1.03-.7-1.84-.72-2.8-.11ZM136.06,130.02c.06.05.11.13.18.14,9.28,2.27,18.5,4.75,27.65,7.45,8.49,3.07,16.93,6.24,24.82,10.83.08-.36.15-.62.19-.88.82-4.68-.22-9.08-5.83-11.19-.63-.24-1.26-.5-1.87-.77-5.63-2.5-11.45-4.38-17.62-4.84-5.29-.39-10.6-.52-15.9-.79-3.98-.21-7.96-.37-11.92-.88-1.58-.2-3.18-.5-4.81-.13,1.7.35,3.4.71,5.1,1.06ZM141.8,137.89c1.58,1.85,3.16,3.71,4.74,5.56.81,1.18,1.62,2.37,2.43,3.55.64,1.32,1.23,2.54,2.67,3.4,2.14,1.28,4,3.03,6.01,4.54,8.58,6.43,16.71,13.38,24.2,21.05,1.35,1.38,2.55,1.78,4.36,1.48,3.85-.64,8.18-4.07,9.01-7.55.92-3.85.72-7.65-.85-11.35-.83-1.96-2.02-3.71-3.22-5.43-.45-.65-.6-1.51-1.43-1.97-4.33-2.38-8.71-4.63-13.22-6.64-12.31-5.48-25.39-8.45-38.32-11.91-1.19-.32-2.38-.77-3.87-.72,1.32.9,2.46,1.68,3.6,2.46,1.3,1.18,2.6,2.35,3.9,3.53ZM158.23,208.85c-1.41,1.6-1.1,3.16.12,4.69.5.62.99,1.25,1.53,1.84,2.37,2.59,5.18,4.65,8.26,6.26,3.26,1.7,6.67,3.12,10.51,2.32,1.21-.25,2.4-.56,3.59-.87,3.56-.93,7.06-1.33,10.36.85.36.24.81.33,1.2.53,1,.51,2.07.58,3.15.47,2.78-.27,4.47-3.09,3.46-5.67-.89-2.29-2.16-4.37-3.58-6.34-2.13-2.95-2.42-6.24-2.15-9.69.07-.95.15-1.92.04-2.87-.82-7.13-3.89-13.11-9.24-17.9-1.4-1.25-2.7-2.6-3.96-3.99-2.74-3.01-5.79-5.7-8.77-8.47-3.5-3.2-7.03-6.37-10.84-9.2-3.04-2.26-5.86-4.79-9.01-6.89-.04-.11-.12-.22-.23-.12-.04.03.03.19.05.29.26.54.5,1.08.77,1.61,2.89,5.68,5.5,11.43,6.98,17.69,1.36,5.77,2.38,11.58,2.06,17.5-.33,6.23-1.41,12.34-4.31,17.98ZM121.71,152.93c.96.02,1.73.06,2.53-.11,2.44-.52,4.72-1.45,6.86-2.71.59-.34,1.14-.46,1.58.15.5.68.1,1.19-.43,1.63-.15.12-.34.21-.52.3-2.52,1.32-5.09,2.44-7.95,2.83-1.47.2-1.48.26-1.05,1.75,1.01,3.54,1.7,7.12,1.82,10.81.06,1.89.03,1.89,1.88,2.52.11.04.22.08.34.12,3.72,1.06,7.52,1.1,11.24.36,2.54-.51,5.08-1.36,7.33-2.76.62-.39,1.22-.77,1.78-.03.57.77.08,1.32-.53,1.8-.96.77-2.14,1.03-3.25,1.49-6.21,2.57-12.49,2.86-18.93.58-.11.56-.25,1.12-.32,1.7-.34,2.97-1.19,5.76-2.88,8.27-1.31,1.96-2.81,3.77-4.25,5.63-.21.27-.54.49-.46.92.32,1.88.12,3.81.66,5.67.21.71.22,1.42-.68,1.61-.93.19-1.16-.47-1.39-1.24-.37-1.27-.25-2.63-.73-4.07-1.86,2.11-3.57,4.11-5.35,6.04-.54.58-.52,1.03-.21,1.68,2.31,4.86,4.59,9.74,6.88,14.61.29.61.52,1.26-.26,1.65-.84.43-1.24-.14-1.55-.81-.84-1.81-1.68-3.62-2.53-5.42-1.43-3.02-2.87-6.04-4.4-9.28-3.47,4.77-5.81,9.65-4.56,15.56,1.24,5.88,4.65,9.73,10.53,11.51,6.37,1.93,12.73,1.69,19.15.54,6.38-1.14,11.75-4.38,16.82-8.2,1.46-1.1,2.77-2.33,3.71-3.99-.54-.2-.88.1-1.25.2-1.92.52-3.86.93-5.84,1.14-.71.08-1.36-.1-1.45-.88-.09-.78.47-.98,1.2-1.15,2.31-.54,4.69-.94,6.61-2.54.38-.31.91-.57,1.44-.32,1.1.52,1.7-.04,2.23-.91,3.25-5.35,4.48-11.31,4.94-17.42.43-5.72-.15-11.38-1.63-16.94-.87-3.27-1.59-6.58-2.89-9.73-.64-1.55-.63-1.54-1.84-.46-.65.58-1.37,1.09-2.06,1.63-.54.42-1.11.49-1.6-.04-.53-.58-.28-1.11.25-1.54.59-.48,1.2-.92,1.8-1.38,1.45-1.1,1.65-2.04.9-3.66-1.79-3.88-3.82-7.64-5.85-11.39-1.3-2.39-2.99-4.5-4.85-6.58-1.12,1.72-2.68,2.89-4.18,4.12-.57.46-1.16.66-1.67.03-.52-.65-.13-1.2.4-1.64.67-.57,1.35-1.12,2.02-1.68,2.24-1.88,2.26-2.41.23-4.48-.06-.06-.11-.11-.17-.17-5.84-5.54-13.03-8.29-20.7-10.06-.65-.15-.96.07-1.19.64-.81,1.97-1.98,3.73-3.31,5.39-.9,1.12-1.88,2.17-2.8,3.27-.18.22-.63.42-.04.8,1.88,1.2,3.22,2.96,4.59,4.68,1.88,2.36,3.41,4.96,4.81,7.83.86-1.38,1.63-2.62,2.4-3.87.98-1.6,1.96-3.2,2.93-4.8.37-.62.91-.83,1.51-.48.61.35.47.94.19,1.47-.17.32-.35.62-.54.93-1.79,2.92-3.58,5.84-5.48,8.93ZM76.88,121.73c2.19-.52,3.53.12,4.49,2.14.22.46.37.97.51,1.46.76,2.64.84,5.34.72,8.06-.04.96-.23,1.92-1.02,2.6-.33.28-.3.44-.06.76,1.4,1.86,3.21,3.19,5.27,4.23.37.19.58.17.88-.2,1.28-1.56,2.93-2.48,4.92-2.94,1.73-.4,3.75-.47,4.21-2.85.1-.5.65-.56,1.1-.45.53.14.84.55.71,1.08-.3,1.27-.8,2.42-2.06,3.07-.9.46-1.86.69-2.84.9-1.38.3-2.69.75-3.79,1.67-.23.2-.59.37-.53.73.05.33.45.3.68.37,2.52.73,5.07,1.04,7.65.44,4.96-1.14,9.27-3.19,12.7-7.26,3.77-4.48,6.73-9.16,7.27-15.1.46-5.08-.42-9.67-4.6-13.14-3.99-3.31-8.47-5.29-13.72-5.39-2.37-.04-4.6.3-6.85,1.15-1.85.7-3.68,1.33-5.25,2.61.72.54,1.42,1.06,2.13,1.58.53.39.89.9,1.19,1.48.29.57.14,1-.36,1.34-.5.33-.97.18-1.25-.27-.61-1-1.62-1.5-2.47-2.22-.72-.61-1.24-.5-1.89.14-3.19,3.11-5.57,6.76-7.21,10.88-.38.95-.67,1.96-.53,3.13ZM120.24,155.33c-4.99,8.15-9.82,16.04-14.66,23.93-.15.25-.22.47-.16.77.5,2.46-.52,3.76-3.15,3.96,1.71,3.63,3.41,7.23,5.17,10.95,3.33-3.98,7-7.53,10.07-11.62,1.72-2.3,3.44-4.59,4.11-7.45.84-3.63,1.2-7.31.76-11.03-.38-3.15-1.1-6.22-2.14-9.52ZM103.35,179.01c.26-.39.4-.58.52-.78,4.34-7.08,8.71-14.15,12.99-21.26.87-1.45,2.56-2.73,2.27-4.53-.27-1.72-1.46-3.23-2.37-4.77-.38-.64-.59-.84-1.25-.2-5.2,5.07-10.44,10.09-15.7,15.11-.45.43-.62.8-.45,1.42,1.33,4.93,2.62,9.86,3.98,15ZM98.61,161.01c1.96-1.89,3.76-3.64,5.57-5.38,3.43-3.29,6.86-6.58,10.28-9.88.24-.23.82-.43.39-.94-1.52-1.78-2.8-3.8-4.88-5.05-.25-.15-.41-.44-.77-.1-2.31,2.16-5.12,3.39-8.13,4.26.37.52.74.95,1,1.43.58,1.04.4,2.33-.37,3.21-.39.46-.86.6-1.37.3-.54-.32-.57-.82-.32-1.35.07-.14.18-.27.25-.4.32-.57.03-1.01-.36-1.38-.39-.38-.97-.63-1.41-.36-.37.23.04.77.04,1.17,0,.32.09.64.08.95-.03.63-.34,1.11-1,1.13-.66.02-.97-.45-1.06-1.07-.06-.44.1-.92-.24-1.4-.73.72-1.3,1.34-1.01,2.42,1.1,4.05,2.16,8.11,3.3,12.43ZM102.41,201.98c.91-1.77,1.96-3.31,3.15-4.76.34-.42.4-.76.15-1.28-2.16-4.51-4.27-9.04-6.41-13.55-.12-.26-.17-.63-.61-.64-.54-.01-.51.44-.62.74-1.36,3.84-2.7,7.7-4.08,11.54-.19.53-.14.86.31,1.23,2.68,2.2,5.34,4.42,8.1,6.73ZM185.29,179.58c1.15,1.07,2.1,1.97,3.06,2.86.16.15.35.43.59.17.55-.58,1.27-.34,1.91-.47,2.67-.56,5.14-1.39,7.16-3.47,3.85-3.98,4.06-8.81,3.3-13.75-.53-3.45-2.86-6.05-5.37-8.39-.02-.02-.12.05-.19.07-.09.26.06.45.16.66,1.42,2.98,1.92,6.14,1.75,9.41-.17,3.31-1.05,6.3-3.58,8.71-2.43,2.32-5.22,3.74-8.8,4.2ZM190.78,141.3c.54,2,.61,4.03.12,5.95-.45,1.76.13,2.64,1.59,3.45,1.07.59,1.94,1.53,3.07,2.45-.08-4.76-1.38-8.73-4.78-11.85ZM79.56,124.56c-.45-.48-.69-1.35-1.56-.98-.73.31-1.42.87-1.32,1.81.36,3.07,1.1,6.02,2.86,8.63.15.22.23.55.59.5.4-.05.32-.4.38-.65.44-2.1.12-4.17-.14-6.38-.84.7-1.58.84-2.14-.16-.54-.97,0-2.1,1.32-2.76ZM195.76,156.22c-.1-.04-.19-.08-.29-.1-.02,0-.06.1-.1.16.1.05.19.11.29.16.03-.06.06-.13.1-.22Z"/>
      <path class="cls-4" d="M49.35,101.69c-1.27.81-2.55,1.61-3.8,2.45-.46.31-.65-.03-.9-.26-.96-.9-1.92-1.8-2.87-2.71-.53-.5-1.12-1.14-1.81-.4-.71.75-.09,1.36.49,1.91.81.77,1.58,1.58,2.41,2.32.48.43.47.78.01,1.17-1.21,1.04-2.42,2.08-3.49,3.28-.36.41-.73.36-1.17.12-1.37-.72-2.77-1.4-4.15-2.11-.64-.33-1.25-.7-2.01-.68.8-1.94,2.33-3.27,3.84-4.62.91-.81,1.86-1.56,2.95-2.48-4.91,0-9.52-.29-14.11-1.26-2.43-.51-5-.39-7.5-.59-1.6-.13-3.15-.44-4.6-1.17-2.26-1.13-2.72-2.65-1.64-4.9,1.64-3.41,4.76-5.01,7.95-6.28,3.13-1.24,6.45-2.05,9.74-2.83,4.74-1.12,9.55-1.12,14.38-.55,2.85.34,5.72.79,8.39,1.74,5.62,2,11.34,3.81,16.5,6.93.17.1.4.17.5.33,1.11,1.81,3.05,1.92,4.81,2.39.18.05.34.18.52.27-.41.03-.82.06-1.23.09-.53-.17-.81.05-.96.57-.43,1.51-.84,3.03-.97,4.61-.57.1-1.1-.13-1.65-.2q-2.54-.29-2.65-2.86c-.02-.44-.02-.87-.03-1.31-.03-1.33-.3-1.54-1.69-1.34-.14-.36-.49-.13-.71-.26.21-.51.44-1.01.62-1.53.3-.89.13-1.49-.99-1.4-.11-.5-.31-.9-.91-.93-.52-.03-.8.28-1.03.67-.14.24-.27.49-.42.72-.29.46-.52.92-.07,1.41.43.46.9.42,1.39.08.28.6.62,1.13,1.42.96-.13,1.83-.46,3.66,0,5.48-.56.03-1.11.06-1.67.1q-2.5.17-3.16-2.33c-.11-.42-.27-.83-.35-1.26-.2-1.06-.8-1.3-1.74-.93-.85-.03-.93.54-.96,1.19-.06,1.37.46,2.66.49,4.01-1.26.37-2.52.71-3.76,1.12-.58.19-.86.01-1.14-.48-.57-1-1.19-1.98-1.81-2.95-.68-1.06-1.09-1.07-1.99-.09-.3.18-.52.46-.35.78.72,1.29.89,2.84,1.87,4ZM51.2,85.88c.04-.69.09-1.46-.8-1.6-.91-.15-1.06.65-1.26,1.28-.6,1.84-1.17,3.69-1.76,5.54-.11.34-.1.84-.72.7-.92-.21-1.84-.4-2.77-.6.27-1.31.67-2.62.76-3.95.07-1.05.62-2.34-.7-3.12-.16-.59-.45-1.03-1.16-.93-.72.11-.8.7-.89,1.24-.31,1.84-.6,3.68-.9,5.51-.06.39-.06.81-.68.7-1.48-.26-2.97-.5-4.45-.74.36-2.05.53-4.11.48-6.19,0-.41,0-.83-.51-.95-.47-.11-.76.14-.92.56-1.26-.48-1.68-.2-1.7,1.11-.01.72,0,1.43,0,2.15-.01,3.35,0,3.34-3.37,3.11-.56-.04-.84-.15-.88-.81-.07-1.26-.27-2.52-.41-3.78-.07-.65-.52-.92-1.07-.88-.65.05-.96.51-.91,1.17.05.71.2,1.43.19,2.14-.01.7.53,1.65.03,2.01-.51.36-1.45.12-2.2.14-.08-.94-.15-1.89-.26-2.82-.05-.42-.05-.9-.62-1.01-.38-.44-.76-.84-1.42-.52-.58.29-.57.81-.53,1.34.05.72.07,1.44.18,2.15.11.74.02,1.2-.9,1.2-.67,0-1.4.4-1.99.24-.83-.23-.47-1.19-.65-1.82-.16-.59-.54-.99-1.22-.91-.67.08-.82.55-.77,1.13.04.44.04.89.15,1.31.16.62.21,1.08-.62,1.22-.4.07-.65.47-.64.91,0,.39.26.81.59.81,1.31.01,1.14,1.01,1.27,1.8.13.82-.14,2.04,1.2,1.89,1.3-.15.83-1.33.79-2.13-.09-2.21-.12-2.18,2.13-2.5.6-.08.8.07.82.63.04,1.08.09,2.15.15,3.23.04.72.32,1.3,1.13,1.23.79-.07,1.08-.64.93-1.38-.19-.95-.02-1.92-.14-2.86-.14-1.1.56-1.18,1.32-1.14.73.04,1.74-.48,1.76,1,.03,1.59.25,3.18.39,4.77.06.72.45,1.1,1.18,1.02.7-.08.9-.58.86-1.21-.07-.99-.16-1.98-.25-2.97-.24-2.81-.25-2.78,2.62-2.6.83.05,1.19.26,1.14,1.19-.09,1.71-.04,3.43-.04,5.15,0,.42.08.81.5,1,.35.16.72.15,1.02-.1.42-.36.54-.86.53-1.4-.01-1.48.05-2.96-.02-4.43-.04-.89.33-1.14,1.12-1.03,1.14.16,2.28.37,3.43.46.67.05.79.34.69.91-.18,1.06-.38,2.12-.5,3.19-.15,1.37.33,1.69,1.69,1.19.53.14.78-.2.83-.6.17-1.33.77-2.56.82-3.91.81-.15,1.56.21,2.35.26.59.04.99.25.64.98-.22.46.04.87.46,1.09.42.21,1.05.2,1.15-.23.3-1.41,1.23-1.07,2.13-.92.55.09,1.13.07,1.63.26,1.81.69,2.89-.23,3.8-1.6.93.32,1.47,0,1.74-.96.2-.71.52-1.4.86-2.06.42-.8.34-1.35-.58-1.63.22-.65.53-1.36-.37-1.72-.9-.36-1.16.36-1.43,1-.41.95-.83,1.89-1.24,2.84q-1.08,2.45-3.71,1.94c-.06-.37.04-.7.14-1.05.34-1.27.72-2.53.94-3.82.11-.63.61-1.56-.61-1.81ZM14.33,93.23c-.13-.61-.11-1.46-1.12-1.47-.63,0-1.13.4-.99,1.07.15.7-.06,1.79,1.15,1.76.74-.01.96-.61.96-1.36Z"/>
      <path class="cls-1" d="M80.16,7.24c1.7,2.08,3.23,4.07,3.71,6.61,1.36,7.19-2.29,15.17-10.46,16.88-1.01.21-1.17.53-.86,1.52,1.4,4.47,1.27,9.03.6,13.61-.51,3.53-1.3,6.97-3.42,9.93-3.76,5.24-9.03,7.47-15.27,6.7-4.63-.58-8.15-3.39-10.66-7.37-.13-.2-.26-.4-.49-.76-.61.95-1.18,1.83-1.72,2.72-1.83,3.02-4.31,5.42-7.15,7.46-2.15,1.55-4.7,1.95-7.21,2.23-4.14.45-8.3.52-12.18-1.39-6.46-3.17-11.45-7.86-14.74-14.31-.34-.66-.56-1.31.24-1.74.83-.44,1.2.16,1.53.82,2.66,5.27,6.67,9.25,11.68,12.32,3.83,2.35,7.96,2.85,12.29,2.44,1.03-.1,2.05-.29,3.07-.47,4.79-.85,7.74-4.16,10.37-7.84,1.02-1.42,1.95-2.91,2.69-4.5.25-.53.61-1.01,1.25-.93.57.07.64.65.92,1.07,1.81,2.8,3.66,5.51,6.83,7.11,7.72,3.88,17.51-1.16,19.42-10.43.98-4.75,1.51-9.53.53-14.35-.27-1.32-.61-2.63-1.23-3.84-.24-.47-.31-.89.03-1.33.33-.42.71-.49,1.25-.42,1.59.2,3.12-.31,4.47-1.01,6.81-3.53,8.75-12.96,3.72-18.56-.53-.59-1.23-1.01-1.81-1.55-.38-.35-.76-.76-.59-1.34.18-.58.6-.87,1.21-.99,1.71-.34,3.48-.37,5.16-.93,2.52-.84,4.83-2,6.51-4.18.37-.48.9-.54,1.38-.21.43.3.55.74.3,1.26-.38.78-1,1.33-1.65,1.86-2.8,2.26-6,3.53-9.7,3.91Z"/>
      <path class="cls-4" d="M29.91,114.63c-1.13.91-1.04,1.57.31,2.07,1.04.38,2.08.74,3.13,1.09.45.15.62.36.4.85-.31.67-.28,1.47-.75,2.08-.82-.47-1.61-1-2.47-1.39-.73-.32-1.3-.19-1.05.84-.78,1.17-.67,1.53.61,2,.26.1.52.22.79.27,1.31.21,2,.78,1.51,2.24-.22.65.11,1.24.81,1.36.74.13,1.15-.41,1.14-1.07-.02-1.18.4-1.42,1.44-.94.63.3,1.08-.03,1.29-.65.2-.59-.03-.96-.61-1.23-.47-.22-1.33-.12-1.34-.7-.01-.8.34-1.62.56-2.42.11-.4.37-.27.66-.16.78.3,1.57.55,2.35.86.63.25,1.12.11,1.37-.51.25-.61-.02-1.12-.6-1.37-.73-.31-1.49-.58-2.25-.79-.56-.16-.58-.41-.33-.85.65-1.14,1.35-2.25,2.13-3.31.32-.44.59-.38.99-.17,1.23.66,2.47,1.28,3.7,1.94.63.34,1.29.7,1.74-.14.44-.82-.17-1.23-.82-1.55-.14-.07-.27-.16-.4-.25.11-.75-.25-1.21-.93-1.45-.7-.25-1.42-.48-2.12-.72.89-1.25,2.14-2.12,3.28-3.1.46-.4.82-.3,1.27.16.89.9,1.89,1.71,2.84,2.55.49.43,1,.51,1.46-.03.47-.55.22-1.03-.24-1.45-.84-.79-1.66-1.61-2.53-2.37-.52-.45-.46-.72.1-1.06.95-.57,1.85-1.24,2.91-1.62.63,1.51,1.6,2.8,2.51,4.14.46.67,1.01.67,1.57.09.48.09.97.18,1.29-.3.34-.51.11-.97-.18-1.43-.63-1.01-1.22-2.05-1.88-3.03-.41-.62-.3-.88.41-1.03,1.08-.24,2.14-.54,3.21-.81.41,1.39.79,2.78,1.23,4.16.28.86.63.93,1.18.35,1.52.27,1.92-.15,1.55-1.63-.05-.19-.09-.39-.14-.58-.21-.92-.97-2.37-.54-2.62.87-.5,2.15-.31,3.26-.37.57-.03.87.24.85.87-.02.72-.03,1.44.07,2.15.09.64.32,1.3,1.17,1.23.87-.08.93-.73.88-1.41-.01-.2-.04-.4-.06-.6-.18-2.34-.12-2.42,2.22-1.98.45.08.97-.04,1.35.35.02.54-.02,1.07-.18,1.6-.15.5-.07.93.53,1.08.07.65.39,1.06,1.08.99.63-.06.8-.53.91-1.08.41-2.1.42-2.1,2.63-1.34.11.44-.13.83-.18,1.24-.07.56-.22,1.22.65,1.34.2.5.46.98,1.08.95.69-.04.82-.64,1.06-1.15.19-.41.07-1.33.71-1.11.71.25,1.91.06,1.95,1.45.02.84,1.05,1.21,1.69.65.4-.35.64-.52,1.03-.08-.02.18-.03.36-.05.54,0,0,0,0,0,0-1.08.23-2.32-.06-3.16.96-1.05-.47-1.98-1.17-3.29-.97-.9.14-2.34,1.41-2.26,2.31.03.34.18.63.5.75.38.14.75.11,1.1-.19,1.35-1.16,1.36-1.15,2.99-.03-1.83,1.28-3.73.83-5.7.36-3.44-.82-6.78-1.94-10.13-3.04-.73-.24-1.33-.02-1.97.11-3.73.76-6.89,2.75-10.01,4.8-3.74,2.45-7.2,5.29-10.29,8.49-1.63,1.7-2.78,3.86-4.18,5.79-.96,1.32-2.02,2.56-3.73,2.93.08-.22.2-.43.22-.66.06-.6-.25-.99-.84-1.09-.58-.1-1.01.12-1.15.73-.15.61.12,1,.67,1.2.22.08.47.05.7.07-.98.7-2.62.09-3.21-1.31-.52-1.24-.96-2.54-.98-3.91-.07-4.73.3-9.39,1.98-13.87.3-.81.36-1.74,1.13-2.32-.07.74.29,1.16.94,1.48,1.43.7,2.82,1.48,4.25,2.17.66.32.91.54.35,1.26-.73.94-1.36,1.97-1.89,3.03-.38.76-.79.9-1.46.47-.05-.12-.12-.17-.24-.08-.03-.02-.07-.04-.1-.07-.49-.8-1.32-1.21-2.03-1.75-.94-.71-1.33-.49-1.43.74ZM71.84,105.55c-.83-.67-1.36-.07-1.91.46-.45.44-1.04.87-.52,1.59.55.76,1.15.41,1.72-.02.01.43-.04.91.54,1.04.52.11.8-.23,1.04-.62.14-.23.26-.49.38-.74.26-.53.66-1.07.26-1.66-.44-.65-1.01-.02-1.52-.05Z"/>
      <path class="cls-1" d="M99.12,39.99c3.37.48,4.62,1.93,4.88,5.14.2,2.58-1.74,5.09-4.73,5.71-1.77.37-3.52.69-5.25-.14-.74-.36-.67.3-.8.62-.73,1.87-1.78,3.51-3.54,4.52-3.96,2.27-9.05-.52-9.44-5.19-.34-4.1.85-7.49,4.82-9.4.45-.21.41-.5.39-.86-.29-4.62,5.51-8.65,9.19-8.47,2.72.13,5.47,3.75,4.91,6.47-.1.5-.27.99-.43,1.59ZM82.14,48.68c-.02,2.6.87,4.47,2.25,5.3,2.98,1.78,6.84-.44,7.1-4.09.12-1.68.78-2.12,2.32-1.38,1.89.92,3.76.8,5.67.2,1.73-.54,2.77-2.09,2.53-3.71-.34-2.28-1.04-2.91-3.36-3.01-.36-.02-.72-.03-1.08-.01-.59.03-1.13-.01-1.41-.63-.28-.61.15-.94.49-1.34,1.14-1.34,1.25-2.89.33-4.28-1.07-1.61-2.34-2.04-4.19-1.48-1.54.46-2.81,1.34-3.84,2.52-1.26,1.46-2.2,3.02-.94,5.05.52.84-.2,1.78-1.07,1.45-1.19-.45-1.96.15-2.65.82-1.44,1.39-2.07,3.17-2.14,4.6Z"/>
      <path class="cls-1" d="M112.67,71.07c-.78,1.69.6,2.2,2.07,2.77,1.69.66,3.01,1.72,3.42,3.67.46,2.21-.44,4.61-2.35,5.83-2.5,1.58-5.14,1.87-7.83.56-.56-.27-.86-.14-1.25.15-1.73,1.3-3.66,1.99-5.82,1.49-2.92-.68-4.14-3.03-4.79-5.58-.92-3.59,1.22-7.28,4.72-8.55.62-.23.49-.6.46-1.02-.33-4.41,3.82-7.53,7.84-5.85,2.29.96,2.99,3.03,3.44,5.23.06.31.05.64.1,1.29ZM110.68,71.21c-.01-1.46-.27-2.38-.93-3.51-1.13-1.91-3.45-2.26-5.07-.77-1.4,1.3-1.77,2.81-1.14,4.65.44,1.29-.31,2.4-1.26,1.99-1.3-.56-2.11.07-2.76.94-1.82,2.41-2.16,4.36-.53,7.24,1.62,2.86,5.61,2.33,7.16-.21.44-.72,1.06-.93,1.66-.27,1.77,1.97,4.85,1.71,6.68.51,1.17-.77,1.88-1.81,1.77-3.28-.14-1.91-2.55-3.69-4.79-3.49-.55.05-1.05.13-1.38-.41-.3-.5-.18-1,.12-1.46.41-.63.54-1.31.47-1.94Z"/>
      <path class="cls-4" d="M76.19,100.64c-2.97-.77-2.94-.77-2.41-3.75.18-1.01.82-2.04.09-3.1,2.18.24,3.95,1.38,5.66,2.63-.48,0-.88.21-1.23.51-1.41.83-1.69,2.31-2.11,3.7Z"/>
      <path class="cls-4" d="M84.26,103.88c-.78-.07-1.04-.38-.6-1.13.37-.63.32-1.26-.4-1.61-.79-.38-1.19.15-1.41.78-.23.66-.63.71-1.18.48-.37-.15-.72-.34-1.1-.44-.63-.15-.69-.5-.5-1.04.33-.93.59-1.89.96-2.81.22-.54.17-.99-.11-1.46,2.09.92,3.82,2.15,4.42,4.55.23.92.16,1.79-.07,2.67Z"/>
      <path class="cls-1" d="M32.6,128.8c-.24-.02-.49,0-.7-.07-.55-.2-.82-.59-.67-1.2.15-.61.57-.84,1.15-.73.59.11.9.49.84,1.09-.02.22-.15.44-.22.66,0,0,0,0,0,0-.17,0-.29.07-.34.24l-.06.02Z"/>
      <path class="cls-4" d="M32.67,128.78c.05-.17.17-.24.34-.24-.03.19-.16.25-.34.24Z"/>
      <path class="cls-4" d="M32.09,106.76c0,.18-.15.21-.29.25.03-.16.11-.26.29-.25Z"/>
      <path class="cls-3" d="M121.71,152.93c1.9-3.09,3.69-6.01,5.48-8.93.19-.31.38-.61.54-.93.28-.53.42-1.12-.19-1.47-.6-.35-1.14-.14-1.51.48-.97,1.61-1.95,3.2-2.93,4.8-.76,1.25-1.54,2.49-2.4,3.87-1.4-2.86-2.93-5.46-4.81-7.83-1.36-1.71-2.71-3.48-4.59-4.68-.59-.38-.14-.58.04-.8.92-1.1,1.91-2.15,2.8-3.27,1.32-1.65,2.5-3.41,3.31-5.39.23-.57.54-.79,1.19-.64,7.67,1.78,14.87,4.52,20.7,10.06.06.05.11.11.17.17,2.03,2.07,2,2.6-.23,4.48-.67.57-1.35,1.12-2.02,1.68-.53.45-.92,1-.4,1.64.51.63,1.1.44,1.67-.03,1.51-1.23,3.07-2.4,4.18-4.12,1.86,2.08,3.55,4.19,4.85,6.58,2.04,3.75,4.06,7.51,5.85,11.39.75,1.63.55,2.56-.9,3.66-.6.46-1.21.91-1.8,1.38-.53.43-.78.96-.25,1.54.49.53,1.06.46,1.6.04.69-.54,1.41-1.04,2.06-1.63,1.21-1.08,1.2-1.09,1.84.46,1.3,3.14,2.02,6.46,2.89,9.73,1.48,5.56,2.06,11.23,1.63,16.94-.46,6.12-1.69,12.07-4.94,17.42-.53.87-1.13,1.43-2.23.91-.53-.25-1.07,0-1.44.32-1.92,1.6-4.3,1.99-6.61,2.54-.73.17-1.29.37-1.2,1.15.09.79.73.96,1.45.88,1.98-.21,3.92-.62,5.84-1.14.36-.1.7-.4,1.25-.2-.95,1.66-2.25,2.89-3.71,3.99-5.08,3.82-10.44,7.06-16.82,8.2-6.42,1.15-12.78,1.39-19.15-.54-5.88-1.78-9.29-5.63-10.53-11.51-1.25-5.91,1.09-10.79,4.56-15.56,1.54,3.24,2.98,6.26,4.4,9.28.85,1.8,1.69,3.61,2.53,5.42.31.67.71,1.24,1.55.81.78-.4.55-1.05.26-1.65-2.29-4.87-4.57-9.75-6.88-14.61-.31-.66-.33-1.1.21-1.68,1.78-1.93,3.49-3.93,5.35-6.04.48,1.44.36,2.8.73,4.07.23.78.46,1.43,1.39,1.24.9-.18.89-.9.68-1.61-.55-1.85-.34-3.79-.66-5.67-.07-.43.25-.65.46-.92,1.43-1.86,2.93-3.68,4.25-5.63,1.69-2.51,2.54-5.29,2.88-8.27.07-.58.21-1.14.32-1.7,6.43,2.28,12.72,1.98,18.93-.58,1.1-.45,2.29-.72,3.25-1.49.61-.49,1.1-1.04.53-1.8-.55-.74-1.16-.35-1.78.03-2.26,1.41-4.79,2.26-7.33,2.76-3.72.74-7.52.7-11.24-.36-.11-.03-.23-.08-.34-.12-1.85-.63-1.82-.63-1.88-2.52-.12-3.68-.81-7.27-1.82-10.81-.43-1.5-.42-1.55,1.05-1.75,2.85-.39,5.43-1.51,7.95-2.83.18-.09.36-.18.52-.3.54-.43.93-.95.43-1.63-.44-.61-.99-.49-1.58-.15-2.14,1.26-4.42,2.18-6.86,2.71-.8.17-1.57.13-2.53.11ZM132.68,215.15c.47,0,.89-.11,1.01-.65.14-.64-.16-1.06-.72-1.36-4.17-2.26-7.95-5.01-11-8.7-.4-.49-.97-.98-1.63-.37-.63.58-.42,1.16.09,1.77,3.04,3.68,6.81,6.46,10.92,8.8.41.24.82.5,1.33.5ZM118.84,199.12c-.16-.41-.24-1.1-1.1-1.09-.65,0-1.1.36-1.07,1,.03.73.38,1.29,1.25,1.25.62-.03.95-.33.92-1.16ZM135.34,146.99c-.54.17-1.11.46-1.15,1.12-.03.62.42,1.07,1.05,1.03.62-.03,1.14-.35,1.11-1.12-.02-.61-.37-.92-1.01-1.04ZM139.54,214.1c-.71.02-1.05.47-1.06,1.07-.02.66.53,1,1.1,1.05.6.05,1.06-.28,1.08-.99.02-.78-.53-.98-1.12-1.13Z"/>
      <path class="cls-3" d="M76.88,121.73c-.14-1.17.15-2.18.53-3.13,1.64-4.13,4.02-7.77,7.21-10.88.65-.63,1.16-.74,1.89-.14.85.71,1.86,1.22,2.47,2.22.28.45.75.6,1.25.27.5-.33.65-.77.36-1.34-.29-.58-.66-1.09-1.19-1.48-.7-.52-1.41-1.04-2.13-1.58,1.58-1.27,3.4-1.9,5.25-2.61,2.25-.85,4.49-1.19,6.85-1.15,5.25.09,9.73,2.08,13.72,5.39,4.18,3.47,5.06,8.06,4.6,13.14-.54,5.95-3.5,10.63-7.27,15.1-3.43,4.07-7.74,6.12-12.7,7.26-2.59.59-5.14.29-7.65-.44-.24-.07-.63-.04-.68-.37-.06-.36.3-.54.53-.73,1.1-.92,2.41-1.37,3.79-1.67.97-.21,1.94-.44,2.84-.9,1.26-.65,1.76-1.8,2.06-3.07.12-.53-.18-.94-.71-1.08-.45-.12-1-.06-1.1.45-.46,2.38-2.48,2.46-4.21,2.85-1.99.46-3.64,1.38-4.92,2.94-.3.37-.51.39-.88.2-2.05-1.05-3.87-2.37-5.27-4.23-.24-.32-.27-.48.06-.76.79-.67.98-1.64,1.02-2.6.12-2.71.04-5.42-.72-8.06-.14-.5-.29-1-.51-1.46-.96-2.01-2.29-2.65-4.49-2.14ZM95.57,127.01c-.06-2.12-1.03-4.9-2.55-7.46-1.12-1.9-3.2-2.94-4.67-2.42-2.02.7-4.15,2.41-4.08,5.02.1,3.85,1.92,6.83,4.49,9.45.6.62,1.44.98,2.36,1.04,2.7.16,4.45-1.7,4.45-5.63Z"/>
      <path class="cls-6" d="M152.91,153.9c3.16,2.1,5.98,4.64,9.01,6.89,3.81,2.83,7.34,6,10.84,9.2.02.39,0,.77.28,1.13,2.05,2.69,4.23,5.27,6.51,7.78,2.4,2.65,4.63,5.45,6.79,8.32,1.73,2.29,2.84,4.89,4.14,7.39,1.08,2.08,1.78,4.45,1.58,6.8-.39,4.46.33,8.56,2.9,12.27,1.33,1.91,2.32,4,2.99,6.23.37,1.24-.27,2.19-1.56,2.37-1.06.15-1.91-.25-2.78-.83-1.55-1.03-3.28-1.97-5.15-1.43-2.85.82-5.71,1.36-8.67,1.52-1.88.1-3.74.08-5.53-.65-3.87-1.56-7.41-3.65-10.61-6.35-1.46-1.24-2.62-2.65-3.4-4.38-.39-.87-.99-1.44-2.04-1.3,2.91-5.64,3.98-11.75,4.31-17.98.32-5.92-.7-11.72-2.06-17.5-1.48-6.26-4.09-12.02-6.98-17.69-.27-.53-.52-1.08-.77-1.61.06-.06.12-.11.18-.17ZM176.86,188.43c-2.26.1-4.48.27-6.47,1.6-4.31,2.88-8.04,11.42-4.4,17.82,3.17,5.58,10.89,8.14,16.58,5.15,4.35-2.28,5.96-6.19,6.18-10.74.25-5.08-2.67-8.76-5.97-12.18-.24-.25-.6-.41-.93-.52-1.63-.5-3.21-1.23-4.99-1.13Z"/>
      <path class="cls-6" d="M137.9,134.36c-1.14-.78-2.27-1.55-3.6-2.46,1.49-.04,2.68.41,3.87.72,12.93,3.46,26.01,6.43,38.32,11.91,4.52,2.01,8.9,4.27,13.22,6.64.83.46.97,1.32,1.43,1.97,1.2,1.72,2.39,3.47,3.22,5.43,1.57,3.7,1.78,7.5.85,11.35-.83,3.47-5.16,6.91-9.01,7.55-1.81.3-3.01-.1-4.36-1.48-7.48-7.68-15.62-14.63-24.2-21.05-2.01-1.51-3.87-3.26-6.01-4.54-1.43-.86-2.02-2.08-2.67-3.4,1.48.51,2.75,1.42,4.11,2.15,3.65,1.96,7.35,3.86,10.89,6.01,7.26,4.39,14.35,9.07,21.67,13.38,1.34.79,2.69,1.57,4.08,2.26,1.01.5,2.13.18,2.55-.58.42-.76.04-1.85-.88-2.49-.16-.11-.35-.2-.52-.29-7-3.82-13.8-7.99-20.62-12.11-4.89-2.95-9.94-5.58-15.06-8.09-2.18-1.07-4.42-2.03-6.5-3.3-.69-.42-1.36-.63-2.14-.49-1.58-1.85-3.16-3.71-4.74-5.56.56-.08.99.24,1.46.46,2.05.99,4.19,1.73,6.36,2.43,5.58,1.79,11.11,3.73,16.44,6.21,3.22,1.5,6.34,3.2,9.54,4.74,3.99,1.92,7.95,3.9,11.82,6.07.49.27.99.49,1.58.5.71.01,1.23-.17,1.55-.85.32-.68-.02-1.15-.44-1.6-.72-.77-1.69-1.19-2.6-1.68-5.01-2.73-10.27-4.97-15.35-7.58-5.26-2.7-10.76-4.84-16.36-6.73-4.19-1.42-8.49-2.48-12.62-4.1-1.68-.66-3.42-1.3-5.28-1.38Z"/>
      <path class="cls-2" d="M158.23,208.85c1.04-.14,1.64.43,2.04,1.3.78,1.74,1.94,3.15,3.4,4.38,3.19,2.7,6.74,4.79,10.61,6.35,1.79.72,3.65.75,5.53.65,2.95-.16,5.82-.69,8.67-1.52,1.86-.54,3.6.4,5.15,1.43.87.58,1.71.97,2.78.83,1.3-.18,1.94-1.13,1.56-2.37-.67-2.23-1.67-4.32-2.99-6.23-2.58-3.71-3.29-7.81-2.9-12.27.21-2.35-.5-4.71-1.58-6.8-1.29-2.5-2.41-5.1-4.14-7.39-2.16-2.86-4.39-5.67-6.79-8.32-2.28-2.51-4.46-5.08-6.51-7.78-.27-.36-.27-.73-.28-1.13,2.98,2.77,6.04,5.46,8.77,8.47,1.26,1.39,2.56,2.74,3.96,3.99,5.35,4.79,8.43,10.77,9.24,17.9.11.94.03,1.91-.04,2.87-.27,3.45.02,6.74,2.15,9.69,1.42,1.97,2.69,4.05,3.58,6.34,1.01,2.58-.69,5.4-3.46,5.67-1.08.11-2.15.04-3.15-.47-.39-.2-.84-.29-1.2-.53-3.31-2.18-6.81-1.78-10.36-.85-1.19.31-2.39.62-3.59.87-3.84.8-7.25-.62-10.51-2.32-3.08-1.61-5.89-3.67-8.26-6.26-.54-.59-1.03-1.21-1.53-1.84-1.22-1.53-1.53-3.09-.12-4.69Z"/>
      <path class="cls-6" d="M136.06,130.02c-1.7-.35-3.4-.71-5.1-1.06,1.63-.37,3.23-.07,4.81.13,3.96.51,7.94.67,11.92.88,5.3.28,10.61.41,15.9.79,6.17.45,11.99,2.34,17.62,4.84.62.27,1.24.53,1.87.77,5.6,2.11,6.65,6.51,5.83,11.19-.05.26-.11.52-.19.88-7.89-4.59-16.34-7.76-24.82-10.83.32-.38.75-.23,1.12-.16,2.35.43,4.67.96,6.94,1.72,3.93,1.31,7.77,2.87,11.76,4.02.74.21,1.48.46,2.15-.1.47-.39.82-.85.7-1.55-.19-1.03-.97-1.42-1.82-1.69-2.43-.78-4.86-1.53-7.3-2.26-3.35-1-6.64-2.24-10.11-2.82-6.11-1.02-12.21-2.08-18.25-3.5-3.86-.91-7.79-1.57-11.79-1.52-.42,0-.89-.15-1.23.26Z"/>
      <path class="cls-2" d="M137.9,134.36c1.86.08,3.6.72,5.28,1.38,4.13,1.62,8.43,2.68,12.62,4.1,5.6,1.89,11.1,4.03,16.36,6.73,5.08,2.61,10.33,4.85,15.35,7.58.91.49,1.87.91,2.6,1.68.42.45.76.92.44,1.6-.32.68-.84.87-1.55.85-.59-.01-1.09-.23-1.58-.5-3.86-2.17-7.82-4.14-11.82-6.07-3.2-1.54-6.32-3.24-9.54-4.74-5.33-2.47-10.85-4.42-16.44-6.21-2.17-.69-4.31-1.44-6.36-2.43-.46-.22-.9-.55-1.46-.46-1.3-1.18-2.6-2.35-3.9-3.53Z"/>
      <path class="cls-2" d="M146.54,143.46c.78-.14,1.45.07,2.14.49,2.08,1.27,4.32,2.23,6.5,3.3,5.12,2.51,10.17,5.13,15.06,8.09,6.82,4.12,13.62,8.29,20.62,12.11.18.1.36.18.52.29.92.64,1.3,1.72.88,2.49-.42.76-1.54,1.08-2.55.58-1.39-.69-2.74-1.47-4.08-2.26-7.32-4.31-14.4-8.99-21.67-13.38-3.55-2.14-7.24-4.05-10.89-6.01-1.36-.73-2.63-1.64-4.11-2.15-.81-1.18-1.62-2.37-2.43-3.55Z"/>
      <path class="cls-2" d="M136.06,130.02c.34-.41.81-.26,1.23-.26,4-.05,7.93.61,11.79,1.52,6.04,1.42,12.14,2.48,18.25,3.5,3.47.58,6.76,1.81,10.11,2.82,2.44.73,4.88,1.49,7.3,2.26.85.27,1.63.66,1.82,1.69.13.7-.23,1.16-.7,1.55-.67.56-1.42.31-2.15.1-3.98-1.15-7.83-2.71-11.76-4.02-2.27-.76-4.59-1.29-6.94-1.72-.37-.07-.79-.21-1.12.16-9.16-2.7-18.38-5.18-27.66-7.45-.07-.02-.12-.09-.18-.14Z"/>
      <path class="cls-4" d="M185.29,179.58c3.58-.46,6.37-1.88,8.8-4.2,2.53-2.41,3.41-5.4,3.58-8.71.17-3.27-.33-6.43-1.75-9.41-.1-.21-.25-.41-.16-.66.07-.03.17-.09.19-.07,2.51,2.34,4.84,4.94,5.37,8.39.76,4.94.55,9.77-3.3,13.75-2.01,2.08-4.49,2.91-7.16,3.47-.64.14-1.37-.11-1.91.47-.24.26-.43-.02-.59-.17-.96-.89-1.92-1.79-3.06-2.86Z"/>
      <path class="cls-2" d="M193.82,183.47c.96-.62,1.77-.59,2.8.11,2.97,2.02,4.57,4.7,4.6,8.3.01,1.56.04,3.11,0,4.67-.08,3.21.83,6.02,3.1,8.38,1.18,1.23,2.29,2.55,2.52,4.37.3,2.38-1.13,3.67-3.48,3.27-1.64-.28-3.06-1.45-4.83-1.11-.12.02-.33-.2-.43-.35-.53-.84-1.1-1.67-1.21-2.7,1.5-.3,2.78.57,4.18.82.66.12,1.29.49,1.98.26.69-.23,1.09-.56.37-1.25-.78-.74-1.56-1.49-2.29-2.28-1.9-2.06-2.82-4.52-2.69-7.3.12-2.61.66-5.21.2-7.84-.37-2.16-1.23-3.97-3.3-4.93-1.08-.5-1.65-1.21-1.53-2.42Z"/>
      <path class="cls-6" d="M193.82,183.47c-.11,1.2.46,1.92,1.53,2.42,2.08.96,2.93,2.77,3.3,4.93.45,2.64-.09,5.23-.2,7.84-.12,2.78.79,5.24,2.69,7.3.73.79,1.51,1.54,2.29,2.28.72.69.32,1.01-.37,1.25-.7.24-1.33-.14-1.98-.26-1.4-.25-2.67-1.12-4.18-.82-.36-1.36-.32-2.75-.22-4.12.54-7.49-1.99-13.95-6.44-19.8-.04-.06-.05-.14-.11-.31,1.28-.02,2.48-.38,3.68-.71Z"/>
      <path class="cls-4" d="M190.78,141.3c3.4,3.12,4.7,7.09,4.78,11.85-1.13-.92-2.01-1.86-3.07-2.45-1.46-.81-2.04-1.69-1.59-3.45.49-1.92.41-3.94-.12-5.95Z"/>
      <path class="cls-5" d="M79.56,124.56c-1.33.66-1.86,1.79-1.32,2.76.55,1,1.3.86,2.14.16.27,2.21.58,4.28.14,6.38-.05.25.02.6-.38.65-.36.04-.45-.29-.59-.5-1.75-2.61-2.5-5.56-2.86-8.63-.11-.94.59-1.5,1.32-1.81.86-.37,1.1.51,1.56.98Z"/>
      <path class="cls-3" d="M54.33,107.88c-.56.59-1.11.58-1.57-.09-.91-1.33-1.88-2.63-2.51-4.14.68-.62,1.15-.54,1.63.31.75,1.34,1.63,2.61,2.45,3.92Z"/>
      <path class="cls-3" d="M59.61,105.77c-.55.59-.9.51-1.18-.35-.44-1.38-.82-2.77-1.23-4.16.94-.38,1.3,0,1.48.94.23,1.2.61,2.38.92,3.57Z"/>
      <path class="cls-3" d="M56.54,99.31c-.03-1.35-.55-2.65-.49-4.01.03-.64.1-1.22.96-1.19-.43.65-.16,1.28.02,1.92.17.64.28,1.31.52,1.93.39,1.03.01,1.4-1,1.34Z"/>
      <path class="cls-3" d="M70.65,99.04c.13-1.58.54-3.09.97-4.61.15-.51.43-.74.96-.57-.54,1.48-.67,3.05-.97,4.59-.12.61-.25,1.03-.96.59Z"/>
      <path class="cls-3" d="M63.92,98.54c-.45-1.83-.12-3.66,0-5.48,0,0-.01,0-.01,0,.22.13.58-.1.71.26-.42,1.44-.19,2.89-.08,4.34.04.48.21,1.02-.62.87Z"/>
      <path class="cls-3" d="M49.35,101.69c-.98-1.17-1.14-2.71-1.87-4-.18-.31.05-.6.35-.78.28,1.46,1.32,2.52,2.02,3.75.41.71.3.99-.5,1.03Z"/>
      <path class="cls-3" d="M76.19,100.64c.43-1.39.71-2.87,2.11-3.7-.16,1.18-.73,2.23-1.02,3.37-.19.75-.59.7-1.1.33Z"/>
      <path class="cls-3" d="M29.91,114.63c.1-1.22.49-1.45,1.43-.74.71.54,1.54.95,2.03,1.75-1.23-.09-2.26-.83-3.46-1.01Z"/>
      <path class="cls-3" d="M29.48,120.18c-.26-1.03.32-1.17,1.05-.84.86.38,1.65.92,2.47,1.39-.07.63-.44.23-.68.18-.96-.2-1.82-.79-2.85-.72Z"/>
      <path class="cls-3" d="M41.15,110.57c.71.24,1.42.47,2.12.72.68.24,1.04.7.93,1.45-.99-.5-1.98-.99-2.95-1.5-.31-.16-.76-.35-.1-.67Z"/>
      <path class="cls-3" d="M75.66,105.02c-.87-.13-.72-.78-.65-1.34.05-.41.29-.8.18-1.24q1.31.49.47,2.59Z"/>
      <path class="cls-3" d="M70.56,103.86c-.6-.15-.68-.58-.53-1.08.15-.53.2-1.06.18-1.6.52-.04.96-.06.73.72-.19.63-.25,1.3-.37,1.95Z"/>
      <path class="cls-5" d="M83.12,106.27c.02-.18.03-.36.05-.54.14.05.39.12.39.14"/>
      <path class="cls-4" d="M195.76,156.22c-.04.1-.07.16-.1.22-.1-.05-.19-.11-.29-.16.03-.06.07-.16.1-.16.1.01.19.06.29.1Z"/>
      <path class="cls-3" d="M33.47,115.71c.12-.09.19-.04.24.08-.08-.03-.16-.05-.24-.08Z"/>
      <path class="cls-6" d="M152.72,154.06c-.02-.1-.09-.26-.05-.29.12-.1.19,0,.23.12-.06.06-.12.11-.18.17Z"/>
      <path class="cls-1" d="M41.64,97.82c-1.36.5-1.85.18-1.69-1.19.12-1.07.31-2.13.5-3.19.1-.58-.02-.86-.69-.91-1.15-.09-2.29-.3-3.43-.46-.79-.11-1.16.14-1.12,1.03.06,1.48,0,2.96.02,4.43,0,.55-.11,1.04-.53,1.4-.3.25-.67.26-1.02.1-.43-.2-.51-.59-.5-1,0-1.72-.05-3.44.04-5.15.05-.93-.31-1.14-1.14-1.19-2.86-.18-2.86-.21-2.62,2.6.09.99.18,1.98.25,2.97.05.63-.15,1.13-.86,1.21-.73.09-1.12-.29-1.18-1.02-.14-1.59-.36-3.18-.39-4.77-.03-1.49-1.04-.96-1.76-1-.77-.05-1.46.04-1.32,1.14.12.95-.05,1.91.14,2.86.15.73-.14,1.31-.93,1.38-.82.07-1.1-.51-1.13-1.23-.06-1.08-.11-2.15-.15-3.23-.02-.56-.22-.71-.82-.63-2.25.32-2.23.28-2.13,2.5.03.8.51,1.98-.79,2.13-1.34.15-1.06-1.07-1.2-1.89-.13-.79.04-1.78-1.27-1.8-.34,0-.58-.42-.59-.81-.01-.45.24-.84.64-.91.83-.14.78-.6.62-1.22-.11-.42-.12-.87-.15-1.31-.05-.58.1-1.05.77-1.13.68-.08,1.06.32,1.22.91.18.64-.18,1.59.65,1.82.59.17,1.32-.23,1.99-.24.92,0,1.01-.46.9-1.2-.11-.71-.13-1.43-.18-2.15-.04-.53-.05-1.05.53-1.34.66-.33,1.04.08,1.42.52-.22,1.12.21,2.21.17,3.33-.02.51.3.58.71.51.75-.02,1.69.22,2.2-.14.5-.36-.04-1.31-.03-2.01.01-.71-.13-1.42-.19-2.14-.05-.65.26-1.12.91-1.17.55-.04,1,.23,1.07.88.14,1.26.33,2.52.41,3.78.04.65.32.77.88.81,3.36.23,3.36.24,3.37-3.11,0-.72,0-1.43,0-2.15.02-1.32.45-1.59,1.7-1.11.18.48.23.98.22,1.5-.02,1.42,0,2.84-.01,4.26,0,.52.01.99.74.82,1.48.25,2.97.48,4.45.74.62.11.62-.31.68-.7.3-1.84.59-3.68.9-5.51.09-.55.17-1.14.89-1.24.71-.1.99.34,1.16.93-.33,1.98-.59,3.97-1.02,5.92-.22.98.1,1.21.96,1.15.92.2,1.85.39,2.77.6.62.14.61-.36.72-.7.59-1.84,1.17-3.7,1.76-5.54.2-.63.36-1.43,1.26-1.28.89.15.84.91.8,1.6-.79,1.48-1.1,3.12-1.64,4.69-.56,1.62-.53,1.63,1.16,2q2.63.5,3.71-1.94c.42-.95.84-1.89,1.24-2.84.27-.64.54-1.36,1.43-1,.89.36.59,1.07.37,1.72-.68,1.55-1.35,3.09-2.03,4.64-.91,1.37-1.99,2.3-3.8,1.6-.5-.19-1.09-.17-1.63-.26-.9-.14-1.83-.49-2.13.92-.09.44-.73.45-1.15.23-.42-.22-.68-.63-.46-1.09.34-.74-.05-.94-.64-.98-.79-.05-1.54-.41-2.35-.26-.6-.41-.87-.31-.97.47-.17,1.35-.45,2.69-.68,4.04Z"/>
      <path class="cls-3" d="M50.73,92.56c-1.7-.36-1.73-.37-1.16-2,.54-1.56.85-3.21,1.64-4.69,1.22.25.72,1.18.61,1.81-.22,1.29-.6,2.55-.94,3.82-.09.35-.2.69-.14,1.05Z"/>
      <path class="cls-3" d="M43.89,91.2c-.86.06-1.17-.17-.96-1.15.43-1.95.69-3.94,1.02-5.92,1.32.79.77,2.07.7,3.12-.09,1.33-.49,2.63-.76,3.95Z"/>
      <path class="cls-3" d="M35.87,89.92c-.73.16-.75-.3-.74-.82.01-1.42,0-2.84.01-4.26,0-.52-.04-1.02-.22-1.5.16-.43.44-.67.92-.56.51.12.5.55.51.95.05,2.08-.12,4.14-.48,6.19Z"/>
      <path class="cls-3" d="M55.46,93.15c.68-1.55,1.35-3.09,2.03-4.64.92.28,1,.83.58,1.63-.34.66-.66,1.35-.86,2.06-.27.97-.81,1.28-1.74.96Z"/>
      <path class="cls-1" d="M62.5,92.09c-.48.34-.96.38-1.39-.08-.45-.49-.23-.95.07-1.41.15-.23.27-.48.42-.72.23-.39.51-.7,1.03-.67.6.03.8.43.91.93-.14.76-.72,1.28-1.04,1.95Z"/>
      <path class="cls-1" d="M14.33,93.23c0,.75-.23,1.35-.96,1.36-1.2.02-1-1.06-1.15-1.76-.14-.67.36-1.07.99-1.07,1.01,0,.98.86,1.12,1.47Z"/>
      <path class="cls-3" d="M62.5,92.09c.32-.66.9-1.19,1.04-1.95,1.12-.1,1.29.51.99,1.4-.17.52-.41,1.02-.62,1.53,0,0,.01,0,.01,0-.81.17-1.14-.36-1.42-.96Z"/>
      <path class="cls-3" d="M41.64,97.82c.23-1.35.51-2.68.68-4.04.1-.78.37-.88.97-.47-.05,1.35-.65,2.58-.82,3.91-.05.4-.3.75-.83.6Z"/>
      <path class="cls-3" d="M24.58,89.7c-.41.07-.73,0-.71-.51.04-1.11-.39-2.2-.17-3.33.57.12.57.6.62,1.01.11.94.18,1.88.26,2.82Z"/>
      <path class="cls-1" d="M71.13,107.58c-.57.43-1.18.78-1.72.02-.52-.72.07-1.15.52-1.59.54-.53,1.07-1.13,1.91-.46.67.99-.28,1.42-.71,2.03Z"/>
      <path class="cls-3" d="M71.13,107.58c.42-.61,1.38-1.04.71-2.03.51.03,1.08-.6,1.52.05.39.58,0,1.13-.26,1.66-.12.25-.23.5-.38.74-.24.38-.52.73-1.04.62-.58-.12-.53-.6-.54-1.04Z"/>
      <path class="cls-1" d="M132.68,215.15c-.51,0-.92-.26-1.33-.5-4.11-2.35-7.88-5.12-10.92-8.8-.51-.61-.72-1.19-.09-1.77.66-.61,1.23-.12,1.63.37,3.04,3.69,6.83,6.43,11,8.7.55.3.86.71.72,1.36-.12.54-.54.64-1.01.65Z"/>
      <path class="cls-1" d="M118.84,199.12c.03.84-.3,1.14-.92,1.16-.87.04-1.22-.53-1.25-1.25-.03-.64.42-1,1.07-1,.86,0,.94.68,1.1,1.09Z"/>
      <path class="cls-1" d="M135.34,146.99c.65.11.99.43,1.01,1.04.03.77-.48,1.09-1.11,1.12-.63.03-1.09-.42-1.05-1.03.04-.66.61-.95,1.15-1.12Z"/>
      <path class="cls-1" d="M139.54,214.1c.59.15,1.14.35,1.12,1.13-.02.71-.48,1.03-1.08.99-.56-.04-1.11-.39-1.1-1.05.01-.6.35-1.05,1.06-1.07Z"/>
      <path class="cls-1" d="M95.57,127.01c0,3.93-1.76,5.78-4.45,5.63-.92-.05-1.76-.42-2.36-1.04-2.56-2.63-4.39-5.61-4.49-9.45-.07-2.61,2.06-4.31,4.08-5.02,1.48-.51,3.55.53,4.67,2.42,1.52,2.56,2.48,5.34,2.55,7.46ZM86.19,123.15c.5,2.23,1.62,4.73,3.62,6.76.63.64,1.39,1.06,2.36.64,1-.43,1.45-1.22,1.45-2.26,0-2.86-.95-5.44-2.4-7.86-.35-.58-.9-1-1.52-1.31-.26-.13-.51-.21-.8-.15-1.58.38-2.73,1.9-2.72,4.16Z"/>
      <path class="cls-1" d="M176.86,188.43c1.78-.1,3.36.64,4.99,1.13.33.1.7.27.93.52,3.3,3.42,6.22,7.11,5.97,12.18-.22,4.55-1.83,8.46-6.18,10.74-5.69,2.98-13.41.43-16.58-5.15-3.64-6.41.09-14.94,4.4-17.82,1.99-1.33,4.21-1.5,6.47-1.6ZM177.18,212.26c4.4-.01,7.41-2.13,8.9-6.25.69-1.91,1.08-3.91.54-5.87-1.13-4.12-2.85-7.93-7.38-9.32-2.79-.86-5.69-.77-8.06,1.11-3.45,2.73-5.02,6.58-4.69,10.86.43,5.7,4.97,9.49,10.69,9.48Z"/>
      <path class="cls-5" d="M86.19,123.15c0-2.27,1.14-3.78,2.72-4.16.29-.07.54.01.8.15.62.31,1.17.73,1.52,1.31,1.45,2.42,2.41,5,2.4,7.86,0,1.03-.45,1.83-1.45,2.26-.97.42-1.73,0-2.36-.64-2.01-2.04-3.13-4.53-3.62-6.76ZM87.41,121.94c-.02,1.27.59,2.06,1.42,2.08.75.01,1.4-.75,1.38-1.62-.02-.82-.96-2.07-1.56-1.98-.97.15-1.19.91-1.24,1.52Z"/>
      <path class="cls-4" d="M177.18,212.26c-5.73.02-10.26-3.77-10.69-9.48-.32-4.28,1.24-8.13,4.69-10.86,2.37-1.87,5.27-1.96,8.06-1.11,4.53,1.39,6.25,5.2,7.38,9.32.54,1.96.14,3.96-.54,5.87-1.49,4.13-4.5,6.24-8.9,6.25Z"/>
      <path class="cls-1" d="M87.41,121.94c.05-.62.27-1.38,1.24-1.52.6-.09,1.54,1.16,1.56,1.98.02.88-.63,1.64-1.38,1.62-.83-.02-1.43-.81-1.42-2.08Z"/>
    </g>
  </g>
</svg>