<?xml version="1.0" encoding="UTF-8"?>
<svg id="Calque_2" data-name="Calque 2" xmlns="http://www.w3.org/2000/svg" viewBox="0 0 212.23 177.62">
  <defs>
    <style>
      .cls-1 {
        fill: #6e5488;
      }

      .cls-1, .cls-2, .cls-3, .cls-4, .cls-5, .cls-6, .cls-7 {
        stroke-width: 0px;
      }

      .cls-2 {
        fill: #0f0d0e;
      }

      .cls-3 {
        fill: #998443;
      }

      .cls-4 {
        fill: #8d6756;
      }

      .cls-5 {
        fill: #dcc581;
      }

      .cls-6 {
        fill: #fff;
      }

      .cls-7 {
        fill: #a677b1;
      }
    </style>
  </defs>
  <g id="Calque_1-2" data-name="Calque 1">
    <g>
      <path class="cls-6" d="M60.02,169.71c-.39-.39-.83-.66-1.37-.33-.49.3-.7.83-.57,1.34.35,1.33,1.12,2.39,2.43,2.9,1.06.41,2.16.66,3.05-.43.42-.52.63-.16.83.23.58,1.13,1.2,2.24,1.75,3.38.3.63.7,1.01,1.39.72.68-.28.78-.89.5-1.5-.31-.69-.71-1.33-1.06-2-.75-1.48-1.91-2.83-2.24-4.45-1.82-8.91-3.51-17.84-5.26-26.77-.12-.59-.03-1.01.45-1.47,1.11-1.04,1.3-2.54.4-3.65-.51-.63-.44-1.05-.12-1.67,3.44-6.67,6.85-13.34,10.28-20.02.22-.42.5-.82.44-1.33.66.02,1.22.34,1.81.58,1.81.72,3.53,1.68,5.51,1.92-.34,2.9-.58,5.79-.13,8.7.68,4.39,2.29,8.36,5.78,11.2,5.41,4.4,11.72,6.12,18.63,5.33,2.19-.25,4.45-.62,6.39-1.79,5.06-3.04,9.17-6.91,11.18-12.7,1.52-4.38,1.8-8.86,1.65-13.42,1.92.24,3.83.48,5.75.71.35.27.75.27,1.16.22,1.77.72,3.53,1.44,5.3,2.16.39.66.96.72,1.62.5,1.54.82,3.05,1.69,4.62,2.45,6.07,2.93,12.23,5.66,18.06,9.07,3.18,1.86,6.3,3.77,8.76,6.58.58.66,1.25,1.23,2.02,1.68,2.93,1.7,6.05.43,6.95-2.75.85-3.01.65-6.08.68-9.15.02-2.06-.46-4.02-1.2-5.93-1.94-5.02-4.29-9.79-8.4-13.46,1.04-.02,2.07-.03,3.11-.05.28,0,.76.09.53-.45-.36-.83-.53-1.88-1.89-1.64-.66.12-1.35.04-2.03.01-.57-.02-1.01.17-1.3.67-3.08-2.87-6.69-4.67-10.82-5.55-2.82-.6-5.65-.97-8.51-1.2-4.76-.38-9.48-.36-14.11,1.02.17-1.95.21-3.91-.22-5.83-.19-.85.29-1.2.87-1.59,7.57-5.01,15.13-10.04,22.69-15.05.76-.51,1.51-1.36,2.51-.34.09.09.31.08.46.05.75-.13,1.01.32,1.27.93,3.53,8.33,7.05,16.66,10.64,24.96.58,1.33,1.07,2.8,2.14,3.81,1.57,1.47,3.33,2.73,5,4.09.54.44,1.1.77,1.65.08.57-.72.14-1.23-.45-1.69-1.24-.97-2.45-1.97-3.87-3.12,2.64-.19,5.01-.38,7.38-.53.76-.05,1.54-.1,1.49-1.1-.05-1.02-.81-.96-1.58-.9-2.74.22-5.49.37-8.24.59-.61.05-.91-.14-1.16-.71-3.77-8.87-7.55-17.74-11.34-26.6-.17-.41-.25-.74-.03-1.22.75-1.61.14-3.27-1.29-3.79-1.64-.59-3.38.25-3.85,2.01-.17.62-.48.95-.94,1.26-3.89,2.57-7.78,5.14-11.66,7.71-3.81,2.53-7.63,5.05-11.42,7.6-.64.43-.96.54-1.18-.37-.17-.72-.43-1.5-.88-2.06-.44-.55-.25-.74.13-1.08,5.01-4.49,9.44-9.52,13.74-14.67,7.32-8.76,13.44-18.25,17.86-28.81,1.35-3.22,1.92-6.53,1.47-10.03-.53-4.14-6.04-7.61-9.04-6.47-1.02.39-2.1.62-3.15.92-.1-.87-.14-1.71-.32-2.53-.59-2.74-.93-5.56-3.42-7.5-2.51-1.95-2.52-2.29-1.48-5.35.06-.19.11-.38.19-.56.93-2.15,1.04-4.41.88-6.69-.26-3.63-2.41-5.26-5.94-4.68-2.45.4-4.44,1.67-6.33,3.15-2.19,1.72-3.33,4.25-4.87,6.46-1.13,1.64-2.49,2.87-4.3,3.64-1.53.65-3.07,1.28-4.45,2.26-3.64,2.61-6.7,5.79-9.24,9.46-5.81,8.4-7.99,18.07-9.66,27.91-.81,4.77-1.08,9.59-.97,14.43,0,.23.14.61-.35.59-.25-.36-.12-.77-.12-1.15-.04-7.98-.29-15.95-1.45-23.87-1.07-7.33-3.02-14.43-6.66-20.88-3.07-5.42-7.32-9.52-14.24-9.53-1.9,0-3.46-.75-4.33-2.87-1.66-4.03-5.54-6.08-9.59-5.47-3.48.53-6.21,3.31-6.22,6.36,0,1.4.13,2.8.44,4.15.49,2.12,1.13,4.21,1.66,6.33.46,1.81.16,3.49-1.5,4.54-1.99,1.25-3.21,3.05-4.12,5.13-.19.45-.33.62-.86.5-1.04-.24-2.11-.41-3.17-.56-4.43-.6-9.4,2.6-10.65,6.88-1.02,3.48-.87,7.05-.35,10.56.88,5.99,3.26,11.46,6.55,16.48,5.77,8.77,13.36,15.82,21.65,22.16,1.6,1.23,1.62,1.21,1.09,3.1-.47.03-.83-.26-1.21-.46-3.74-2.02-7.68-3.53-11.77-4.64-6.58-1.79-13.29-2.09-20.04-1.4-2.45.25-4.8.89-6.51,2.88-1.81,2.11-1.71,4.31.44,6.05,1.98,1.61,3.91,3.28,5.86,4.92,3.26,2.75,7.1,4.57,10.75,6.69.4.23.93.32,1.05.88-.28,0-.56.02-.84.03-15.05.03-30.09.05-45.14.07-.76,0-1.53,0-1.53,1.02,0,.98.78.94,1.48.94,15.93-.02,31.85-.04,47.78-.04.59,0,1.1-.07,1.48-.56,3.33,1.44,6.65,2.9,10,4.3,2.86,1.2,5.76,2.33,8.64,3.49-.28.48-.57.95-.83,1.44-3.45,6.71-6.89,13.42-10.34,20.13-.23.45-.41.86-1.02,1.05-1.66.51-2.66,2.64-2.14,4.31.26.84.8,1.42,1.66,1.52.59.07.75.26.87.84,1.16,6.05,2.37,12.08,3.54,18.13.35,1.82.83,3.63,1.01,5.62-.53-.5-1-.84-1.59-.52-.59.32-.53.91-.57,1.47-.04.54.2,1.01.24,1.53-.06.05-.12.11-.18.16ZM198.17,106.45s0-.08,0-.12c2.32,0,4.63,0,6.95,0,1.96,0,3.91-.02,5.87,0,.71,0,1.21-.3,1.24-1,.03-.72-.5-1.03-1.19-1.04-.16,0-.32,0-.48,0-8.15.05-16.3.09-24.44.14-.28,0-.56-.02-.84,0-.58.06-.96.36-.99.98-.02.65.35.95.94,1.01.36.04.72.01,1.08.01,3.95,0,7.91,0,11.86,0Z"/>
      <path class="cls-2" d="M68.92,89.87c.53-1.89.52-1.87-1.09-3.1-8.29-6.34-15.88-13.38-21.65-22.16-3.29-5.01-5.68-10.49-6.55-16.48-.51-3.52-.67-7.08.35-10.56,1.25-4.28,6.22-7.48,10.65-6.88,1.06.14,2.13.31,3.17.56.53.12.67-.05.86-.5.9-2.07,2.12-3.88,4.12-5.13,1.67-1.05,1.96-2.72,1.5-4.54-.53-2.11-1.17-4.2-1.66-6.33-.31-1.36-.45-2.75-.44-4.15,0-3.05,2.74-5.84,6.22-6.36,4.05-.61,7.93,1.44,9.59,5.47.87,2.12,2.43,2.87,4.33,2.87,6.92,0,11.17,4.1,14.24,9.53,3.65,6.45,5.6,13.55,6.66,20.88,1.15,7.92,1.41,15.89,1.45,23.87,0,.38-.13.79.12,1.15.49.02.36-.35.35-.59-.11-4.84.16-9.65.97-14.43,1.66-9.84,3.85-19.51,9.66-27.91,2.54-3.67,5.59-6.85,9.24-9.46,1.38-.99,2.91-1.61,4.45-2.26,1.81-.78,3.17-2.01,4.3-3.64,1.53-2.21,2.67-4.74,4.87-6.46,1.89-1.49,3.88-2.75,6.33-3.15,3.53-.58,5.68,1.05,5.94,4.68.16,2.28.05,4.54-.88,6.69-.08.18-.13.38-.19.56-1.03,3.06-1.03,3.4,1.48,5.35,2.49,1.94,2.83,4.76,3.42,7.5.18.81.21,1.66.32,2.53,1.05-.3,2.13-.53,3.15-.92,3-1.14,8.51,2.33,9.04,6.47.44,3.5-.12,6.81-1.47,10.03-4.42,10.55-10.54,20.05-17.86,28.81-4.3,5.15-8.74,10.18-13.74,14.67-.38.35-.57.54-.13,1.08.45.56.71,1.34.88,2.06.22.91.54.8,1.18.37,3.79-2.55,7.61-5.08,11.42-7.6,3.88-2.57,7.77-5.14,11.66-7.71.47-.31.78-.64.94-1.26.47-1.75,2.21-2.6,3.85-2.01,1.43.52,2.04,2.18,1.29,3.79-.22.48-.14.81.03,1.22,3.79,8.86,7.57,17.73,11.34,26.6.24.57.54.76,1.16.71,2.74-.22,5.49-.38,8.24-.59.78-.06,1.54-.11,1.58.9.05,1-.73,1.05-1.49,1.1-2.37.15-4.74.34-7.38.53,1.42,1.15,2.63,2.15,3.87,3.12.59.47,1.02.97.45,1.69-.55.69-1.11.36-1.65-.08-1.67-1.36-3.43-2.62-5-4.09-1.07-1-1.56-2.48-2.14-3.81-3.59-8.3-7.12-16.63-10.64-24.96-.26-.61-.52-1.06-1.27-.93-.15.03-.38.03-.46-.05-1-1.03-1.75-.17-2.51.34-7.57,5.01-15.13,10.03-22.69,15.05-.59.39-1.06.74-.87,1.59.43,1.92.39,3.88.22,5.83-.44.57-.98.77-1.67.5-.2-.38-.49-.7-.4-1.2.26-1.53.17-3.05-.2-4.59-1.78.92-3.35,2.09-4.98,3.16-.59.39-1.2.65-1.67-.03-.5-.71-.09-1.25.56-1.67,1.27-.82,2.53-1.66,3.79-2.5,2.1-1.4,2.07-1.4,1.15-3.76-.32-.83-.54-.81-1.16-.23-3.01,2.85-6.09,5.63-9.28,8.28-.76.63-1.36.53-1.84-.33-.08-.64.35-1.02.74-1.43,1.02-.53,1.75-1.38,2.55-2.17,10.44-8.99,20.18-18.65,28.19-29.91,2.44-3.43,5.3-6.59,6.48-10.84,1.27-4.54.53-8.55-2.54-12.04-2.12-2.41-4.93-3.37-8.17-3.16-4.39.28-7.93,2.38-10.95,5.3-6.23,6-11.55,12.78-16.31,20.01-6.03,9.18-10.75,18.95-13.52,29.62-.08.33-.27.57-.5.8-1.33.03-1.65-.32-1.39-1.62.4-1.95.98-3.85,1.72-5.7.14-.35.41-.7.24-1.12-.99-2.34-.86-4.88-1.32-7.32-.06-.3.15-.78-.2-.85-.4-.07-.89.18-1.09.56-.2.37-.25.83-.3,1.26-.37,3.16-.7,6.31-1.58,9.39-.25.88-.94,1.89.01,2.87.36.37.52.91.1,1.41-.45.55-.97.43-1.5.15-.35-.51-.48-1.18-1.09-1.5-.48-1.32-1.47-2.33-2.15-3.53-1.42-2.46-2.88-4.9-4.32-7.35-.03-.2-.08-.38-.28-.48l.03-.07c-.04-.14-.07-.29-.27-.29h.03c-1.63-3.4-3.38-6.75-5.2-10.05-3.41-6.19-7.84-11.74-11.48-17.78-1.22-2.02-2.58-3.93-3.96-5.84-2.12-2.9-5.18-4.01-8.52-4.09-5.35-.13-11.24,4.26-13.1,9.29-1.9,5.16.02,9.74,2.02,14.33,6.53,8.97,14.49,16.45,23.7,22.61,2.88,1.93,6.14,3.24,8.86,5.44,1.92,1.56,3.98,2.94,6.16,4.11.36.19.69.4.82.81-.2,1.08-.66,1.38-1.62,1-.44-.17-.85-.44-1.26-.69-4.41-2.7-8.34-6.14-13.07-8.37-.71-.34-1.12-.59-1.33.4-.11.53-.5.79-1.01.89-.62-.16-.98-.55-1.03-1.2ZM62.67,39.6c.11.01.28.07.31.03.1-.13-.05-.17-.14-.21-1.77-1.85-3.77-3.44-5.97-4.75-2.12-1.27-4.43-1.92-6.92-2-4.16-.13-7.55,2.46-8.31,6.54-.7,3.74-.38,7.46.42,11.15.37,1.68.82,3.34,1.76,5.04.16-10.73,10.89-17.85,18.85-15.8ZM105,48.35c-.11.54-.22,1.08-.33,1.62-1.9,9.11-1.86,18.29-1.08,27.5.11,1.31.35,2.62.54,3.93,6-14.57,14.84-27.16,25.57-38.61-.26-.08-.41-.15-.56-.15-4.12-.13-7.02-4.09-6.6-8.39.62-6.32,5.18-11.56,11.34-13.19,4.73-1.25,8.41,1.04,9.48,5.82.33,1.49.15,2.95-.06,4.55,1.47-.83,2.78-1.57,4.09-2.31q1.73-.77,1.51-2.66c-.04-.32,0-.64-.07-.95-.53-2.96-1.03-5.87-4.13-7.51-1.25-.66-1.57-2.14-1.45-3.58.12-1.44.62-2.79,1.08-4.15.7-2.04.87-4.12.43-6.24-.28-1.37-1.26-2.25-2.47-2.12-3.4.38-6.07,2.06-8.12,4.74-.99,1.3-1.88,2.68-2.72,4.07-1.31,2.17-3.14,3.72-5.5,4.58-2.96,1.08-5.35,2.96-7.58,5.1-5.8,5.56-9.4,12.4-11.45,20.09-.69,2.6-1.7,5.13-1.92,7.85ZM58.12,33.02c5.45,3.98,10.48,8.37,14,14.25,1,1.67,2.04,3.33,3.15,4.94,5.83,8.47,11.27,17.16,15.86,26.39,1.5,3.02,3.2,5.95,5.13,8.77.11-.12.23-.2.26-.3.12-.38.23-.76.31-1.15,1.26-6.07,1.84-12.23,1.86-18.4.03-8.57-.25-17.14-1.67-25.63-.96-6.27-2.94-12.21-5.66-17.93-1.16-2.43-2.76-4.5-4.84-6.17-2.15-1.72-4.33-3.2-7.4-3.14-3.15.06-6.04-.92-7.09-4.49-.07-.22-.21-.44-.35-.63-1.63-2.18-3.58-3.74-6.53-3.4-2.86.33-5.38,2.46-5,5.17.13.95.24,1.9.38,2.84.31,2.14,1.17,4.13,1.65,6.23.75,3.26,0,5.34-2.74,7.22-.98.68-1.68,1.55-2.26,2.58-1.11,1.97-1.14,1.95.93,2.84ZM141.64,28.74c-.05-.75-.2-1.53-.45-2.29-.93-2.74-2.98-4.1-5.64-3.74-5.02.68-9.85,5.2-10.84,10.2-.49,2.5-.31,4.84,1.77,6.7,1.6,1.43,3.47,1.02,5.31.91.63-.04.88-.62,1.26-.98,2.25-2.16,4.69-4.1,7.21-5.92.59-.43,1.59-.71.78-1.81-.12-.17.09-.61.19-.9.25-.68.37-1.38.41-2.15ZM140.76,35.83c4.05-.92,7.79-.42,11.08,2.2,3.24,2.59,4.68,6.14,5.15,10.39,1.22-2.17,2.07-4.26,2.99-6.31,1.23-2.73,1.55-5.58,1.33-8.53-.22-2.96-3.82-5.83-6.63-5.14-5.23,1.29-9.7,4.06-13.92,7.39ZM101.31,74.98c.14-1.67-.06-3.21-.3-4.89-.34.58-.84,3.96-.68,4.35.16.37.54.41.98.54Z"/>
      <path class="cls-5" d="M130.37,99.87c.69.27,1.23.07,1.67-.5,4.63-1.38,9.35-1.4,14.11-1.02,2.86.23,5.69.6,8.51,1.2,4.13.89,7.74,2.68,10.82,5.55-.21,1.28.77,1.28,1.59,1.46,4.11,3.67,6.46,8.43,8.4,13.46.74,1.91,1.22,3.87,1.2,5.93-.03,3.06.17,6.13-.68,9.15-.9,3.18-4.02,4.45-6.95,2.75-.77-.45-1.44-1.01-2.02-1.68-2.46-2.81-5.58-4.72-8.76-6.58-5.83-3.41-11.99-6.14-18.06-9.07-1.57-.76-3.08-1.63-4.62-2.45.29-.43.35-.91.36-1.41.06.14.17.28.18.42.03.6.17,1.21.88,1.17.78-.04.81-.72.82-1.34,0-1.19.03-2.38.05-3.56,1.62.37,3.22.79,4.85,1.11.84.17.97.58.8,1.33-.27,1.19-.44,2.41-.68,3.61-.12.58-.18,1.15.44,1.44.68.32,1.13-.05,1.45-.64.01.12.03.24.04.36.06.58.17,1.15.95,1.1.72-.04.7-.59.76-1.13.19-1.54.47-3.06.46-4.62,1.4.15,2.61.89,3.92,1.29.65.19.78.5.51,1.13-.59,1.38-1.09,2.8-1.65,4.2-.28.69-.59,1.42.35,1.8.87.36,1.18-.33,1.44-.98.27.38.29,1.01,1,.97.49-.03.75-.31.8-.72.2-1.63,1.05-3.03,1.53-4.57,1.15.36,2.11,1.08,3.16,1.64.51.27.56.55.24,1.03-.58.85-1.11,1.75-1.67,2.62-.58.9-.46,1.57.61,1.94.23.81.78.85,1.2.29.93-1.21,1.95-2.39,2.45-3.88,1.4.57,2.53,1.56,3.85,2.37-1.07,1.01-2.04,1.9-2.99,2.81-.97.94-.8,1.55.54,1.99.46,1.18,1.32.76,1.9.29,1.09-.89,2.15-1.85,2.94-3.04,1.1.57,1.52,1.71,2.29,2.61-.37.16-.66.29-.94.42-.32.15-.65.29-.97.44-1.26.6-1.35,1.09-.38,2.11.13.79.62.85,1.22.58.61-.28,1.2-.6,1.8-.92,1.82-.97,3.86-1.45,5.63-2.54.39-.24.75-.49.68-1.01-.07-.55-.47-.68-.96-.64-.51-.72-1.1-.75-1.86-.35-.91.48-1.88.85-2.95,1.33.16-.83-.23-1.38-.64-1.92-.43-.57-.88-1.12-1.33-1.68,1.24-.8,2.04-2.09,3.24-2.91.79-.54.88-1.15.4-1.91.35-.55.34-1.05-.21-1.45-.59-.43-1.04-.09-1.46.3-1.31,1.21-2.63,2.41-3.91,3.65-.43.42-.73.43-1.21.08-1.08-.79-2.22-1.51-3.33-2.27,1.27-2.8,3.08-5.23,5.07-7.54.32-.37.68-.72.42-1.25-.24-.49-.7-.42-1.15-.34-.73-1.12-1.36-1.13-2.09,0-1.45,2.27-2.9,4.55-4.31,6.84-.31.5-.53.67-1.1.32-1.06-.68-2.18-1.28-3.27-1.91,1.12-2.8,2.34-5.56,3.29-8.43.34-1.02.64-2.04.62-3.13-.01-.63-.19-.99-.86-1-.14-.53-.39-.98-1.02-.97-.62,0-.86.44-1.06.96-1.33,3.44-2.7,6.86-4.01,10.31-.25.66-.48.84-1.16.54-1.37-.59-2.78-1.09-4.18-1.63.13-.58.3-1.15.39-1.74.51-3.21,1.43-6.36,1.36-9.65-.02-.74-.17-1.25-.98-1.35-.15-.59-.54-.89-1.14-.8-.54.08-.79.47-.83,1.01-.03.35-.14.7-.21,1.05-.59,3.21-1.19,6.41-1.75,9.62-.12.66-.28.9-1.05.67-1.67-.51-3.39-.86-5.09-1.27.12-1.31.22-2.61.36-3.92.23-2.26.44-4.52.33-6.79-.03-.56-.21-1.05-.91-1.01-.64.04-.72.49-.76,1.01-.03.46.2.96-.21,1.37-.13-.61-.54-.9-1.12-.79-.59.11-.8.55-.83,1.14-.14,2.5-.33,5-.47,7.51-.03.57-.11.9-.8.81-1.42-.18-2.84-.32-4.26-.47-.08-1.1-.12-2.21-.25-3.31-.17-1.49-.16-3.01-.53-4.47-.12-.47-.34-.93-.96-.86-.65.08-.66.58-.64,1.08,0,.28,0,.55.01.83-.89.12-1.19.61-1.04,1.49.18,1.09.27,2.19.41,3.29.3,2.37.55,1.85-1.73,2.14-.08,0-.16-.02-.23-.03-.15-1.5-.61-2.92-1.16-4.31-.17-.44-.46-.73-.98-.67-.63.07-.58.53-.55.97-1.05.31-1.18,1.02-.86,1.94.22.63.42,1.27.59,1.91.07.26.28.66-.27.71-1.38.1-2.61.84-4,.9-.1-.9-.44-1.74-.86-2.52-.41-.76-.95-.68-1.35.11-1.24.45-1.05,1.35-.63,2.24.36.78.26,1.19-.65,1.44-1.03.28-2.02.71-3.03,1.08.09-.57-.39-1.11-.02-1.73.47-.78.91-1.57,1.44-2.32,1.02-1.44,2.44-2.47,3.65-3.72.73-.13,1.6-.01,1.87-1.01,2.77-1.3,5.47-2.72,8.31-3.87,1.46-.59,3.05-.84,4.44-1.63ZM170.95,134.35c-.07.54-.7,1.16.02,1.59.78.46,1.43-.16,2.05-.54.47-.29.75-.73.24-1.26.25-.49.39-.96-.09-1.41-.34-.31-.75-.4-1.09-.16-.6.43-1.33.82-1.12,1.78Z"/>
      <path class="cls-5" d="M68.92,89.87c.05.65.41,1.04,1.03,1.2.1,1.26,1.32,1.17,2.03,1.72,3.11,2.39,6.16,4.86,8.83,7.75.69.75.07.71-.45.73-.14-.54-.5-.81-1.04-.78-.5.03-.75.38-.93.82-.21.52-.4,1.04-.64,1.54-.53,1.08-.64,2.92-1.57,3.1-.89.17-2.06-1.11-3.1-1.75.4-1.84,1.28-3.47,2.26-5.04.58-.92.8-1.69-.17-2.44.14-.68-.23-1.09-.81-1.23-.6-.15-.93.27-1.16.78-.85,1.87-1.72,3.73-2.54,5.61-.26.59-.5.67-1.03.32-.99-.64-2.03-1.21-3.04-1.81,1.04-2.3,1.98-4.64,3.39-6.75.56-.84.27-1.43-.8-1.5-.08-.58-.22-1.11-.95-1.15-.71-.04-.92.47-1.15,1-.61,1.42-1.21,2.84-1.87,4.23-.46.96-.55,2.54-1.49,2.69-.88.14-1.94-.86-2.93-1.37.29-.86.56-1.72.87-2.57.53-1.44.81-2.97,1.59-4.32.7-1.22.45-1.64-1.01-1.73-.97-.89-1.54-.78-2.01.43-.77,2-1.52,4-2.24,6.01-.22.62-.47.8-1.1.46-.97-.53-1.99-.97-2.99-1.45.12-2.17.95-4.13,1.75-6.11.47-1.16.25-1.45-1-1.58,0-.67-.36-1.09-1-1.08-.59,0-.85.43-.98,1.01-.43,1.94-.94,3.86-1.36,5.79-.12.55-.31.66-.79.42-1.11-.53-2.22-1.05-3.33-1.57.02-.2.04-.39.08-.59.39-1.9.91-3.76,1.53-5.59.16-.47.18-1-.41-1.2-.61-.21-.98.16-1.16.71-.13.41-.2.84-.29,1.26-1.22-.9-1.8-.69-2.12.79-.18.81-.36,1.62-.51,2.44-.14.76-.34,1.22-1.29.83-.64-.26-1.34-.49-2.08-.36-.29-.23-.15-.48-.08-.76.27-1.08.55-2.16.78-3.24.12-.57-.09-1.09-.71-1.18-.57-.08-.82.36-.92.88-.07.39-.18.77-.27,1.16-.87-.1-1.22.31-1.45,1.16-.59,2.1-.77,4.26-1.27,6.37-.18.77.05,1.23.8,1.45.1.6,0,1.41.93,1.35.82-.05.68-.79.8-1.36.27-1.38.31-2.82.92-4.12.76.2,1.52.43,2.29.59.64.14.93.32.7,1.11-.43,1.48-.71,3-1.01,4.51-.24,1.19.12,1.56,1.37,1.52,0,.12,0,.24,0,.36.02.5-.09,1.15.64,1.18.64.03.79-.55.91-1.06.05-.23.1-.46.15-.69.4-1.81.8-3.62,1.2-5.42,1.02.43,2.03.91,3.08,1.28.79.29.85.75.66,1.48-.47,1.81-.89,3.63-1.3,5.46-.28,1.28.1,1.68,1.39,1.57.05.55-.01,1.25.76,1.26.81,0,.82-.72.89-1.31.01-.12,0-.24.02-.36.35-2.11.66-4.23,1.2-6.31.91.41,1.8.85,2.73,1.2.69.26.76.59.5,1.25-.79,1.96-1.51,3.94-2.24,5.91-.53,1.43-.11,1.92,1.41,1.68.34.95.87.81,1.3.14.38-.59.6-1.29.9-1.94.78-1.68,1.03-3.58,2.15-5.11.65.3,1.28.63,1.94.88.8.31,1.05.69.62,1.57-.92,1.88-1.71,3.82-2.54,5.74-.56,1.3-.13,1.81,1.32,1.64.57.15,1.12.25,1.41-.45.92-2.2,1.84-4.39,2.76-6.59,1.02.35,1.87,1.03,2.84,1.47.78.36.93.73.52,1.54-.89,1.77-1.67,3.59-2.48,5.39-.63,1.4-.3,1.88,1.23,1.82.82,1.04,1.31.12,1.59-.4,1.06-1.95,2.05-3.95,2.73-6.08.96.31,1.69,1.03,2.57,1.46.71.35.84.75.5,1.48-.67,1.43-1.24,2.91-1.86,4.37-.19.45-.38.89,0,1.33.41.48.89.43,1.4.2.44.08.95.14,1.13-.36.56-1.63,1.47-3.13,1.78-4.85.6.17.96.7,1.48.98.97.52.87,1.11.42,1.99-.65,1.25-1.89,2.39-1.12,4.05.04.1-.11.28-.18.43-1.98-.24-3.7-1.2-5.51-1.92-.59-.24-1.15-.56-1.81-.58-.36-.61-.9-.77-1.56-.63-2.88-1.16-5.77-2.29-8.64-3.49-3.35-1.4-6.67-2.87-10-4.3.16-1.05-.35-1.44-1.34-1.41-.63.02-1.26-.02-1.89-.04-.13-.56-.65-.65-1.05-.88-3.65-2.13-7.49-3.94-10.75-6.69-1.95-1.65-3.88-3.31-5.86-4.92-2.15-1.74-2.25-3.94-.44-6.05,1.71-1.99,4.06-2.63,6.51-2.88,6.75-.69,13.46-.39,20.04,1.4,4.09,1.11,8.03,2.62,11.77,4.64.38.21.74.49,1.21.46ZM34.24,90.54c-.08.51-.17,1.01-.22,1.52-.05.5.02.99.66,1.07.55.07.81-.32.91-.76.38-1.66.72-3.32,1.06-4.99.08-.42-.03-.81-.52-.93-.46-.11-.79.09-.94.51-.18.52-.31,1.06-.46,1.59-.65-.14-1.28-.14-1.47.67-.2.8.38,1.09,1,1.31Z"/>
      <path class="cls-2" d="M53.9,94.36c1,.48,2.02.92,2.99,1.45.63.34.87.16,1.1-.46.72-2.01,1.48-4.02,2.24-6.01.47-1.21,1.04-1.31,2.01-.43.14.54-.1,1.01-.28,1.48-.68,1.81-1.31,3.64-2.07,5.42-.45,1.06-.16,1.55.9,1.73.98.5,2.05,1.51,2.93,1.37.94-.15,1.03-1.74,1.49-2.69.66-1.39,1.26-2.82,1.87-4.23.23-.53.44-1.04,1.15-1,.73.04.88.57.95,1.15-1.02,2.35-2.03,4.71-3.08,7.05-.28.63-.32,1.06.49,1.21,1.02.6,2.05,1.18,3.04,1.81.54.34.78.26,1.03-.32.82-1.88,1.7-3.74,2.54-5.61.23-.51.57-.92,1.16-.78.59.14.95.55.81,1.23-.89,1.93-1.73,3.89-2.69,5.79-.45.89-.34,1.38.59,1.69,1.05.64,2.22,1.92,3.1,1.75.93-.18,1.04-2.02,1.57-3.1.24-.5.44-1.02.64-1.54.17-.43.43-.79.93-.82.54-.03.9.24,1.04.78-.37,1.87-1.36,3.51-2.02,5.27-.22.59-.37,1.06.4,1.3q2.1,2.27,3.5-.37c.06-.1.13-.2.18-.31.25-.5.49-1.03,1.16-1.02.74.01.74.69.98,1.16-.47.9-.88,1.84-1.43,2.69-.56.87-.41,1.43.47,1.87.31.53.89.78,1.27,1.23.66.78,1.07.72,1.61-.19.48-.8.72-1.91,1.91-2.11.78.33,1.31.63.59,1.63-.44.62-.75,1.38-1.2,2.01-.51.71-.34,1.14.35,1.5.48.65.98,1.27,1.73,1.63.08.13.13.29.24.39.54.51.71,1.08.1,1.6-.53.45-1.08.29-1.56-.17-.22-.21-.47-.39-.71-.59-.21-.42-.51-.75-.94-.96-.84-1-.84-1-1.45.26-.36.21-.5.59-.69.93-.55.05-1.03-.12-1.44-.47-.26-.94.42-1.55.81-2.26.16-.28.63-.6.23-.91-.68-.55-.88-1.53-1.78-1.85-.55-.79-1.01-.88-1.46.11-.43.93-.94,1.81-1.42,2.71-.35.12-.7.24-1.03.35.45.5,1.4.25,1.52,1.16-.86,4.03-.53,7.99.89,11.84.83,2.26,2.15,4.21,4.06,5.88.2-1.21.74-2.11,1.32-2.96,1.31-1.91,3.17-3.01,5.5-2.75,2.15.24,2.89,2.06,3.44,3.85.57,1.83.99,3.7.84,5.64-.06.85.33,1.17,1.07,1.19,1.99.05,3.98.09,5.96-.32.89-.19,1.17-.55,1.12-1.43-.11-2.12.02-4.22.89-6.22.69-1.6,1.84-2.55,3.57-2.8,2.05-.29,3.61.38,4.55,2.27.27.55.5,1.12.84,1.89,4.58-5.75,5.82-12.27,5.39-19.27.68,0,1.31-.46,2.01-.21.15,4.56-.13,9.04-1.65,13.42-2.01,5.79-6.12,9.66-11.18,12.7-1.94,1.16-4.2,1.54-6.39,1.79-6.91.79-13.22-.93-18.63-5.33-3.49-2.84-5.1-6.81-5.78-11.2-.45-2.91-.21-5.8.13-8.7.06-.14.22-.33.18-.43-.77-1.67.47-2.8,1.12-4.05.45-.88.55-1.47-.42-1.99-.52-.28-.87-.81-1.48-.98-.69-.7-.67.15-.79.41-.76,1.57-1.26,3.26-2.12,4.8-.51.23-.99.28-1.4-.2-.38-.45-.19-.88,0-1.33.62-1.46,1.19-2.94,1.86-4.37.34-.73.21-1.13-.5-1.48-.88-.44-1.61-1.15-2.57-1.46-.64-.73-1.02-.59-1.4.28-.93,2.08-1.94,4.13-2.92,6.19-1.53.06-1.86-.42-1.23-1.82.81-1.8,1.59-3.63,2.48-5.39.4-.8.25-1.18-.52-1.54-.97-.44-1.81-1.13-2.84-1.47-.54-.51-.83-.36-1.12.3-1.02,2.25-1.84,4.58-3.05,6.74-1.46.17-1.88-.34-1.32-1.64.83-1.92,1.63-3.86,2.54-5.74.43-.88.18-1.26-.62-1.57-.66-.26-1.29-.59-1.94-.88-1.43-.72-1.42-.71-1.97.74-.78,2.06-1.59,4.12-2.39,6.17-1.52.24-1.95-.25-1.41-1.68.73-1.98,1.46-3.96,2.24-5.91.26-.66.19-.99-.5-1.25-.93-.35-1.82-.8-2.73-1.2-.68-.57-1.02-.31-1.15.47-.08.47-.16.94-.31,1.39-.52,1.6-.48,3.37-1.41,4.86-1.3.11-1.68-.29-1.39-1.57.4-1.83.83-3.65,1.3-5.46.19-.73.13-1.2-.66-1.48-1.04-.38-2.05-.85-3.08-1.28-.92-.69-1.38-.49-1.49.69-.07.74-.25,1.49-.48,2.2-.3.92-.15,2-.94,2.75-1.25.04-1.6-.33-1.37-1.52.3-1.51.58-3.03,1.01-4.51.23-.79-.06-.97-.7-1.11-.77-.17-1.53-.39-2.29-.59.16-.57.32-1.14.48-1.71.74-.13,1.44.1,2.08.36.95.39,1.16-.07,1.29-.83.15-.82.33-1.63.51-2.44.32-1.48.9-1.69,2.12-.79-.24,1.27-.38,2.58-.76,3.81-.33,1.07.04,1.47,1.01,1.6,1.11.52,2.22,1.04,3.33,1.57.48.23.67.13.79-.42.42-1.94.93-3.86,1.36-5.79.13-.58.39-1.01.98-1.01.65,0,1,.41,1,1.08-.49,2.11-.95,4.24-1.48,6.34-.19.74-.11,1.22.72,1.35ZM94.38,140.02c.1-2.28-.38-5.06-1.13-6.69-.69-1.51-1.4-1.81-2.95-1.27-1.58.55-2.34,1.85-2.92,3.27-.63,1.52-.42,1.91,1.19,2.33.12-1.76.49-2.35,1.61-2.55,1.91-.34,3.24,1.34,2.45,3.31-.37.94-.15,1.15.66,1.29.35.06.69.18,1.09.29ZM112.04,136.07c.86-1.05.18-1.94-.14-2.75-.39-.98-1.03-1.74-2.33-1.6-1.21.13-1.99.68-2.42,1.79-.57,1.47-.75,3-.68,4.56.02.44-.27,1.06.2,1.29.41.2.88-.24,1.31-.43,1.01-.45.06-1-.02-1.44-.19-1.14.7-3.01,1.75-3.32,1.04-.31,1.65.15,2.34,1.91Z"/>
      <path class="cls-2" d="M168.66,125.53c.44.56.9,1.11,1.33,1.68.41.54.81,1.09.64,1.92,1.07-.47,2.03-.85,2.95-1.33.76-.4,1.35-.36,1.86.35.07.75-.33,1.15-.98,1.43-1.63.71-3.23,1.47-4.86,2.18-.82.36-1.58.91-2.53.92-.97-1.02-.88-1.51.38-2.11.32-.15.64-.3.97-.44.29-.13.58-.26.94-.42-.76-.9-1.18-2.04-2.29-2.61-.37-.82-.84-.75-1.46-.22-1.14.97-2.04,2.22-3.38,2.98-1.34-.44-1.51-1.05-.54-1.99.95-.91,1.91-1.8,2.99-2.81-1.32-.81-2.44-1.8-3.85-2.37-.31-.51-.61-.4-.89.02-.26.39-.49.81-.77,1.19-.63.82-.83,2-1.99,2.38-1.08-.37-1.19-1.04-.61-1.94.56-.87,1.09-1.76,1.67-2.62.32-.47.27-.75-.24-1.03-1.05-.56-2.01-1.28-3.16-1.64q-1.35-.79-1.89.58c-.49,1.25-.96,2.49-1.44,3.74-.26.65-.57,1.33-1.44.98-.94-.39-.63-1.11-.35-1.8.56-1.4,1.06-2.81,1.65-4.2.27-.63.14-.94-.51-1.13-1.32-.4-2.52-1.14-3.92-1.29-.48-.15-1.12-1.05-1.42-.02-.41,1.39-.78,2.82-.79,4.3-.32.58-.77.96-1.45.64-.62-.29-.56-.86-.44-1.44.24-1.2.41-2.42.68-3.61.17-.76.04-1.17-.8-1.33-1.63-.32-3.23-.74-4.85-1.11-.35-.08-.7-.14-1.05-.24-.42-.12-.68-.08-.7.46-.03,1.03-.11,2.06-.17,3.09,0,.5-.06.98-.36,1.41-.66.21-1.23.16-1.62-.5.08-1.35.15-2.7.26-4.05.04-.57-.09-.93-.74-.94-1.27-.01-2.52-.4-3.81-.24-.59-.13-.82.1-.67.68.18.69.25,1.37.08,2.07-.14.11-.28.22-.42.33-.41.05-.81.04-1.16-.22-.34-.69-.4-1.44-.45-2.18-.04-.61-.23-.88-.86-.78-.35.06-.7.08-1.06.12-1.53-.07-.4,1.12-.76,1.61-.62.38-1.47.69-1.72-.15-.39-1.3-1.08-1.05-1.96-.77-.64.2-1.32.3-1.96.49-.74.22-1.37.59-1.56,1.43-.37.21-.78.28-1.2.28-1.12-1.2-2.05-.04-3.05.26-1.23.33-2.38.89-3.52,1.43-.62.29-1.12.21-1.43-.36-.34-.63-.13-1.16.55-1.46.72-.33,1.45-.65,2.17-.97,1.01-.37,2-.8,3.03-1.08.91-.24,1.01-.65.65-1.44-.41-.89-.61-1.79.63-2.24,1.02.3,1.07,1.27,1.39,2.04.16.38.21.99.82.36,1.39-.06,2.62-.8,4-.9.55-.04.34-.44.27-.71-.17-.65-.37-1.28-.59-1.91-.32-.92-.2-1.63.86-1.94.59.32.94.79,1.09,1.46.14.66.42,1.28.56,1.94.14.62.47.78,1.03.62.08,0,.16.04.23.03,2.28-.29,2.03.23,1.73-2.14-.14-1.09-.23-2.2-.41-3.29-.15-.89.15-1.37,1.04-1.49.69.24.9.77.96,1.46.13,1.41.3,2.81.52,4.21.07.48.01,1.21.9,1.06,1.42.16,2.84.29,4.26.47.68.09.77-.24.8-.81.13-2.5.32-5,.47-7.51.03-.59.24-1.04.83-1.14.59-.1.99.18,1.12.79-.17,2.37-.35,4.75-.51,7.12-.12,1.87-.11,1.87,1.7,2.21,1.7.41,3.42.76,5.09,1.27.77.23.93,0,1.05-.67.57-3.21,1.16-6.41,1.75-9.62.06-.35.18-.7.21-1.05.05-.55.29-.93.83-1.01.6-.09.99.21,1.14.8-.65,3.67-1.24,7.35-2,11-.26,1.25.1,1.67,1.23,1.75,1.4.54,2.81,1.04,4.18,1.63.68.29.91.11,1.16-.54,1.31-3.45,2.68-6.87,4.01-10.31.2-.52.44-.96,1.06-.96.64,0,.88.44,1.02.97-1.35,3.44-2.7,6.88-4.05,10.32q-.63,1.62,1,2.24c1.09.63,2.21,1.23,3.27,1.91.56.36.79.18,1.1-.32,1.41-2.3,2.86-4.57,4.31-6.84.73-1.14,1.36-1.13,2.09,0,0,.47-.28.82-.52,1.19-1.38,2.19-2.75,4.39-4.16,6.57-.39.61-.52,1.09.32,1.37,1.11.75,2.25,1.48,3.33,2.27.48.35.78.33,1.21-.08,1.28-1.24,2.6-2.44,3.91-3.65.42-.39.87-.74,1.46-.3.55.41.56.91.21,1.45-1.29,1.19-2.55,2.41-3.88,3.55-.75.64-.59.98.23,1.27Z"/>
      <path class="cls-2" d="M69.37,114.04c.66-.15,1.2.01,1.56.63.05.51-.22.91-.44,1.33-3.43,6.67-6.84,13.35-10.28,20.02-.32.62-.39,1.05.12,1.67.9,1.11.71,2.61-.4,3.65-.48.45-.57.87-.45,1.47,1.75,8.92,3.45,17.86,5.26,26.77.33,1.62,1.49,2.97,2.24,4.45.34.67.75,1.32,1.06,2,.27.61.17,1.21-.5,1.5-.69.29-1.09-.09-1.39-.72-.55-1.14-1.17-2.25-1.75-3.38-.2-.4-.41-.75-.83-.23-.89,1.09-1.99.84-3.05.43-1.31-.51-2.08-1.57-2.43-2.9-.14-.51.07-1.04.57-1.34.55-.33.98-.06,1.37.33.13,1.04.44,1.95,1.66,2.16.22.04.39,0,.48-.22.08-.21-.05-.29-.2-.35-.79-.37-1.18-1.16-1.76-1.74-.05-.51-.28-.99-.24-1.53.04-.56-.01-1.16.57-1.47.59-.32,1.06.02,1.59.52-.18-2-.65-3.8-1.01-5.62-1.18-6.04-2.39-12.08-3.54-18.13-.11-.58-.27-.77-.87-.84-.85-.1-1.4-.68-1.66-1.52-.52-1.68.48-3.8,2.14-4.31.61-.19.79-.6,1.02-1.05,3.45-6.71,6.89-13.42,10.34-20.13.25-.49.55-.96.83-1.44Z"/>
      <path class="cls-2" d="M47.51,104.8c.63.02,1.26.06,1.89.04,1-.03,1.51.36,1.34,1.41-.38.49-.89.56-1.48.56-15.93,0-31.85.03-47.78.04-.69,0-1.47.05-1.48-.94,0-1.02.77-1.02,1.53-1.02,15.05-.02,30.09-.05,45.14-.07.28,0,.56-.02.84-.03Z"/>
      <path class="cls-2" d="M198.17,106.45c-3.95,0-7.91,0-11.86,0-.36,0-.72.03-1.08-.01-.59-.06-.96-.37-.94-1.01.02-.63.41-.92.99-.98.28-.03.56,0,.84,0,8.15-.05,16.3-.09,24.44-.14.16,0,.32,0,.48,0,.69.01,1.22.32,1.19,1.04-.03.7-.53,1-1.24,1-1.96-.01-3.91,0-5.87,0-2.32,0-4.63,0-6.95,0,0,.04,0,.08,0,.12Z"/>
      <path class="cls-5" d="M129.68,112.34c1.28-.16,2.53.23,3.81.24.65,0,.78.37.74.94-.1,1.35-.17,2.7-.26,4.05-1.77-.72-3.53-1.44-5.3-2.16.14-.11.28-.22.42-.33.69.17.84-.27.82-.79-.03-.66-.15-1.31-.23-1.96Z"/>
      <path class="cls-5" d="M125.14,112.36c.35-.04.71-.06,1.06-.12.62-.1.82.17.86.78.05.74.11,1.49.45,2.18-1.92-.24-3.83-.48-5.75-.71-.7-.25-1.33.21-2.01.21-.88-.17-1.73.03-2.57.28.19-.84.82-1.21,1.56-1.43.65-.19,1.32-.28,1.96-.49.88-.28,1.57-.53,1.96.77.25.84,1.1.52,1.72.15,1.04.17,1.2-.18.76-1.61Z"/>
      <path class="cls-2" d="M167.06,106.56c-.81-.18-1.79-.17-1.59-1.46.29-.5.72-.69,1.3-.67.68.03,1.37.11,2.03-.01,1.37-.25,1.54.81,1.89,1.64.23.54-.25.44-.53.45-1.04.03-2.07.04-3.11.05Z"/>
      <path class="cls-7" d="M102.3,93.17c.23-.22.41-.47.5-.8,2.77-10.67,7.48-20.44,13.52-29.62,4.75-7.23,10.07-14.01,16.31-20.01,3.02-2.91,6.57-5.01,10.95-5.3,3.24-.21,6.05.75,8.17,3.16,3.07,3.49,3.8,7.5,2.54,12.04-1.19,4.25-4.05,7.41-6.48,10.84-8.01,11.27-17.75,20.92-28.19,29.91-.47-.33-.05-.54.12-.75,3.2-4.11,6.44-8.19,9.6-12.34,7.6-9.96,14.69-20.32,22.66-30,.92-1.12.89-2.23.03-2.97-.88-.76-1.97-.58-2.89.58-3.09,3.9-6.29,7.71-9.19,11.75-6.7,9.35-13.82,18.38-20.63,27.65-1.34,1.83-2.81,3.56-3.85,5.61-.78,1.55-.22,2.82,1.58,2.63-.38.4-.82.78-.74,1.43-.59,0-1.21.14-1.77-.11-2.26-1-4.65-1.58-7.02-2.24,1.53-.42,2.12-1.81,2.93-2.94,6.19-8.64,12.36-17.29,18.52-25.96,5-7.05,10.39-13.79,16.1-20.28,1.05-1.19,2.02-2.46,2.96-3.75.58-.8.31-1.64-.35-2.26-.7-.67-1.54-.63-2.28-.03-.46.37-.88.82-1.27,1.27-2.06,2.43-4.07,4.89-6.15,7.3-5.65,6.55-10.63,13.61-15.63,20.65-3.57,5.04-7.07,10.12-10.56,15.21-1.62,2.36-3.39,4.64-4.63,7.25-.57,1.21-.91,2.4.21,3.51-.35.02-.71.08-1.06.05-1.48-.11-3-.18-4.03-1.5Z"/>
      <path class="cls-7" d="M97.02,41.88c1.41,8.49,1.7,17.06,1.67,25.63-.02,6.17-.6,12.33-1.86,18.4-.08.39-.19.77-.31,1.15-.03.1-.15.17-.26.3-1.93-2.82-3.63-5.75-5.13-8.77-4.59-9.22-10.03-17.92-15.86-26.39-1.11-1.61-2.15-3.26-3.15-4.94-3.52-5.88-8.55-10.27-14-14.25.81-.13,1.46-.52,1.69-1.32.3-1.04.9-1.84,1.67-2.57,2.45-2.34,3.85-5.13,3.69-8.59-.08-1.75-.85-3.31-1.36-4.93-.45-1.42-.49-2.82.07-4.21.8-1.96,2.47-2.26,4.12-.94,1.69,1.36,3.02,3.06,4.5,4.6,1.59,1.66,3.4,2.29,5.62,2.39,2.03.09,4.12.43,5.72,1.79,1.88,1.59,3.77,3.27,4.9,5.51,2.63,5.22,4.97,10.57,6.95,16.08.25.69.57,1.12,1.35,1.05ZM67.09,33.85c-.05.66.03,1.49.26,2.3,1.16,4,3.04,7.42,7.45,8.56,4.87,1.26,10.79-1.63,13.16-6.32,1.08-2.13,1.56-4.38,1.05-6.72-1.88-8.62-9.27-10.23-15.31-8.13-3.94,1.37-6.59,5.76-6.6,10.29Z"/>
      <path class="cls-7" d="M95.91,90.71c.6.33.74.99,1.09,1.5-1.85,1.99-4.4,3.03-6.48,4.7-.66.53-1.44.81-2.28.91-.13-.42-.46-.62-.82-.81-2.18-1.17-4.24-2.55-6.16-4.11-2.72-2.2-5.98-3.51-8.86-5.44-9.22-6.16-17.17-13.64-23.7-22.61-2-4.59-3.92-9.17-2.02-14.33,1.86-5.03,7.75-9.42,13.1-9.29,3.35.08,6.4,1.2,8.52,4.09,1.39,1.9,2.75,3.82,3.96,5.84,3.65,6.04,8.07,11.59,11.48,17.78,1.82,3.31,3.57,6.65,5.2,10.06-.55.05-.72-.4-1-.72-2.6-2.96-4.97-6.12-7.44-9.18-3.1-3.84-6.24-7.64-9.33-11.49-3.35-4.18-5.72-9.1-9.69-12.8-.62-.58-1.28-1.12-2.08-.53-.77.56-.52,1.36-.1,2.04,1.5,2.44,3.02,4.88,4.54,7.31,4.93,7.85,11.27,14.62,16.95,21.89,3.77,4.83,7.85,9.41,11.25,14.54,1.16,1.76,2.07,1.88,3.87.67ZM48.16,55.79c.08.82.87,1.65,1.61,2.36,6.17,5.97,11.74,12.51,17.86,18.52,4.43,4.35,9.3,8.25,13.6,12.76,2.17,2.28,4.35,4.56,6.56,6.81,1.14,1.15,2.76.74,3.18-.77.25-.89-.27-1.54-.81-2.13-3.6-3.85-7.27-7.62-11.05-11.3-1.25-1.22-2.6-2.35-3.89-3.53-2.53-2.31-5.27-4.41-7.53-7-4.81-5.5-9.94-10.69-15.15-15.81-.81-.8-1.74-1.42-2.88-1.59-1.01-.15-1.51.32-1.49,1.68Z"/>
      <path class="cls-7" d="M147.38,29.12c-1.31.74-2.62,1.48-4.09,2.31.21-1.6.4-3.06.06-4.55-1.07-4.78-4.75-7.07-9.48-5.82-6.16,1.62-10.72,6.87-11.34,13.19-.42,4.31,2.49,8.26,6.6,8.39.15,0,.29.08.56.15-10.72,11.46-19.57,24.04-25.57,38.61-.18-1.31-.42-2.61-.54-3.93-.78-9.21-.82-18.4,1.08-27.5.11-.54.22-1.08.33-1.62,1.41.36,1.74.18,2.21-1.18.14-.41.26-.83.38-1.26.9-3.18,2.02-6.28,3.16-9.38,1.37-3.73,3.62-6.98,5.8-10.27,3.09-4.67,7.5-7.65,12.45-9.9,2.14-.97,4-2.11,5.27-4.1,1.66-2.61,3.69-4.87,6.17-6.73.29-.22.58-.48.96-.27.34.19.24.56.25.87.03,1.97-.55,3.85-.81,5.77-.49,3.66-.43,5.14,2.63,7.12.46.3.82.65.98,1.16.45,1.48,1.04,2.92,1.3,4.47.26,1.58.19,3.3,1.62,4.46Z"/>
      <path class="cls-4" d="M88.24,97.82c.84-.1,1.62-.37,2.28-.91,2.08-1.67,4.63-2.71,6.48-4.7.53.27,1.05.4,1.5-.15.42-.51.26-1.04-.1-1.41-.96-.98-.27-1.99-.01-2.87.88-3.08,1.21-6.23,1.58-9.39.05-.43.11-.89.3-1.26.2-.38.69-.64,1.09-.56.35.06.15.55.2.85.46,2.44.34,4.98,1.32,7.32.17.41-.1.76-.24,1.12-.74,1.85-1.32,3.75-1.72,5.7-.27,1.3.05,1.65,1.39,1.62,1.03,1.33,2.54,1.39,4.03,1.5.35.03.71-.03,1.06-.05,0,0,.07.04.07.04h.08c2.37.65,4.76,1.23,7.02,2.23.57.25,1.18.1,1.77.11.48.86,1.08.96,1.84.33,3.19-2.65,6.27-5.43,9.28-8.28.62-.59.84-.61,1.16.23.92,2.36.95,2.35-1.15,3.76-1.26.84-2.52,1.69-3.79,2.5-.66.42-1.06.96-.56,1.67.47.67,1.08.42,1.67.03,1.63-1.07,3.2-2.23,4.98-3.16.37,1.54.46,3.06.2,4.59-.09.51.21.82.4,1.2-1.39.78-2.97,1.03-4.44,1.63-2.84,1.15-5.54,2.58-8.31,3.87-1.47-1.6-2.6-3.58-4.54-4.67-5.08-2.86-10.53-3.49-16.23-2.41-4.67.89-8.47,3.3-11.78,6.59-.67-.94-1.43-1.79-2.25-2.61-.47-.47-.73-.57-1.12.11-1.03,1.79-2.08,3.57-2.96,5.44-.77-.24-.62-.71-.4-1.3.66-1.76,1.65-3.4,2.02-5.27.52-.02,1.14.02.45-.73-2.67-2.89-5.72-5.35-8.83-7.75-.71-.55-1.93-.46-2.03-1.72.51-.1.9-.36,1.01-.89.21-.99.62-.74,1.33-.4,4.72,2.22,8.66,5.67,13.07,8.37.41.25.82.51,1.26.69.96.38,1.42.07,1.62-1Z"/>
      <path class="cls-1" d="M147.38,29.12c-1.43-1.16-1.36-2.88-1.62-4.46-.26-1.55-.84-2.99-1.3-4.47-.16-.51-.52-.87-.98-1.16-3.06-1.99-3.12-3.46-2.63-7.12.26-1.92.83-3.81.81-5.77,0-.3.1-.67-.25-.87-.39-.21-.67.05-.96.27-2.48,1.86-4.51,4.12-6.17,6.73-1.27,1.99-3.14,3.13-5.27,4.1-4.95,2.25-9.36,5.24-12.45,9.9-2.18,3.29-4.43,6.54-5.8,10.27-1.14,3.1-2.26,6.2-3.16,9.38-.12.42-.24.84-.38,1.26-.47,1.36-.8,1.53-2.21,1.18.22-2.72,1.23-5.25,1.92-7.85,2.05-7.7,5.65-14.53,11.45-20.09,2.23-2.14,4.62-4.02,7.58-5.1,2.36-.86,4.18-2.4,5.5-4.58.84-1.4,1.73-2.78,2.72-4.07,2.04-2.68,4.72-4.36,8.12-4.74,1.21-.13,2.19.75,2.47,2.12.44,2.12.27,4.2-.43,6.24-.47,1.35-.96,2.7-1.08,4.15-.12,1.44.2,2.92,1.45,3.58,3.1,1.64,3.6,4.55,4.13,7.51.06.31.03.64.07.95q.22,1.89-1.51,2.66Z"/>
      <path class="cls-1" d="M117.07,95.58c-1.8.19-2.36-1.09-1.58-2.63,1.03-2.05,2.51-3.78,3.85-5.61,6.8-9.27,13.92-18.31,20.63-27.65,2.89-4.04,6.1-7.85,9.19-11.75.92-1.16,2.01-1.34,2.89-.58.86.74.89,1.85-.03,2.97-7.97,9.68-15.06,20.04-22.66,30-3.16,4.14-6.4,8.23-9.6,12.34-.17.22-.59.42-.12.75-.79.79-1.53,1.64-2.55,2.17Z"/>
      <path class="cls-5" d="M141.64,28.74c-.04.77-.16,1.47-.41,2.15-.11.3-.32.74-.19.9.81,1.1-.19,1.38-.78,1.81-2.53,1.83-4.96,3.76-7.21,5.92-.38.36-.63.94-1.26.98-1.84.12-3.71.52-5.31-.91-2.07-1.86-2.26-4.2-1.77-6.7.99-5,5.83-9.52,10.84-10.2,2.66-.36,4.71,1,5.64,3.74.26.76.4,1.54.45,2.29Z"/>
      <path class="cls-1" d="M97.02,41.88c-.77.06-1.1-.36-1.35-1.05-1.98-5.51-4.32-10.86-6.95-16.08-1.13-2.24-3.01-3.92-4.9-5.51-1.6-1.36-3.69-1.7-5.72-1.79-2.23-.09-4.03-.73-5.62-2.39-1.48-1.54-2.81-3.24-4.5-4.6-1.64-1.33-3.32-1.02-4.12.94-.56,1.38-.52,2.79-.07,4.21.52,1.63,1.28,3.18,1.36,4.93.16,3.46-1.24,6.25-3.69,8.59-.76.73-1.37,1.53-1.67,2.57-.23.81-.88,1.2-1.69,1.32-2.06-.89-2.03-.87-.92-2.84.58-1.03,1.28-1.9,2.26-2.58,2.73-1.89,3.49-3.97,2.74-7.22-.48-2.1-1.34-4.09-1.65-6.23-.14-.95-.25-1.89-.38-2.84-.38-2.7,2.14-4.84,5-5.17,2.96-.34,4.9,1.23,6.53,3.4.14.19.28.4.35.63,1.05,3.56,3.94,4.55,7.09,4.49,3.07-.06,5.25,1.42,7.4,3.14,2.08,1.66,3.68,3.74,4.84,6.17,2.72,5.72,4.7,11.66,5.66,17.93Z"/>
      <path class="cls-1" d="M95.91,90.71c-1.8,1.22-2.7,1.09-3.87-.67-3.39-5.13-7.47-9.71-11.25-14.54-5.68-7.27-12.02-14.04-16.95-21.89-1.52-2.43-3.04-4.86-4.54-7.31-.42-.68-.67-1.48.1-2.04.81-.59,1.46-.05,2.08.53,3.97,3.71,6.34,8.63,9.69,12.8,3.09,3.85,6.23,7.66,9.33,11.49,2.48,3.06,4.84,6.22,7.44,9.18.28.32.46.77,1,.72,0,0-.03,0-.03,0,.09.1.18.19.27.29,0,0-.03.07-.03.07.09.16.19.32.28.48,1.44,2.45,2.9,4.89,4.32,7.35.69,1.2,1.67,2.21,2.15,3.53Z"/>
      <path class="cls-5" d="M62.67,39.6c-7.96-2.05-18.69,5.07-18.85,15.8-.93-1.7-1.39-3.36-1.76-5.04-.81-3.69-1.13-7.42-.42-11.15.77-4.07,4.15-6.66,8.31-6.54,2.49.08,4.79.73,6.92,2,2.2,1.31,4.19,2.89,5.97,4.75-.06.06-.11.13-.17.19Z"/>
      <path class="cls-5" d="M140.76,35.83c4.21-3.32,8.69-6.1,13.92-7.39,2.81-.69,6.41,2.19,6.63,5.14.22,2.94-.1,5.79-1.33,8.53-.92,2.05-1.77,4.14-2.99,6.31-.47-4.25-1.91-7.8-5.15-10.39-3.28-2.62-7.03-3.13-11.08-2.2Z"/>
      <path class="cls-4" d="M101.31,74.98c-.44-.12-.82-.16-.98-.54-.16-.39.34-3.77.68-4.35.25,1.67.44,3.22.3,4.89Z"/>
      <path class="cls-7" d="M89.44,79.83c-.09-.16-.19-.32-.28-.48.2.1.26.28.28.48Z"/>
      <path class="cls-7" d="M89.19,79.28c-.09-.1-.18-.19-.27-.29.2,0,.23.15.27.29Z"/>
      <path class="cls-5" d="M62.84,39.41c.09.05.24.08.14.21-.04.04-.2-.01-.31-.03.06-.06.11-.13.17-.19Z"/>
      <path class="cls-4" d="M117.17,114.97c.84-.25,1.68-.44,2.57-.28.43,7-.81,13.51-5.39,19.27-.34-.77-.56-1.34-.84-1.89-.95-1.89-2.5-2.56-4.55-2.27-1.74.25-2.88,1.19-3.57,2.8-.86,2-1,4.09-.89,6.22.05.88-.23,1.24-1.12,1.43-1.98.41-3.96.37-5.96.32-.74-.02-1.13-.33-1.07-1.19.14-1.93-.28-3.81-.84-5.64-.56-1.79-1.3-3.61-3.44-3.85-2.33-.26-4.19.84-5.5,2.75-.58.85-1.12,1.75-1.32,2.96-1.92-1.67-3.23-3.62-4.06-5.88-1.42-3.85-1.75-7.81-.89-11.84,1.1-.01,2.05.63,3.13.69.42.35.89.52,1.44.47,1.04.19,2.06.05,3.07-.23.24.19.49.37.71.59.48.47,1.03.63,1.56.17.61-.53.44-1.09-.1-1.6-.11-.1-.16-.26-.24-.39.13-.37.32-.72.39-1.1.16-.85.03-1.96-.57-2.27-.65-.35-.8.81-1.19,1.29-.12.15-.24.3-.37.45-.69-.37-.86-.8-.35-1.5.45-.63.76-1.39,1.2-2.01.72-1,.18-1.3-.59-1.63-.28-1.27-.94-2.33-1.76-3.36-1.02,1.5-2.03,2.96-3.03,4.43-.89-.44-1.04-1-.47-1.87.55-.85.96-1.79,1.43-2.69.46-.14.61-.8,1.21-.72.57.04.84-.41,1.17-.73,5.19-4.89,11.25-6.86,18.37-5.75,4.4.68,8.01,2.44,10.45,6.28-1.21,1.25-2.63,2.28-3.65,3.72-.53.75-.97,1.54-1.44,2.32-.37.62.11,1.16.02,1.73-.72.32-1.45.65-2.17.97-.67.3-.89.83-.55,1.46.31.57.81.65,1.43.36,1.15-.54,2.29-1.1,3.52-1.43,1.07.62,2.07.34,3.05-.26.42,0,.83-.07,1.2-.28Z"/>
      <path class="cls-2" d="M115.75,106.38c-2.43-3.84-6.05-5.6-10.45-6.28-7.12-1.1-13.17.87-18.37,5.75-.34.32-.61.77-1.17.73-.1-.62-.93-.93-.69-1.69,3.31-3.29,7.11-5.7,11.78-6.59,5.69-1.09,11.14-.46,16.23,2.41,1.94,1.09,3.07,3.07,4.54,4.67-.26,1-1.13.88-1.87,1.01Z"/>
      <path class="cls-3" d="M155.76,117.15q-1.64-.62-1-2.24c1.35-3.44,2.7-6.88,4.05-10.32.67,0,.85.37.86,1,.02,1.1-.28,2.11-.62,3.13-.95,2.87-2.16,5.63-3.29,8.43Z"/>
      <path class="cls-3" d="M138.07,111.33c-1.8-.34-1.82-.34-1.7-2.21.16-2.37.34-4.75.51-7.12.4-.4.18-.91.21-1.37.03-.53.12-.98.76-1.01.7-.04.88.45.91,1.01.12,2.27-.09,4.53-.33,6.79-.13,1.3-.24,2.61-.36,3.92Z"/>
      <path class="cls-3" d="M147.37,113.8c-1.13-.08-1.49-.5-1.23-1.75.76-3.64,1.35-7.33,2-11,.81.1.96.62.98,1.35.07,3.29-.85,6.44-1.36,9.65-.09.59-.26,1.16-.39,1.74Z"/>
      <path class="cls-3" d="M144.72,120.22c.01-1.48.39-2.91.79-4.3.3-1.03.94-.13,1.42.02,0,1.56-.28,3.08-.46,4.62-.07.53-.04,1.08-.76,1.13-.78.05-.88-.52-.95-1.1-.01-.12-.03-.24-.04-.36Z"/>
      <path class="cls-3" d="M162.18,121.02c-.84-.28-.72-.76-.32-1.37,1.4-2.18,2.77-4.38,4.16-6.57.23-.37.53-.71.52-1.19.44-.08.9-.15,1.15.34.26.53-.1.88-.42,1.25-1.99,2.31-3.8,4.74-5.07,7.54Z"/>
      <path class="cls-3" d="M151.51,123.38c.48-1.25.96-2.5,1.44-3.74q.53-1.37,1.89-.58c-.48,1.53-1.33,2.94-1.53,4.57-.05.41-.31.69-.8.72-.72.04-.73-.58-1-.97Z"/>
      <path class="cls-3" d="M129.41,110.19c-.89.15-.82-.58-.9-1.06-.22-1.4-.39-2.8-.52-4.21-.06-.69-.27-1.22-.96-1.46,0-.28,0-.55-.01-.83-.02-.5,0-1,.64-1.08.62-.08.84.39.96.86.38,1.46.36,2.98.53,4.47.13,1.1.17,2.21.25,3.31Z"/>
      <path class="cls-3" d="M135.94,116.67c.06-1.03.14-2.06.17-3.09.02-.54.28-.58.7-.46.34.1.7.16,1.05.24-.02,1.19-.04,2.38-.05,3.56,0,.63-.04,1.3-.82,1.34-.71.04-.85-.57-.88-1.17,0-.14-.12-.28-.18-.42Z"/>
      <path class="cls-3" d="M167.07,132.69c.95,0,1.71-.56,2.53-.92,1.63-.71,3.23-1.47,4.86-2.18.65-.28,1.05-.68.98-1.43.49-.04.89.09.96.64.07.52-.29.77-.68,1.01-1.77,1.09-3.81,1.57-5.63,2.54-.59.31-1.19.64-1.8.92-.6.27-1.1.21-1.22-.58Z"/>
      <path class="cls-3" d="M162.24,129.87c1.33-.76,2.23-2.01,3.38-2.98.62-.53,1.09-.59,1.46.22-.79,1.2-1.85,2.16-2.94,3.04-.58.47-1.43.89-1.9-.29Z"/>
      <path class="cls-3" d="M168.66,125.53c-.82-.29-.98-.63-.23-1.27,1.33-1.14,2.59-2.37,3.88-3.55.48.77.39,1.37-.4,1.91-1.21.83-2.01,2.11-3.24,2.91Z"/>
      <path class="cls-3" d="M124.43,110.35c-.56.16-.9,0-1.03-.62-.15-.66-.42-1.28-.56-1.94-.14-.67-.5-1.14-1.09-1.46-.03-.44-.09-.9.55-.97.52-.06.81.23.98.67.54,1.4,1,2.81,1.16,4.31Z"/>
      <path class="cls-2" d="M170.95,134.35c-.21-.96.52-1.35,1.12-1.78.34-.24.76-.15,1.09.16.48.45.34.92.09,1.41-.73.53-1.41,1.52-2.31.22Z"/>
      <path class="cls-3" d="M157.19,126.29c1.15-.38,1.36-1.56,1.99-2.38.29-.37.51-.79.77-1.19.28-.42.58-.53.89-.02-.5,1.49-1.52,2.67-2.45,3.88-.43.56-.97.52-1.2-.29Z"/>
      <path class="cls-3" d="M170.95,134.35c.9,1.3,1.58.31,2.31-.22.51.53.23.98-.24,1.26-.62.38-1.27,1-2.05.54-.73-.43-.1-1.05-.02-1.59Z"/>
      <path class="cls-3" d="M117.21,111.8c-.6.63-.66.01-.82-.36-.32-.78-.37-1.74-1.39-2.04.4-.8.94-.87,1.35-.11.42.78.76,1.62.86,2.52Z"/>
      <path class="cls-2" d="M37.82,95.38c-.74-.23-.98-.69-.8-1.45.51-2.11.69-4.27,1.27-6.37.24-.85.58-1.26,1.45-1.16.71.41.71,1.14.44,1.68-.93,1.82-1.03,3.77-1.14,5.73-.04.79-.21,1.52-1.23,1.57Z"/>
      <path class="cls-3" d="M37.82,95.38c1.02-.05,1.19-.78,1.23-1.57.11-1.96.21-3.91,1.14-5.73.27-.54.27-1.26-.44-1.68.09-.39.19-.77.27-1.16.1-.52.35-.96.92-.88.62.09.83.61.71,1.18-.23,1.09-.51,2.17-.78,3.24-.07.27-.21.53.08.76-.16.57-.32,1.14-.48,1.71-.61,1.3-.65,2.74-.92,4.12-.11.57.03,1.3-.8,1.36-.94.06-.84-.75-.93-1.35Z"/>
      <path class="cls-3" d="M60.79,97.53c-1.06-.18-1.35-.67-.9-1.73.76-1.78,1.39-3.61,2.07-5.42.18-.48.43-.94.28-1.48,1.46.09,1.71.51,1.01,1.73-.77,1.35-1.06,2.88-1.59,4.32-.31.85-.58,1.71-.87,2.57Z"/>
      <path class="cls-3" d="M55.83,106.45c.8-2.06,1.6-4.11,2.39-6.17.55-1.45.54-1.46,1.97-.74-1.12,1.53-1.37,3.43-2.15,5.11-.3.65-.52,1.34-.9,1.94-.44.68-.96.81-1.3-.14Z"/>
      <path class="cls-3" d="M47.2,91.24c-.97-.13-1.34-.53-1.01-1.6.38-1.23.52-2.54.76-3.81.09-.42.16-.85.29-1.26.18-.55.55-.92,1.16-.71.58.2.57.74.41,1.2-.62,1.83-1.14,3.69-1.53,5.59-.04.19-.05.39-.08.59Z"/>
      <path class="cls-3" d="M43.81,98.97c.8-.75.65-1.83.94-2.75.23-.71.41-1.45.48-2.2.11-1.18.57-1.37,1.49-.69-.4,1.81-.8,3.62-1.2,5.42-.05.23-.1.46-.15.69-.12.52-.27,1.09-.91,1.06-.73-.03-.62-.68-.64-1.18,0-.12,0-.24,0-.36Z"/>
      <path class="cls-3" d="M67.81,112.56c.98-2.06,1.99-4.11,2.92-6.19.39-.87.77-1.01,1.4-.28-.69,2.13-1.67,4.13-2.73,6.08-.28.52-.77,1.44-1.59.4Z"/>
      <path class="cls-3" d="M34.72,88.57c.15-.53.28-1.07.46-1.59.15-.43.49-.62.94-.51.49.12.61.51.52.93-.33,1.67-.68,3.33-1.06,4.99-.1.44-.37.83-.91.76-.64-.08-.7-.57-.66-1.07.05-.51.15-1.01.22-1.52,1.28-.39.73-1.22.48-1.97Z"/>
      <path class="cls-3" d="M50.56,103.12c.93-1.48.89-3.25,1.41-4.86.15-.45.22-.92.31-1.39.14-.78.47-1.04,1.15-.47-.54,2.08-.85,4.2-1.2,6.31-.02.12,0,.24-.02.36-.07.59-.08,1.32-.89,1.31-.77,0-.71-.71-.76-1.26Z"/>
      <path class="cls-3" d="M66.58,100.38c-.81-.14-.77-.58-.49-1.21,1.05-2.34,2.06-4.7,3.08-7.05,1.07.08,1.36.66.8,1.5-1.41,2.11-2.35,4.46-3.39,6.75Z"/>
      <path class="cls-3" d="M53.9,94.36c-.84-.13-.91-.61-.72-1.35.53-2.1.99-4.23,1.48-6.34,1.25.14,1.47.43,1,1.58-.8,1.98-1.63,3.94-1.75,6.11Z"/>
      <path class="cls-3" d="M73.08,104.19c-.93-.31-1.04-.8-.59-1.69.96-1.9,1.8-3.86,2.69-5.79.97.75.75,1.52.17,2.44-.99,1.56-1.87,3.2-2.26,5.04Z"/>
      <path class="cls-3" d="M61.53,109.37c1.21-2.16,2.03-4.49,3.05-6.74.3-.66.59-.8,1.12-.3-.92,2.2-1.84,4.39-2.76,6.59-.29.7-.84.61-1.41.45Z"/>
      <path class="cls-3" d="M74.74,114.93c.86-1.53,1.36-3.22,2.12-4.8.13-.26.1-1.11.79-.41-.32,1.72-1.22,3.22-1.78,4.85-.17.5-.68.44-1.13.36Z"/>
      <path class="cls-2" d="M34.72,88.57c.25.76.8,1.59-.48,1.97-.61-.22-1.19-.5-1-1.31.2-.81.82-.8,1.47-.67Z"/>
      <path class="cls-6" d="M94.38,140.02c-.4-.11-.74-.23-1.09-.29-.81-.14-1.04-.36-.66-1.29.79-1.98-.54-3.66-2.45-3.31-1.11.2-1.48.79-1.61,2.55-1.61-.42-1.82-.81-1.19-2.33.59-1.43,1.34-2.72,2.92-3.27,1.55-.54,2.26-.24,2.95,1.27.74,1.63,1.23,4.41,1.13,6.69Z"/>
      <path class="cls-5" d="M85.08,104.88c-.24.76.59,1.07.69,1.69-.59-.08-.74.58-1.21.72-.23-.47-.23-1.15-.98-1.16-.68,0-.92.52-1.16,1.02-.05.11-.12.2-.18.31q-1.4,2.63-3.5.37c.88-1.87,1.94-3.65,2.96-5.44.39-.69.65-.59,1.12-.11.82.81,1.58,1.67,2.25,2.61Z"/>
      <path class="cls-6" d="M112.04,136.07c-.69-1.76-1.3-2.22-2.34-1.91-1.05.31-1.94,2.18-1.75,3.32.08.44,1.03.99.02,1.44-.43.19-.9.63-1.31.43-.47-.23-.18-.85-.2-1.29-.07-1.56.12-3.09.68-4.56.43-1.11,1.21-1.66,2.42-1.79,1.31-.14,1.94.62,2.33,1.6.32.82,1,1.7.14,2.75Z"/>
      <path class="cls-5" d="M83.6,111.85c1-1.47,2-2.93,3.03-4.43.82,1.03,1.48,2.1,1.76,3.36-1.18.2-1.43,1.31-1.91,2.11-.54.9-.95.97-1.61.19-.38-.45-.96-.7-1.27-1.23Z"/>
      <path class="cls-5" d="M83.42,118.56c-1.08-.06-2.03-.7-3.13-.69-.11-.91-1.07-.66-1.52-1.16.33-.11.68-.23,1.03-.35.61.64,1.06.3,1.41-.27.51-.84.99-1.7,1.48-2.55.9.32,1.11,1.3,1.78,1.85.39.32-.08.63-.23.91-.39.71-1.07,1.31-.81,2.26Z"/>
      <path class="cls-3" d="M82.68,113.54c-.49.85-.96,1.72-1.48,2.55-.35.57-.8.91-1.41.27.48-.9.99-1.79,1.42-2.71.46-.99.91-.9,1.46-.11Z"/>
      <path class="cls-5" d="M88.14,115.94c.12-.15.25-.3.37-.45.39-.48.54-1.64,1.19-1.29.6.32.73,1.42.57,2.27-.07.38-.26.73-.39,1.1-.75-.36-1.25-.98-1.73-1.63Z"/>
      <path class="cls-5" d="M87.94,118.8c-1.01.28-2.03.42-3.07.23.19-.34.32-.72.69-.93.66.87,1.06.34,1.45-.26.43.2.73.53.94.96Z"/>
      <path class="cls-3" d="M87,117.84c-.39.6-.79,1.13-1.45.26.6-1.26.61-1.26,1.45-.26Z"/>
      <path class="cls-5" d="M115.97,115.25c-.97.6-1.97.87-3.05.26,1-.3,1.92-1.45,3.05-.26Z"/>
      <path class="cls-3" d="M129.68,112.34c.08.65.2,1.31.23,1.96.02.51-.13.96-.82.79.18-.7.1-1.39-.08-2.07-.15-.58.08-.81.67-.68Z"/>
      <path class="cls-3" d="M125.14,112.36c.44,1.43.27,1.78-.76,1.61.36-.49-.77-1.68.76-1.61Z"/>
      <path class="cls-6" d="M60.2,169.56c.59.58.97,1.36,1.76,1.74.15.07.28.15.2.35-.09.23-.26.26-.48.22-1.22-.21-1.52-1.12-1.66-2.16.06-.05.12-.1.18-.16Z"/>
      <path class="cls-1" d="M107.54,94.65h-.08s-.07-.03-.07-.03c-1.12-1.1-.79-2.3-.21-3.51,1.24-2.61,3-4.88,4.63-7.25,3.49-5.09,6.99-10.18,10.56-15.21,4.99-7.05,9.98-14.1,15.63-20.65,2.08-2.41,4.09-4.88,6.15-7.3.39-.46.8-.9,1.27-1.27.75-.6,1.58-.64,2.28.03.66.62.93,1.46.35,2.26-.93,1.29-1.91,2.55-2.96,3.75-5.71,6.49-11.1,13.23-16.1,20.28-6.15,8.67-12.33,17.32-18.52,25.96-.81,1.13-1.4,2.52-2.93,2.94Z"/>
      <path class="cls-2" d="M67.09,33.85c.01-4.53,2.66-8.92,6.6-10.29,6.04-2.1,13.43-.49,15.31,8.13.51,2.34.03,4.59-1.05,6.72-2.37,4.69-8.29,7.58-13.16,6.32-4.41-1.14-6.29-4.56-7.45-8.56-.23-.81-.31-1.64-.26-2.3ZM68.98,33.97c.23,2.61,1.23,5.14,3.27,7.22.83.84,1.86,1.4,3.01,1.63,4.26.84,7.56-.85,10.18-4.09,2.18-2.69,2.38-6.87.55-9.77-.98-1.55-2.22-2.95-3.93-3.55-1.54-.54-3.22-1.33-4.94-.34-.15.09-.4.05-.59,0-.92-.25-1.75,0-2.52.45-3.13,1.81-4.87,4.5-5.03,8.44Z"/>
      <path class="cls-1" d="M48.16,55.79c-.03-1.36.47-1.83,1.49-1.68,1.15.17,2.07.79,2.88,1.59,5.21,5.12,10.34,10.31,15.15,15.81,2.26,2.59,5,4.69,7.53,7,1.29,1.18,2.64,2.31,3.89,3.53,3.77,3.68,7.45,7.45,11.05,11.3.55.59,1.06,1.24.81,2.13-.42,1.5-2.04,1.92-3.18.77-2.22-2.24-4.39-4.52-6.56-6.81-4.29-4.51-9.17-8.41-13.6-12.76-6.11-6.01-11.69-12.55-17.86-18.52-.74-.72-1.52-1.54-1.61-2.36Z"/>
      <path class="cls-5" d="M68.98,33.97c.16-3.94,1.9-6.62,5.03-8.44.76-.44,1.6-.7,2.52-.45.18.05.44.08.59,0,1.72-.99,3.39-.2,4.94.34,1.71.6,2.96,2,3.93,3.55,1.83,2.9,1.63,7.08-.55,9.77-2.62,3.23-5.91,4.93-10.18,4.09-1.15-.23-2.18-.78-3.01-1.63-2.04-2.08-3.04-4.62-3.27-7.22Z"/>
    </g>
  </g>
</svg>