<?xml version="1.0" encoding="UTF-8"?>
<svg id="Calque_2" data-name="Calque 2" xmlns="http://www.w3.org/2000/svg" viewBox="0 0 203.21 139.9">
  <defs>
    <style>
      .cls-1 {
        fill: #d39589;
      }

      .cls-1, .cls-2, .cls-3, .cls-4, .cls-5, .cls-6 {
        stroke-width: 0px;
      }

      .cls-2 {
        fill: #d17376;
      }

      .cls-3 {
        fill: #d27577;
      }

      .cls-4 {
        fill: #1d1b1e;
      }

      .cls-5 {
        fill: #1a1415;
      }

      .cls-6 {
        fill: #fff;
      }
    </style>
  </defs>
  <g id="Calque_1-2" data-name="Calque 1">
    <g>
      <path class="cls-6" d="M171.72,91.13c-.08-.11-.16-.22-.25-.33.25-1.45.53-2.89.67-4.36.64-6.45-1.05-12.27-4.65-17.59-.81-1.21-1.69-1.82-3.45-1.75-6.98.25-13.98.31-20.96.09-3.53-.11-6.49-1.81-8.05-5.27-1.02-2.26-1.37-4.65-1.38-7.11-.04-17.68-.07-35.37-.12-53.05,0-.65.34-1.71-.68-1.75-1.13-.04-.82,1.04-.82,1.74,0,17.36.03,34.73,0,52.09,0,3.06.36,6.02,1.37,8.91.28.81.69,1.52,1.29,2.12,2.77,2.72,5.79,4.35,9.98,4.09,6.61-.4,13.25-.2,19.88-.29.71,0,1.11.31,1.49.8,2.66,3.47,3.98,7.49,4.54,11.75.53,3.96-.12,7.85-1.34,11.64-.19.6-.39,1.2-.33,1.87.03.38.08.72.45.89.38.17.69,0,.96-.27.49-.52,1.05-1,1.47-1.57,5.24-7.16,9.15-14.96,11.18-23.63.26-1.1.67-1.33,1.72-1.32,5.79.06,11.58.03,17.37.04.53,0,1.1.06,1.13-.7.03-.76-.53-.77-1.07-.76-.24,0-.48,0-.72,0-5.59-.02-11.18-.04-16.77-.07-.55,0-1.1.02-1.65-.19-.77-.3-1.23.26-1.24.86-.04,1.94-.83,3.69-1.33,5.5-1.77,6.43-4.87,12.21-8.71,17.62ZM138.88,124.88c-.15-.04-.23-.05-.3-.09-.17-.1-.34-.21-.49-.34-2.45-1.98-4.08-4.53-5.19-7.45-.24-.64-.32-1.1.22-1.67.71-.75.95-1.73.68-2.78-.89-3.49-1.81-6.98-2.67-10.48-.51-2.09-1.13-4.13-2.29-5.96-.52-.82-1.26-1.56-2.17-1.5-1.63.1-1.85-.88-2.04-2.05-.04-.23-.11-.46-.18-.69-1.59-5.52-3.41-10.98-4.41-16.66-1.28-7.29-3.01-14.44-6.01-21.24-3.26-7.37-6.49-14.77-11.59-21.13-3.63-4.52-7.72-8.5-13.22-10.71-8-3.21-16.09-2.89-24.22-.59-7.57,2.15-13.69,6.62-19.23,12.03-4.06,3.96-7.37,8.43-9.6,13.68-4.53,10.67-4.39,21.7-2.51,32.85,1.02,6.03,2.85,11.87,4.29,17.81,1.29,5.33,2.74,10.64,2.08,16.23-.79,6.71-4.22,11.58-10.35,14.35-4.27,1.94-8.89,2.61-13.56,2.91-3.39.21-6.79.05-10.16.48-1.61.21-3.27.3-4.69,1.21-1.63,1.05-1.68,2.64-.14,3.8.8.6,1.71,1.02,2.71,1.18,2.87.45,5.72,1.04,8.65.98,2-.04,4-.08,5.99.05,5.32.36,10.58-.03,15.83-1,6.43-1.19,11.83-3.91,15.94-9.17,4.19-5.37,6.15-11.36,5.21-18.05-.89-6.32-2.61-12.5-4.57-18.58-1.47-4.55-2.76-9.12-3.2-13.89-.53-5.79-.26-11.57.71-17.28,1.21-7.12,3.72-13.76,8.54-19.23,5.18-5.88,11.7-8.44,19.51-6.34,6.98,1.87,12.81,5.74,17.72,10.98,4.17,4.45,6.92,9.69,8.99,15.43,2.92,8.1,5.68,16.24,7.43,24.69.77,3.73.84,7.59,2.19,11.2.14.39-.07.5-.29.66-1.85,1.28-2.13,3.02-1.57,5.06.94,3.44,1.83,6.9,2.76,10.34.5,1.85,1.31,3.57,2.34,5.19.87,1.36,2.05,2.24,3.71,2.24.65,0,.85.34,1.07.85,1.93,4.49,4.77,8.35,8.37,11.63,3.58,3.26,7.9,5.03,12.62,5.7,4.88.69,9.77.3,14.68-.17,6.63-.64,12.95-6.51,14.12-13.87.29-1.82-.38-3.47-1.61-4.07-1.59-.78-2.75.17-3.87,1.08-.94.76-1.82,1.6-2.88,2.54.08-1.76-.06-3.26-.7-4.72-2.5-5.72-10.25-5.59-12.69-1.71-.27.43-.59.4-1.01.38-4.07-.17-7.46,2.07-8.94,5.92Z"/>
      <path class="cls-5" d="M138.88,124.88c1.48-3.85,4.88-6.09,8.94-5.92.42.02.74.05,1.01-.38,2.45-3.87,10.19-4.01,12.69,1.71.64,1.46.78,2.96.7,4.72,1.05-.93,1.94-1.77,2.88-2.54,1.12-.91,2.28-1.86,3.87-1.08,1.23.6,1.9,2.25,1.61,4.07-1.17,7.36-7.49,13.23-14.12,13.87-4.91.48-9.79.86-14.68.17-4.72-.67-9.04-2.44-12.62-5.7-3.6-3.28-6.44-7.14-8.37-11.63-.22-.51-.42-.84-1.07-.85-1.66,0-2.84-.88-3.71-2.24-1.03-1.62-1.84-3.34-2.34-5.19-.93-3.44-1.82-6.9-2.76-10.34-.56-2.04-.28-3.78,1.57-5.06.23-.16.44-.27.29-.66-1.35-3.61-1.41-7.48-2.19-11.2-1.75-8.45-4.52-16.58-7.43-24.69-2.06-5.73-4.81-10.98-8.99-15.43-4.92-5.24-10.75-9.11-17.72-10.98-7.81-2.09-14.33.46-19.51,6.34-4.82,5.47-7.33,12.12-8.54,19.23-.97,5.72-1.24,11.49-.71,17.28.44,4.77,1.73,9.34,3.2,13.89,1.96,6.08,3.68,12.25,4.57,18.58.94,6.69-1.02,12.69-5.21,18.05-4.1,5.26-9.51,7.99-15.94,9.17-5.25.97-10.5,1.35-15.83,1-1.99-.13-3.99-.09-5.99-.05-2.93.06-5.78-.53-8.65-.98-.99-.16-1.9-.58-2.71-1.18-1.54-1.16-1.5-2.75.14-3.8,1.42-.91,3.08-1.01,4.69-1.21,3.37-.43,6.78-.27,10.16-.48,4.67-.29,9.29-.97,13.56-2.91,6.13-2.77,9.56-7.64,10.35-14.35.66-5.59-.79-10.9-2.08-16.23-1.44-5.93-3.27-11.77-4.29-17.81-1.88-11.15-2.02-22.17,2.51-32.85,2.23-5.25,5.54-9.72,9.6-13.68,5.54-5.4,11.66-9.88,19.23-12.03,8.13-2.31,16.22-2.63,24.22.59,5.51,2.21,9.59,6.2,13.22,10.71,5.1,6.36,8.34,13.75,11.59,21.13,3,6.8,4.74,13.95,6.01,21.24.99,5.68,2.82,11.14,4.41,16.66.07.23.14.46.18.69.19,1.17.42,2.15,2.04,2.05.91-.06,1.65.68,2.17,1.5,1.17,1.84,1.78,3.87,2.29,5.96.86,3.5,1.77,6.99,2.67,10.48.27,1.05.03,2.03-.68,2.78-.54.57-.46,1.03-.22,1.67,1.11,2.92,2.74,5.47,5.19,7.45.15.12.32.23.49.34.06.04.15.05.3.09ZM137.93,126.23c-.93-.57-1.69-1.35-2.5-2.06-.82-1.11-1.64-2.22-2.46-3.33-.51-1.08-1.01-2.17-1.52-3.25-.12-.82-.53-.54-.97-.28-2.35,1.41-4.76,2.7-7.38,3.53-1.06.34-1.16.87-.65,1.77,1.07,1.86,2.2,3.67,3.49,5.38.62,1,1.44,1.84,2.26,2.66,3.63,4.43,8.52,6.58,14.01,7.4,3.87.58,7.81.46,11.7.02,2.52-.29,5.1-.35,7.4-1.64,4.09-2.28,6.37-5.9,7.57-10.29.21-.75.32-1.56.08-2.37-.32-1.1-1-1.44-1.97-.81-.76.49-1.5,1.08-2.12,1.74-2.88,3.04-6.41,4.64-10.57,4.88-.55.03-.87.23-1.15.68-1.13,1.83-2.83,2.93-4.85,3.44-5.23,1.31-10.11-1.21-9.79-6.74.03-.46-.21-.64-.58-.76ZM24.17,131.89c-4.72.95-9.51,1.21-14.31,1.22-.43,0-.86.09-1.29.14-.88.02-1.77-.08-2.63.22-1.17.02-2.29.28-3.39.63-.41.13-.85.37-.93.85-.1.55.4.75.77.94.52.27,1.08.54,1.65.68,3.07.75,6.2.98,9.35.96,1.12.01,2.24.02,3.36.03,2.95.03,5.9.12,8.84.07,3.83-.06,7.58-.76,11.28-1.73,1.18-.23,2.33-.54,3.39-1.14,5.04-1.85,8.3-5.64,10.96-10.08.61-.98,1.18-1.98,1.47-3.12.09-.17.2-.34.26-.52,1.9-5.37,1.3-10.7-.28-16.01-.23-1.3-.51-2.58-.95-3.83-1.01-5.07-2.81-9.92-4.31-14.85-.25-1.2-.49-2.41-.74-3.61-.15-1.26-.31-2.51-.45-3.77-.42-3.69-.23-7.38-.2-11.08.13-1.28.26-2.55.39-3.83.06-.51.13-1.03.18-1.54.49-4.3,1.81-8.36,3.44-12.35.53-1.1,1.05-2.2,1.58-3.3,2.28-4.24,5.28-7.85,9.31-10.55,1.19-.56,2.37-1.12,3.56-1.68,3.33-1.19,6.73-1.64,10.24-1.09,1.28.33,2.57.67,3.85,1,.15.04.31.08.46.13,4.06,1.51,7.77,3.66,11.27,6.18.95.79,1.9,1.58,2.85,2.37,3.36,3.38,6.33,7.06,8.56,11.3.59,1.26,1.19,2.52,1.78,3.78,1.59,4.47,3.19,8.94,4.78,13.41.39,1.28.79,2.56,1.18,3.83.05.27.08.55.16.82,1.35,4.94,2.62,9.89,3.29,14.98.19,1.29.28,2.6.7,3.84.07.35.16.69.21,1.04.15,1.07.61,1.22,1.61.78,2.22-.99,4.55-1.67,6.94-2.11,1.07-.2,1.21-.65.92-1.61-1.07-3.54-2.08-7.09-3.11-10.64l-.89-3.31c-.31-1.59-.61-3.18-.93-4.77-.82-4.19-1.53-8.41-2.93-12.46-.43-1.21-.85-2.41-1.28-3.62-1.85-5.14-4.15-10.07-6.7-14.89-.58-1.24-1.22-2.45-1.99-3.58-.44-1.03-1.08-1.95-1.72-2.86-2.82-4.08-5.94-7.9-10.05-10.78-1.02-.87-2.16-1.53-3.37-2.08-.35-.18-.7-.38-1.06-.54-6.76-2.95-13.73-3-20.82-1.57-.95.24-1.89.49-2.84.73-6.25,1.74-11.59,5.05-16.29,9.44-1,.84-2,1.67-2.83,2.68-4.81,4.53-8.26,9.91-10.16,16.26-.5,1.17-.76,2.4-1.06,3.62-1.59,6.18-1.55,12.44-.92,18.73.15,1.27.3,2.53.44,3.8.73,5.21,1.99,10.29,3.49,15.32.23,1.3.54,2.58,1.01,3.83.89,4.05,1.87,8.08,2.4,12.2.01,1.13.02,2.25.03,3.38-.12,2.85-.51,5.65-1.79,8.25-.62,1.06-1.25,2.13-1.87,3.19-2.7,3.59-6.2,6.03-10.53,7.27-1.12.31-2.24.63-3.35.94ZM120.58,119.9c.45,0,1.23-.12,1.99-.4,2.69-1,5.32-2.12,7.8-3.61,1.79-1.08,2.34-2,1.73-4.03-1.06-3.55-1.89-7.15-2.76-10.74-.29-1.19-.73-2.36-1.33-3.44-.83-1.49-1.77-2.02-3.42-1.7-3.75.74-7.44,1.68-10.83,3.52-1.4.76-1.89,1.71-1.49,3.24.94,3.61,1.95,7.21,2.9,10.82.44,1.67,1.2,3.19,2.08,4.67.68,1.13,1.66,1.67,3.33,1.65ZM146.39,132.58c.96-.01,2.51-.44,3.89-1.4,3.37-2.32,3.43-6.92.26-9.48-3.37-2.72-8.34-.53-9.93,2.88-1.94,4.16.47,8,5.77,8ZM149.91,119.54c.55.36.97.6,1.35.88,1.82,1.34,2.95,3.07,3.08,5.4.04.74-.45,1.77.18,2.15.65.4,1.61-.12,2.43-.26.51-.08.99-.27,1.49-.42,1.07-.33,1.72-1.05,2.06-2.12.34-1.06.37-2.11.04-3.17-.71-2.33-2.07-4-4.58-4.5-2.37-.47-4.39.06-6.05,2.04Z"/>
      <path class="cls-4" d="M201.42,67.4c.24,0,.48,0,.72,0,.54,0,1.1,0,1.07.76-.03.76-.61.7-1.13.7-5.79,0-11.58.02-17.37-.04-1.05-.01-1.46.21-1.72,1.32-2.03,8.67-5.94,16.47-11.18,23.63-.42.57-.97,1.05-1.47,1.57-.27.28-.58.45-.96.27-.38-.17-.42-.51-.45-.89-.06-.66.14-1.26.33-1.87,1.22-3.79,1.87-7.68,1.34-11.64-.57-4.25-1.89-8.27-4.54-11.75-.37-.49-.78-.81-1.49-.8-6.63.09-13.27-.11-19.88.29-4.18.25-7.21-1.37-9.98-4.09-.61-.6-1.01-1.31-1.29-2.12-1.01-2.89-1.37-5.86-1.37-8.91.02-17.36,0-34.73,0-52.09,0-.7-.31-1.78.82-1.74,1.02.04.68,1.1.68,1.75.05,17.68.09,35.37.12,53.05,0,2.46.36,4.85,1.38,7.11,1.56,3.46,4.52,5.16,8.05,5.27,6.98.22,13.98.15,20.96-.09,1.76-.06,2.63.55,3.45,1.75,3.59,5.32,5.28,11.15,4.65,17.59-.15,1.47-.42,2.91-.67,4.36-.12.25-.35.62-.17.75.24.17.29-.25.41-.42,3.84-5.41,6.94-11.19,8.71-17.62.5-1.82,1.29-3.56,1.33-5.5q.3-.73,1.24-.86"/>
      <path class="cls-1" d="M50.04,50.18c-1.63,3.98-2.95,8.05-3.44,12.35-.06.51-.12,1.03-.18,1.54-2.95,0-5.91.02-8.86,0-.82,0-1.6.16-2.28.6-.66.43-.76.98-.17,1.59.56.58,1.29.79,2.03.92,2.94.52,5.9.78,8.89.72-.03,3.69-.22,7.39.2,11.08.14,1.26.3,2.52.45,3.77-2.27.05-4.3,1.01-6.35,1.82-.56.22-1.26.75-.98,1.57.24.7.84.93,1.61.95,2.19.05,4.33-.23,6.46-.73,1.5,4.93,3.3,9.78,4.31,14.85-1.88.24-3.76.48-5.63.72-1.49.19-2.52.88-2.46,1.64.07.89,1.06,1.39,2.66,1.49,2.13.13,4.26.02,6.38-.01,1.59,5.31,2.19,10.64.28,16.01-.06.18-.17.35-.26.52-.37.03-.69-.15-1.02-.27-2.15-.8-4.31-1.58-6.46-2.38-.62-.23-1.03-.12-1.38.48-.37.64-.11,1.03.35,1.44,2.06,1.81,4.51,2.92,7.05,3.86-2.65,4.44-5.92,8.23-10.96,10.08-.16-.22-.33-.44-.48-.66-.94-1.4-1.69-2.96-2.99-4.09-.38-.33-.8-.74-1.36-.37-.58.38-.89.91-.63,1.62.19.52.4,1.03.63,1.53.47,1.04.96,2.08,1.45,3.11-3.7.97-7.45,1.67-11.28,1.73-2.95.05-5.9-.04-8.84-.07-.16-.93-.33-1.87-.8-2.7-.3-.52-.73-.97-1.43-.84-.74.14-1.03.73-1.1,1.37-.08.7-.03,1.42-.03,2.13-3.15.02-6.28-.2-9.35-.96-.57-.14-1.12-.4-1.65-.68-.37-.19-.87-.38-.77-.94.08-.48.52-.72.93-.85,1.1-.36,2.22-.61,3.39-.63.04.88.46,1.5,1.36,1.47,1.01-.03,1.24-.83,1.27-1.69.43-.05.86-.14,1.29-.14,4.8-.01,9.59-.27,14.31-1.22.03,1.08.21,2.13.54,3.15.2.62.53,1.2,1.34,1.12.84-.08,1.13-.72,1.21-1.42.14-1.26.18-2.53.26-3.8,4.33-1.24,7.82-3.68,10.53-7.27.92,1.1,2.03,1.99,3.26,2.71.57.33,1.25.42,1.75-.15.48-.54.41-1.16,0-1.74-.18-.26-.35-.53-.55-.77-.86-1.08-1.73-2.16-2.59-3.24,1.29-2.6,1.67-5.4,1.79-8.25,1.07.29,2.14.55,3.27.48.57-.04,1.05-.18,1.2-.76.15-.6.11-1.22-.53-1.56-1.26-.66-2.53-1.3-3.96-1.54-.53-4.12-1.51-8.15-2.4-12.2.68,0,1.36.05,2.03-.02,1.61-.16,3.23-.26,4.79-.78.72-.24,1.19-.76,1.2-1.47.02-.7-.6-1.06-1.19-1.32-.48-.22-.99-.26-1.51-.25-2.11.02-4.22.01-6.33.02-1.49-5.03-2.76-10.12-3.49-15.32,1.53.31,3.06.21,4.6-.01,1.07-.15,2.27-.94,2.22-1.68-.07-1.08-1.01-1.36-1.86-1.54-1.78-.37-3.58-.56-5.4-.57-.63-6.29-.67-12.55.92-18.73,1.55.52,3.14.85,4.74,1.15,1.39.26,2.73-.16,2.81-.95.14-1.33-.93-1.72-1.91-2.1-1.52-.59-3.05-1.15-4.58-1.72,1.9-6.35,5.35-11.73,10.16-16.26.41.37.8.76,1.23,1.11,1.04.85,2.02,1.78,3.37,2.14,1.07.28,1.59-.13,1.62-1.23.01-.55-.2-.98-.47-1.43-.77-1.27-2.08-2.06-2.91-3.27,4.71-4.39,10.05-7.7,16.29-9.44-.02,1.79.13,3.56.68,5.27.21.66.63.97,1.35.85.68-.12.9-.5.88-1.17-.05-1.89-.05-3.79-.08-5.68,7.09-1.43,14.06-1.38,20.82,1.57.36.16.71.36,1.06.54,0,.3-.22.49-.39.71-.99,1.38-2.03,2.74-2.74,4.3-.47,1.05.13,1.92,1.28,1.89.55-.01,1-.24,1.38-.62,1.36-1.34,2.75-2.64,3.84-4.21,4.12,2.88,7.23,6.7,10.05,10.78.63.91,1.28,1.82,1.72,2.86-.28.63-.91.87-1.43,1.21-1.23.8-2.42,1.65-3.49,2.66-.6.56-.84,1.29-.52,2.06.31.75,1.04.57,1.66.6.5.02.92-.19,1.36-.37,1.6-.64,2.92-1.76,4.41-2.58,2.55,4.82,4.85,9.75,6.7,14.89-1.88.57-3.61,1.45-5.25,2.5-.39.25-.74.62-1,1-.58.84-.06,1.92.95,2.02.47.05.94-.01,1.42-.11,1.8-.37,3.42-1.25,5.16-1.79,1.41,4.05,2.11,8.27,2.93,12.46.31,1.59.62,3.18.93,4.77-1.51.04-2.84.7-4.21,1.21-.65.24-1.2.76-1,1.56.2.79.8,1.08,1.62,1.09,1.53.03,2.97-.46,4.47-.56,1.03,3.55,2.04,7.1,3.11,10.64.29.96.15,1.41-.92,1.61-2.39.44-4.73,1.12-6.94,2.11-1,.45-1.45.29-1.61-.78-.05-.35-.14-.7-.21-1.04,1.82-.59,3.55-1.33,5.04-2.56.66-.55.97-1.24.5-1.98-.47-.73-1.13-1.07-2.14-.83-1.45.34-2.64,1.28-4.1,1.54-.67-5.09-1.94-10.04-3.29-14.98-.07-.27-.11-.54-.16-.82,1.25-.91,2.54-1.77,3.56-2.94.64-.73.87-1.61.3-2.39-.56-.76-1.44-.51-2.18-.16-1,.47-2.02.92-2.87,1.67-1.59-4.47-3.19-8.94-4.78-13.41.48-.52.97-1.04,1.45-1.56.72-.78,1.64-1.4,2-2.46.23-.65.38-1.34-.16-1.89-.56-.57-1.23-.34-1.87-.08-1.23.51-2.13,1.48-3.2,2.22-2.23-4.24-5.2-7.92-8.56-11.3.15-.12.35-.22.45-.38,1.22-1.99,2.84-3.74,3.7-5.95.32-.82.6-1.8-.29-2.38-.82-.53-1.62-.15-2.31.57-1.68,1.76-2.97,3.81-4.39,5.76-3.5-2.53-7.21-4.68-11.27-6.18-.15-.06-.3-.09-.46-.13,0-2.23.01-4.45,0-6.68,0-.88-.41-1.64-1.25-1.83-.93-.22-1.25.64-1.58,1.32-.1.21-.18.45-.22.68-.28,1.83-.54,3.67-.81,5.51-3.51-.55-6.92-.1-10.24,1.09-.41-.17-.52-.58-.73-.91-.59-.94-1.16-1.89-1.99-2.67-.44-.42-.9-.72-1.48-.45-.57.26-.95.72-.88,1.42.15,1.56.55,3.03,1.52,4.29-4.03,2.7-7.03,6.31-9.31,10.55-2.38-.92-4.83-1.57-7.29-2.22-1-.26-1.96-.22-2.26.83-.25.86.62,1.42,1.3,1.79,2.13,1.17,4.33,2.18,6.67,2.89Z"/>
      <path class="cls-1" d="M120.58,119.9c-1.66.02-2.65-.52-3.33-1.65-.89-1.47-1.64-2.99-2.08-4.67-.95-3.61-1.95-7.21-2.9-10.82-.4-1.53.09-2.48,1.49-3.24,3.39-1.84,7.08-2.78,10.83-3.52,1.64-.32,2.59.2,3.42,1.7.6,1.08,1.04,2.25,1.33,3.44.87,3.59,1.7,7.19,2.76,10.74.61,2.03.06,2.95-1.73,4.03-2.47,1.49-5.1,2.61-7.8,3.61-.76.28-1.54.4-1.99.4Z"/>
      <path class="cls-1" d="M125.95,128c-1.3-1.71-2.42-3.52-3.49-5.38-.52-.9-.42-1.43.65-1.77,2.62-.83,5.03-2.13,7.38-3.53.45-.27.86-.55.97.28-1.43.85-2.86,1.7-4.27,2.57-.75.46-1.19,1.06-.73,1.99.44.89,1.16.68,1.85.44,1.57-.56,3.12-1.16,4.67-1.74.82,1.11,1.64,2.22,2.46,3.33-.61.52-.7,1.29-.99,1.97-.31.72-.34,1.41.42,1.85.81.47,1.44,0,1.94-.58.36-.41.6-.93,1.12-1.18.37.11.61.29.58.76-.32,5.53,4.56,8.05,9.79,6.74,2.03-.51,3.73-1.61,4.85-3.44.28-.45.6-.65,1.15-.68,4.16-.24,7.69-1.85,10.57-4.88.62-.66,1.36-1.24,2.12-1.74.97-.63,1.65-.29,1.97.81.23.8.12,1.62-.08,2.37-1.2,4.39-3.48,8.01-7.57,10.29-2.3,1.28-4.88,1.35-7.4,1.64-3.9.44-7.83.56-11.7-.02-5.49-.82-10.38-2.97-14.01-7.4,1.33-1.4,2.68-2.78,3.78-4.38.43-.63.44-1.25-.08-1.84-.53-.6-1.21-.7-1.82-.28-1.56,1.08-3.09,2.21-4.14,3.84Z"/>
      <path class="cls-6" d="M146.39,132.58c-5.3,0-7.71-3.84-5.77-8,1.59-3.41,6.56-5.59,9.93-2.88,3.17,2.56,3.11,7.16-.26,9.48-1.39.96-2.94,1.39-3.89,1.4ZM148.22,127.83c.72-.05,1.24-.39,1.3-1.2.05-.7-.79-1.4-1.63-1.35-.78.05-1.11.62-1.11,1.29,0,.86.57,1.24,1.44,1.27Z"/>
      <path class="cls-6" d="M149.91,119.54c1.65-1.98,3.68-2.51,6.05-2.04,2.51.5,3.87,2.18,4.58,4.5.32,1.05.29,2.11-.04,3.17-.34,1.06-.99,1.79-2.06,2.12-.49.15-.98.34-1.49.42-.82.14-1.78.65-2.43.26-.62-.38-.14-1.41-.18-2.15-.13-2.33-1.26-4.05-3.08-5.4-.38-.28-.8-.52-1.35-.88ZM157.78,121.55c-.73-.08-1.01.49-1.04,1.16-.03.81.51,1.22,1.28,1.24.76.01,1.35-.35,1.31-1.17-.03-.84-.6-1.22-1.55-1.22Z"/>
      <path class="cls-2" d="M46.03,67.89c-2.99.06-5.95-.2-8.89-.72-.75-.13-1.47-.34-2.03-.92-.58-.61-.49-1.17.17-1.59.68-.44,1.45-.6,2.28-.6,2.95.02,5.91,0,8.86,0-.13,1.28-.26,2.55-.39,3.83Z"/>
      <path class="cls-2" d="M90.3,40.89c1.42-1.95,2.71-4,4.39-5.76.69-.72,1.48-1.1,2.31-.57.89.57.61,1.56.29,2.38-.86,2.21-2.48,3.96-3.7,5.95-.1.16-.29.25-.45.38-.95-.79-1.9-1.58-2.85-2.37Z"/>
      <path class="cls-2" d="M50.04,50.18c-2.33-.71-4.54-1.72-6.67-2.89-.68-.37-1.55-.94-1.3-1.79.3-1.04,1.26-1.09,2.26-.83,2.46.65,4.92,1.3,7.29,2.22-.53,1.1-1.05,2.2-1.58,3.3Z"/>
      <path class="cls-2" d="M38.27,92.83c2.11,0,4.22,0,6.33-.02.53,0,1.04.04,1.51.25.59.26,1.21.62,1.19,1.32-.02.71-.48,1.23-1.2,1.47-1.56.52-3.18.61-4.79.78-.67.07-1.35.02-2.03.02-.46-1.24-.78-2.52-1.01-3.83Z"/>
      <path class="cls-2" d="M52.67,105.04c-2.13.04-4.25.15-6.38.01-1.59-.1-2.58-.59-2.66-1.49-.06-.76.97-1.45,2.46-1.64,1.88-.24,3.76-.48,5.63-.72.44,1.25.72,2.53.95,3.83Z"/>
      <path class="cls-3" d="M51.22,124.69c-2.54-.93-4.99-2.05-7.05-3.86-.46-.4-.72-.8-.35-1.44.35-.59.76-.71,1.38-.48,2.15.8,4.31,1.58,6.46,2.38.34.12.65.3,1.02.27-.29,1.13-.86,2.13-1.47,3.12Z"/>
      <path class="cls-2" d="M107.46,43.65c-1.49.82-2.81,1.94-4.41,2.58-.44.18-.86.39-1.36.37-.63-.03-1.36.14-1.66-.6-.32-.77-.08-1.5.52-2.06,1.07-1.01,2.26-1.85,3.49-2.66.52-.34,1.15-.58,1.43-1.21.77,1.13,1.41,2.34,1.99,3.58Z"/>
      <path class="cls-2" d="M115.43,62.16c-1.74.54-3.36,1.42-5.16,1.79-.48.1-.95.16-1.42.11-1.01-.1-1.53-1.18-.95-2.02.27-.38.61-.75,1-1,1.64-1.06,3.37-1.93,5.25-2.5.43,1.21.85,2.41,1.28,3.62Z"/>
      <path class="cls-2" d="M74.73,33.57c.27-1.84.53-3.67.81-5.51.04-.23.11-.47.22-.68.33-.68.65-1.54,1.58-1.32.83.2,1.24.96,1.25,1.83.01,2.23,0,4.45,0,6.68-1.28-.33-2.57-.67-3.85-1Z"/>
      <path class="cls-2" d="M47.41,86.36c-2.12.51-4.27.78-6.46.73-.77-.02-1.38-.25-1.61-.95-.28-.82.42-1.34.98-1.57,2.05-.82,4.07-1.78,6.35-1.82.25,1.2.49,2.41.74,3.61Z"/>
      <path class="cls-2" d="M93.7,26.43c-1.1,1.57-2.49,2.88-3.84,4.21-.38.37-.82.61-1.38.62-1.15.02-1.75-.85-1.28-1.89.71-1.56,1.75-2.92,2.74-4.3.16-.23.38-.41.39-.71,1.21.55,2.35,1.21,3.37,2.08Z"/>
      <path class="cls-2" d="M34.34,73.71c1.82,0,3.63.2,5.4.57.84.18,1.78.46,1.86,1.54.05.74-1.15,1.52-2.22,1.68-1.53.22-3.06.33-4.6.01-.15-1.27-.3-2.53-.44-3.8Z"/>
      <path class="cls-2" d="M36.32,51.35c1.53.57,3.06,1.13,4.58,1.72.97.38,2.04.77,1.91,2.1-.08.79-1.42,1.2-2.81.95-1.6-.3-3.19-.63-4.74-1.15.3-1.22.56-2.46,1.06-3.62Z"/>
      <path class="cls-2" d="M112.9,91.38c1.46-.26,2.66-1.2,4.1-1.54,1.01-.24,1.67.1,2.14.83.48.74.16,1.44-.5,1.98-1.49,1.23-3.22,1.98-5.04,2.56-.42-1.25-.51-2.56-.7-3.84Z"/>
      <path class="cls-2" d="M125.95,128c1.05-1.63,2.58-2.76,4.14-3.84.61-.42,1.29-.31,1.82.28.52.59.51,1.21.08,1.84-1.09,1.6-2.45,2.98-3.78,4.38-.82-.83-1.64-1.66-2.26-2.66Z"/>
      <path class="cls-2" d="M49.32,32.41c.83,1.21,2.14,2,2.91,3.27.27.45.49.89.47,1.43-.03,1.09-.55,1.51-1.62,1.23-1.35-.35-2.33-1.29-3.37-2.14-.43-.35-.82-.74-1.23-1.11.84-1.01,1.84-1.84,2.83-2.68Z"/>
      <path class="cls-2" d="M101.71,54.56c1.06-.74,1.97-1.71,3.2-2.22.65-.27,1.31-.49,1.87.08.54.55.38,1.24.16,1.89-.37,1.06-1.28,1.69-2,2.46-.48.52-.96,1.04-1.45,1.56-.59-1.26-1.19-2.52-1.78-3.78Z"/>
      <path class="cls-3" d="M132.97,120.85c-1.56.58-3.11,1.18-4.67,1.74-.68.24-1.4.45-1.85-.44-.46-.92-.02-1.53.73-1.99,1.41-.87,2.85-1.71,4.27-2.57.51,1.08,1.02,2.17,1.52,3.25Z"/>
      <path class="cls-3" d="M36.88,135.91c-.48-1.04-.97-2.07-1.45-3.11-.23-.5-.44-1.01-.63-1.53-.26-.71.06-1.24.63-1.62.56-.37.99.04,1.36.37,1.3,1.14,2.05,2.69,2.99,4.09.15.23.32.44.48.66-1.06.6-2.21.92-3.39,1.14Z"/>
      <path class="cls-2" d="M108.27,71.75c.85-.74,1.87-1.19,2.87-1.67.74-.35,1.62-.6,2.18.16.57.78.34,1.67-.3,2.39-1.03,1.17-2.32,2.03-3.56,2.94-.39-1.28-.79-2.56-1.18-3.83Z"/>
      <path class="cls-2" d="M60.93,36.34c-.98-1.26-1.38-2.73-1.52-4.29-.07-.7.31-1.16.88-1.42.58-.27,1.04.04,1.48.45.83.77,1.4,1.73,1.99,2.67.21.33.32.74.73.91-1.19.56-2.37,1.12-3.56,1.68Z"/>
      <path class="cls-3" d="M120.18,82.69c-1.5.09-2.95.59-4.47.56-.83-.02-1.42-.3-1.62-1.09-.2-.81.35-1.32,1-1.56,1.37-.51,2.7-1.17,4.21-1.21.3,1.1.59,2.21.89,3.31Z"/>
      <path class="cls-3" d="M68.45,22.24c.02,1.89.03,3.79.08,5.68.02.67-.21,1.05-.88,1.17-.72.12-1.13-.19-1.35-.85-.56-1.72-.7-3.48-.68-5.27.95-.24,1.89-.49,2.84-.73Z"/>
      <path class="cls-3" d="M39.92,120.49c.86,1.08,1.73,2.15,2.59,3.24.2.25.37.52.55.77.41.58.48,1.2,0,1.74-.5.56-1.18.48-1.75.15-1.23-.72-2.34-1.61-3.26-2.71.62-1.06,1.25-2.13,1.87-3.19Z"/>
      <path class="cls-3" d="M41.68,108.86c1.43.24,2.7.88,3.96,1.54.64.33.69.95.53,1.56-.15.58-.62.73-1.2.76-1.13.07-2.2-.19-3.27-.48-.01-1.13-.02-2.25-.03-3.38Z"/>
      <path class="cls-3" d="M27.53,130.95c-.08,1.27-.13,2.54-.26,3.8-.07.69-.36,1.33-1.21,1.42-.81.08-1.14-.5-1.34-1.12-.34-1.02-.52-2.07-.54-3.15,1.12-.31,2.24-.63,3.35-.94Z"/>
      <path class="cls-3" d="M13.39,137.54c0-.71-.05-1.43.03-2.13.07-.64.36-1.23,1.1-1.37.7-.13,1.13.31,1.43.84.48.83.64,1.77.8,2.7-1.12-.01-2.24-.02-3.36-.03Z"/>
      <path class="cls-3" d="M137.93,126.23c-.52.25-.77.77-1.12,1.18-.51.59-1.13,1.06-1.94.58-.76-.44-.73-1.13-.42-1.85.29-.68.37-1.46.99-1.97.82.71,1.57,1.49,2.5,2.06Z"/>
      <path class="cls-3" d="M8.57,133.26c-.03.86-.25,1.66-1.27,1.69-.9.03-1.33-.59-1.36-1.47.86-.3,1.75-.2,2.63-.22Z"/>
      <path class="cls-6" d="M171.72,91.13c-.13.17-.17.59-.41.42"/>
      <path class="cls-4" d="M148.22,127.83c-.87-.03-1.44-.41-1.44-1.27,0-.67.33-1.24,1.11-1.29.84-.05,1.68.65,1.63,1.35-.06.81-.58,1.15-1.3,1.2Z"/>
      <path class="cls-5" d="M157.78,121.55c.95,0,1.52.38,1.55,1.22.03.83-.56,1.19-1.31,1.17-.76-.02-1.31-.43-1.28-1.24.02-.67.3-1.24,1.04-1.16Z"/>
    </g>
  </g>
</svg>