<?xml version="1.0" encoding="UTF-8"?>
<svg id="Calque_2" data-name="Calque 2" xmlns="http://www.w3.org/2000/svg" viewBox="0 0 136.31 97.62">
  <defs>
    <style>
      .cls-1 {
        fill: #d4968a;
      }

      .cls-1, .cls-2, .cls-3, .cls-4 {
        stroke-width: 0px;
      }

      .cls-2 {
        fill: #d17576;
      }

      .cls-3 {
        fill: #fcfcfc;
      }

      .cls-4 {
        fill: #181213;
      }
    </style>
  </defs>
  <g id="Calque_1-2" data-name="Calque 1">
    <g>
      <path class="cls-4" d="M66.95,25.02c0-7.76,0-15.51,0-23.27,0-.32,0-.64,0-.96,0-.46.19-.77.69-.79.56-.01.77.32.76.84,0,.28,0,.56,0,.84.01,15.47.02,30.95.04,46.42,0,1.53,0,1.47,1.49,1.39,1.68-.09,3.3-.5,4.95-.79.58-.1.93-.26,1.02-1,.15-1.14,1.12-1.68,2.11-2.08,1.04-.42,2.05-.85,2.96-1.53,1.31-.98,1.9-2.31,2.09-3.86.33-2.76,1.41-4.07,4.14-4.67.88-.2,1.21-.55,1.29-1.45.39-4.37,1.29-8.65,2.81-12.77,2.49-6.73,7.78-10.35,14.2-12.66,1.57-.56,3.18-1.01,4.79-1.42.61-.15.75-.36.88-.99.56-2.91,2.31-4.84,5.17-5.67,2.7-.79,5.13-.34,7.09,1.8,1.15,1.26,1.33,2.86,1.33,4.47,0,.67.1.95.82,1.12,1.79.44,3.48.04,5.18-.39.58-.14,1.14-.36,1.71-.52,2.08-.58,3.64.52,3.81,2.7.18,2.24-1.08,4.38-3.32,5.5-2.42,1.22-5.05,1.62-7.7,1.99-4.42.61-8.93.44-13.27,1.67-7.09,2.01-11.21,7.09-12.43,14.49-.06.35-.13.71-.17,1.06-.12.96.05,1.57,1.21,1.88,3.07.82,3.88,2.51,3.2,5.96-.7,3.53-2.48,6.52-4.63,9.32-2.61,3.41-5.41,6.62-9.23,8.75-1.73.96-3.53,1.6-5.51,1.8-1.82.19-3.19-.46-4.16-1.99-.26-.41-.43-.79-1.07-.72-3.24.4-6.51.55-9.75,1.1-.86.15-.96.46-.96,1.21,0,10.56-.01,21.11-.05,31.67,0,.64.39,1.69-.7,1.72-1.11.03-.69-1.02-.77-1.66-.03-.2,0-.4,0-.6,0-2.15,0-2.16-1.96-1.46-6.28,2.25-12.78,3.5-19.35,4.52-6.25.97-12.54,1.34-18.84,1.57-5.77.21-11.51-.12-16.99-2.1C2.88,92.94-.76,86.3.13,79.06c1.25-10.07,7.55-15.73,16.3-19.23,6.55-2.62,13.5-3.85,20.42-5.13,4.93-.91,9.84-1.87,14.78-2.74,4.75-.84,9.51-1.6,14.31-2.04.83-.08,1.05-.34,1.05-1.16-.03-7.92-.02-15.83-.02-23.75h-.02ZM109.21,9.15c-1.23.32-2.46.63-3.61,1.17-.19.04-.39.06-.58.12-7.15,2.71-11.88,7.56-13.48,15.19-.35,1.27-.71,2.54-.81,3.87-.42,1.5-.59,3.04-.75,4.58-.08.76.14,1.04.94,1.07,2.11.08,4.23-.03,6.31.39.51.1.68-.02.7-.57.2-4.47,1.84-8.41,4.55-11.94.96-.88,1.92-1.75,2.88-2.63,2.01-1.33,4.14-2.36,6.48-2.99,4.16-1.12,8.46-1.04,12.69-1.58,2.65-.34,5.3-.68,7.74-1.9,1.24-.62,2.12-1.54,2.39-2.95.41-2.14-.37-2.9-2.4-2.26-2.46.77-4.93,1.37-7.51.6-.56-.17-.68.22-.88.55-1.18,1.88-2.92,2.9-5.07,3.25-3.26.52-6.25-.77-7.11-3.31-.38-1.13-.83-1.32-1.8-.91-.22.09-.45.17-.67.25ZM35.07,56.64c-1.23.1-2.43.38-3.61.73-.82.15-1.64.28-2.45.46-4.47.96-8.89,2.11-13.13,3.87-1.11.4-2.2.85-3.16,1.55-6.94,3.33-11.54,11.11-11.16,18.84.07,1.4.18,2.79.84,4.06.76,2.34,2.14,4.25,4.08,5.73,4.27,3.25,9.36,3.66,14.44,4.06,1.35.09,2.71.17,4.07.05,6.38.05,12.72-.46,19.04-1.29,1.18-.21,2.39-.22,3.54-.59,4.89-.64,9.67-1.77,14.38-3.2,1.31-.37,2.6-.8,3.85-1.36.47-.12,1.17.03,1.18-.71.04-2.64.01-5.29.01-8.14-3.69,1.98-7.55,2.56-11.35,3.37-1.18.22-2.36.43-3.54.65-1.58.16-3.17.33-4.75.46-4.01.34-8.02.65-12.04.98-1.28-.03-2.57-.07-3.83.22-.56,0-1.12,0-1.67,0-4.02.02-8.06.26-11.96-1.08-.99-.46-1.99-.93-2.98-1.39-.42-.31-.84-.6-1.25-.92-2.03-1.57-3.36-3.43-2.48-6.17.53-1.09,1.27-2.02,2.1-2.89,3.5-2.8,7.58-4.4,11.83-5.63,1.02-.27,2.05-.55,3.07-.82,2.02-.41,4.05-.78,6.06-1.24,3.09-.71,6.23-1.2,9.27-2.14,1.17-.02,2.27-.37,3.38-.67,5.23-.9,10.39-2.12,15.58-3.22,1.21-.18,2.42-.31,3.59-.66,4.37-.54,8.72-1.29,13.21-1.47-.72-1.96-1.44-3.8-2.08-5.67-.83-2.43-.8-2.44-3.27-1.91-1.03.17-2.05.34-3.08.51-5.16.35-10.29,1.04-15.39,1.91-1.18.2-2.39.26-3.55.62-2.62.27-5.16.96-7.75,1.43-3.02.54-6.03,1.13-9.04,1.69ZM66.98,61.02c-.66.1-1.21.17-1.76.26-4.59.74-9.11,1.85-13.66,2.79-8.79,1.81-17.58,3.61-26.3,5.77-3.91.97-7.68,2.44-10.8,5.09-2.96,2.51-2.77,4.83.37,7.08,3.27,2.34,7.02,2.84,10.89,2.92,3.32.07,6.62-.29,9.93-.41,6.62-.25,13.21-.85,19.74-1.99,3.72-.64,7.43-1.37,10.84-3.11.45-.23.77-.4.77-1.03l-.02-17.37ZM102.48,40.84c.03-1.83-.39-2.44-1.76-2.9-3.85-1.29-7.83-1.46-11.82-1.2-2.97.19-3.83,1.07-4.33,3.9-.42,2.4-1.54,4.23-3.92,5.15-.7.27-1.36.67-2.04,1-1.3.63-1.61,1.31-1.03,2.57.55,1.2.91,2.46,1.37,3.69.71,1.9,1.43,3.8,2.23,5.66.76,1.77,1.86,2.27,3.75,1.94,1.63-.29,3.15-.84,4.55-1.73,5.42-3.43,9.2-8.29,11.98-13.98.66-1.36.94-2.87,1.02-4.09ZM123.15,6.69c.01-2.9-1.17-4.43-3.72-4.8-3.65-.54-6.6,2.06-6.64,5.85-.02,2,1.13,3.41,3.09,3.78,1.03.2,2.04.23,3.08.03,2.54-.47,4.18-2.32,4.19-4.87Z"/>
      <path class="cls-1" d="M25.05,68.28c-4.25,1.23-8.33,2.82-11.83,5.63-1.31,0-2.59-.39-3.91-.25-.69.07-1.29.39-1.46,1.04-.18.72.38,1.18.99,1.43.73.29,1.46.62,2.27.67-.88,2.74.45,4.6,2.48,6.17.41.32.83.61,1.25.92-1.63,1.28-2.62,3.03-3.54,4.81-.35.67-.34,1.39.3,1.82.66.44,1.42.21,1.97-.32,1.56-1.52,3.07-3.09,4.26-4.92,3.9,1.35,7.94,1.1,11.96,1.08.56,0,1.12,0,1.67,0,.05,1.11-.12,2.23.22,3.33.22.71.4,1.48,1.31,1.45.91-.02,1.41-.65,1.59-1.51.25-1.16.47-2.33.71-3.5,4.01-.32,8.03-.64,12.04-.98,1.59-.13,3.17-.31,4.75-.46-.04,1.4.13,2.78.74,4.05.27.55.68,1.23,1.38,1.14.71-.09,1.15-.78,1.2-1.47.11-1.45.49-2.9.21-4.37,3.8-.81,7.66-1.39,11.35-3.37,0,2.85.02,5.5-.01,8.14,0,.73-.71.59-1.18.71-.06-1.14.11-2.29-.24-3.42-.22-.71-.43-1.44-1.34-1.4-.86.03-1.33.64-1.54,1.41-.43,1.56-.57,3.17-.73,4.78-4.71,1.43-9.5,2.56-14.38,3.2,0-1.19-.04-2.38,0-3.57.03-.86-.24-1.55-1.1-1.72-.98-.19-1.4.52-1.64,1.35-.44,1.48-.65,3-.79,4.53-6.32.83-12.66,1.34-19.04,1.29.16-.97.36-1.93.48-2.9.08-.64.09-1.34-.68-1.6-.83-.28-1.49.07-1.9.8-.68,1.21-1.32,2.43-1.97,3.65-5.08-.4-10.16-.81-14.44-4.06-1.95-1.48-3.33-3.39-4.08-5.73,1.93-.82,3.96-1.41,5.75-2.53.61-.38,1.06-.96.65-1.7-.35-.63-.95-.89-1.72-.74-1.39.28-2.8.52-4.14,1-.48.17-.93.19-1.37-.09-.38-7.73,4.23-15.51,11.16-18.84.26,1.33,1.31,2.14,2.05,3.15.53.73,1.38,1.08,2.22.64.89-.47.61-1.35.4-2.13-.31-1.16-1.07-2.11-1.51-3.21,4.24-1.76,8.66-2.91,13.13-3.87.81-.17,1.64-.3,2.45-.46.09,1.73.63,3.34,1.32,4.89.26.58.82,1.1,1.49,1,.73-.1,1.07-.77,1.24-1.45.08-.3.06-.63.03-.95-.14-1.41-.31-2.82-.46-4.23,3.01-.57,6.02-1.15,9.04-1.69,2.58-.47,5.13-1.15,7.75-1.43.22,1.77.48,3.54,1.08,5.23.23.64.69,1.19,1.38,1.13.66-.06,1.01-.57,1.2-1.29.49-1.92-.24-3.79-.11-5.69,5.1-.87,10.22-1.57,15.39-1.91.04,1.09.34,2.12.72,3.12.24.65.74,1.22,1.55,1.04.8-.18,1.11-.76,1.13-1.6.03-1.05-.17-2.06-.32-3.08,2.47-.53,2.44-.52,3.27,1.91.64,1.87,1.36,3.71,2.08,5.67-4.49.19-8.84.93-13.21,1.47-.12-1.5-.47-2.96-.86-4.41-.18-.67-.47-1.2-1.28-1.13-.75.06-1.06.52-1.23,1.22-.41,1.65-.12,3.32-.21,4.98-5.19,1.1-10.35,2.32-15.58,3.22-.12-1.19-.55-2.31-.9-3.44-.22-.69-.71-1.32-1.58-1.17-.85.15-1.12.85-1.12,1.61,0,1.22-.16,2.46.22,3.67-3.04.93-6.18,1.42-9.27,2.14-2.01.46-4.04.83-6.06,1.24-.2-1.44-.91-2.69-1.5-3.98-.34-.74-.8-1.39-1.72-1-.86.37-1.01,1.12-.78,2,.33,1.26.62,2.53.93,3.8Z"/>
      <path class="cls-1" d="M102.48,40.84c-.08,1.22-.35,2.73-1.02,4.09-2.78,5.69-6.56,10.55-11.98,13.98-1.4.88-2.92,1.44-4.55,1.73-1.89.34-2.99-.17-3.75-1.94-.8-1.86-1.52-3.76-2.23-5.66-.46-1.23-.82-2.49-1.37-3.69-.58-1.27-.27-1.95,1.03-2.57.68-.33,1.34-.73,2.04-1,2.38-.91,3.49-2.74,3.92-5.15.5-2.83,1.36-3.71,4.33-3.9,3.99-.26,7.97-.09,11.82,1.2,1.37.46,1.78,1.07,1.76,2.9Z"/>
      <path class="cls-1" d="M102.48,23.03c-2.71,3.52-4.35,7.46-4.55,11.94-.03.55-.19.67-.7.57-2.08-.42-4.2-.31-6.31-.39-.8-.03-1.02-.31-.94-1.07.17-1.54.34-3.08.75-4.58,1.99.49,3.83,1.54,5.98,1.47.77-.03,1.35-.27,1.62-.96.27-.71-.38-1.06-.8-1.46-.22-.21-.53-.35-.82-.48-1.72-.82-3.45-1.63-5.18-2.44,1.59-7.64,6.33-12.49,13.48-15.19.18-.07.38-.08.58-.12.39,2.06,1.26,3.9,2.45,5.62.51.74,1.18,1.14,2.02.74.84-.41.95-1.17.7-2.04-.54-1.82-1.04-3.65-1.56-5.48.22-.08.45-.15.67-.25.97-.41,1.42-.22,1.8.91.86,2.54,3.85,3.84,7.11,3.31,2.16-.35,3.9-1.36,5.07-3.25.2-.33.32-.72.88-.55,2.57.77,5.04.17,7.51-.6,2.03-.64,2.81.12,2.4,2.26-.27,1.42-1.15,2.33-2.39,2.95-2.43,1.22-5.09,1.56-7.74,1.9-4.23.54-8.53.45-12.69,1.58-2.34.63-4.47,1.67-6.48,2.99-.18-.07-.38-.11-.55-.21-1.29-.77-2.56-1.58-3.86-2.34-.76-.44-1.62-.67-2.29.05-.68.74.08,1.38.39,2.03.08.17.26.29.4.44.93.97,1.89,1.91,3.02,2.66Z"/>
      <path class="cls-3" d="M123.15,6.69c-.01,2.55-1.64,4.4-4.19,4.87-1.04.19-2.06.16-3.08-.03-1.96-.37-3.11-1.78-3.09-3.78.04-3.79,2.99-6.39,6.64-5.85,2.56.38,3.74,1.9,3.72,4.8ZM122.15,6.02c-.11-.55-.09-1.3-1.02-1.24-.89.06-1.21.71-1.23,1.48-.02.77.32,1.36,1.18,1.29.86-.06,1.04-.73,1.07-1.53Z"/>
      <path class="cls-2" d="M109.21,9.15c.52,1.83,1.02,3.66,1.56,5.48.26.87.15,1.63-.7,2.04-.85.41-1.51,0-2.02-.74-1.19-1.71-2.06-3.56-2.45-5.62,1.15-.54,2.38-.85,3.61-1.17Z"/>
      <path class="cls-2" d="M91.55,25.63c1.73.81,3.45,1.62,5.18,2.44.29.14.59.27.82.48.42.39,1.07.74.8,1.46-.26.69-.85.93-1.62.96-2.14.08-3.99-.98-5.98-1.47.1-1.33.46-2.6.81-3.87Z"/>
      <path class="cls-2" d="M17.83,85.28c-1.2,1.83-2.7,3.41-4.26,4.92-.55.53-1.3.75-1.97.32-.64-.43-.65-1.15-.3-1.82.93-1.79,1.92-3.54,3.54-4.81.99.46,1.99.93,2.98,1.39Z"/>
      <path class="cls-2" d="M1.54,82.09c.44.27.89.26,1.37.09,1.35-.47,2.75-.72,4.14-1,.78-.16,1.38.11,1.72.74.41.74-.04,1.32-.65,1.7-1.79,1.13-3.82,1.71-5.75,2.53-.66-1.28-.76-2.67-.84-4.06Z"/>
      <path class="cls-2" d="M55.41,52.9c-.14,1.9.6,3.77.11,5.69-.19.72-.53,1.23-1.2,1.29-.7.06-1.16-.49-1.38-1.13-.6-1.69-.85-3.46-1.08-5.23,1.16-.36,2.37-.42,3.55-.62Z"/>
      <path class="cls-2" d="M35.07,56.64c.16,1.41.32,2.82.46,4.23.03.31.05.65-.03.95-.17.68-.51,1.35-1.24,1.45-.67.09-1.24-.42-1.49-1-.69-1.56-1.23-3.17-1.32-4.89,1.18-.35,2.38-.63,3.61-.73Z"/>
      <path class="cls-2" d="M102.48,23.03c-1.13-.75-2.09-1.69-3.02-2.66-.14-.14-.32-.27-.4-.44-.31-.64-1.07-1.29-.39-2.03.67-.72,1.54-.49,2.29-.05,1.3.76,2.57,1.56,3.86,2.34.16.1.36.14.55.21-.96.88-1.92,1.75-2.88,2.63Z"/>
      <path class="cls-2" d="M62.42,60.19c.09-1.66-.19-3.32.21-4.98.17-.7.48-1.16,1.23-1.22.81-.07,1.1.46,1.28,1.13.39,1.45.75,2.9.86,4.41-1.17.36-2.39.49-3.59.66Z"/>
      <path class="cls-2" d="M61.93,90.9c.15-1.61.29-3.22.73-4.78.21-.77.69-1.38,1.54-1.41.91-.03,1.12.7,1.34,1.4.35,1.13.18,2.28.24,3.42-1.25.56-2.54.99-3.85,1.36Z"/>
      <path class="cls-2" d="M15.87,61.7c.44,1.1,1.2,2.05,1.51,3.21.21.78.49,1.66-.4,2.13-.84.44-1.68.09-2.22-.64-.74-1.01-1.79-1.83-2.05-3.15.96-.7,2.05-1.15,3.16-1.55Z"/>
      <path class="cls-2" d="M44.01,94.69c.14-1.53.35-3.05.79-4.53.24-.82.66-1.54,1.64-1.35.87.17,1.13.86,1.1,1.72-.04,1.19,0,2.38,0,3.57-1.15.37-2.36.38-3.54.59Z"/>
      <path class="cls-2" d="M55.62,84.06c.28,1.47-.11,2.92-.21,4.37-.05.69-.49,1.37-1.2,1.47-.69.09-1.11-.59-1.38-1.14-.61-1.27-.78-2.64-.74-4.05,1.18-.22,2.36-.43,3.54-.65Z"/>
      <path class="cls-2" d="M25.05,68.28c-.31-1.27-.6-2.54-.93-3.8-.23-.88-.08-1.63.78-2,.92-.39,1.38.26,1.72,1,.6,1.29,1.3,2.54,1.5,3.98-1.02.27-2.05.55-3.07.82Z"/>
      <path class="cls-2" d="M35.3,86.14c-.23,1.17-.46,2.33-.71,3.5-.18.85-.69,1.48-1.59,1.51-.91.02-1.09-.74-1.31-1.45-.34-1.1-.17-2.22-.22-3.33,1.27-.29,2.55-.25,3.83-.22Z"/>
      <path class="cls-2" d="M43.45,64.08c-.38-1.2-.22-2.44-.22-3.67,0-.76.27-1.46,1.12-1.61.87-.15,1.36.47,1.58,1.17.35,1.13.78,2.25.9,3.44-1.11.31-2.22.65-3.38.67Z"/>
      <path class="cls-2" d="M20.9,95.93c.66-1.22,1.29-2.45,1.97-3.65.41-.74,1.07-1.08,1.9-.8.76.26.76.96.68,1.6-.12.97-.32,1.94-.48,2.9-1.36.12-2.71.04-4.07-.05Z"/>
      <path class="cls-2" d="M73.87,50.47c.14,1.02.35,2.03.32,3.08-.03.83-.33,1.42-1.13,1.6-.81.18-1.3-.39-1.55-1.04-.38-1-.68-2.04-.72-3.12,1.03-.17,2.05-.34,3.08-.51Z"/>
      <path class="cls-2" d="M11.11,76.79c-.81-.05-1.54-.38-2.27-.67-.62-.25-1.17-.71-.99-1.43.16-.65.76-.96,1.46-1.04,1.32-.14,2.6.24,3.91.25-.84.86-1.57,1.8-2.1,2.89Z"/>
      <path class="cls-4" d="M122.15,6.02c-.03.8-.21,1.47-1.07,1.53-.86.06-1.21-.53-1.18-1.29.02-.78.35-1.43,1.23-1.48.93-.06.91.69,1.02,1.24Z"/>
    </g>
  </g>
</svg>