<?xml version="1.0" encoding="UTF-8"?>
<svg id="Calque_2" data-name="Calque 2" xmlns="http://www.w3.org/2000/svg" viewBox="0 0 157.53 155.01">
  <defs>
    <style>
      .cls-1 {
        fill: #d39589;
      }

      .cls-1, .cls-2, .cls-3, .cls-4 {
        stroke-width: 0px;
      }

      .cls-2 {
        fill: #fdfcfd;
      }

      .cls-3 {
        fill: #1b1617;
      }

      .cls-4 {
        fill: #d17275;
      }
    </style>
  </defs>
  <g id="Calque_1-2" data-name="Calque 1">
    <g>
      <path class="cls-3" d="M43.45,37.33c.69,2.55,1.37,5.11,2.07,7.67.9,3.29,1.32,6.69,2.37,9.94.37,1.14-.03,2.16-1.12,2.58-1.05.4-.78.92-.47,1.59,2.85,6.23,4.8,12.75,6.24,19.44.52,2.41.96,4.84,1.07,7.31.03.65.26.72.82.8,1.4.2,2.84.27,4.12,1.06,3.16,1.95,4.22,5.5,2.62,9.3-1.23,2.9-3.05,5.25-6.39,5.85-.74.13-.54.74-.6,1.12-.4,2.68-1.14,5.28-2.01,7.83-.95,2.78-2.53,5.14-5.27,6.51-2.38,1.18-4.49.09-5.01-2.53-.18-.91-.17-1.81-.08-2.73.27-2.88.05-5.72-.59-8.55-.16-.71-.33-.83-.99-.49-1.4.72-2.91.81-4.42.41-3-.8-4.34-2.54-4.42-5.97-.1-4.12,1.14-7.63,5.1-9.61.56-.28.46-.7.49-1.08.19-2.6-.06-5.19-.39-7.76-.73-5.62-2.16-11.05-4.44-16.25-.34-.77-.59-1.01-1.44-.66-2.14.86-3.23.33-4.16-1.89-.69-1.66-.83-3.47-1.29-5.19-.85-3.14-2.15-6.13-3.16-9.22-.58-1.78-.97-3.6-1.26-5.45-.21-1.38-.16-2.77.63-4.11-2.85,0-5.52,0-8.19,0-4.03,0-8.07.02-12.1.02-.55,0-1.22.11-1.21-.74.02-.85.7-.7,1.24-.7,7.11-.08,14.21-.15,21.32-.22,1.59-.02,1.52,0,1.27-1.53-.96-5.87-1.53-11.84,1.13-17.36C29.35,7.61,36.45,1.68,46.61.2c6.35-.92,11.83,1.34,16.26,6,3.7,3.9,5.71,8.64,6.81,13.81.98,4.61,1.27,9.3,1.68,13.98.09,1.06.24,1.68,1.62,1.63,3.87-.13,7.75-.09,11.62-.02,1.01.02,1.27-.31,1.34-1.22.21-2.82,1.55-5.15,3.44-7.17,2.95-3.14,7.33-2.75,9.68.85,1.33,2.03,2.06,4.3,2.22,6.71.05.74.17,1.02.99,1.01,9.14-.1,18.29-.16,27.43-.2.66,0,.86-.17.87-.85.06-2.43.58-4.73,2.25-6.63,1.79-2.03,4.03-2.85,6.65-2.26,2.69.61,4.17,2.5,4.69,5.14.24,1.25.41,2.52.48,3.79.04.7.16.9.91.88,3.51-.06,7.03-.04,10.54-.05.65,0,1.44-.04,1.42.84-.02.77-.75.76-1.38.76-3.27,0-6.55.05-9.82-.02-1.12-.02-1.46.16-1.49,1.43-.2,6.49-.2,13.03-1.88,19.34-1.55,5.86-3.91,11.44-8.07,16.01-3.4,3.73-7.41,6.47-12.53,7.32-5.42.9-10.54-.09-15.64-1.99-7.21-2.68-11.85-7.98-15.43-14.43-3.95-7.12-5.66-14.78-5.31-22.91.06-1.36.08-2.71-.1-4.07-.07-.51-.15-.77-.76-.77-13.78.03-27.55.04-41.33.06-.07,0-.15.06-.33.13ZM66.84,35.55c.78.02,1.56-.01,2.34.06.86.08.88-.36.72-.98-.16-1.28-.08-2.58-.42-3.84-.25-4.46-.73-8.88-1.98-13.18-.34-1.25-.75-2.47-1.41-3.6-.46-.97-.84-1.98-1.41-2.89-3.91-6.29-9.37-9.86-17.01-9.51-1.22.15-2.45.23-3.62.69-.12,0-.25-.03-.36,0-7.19,2.07-12.45,6.59-16.29,12.89-.74,1.1-1.28,2.29-1.64,3.57-.16.49-.35.96-.46,1.46-1.05,4.78-.79,9.54.12,14.31.13.68.5.52.95.36,2.55-.88,5.09-1.76,7.65-2.61.82-.27,1.93-.24,2.44-.78.61-.65-.19-1.71-.11-2.61-.03-1.31.19-2.58.51-3.84,1.01-2.45,2.31-4.72,4.1-6.68,1.02-.92,2.08-1.79,3.24-2.52,2.29-1.43,4.77-1.95,7.44-1.53,1.25.4,2.32,1.1,3.32,1.92,2.36,2.38,3.28,5.41,3.86,8.59.17,1.26,0,2.55.3,3.81.01,2.05.04,4.11.02,6.16,0,.58.11.87.77.83,1.1-.06,2.21-.04,3.32-.06,1.2,0,2.4,0,3.59,0ZM34.38,65.09l1.26,3.31c1.3,4.47,2.28,9,2.72,13.65.08,1.28.16,2.56.23,3.84,0,.75-.13,1.55.1,2.23.09.27,1,.23,1.52.4.41.14.81.34,1.17.57,4.14,2.58,4.86,9.24,1.43,12.97-.25.27-.68.39-.46,1.04.95,2.86,1.19,5.83,1.03,8.84-.06,1.07-.11,2.16-.03,3.23.13,1.92,1.36,2.59,3.05,1.69,1.37-.73,2.45-1.8,3.2-3.14,1.76-3.18,2.45-6.69,3.11-10.21.11-.59-.08-.82-.69-.96-.81-.19-1.59-.55-2.2-1.15-5.19-5.09-3.24-11.19,1.56-14.11.61-.37.81-.69.75-1.38-.4-4.5-1.37-8.87-2.61-13.2-.31-1.22-.57-2.46-1.08-3.62-.95-3.54-2.46-6.86-3.84-10.23-.28-.69-.72-.31-1.07-.19-2.52.85-5.04,1.69-7.53,2.61-.91.33-2.35.3-2.6,1.11-.22.74.61,1.79.98,2.71ZM132.21,36.53c-.18,4.08.69,8.12.54,12.2l-.29,3.84c-.67,4.34-2.14,8.32-5.26,11.55-1.01.92-2.02,1.82-3.19,2.54-.83.26-1.64.62-2.49.77-2.79.49-5.61.64-8.43.28-1.23-.32-2.42-.77-3.55-1.34-3.55-2.19-5.83-5.49-7.86-9.01-.36-.96-.72-1.92-1.07-2.87-.36-2.31-.84-4.61-.6-6.97.21-2.14.14-4.29.09-6.43.08-1.37,0-2.72-.2-4.07.06-2.92-.5-5.68-2.13-8.15-1.29-1.96-3.07-2.63-5.12-1.99-1.76.55-2.75,1.93-3.65,3.4-1.07,1.61-1.68,3.35-1.54,5.31,0,3.44-.01,6.89-.03,10.33,0,1.11.16,2.21.37,3.3.18,1.32.37,2.64.78,3.92.95,5.68,3.37,10.7,6.81,15.27.75,1.15,1.54,2.26,2.53,3.21,1.79,2.2,4.06,3.77,6.6,5,4.6,2.22,9.33,3.85,14.54,3.48,1.22,0,2.42-.17,3.61-.47.16,0,.32,0,.47-.03,7.37-1.93,11.99-6.93,15.12-13.58.7-1.13,1.2-2.34,1.61-3.6,2.93-6.49,2.84-13.47,3.35-20.35.11-1.28.13-2.56.03-3.84.16-1.87-.06-3.74-.31-5.58-.23-1.71-.51-3.49-2.17-4.57-3.31-2.16-7.52-.04-8.27,4.16-.41,1.42-.49,2.85-.28,4.31ZM116.13,37.17v.08c-4.55,0-9.1,0-13.65,0-.54,0-.96-.09-.95.75.05,4.03-.07,8.06.03,12.09.15,6,3.18,10.55,7.67,14.21,3.27,2.67,7.18,2.12,10.99,1.83,2.39-.18,4.21-1.43,5.86-3.1,3.35-3.4,4.53-7.63,4.97-12.21.41-4.24-.22-8.44-.43-12.65-.04-.86-.29-1.02-1.09-1.01-4.47.04-8.94.02-13.41.02ZM22.25,40.31c.26,1.88.66,3.94,1.3,5.96,1.08,3.41,2.58,6.68,3.4,10.17.34,1.43.5,2.9,1.05,4.28.4.98,1.03,1.36,2.06.99.93-.34,1.87-.66,2.81-.98,4.17-1.42,8.35-2.84,12.52-4.27.54-.18,1.2-.22.97-1.15-.96-3.89-1.79-7.82-2.82-11.69-.88-3.3-1.63-6.64-2.8-9.86-.33-.91-.76-1.34-1.85-1.11-5.12,1.05-9.97,2.94-14.85,4.72-1.4.51-1.76,1.45-1.8,2.95ZM50.21,35.6h0c2.15,0,4.31-.04,6.46.01.82.02,1.1-.16,1.06-1.03-.13-2.63-.11-5.27-.28-7.89-.16-2.47-.65-4.88-1.85-7.09-2.05-3.8-5.61-4.95-9.48-3.05-1.11.54-2.19,1.17-3.08,2.02-3.32,3.21-5.74,6.82-4.98,11.78.09.6.15.88.92.74,1.54-.28,2.36.25,3.01,1.71.27.61.47,1.26.65,1.91.18.65.47.94,1.22.91,2.11-.07,4.23-.02,6.34-.02ZM60.37,94.2c.02-2.91-1.04-4.7-3.21-5.48-2.23-.8-4.58-1.19-6.42.83-3,3.3-3.37,6-.95,9.52,1.7,2.48,4.64,3.11,7.06,1.33,2.24-1.65,3.29-4,3.52-6.19ZM43.67,97.32c-.14-1.87-.41-3.52-1.23-5.01-1.47-2.7-3.93-3.29-6.38-1.48-2.63,1.94-3.35,4.72-3.13,7.81.12,1.57.48,3.05,2.01,3.98,1.71,1.02,3.35.84,4.94-.14,2.01-1.23,3.45-2.91,3.78-5.16Z"/>
      <path class="cls-3" d="M61.5,124.28c1.89,1.78,3.94,3.25,6.11,4.57,4.75,2.87,10.01,4.34,15.32,5.66,5.2,1.3,10.47,2.32,15.78,3.04,1.15.16,2.27.29,3.34.8.49.24.69.5.8,1.04.23,1.11.25,2.21.24,3.33-.03,3.63-.05,7.27-.08,10.9,0,.58.15,1.38-.69,1.39-.95.01-.75-.83-.75-1.44,0-4.43-.01-8.86.03-13.29,0-.77-.21-.92-.97-1.01-10.81-1.42-21.53-3.22-31.52-7.87-4.24-1.97-7.78-4.95-11.07-8.23-.42-.42-.76-.83-.34-1.45.45-.66.96-.34,1.47-.13,5.82,2.36,11.9,3.35,18.14,3.61,7.87.32,15.54-.96,23.13-2.89.83-.21,1.15-.55,1.15-1.5,0-3.87.24-7.74.19-11.61-.04-3.19.78-6.08,2.74-8.5,2.47-3.05,5.73-4.86,9.73-5.2,4.13-.35,8.27-.43,12.42-.47,6.67-.07,13.33-.16,20-.25.36,0,.73-.03,1.07.04.33.07.53.31.54.69,0,.37-.14.65-.49.72-.39.08-.79.11-1.19.11-8.42.12-16.85.21-25.27.36-3.02.06-6.08-.03-9.04.7-4.43,1.1-8.6,4.8-8.83,10.28-.19,4.39-.28,8.78-.45,13.16-.03.79.75,1.73-.07,2.31-.6.43-1.51.42-2.27.63-8.56,2.29-17.23,3.53-26.1,2.82-4.13-.33-8.2-1.02-12.17-2.23-.27-.08-.51-.21-.91-.06Z"/>
      <path class="cls-1" d="M138.26,66c-3.13,6.66-7.75,11.65-15.12,13.58-.15.04-.31.02-.47.03-.16-1.81-.27-3.63-.51-5.42-.13-.96-.79-1.53-1.83-1.49-1.02.04-1.66.62-1.72,1.6-.12,1.94-.02,3.88.45,5.78-5.21.37-9.94-1.26-14.54-3.48-2.54-1.23-4.81-2.8-6.6-5,.15-.18.28-.39.46-.53,1.06-.83,2.27-1.48,3.16-2.53.57-.67.72-1.45.38-2.23-.31-.74-1.07-.53-1.69-.56-.51-.03-.91.22-1.36.39-1.33.5-2.15,1.77-3.48,2.26-3.44-4.57-5.86-9.59-6.81-15.27.2-.41.57-.63.93-.89,1.4-1.01,3.06-1.51,4.57-2.28.75-.39,1.44-.95,1.25-1.96-.19-1.01-1.05-1.4-1.86-1.35-2.19.12-4.16.87-5.67,2.57-.22-1.09-.38-2.18-.37-3.3.02-3.44.02-6.89.03-10.33,2.09-1.1,4.2-2.18,6.27-3.33.66-.37.89-1.09.57-1.77-.3-.64-.81-1.09-1.65-1.17-1.37-.14-2.4.78-3.65.96.9-1.47,1.89-2.85,3.65-3.4,2.05-.64,3.83.03,5.12,1.99,1.62,2.47,2.18,5.23,2.13,8.15-.54-.11-1.08-.25-1.62-.34-1.56-.26-3.12-.67-4.68-.07-.89.34-1.51.91-1.35,1.97.14.88.68,1.55,1.55,1.52,2.19-.1,4.24.48,6.31,1,.05,2.15.12,4.29-.09,6.43-.23,2.36.24,4.66.6,6.97-2.34.12-4.23,1.23-5.93,2.72-.79.69-.68,1.51-.16,2.25.54.76,1.31,1.02,2.2.58,1.1-.54,2.19-1.11,3.31-1.63.6-.28,1.33-.34,1.65-1.04,2.02,3.52,4.31,6.82,7.86,9.01-.2.48-.42.94-.58,1.43-.41,1.19-.93,2.36-.49,3.68.22.65.63,1.05,1.23,1.15.65.11,1.14-.31,1.44-.87.72-1.32,1.47-2.62,1.95-4.06,2.83.36,5.64.21,8.43-.28.85-.15,1.66-.51,2.49-.77.31.13.48.39.64.67.61,1.04,1.5,1.85,2.37,2.65.74.68,1.63.85,2.5.26.73-.5.8-1.65.22-2.57-.19-.3-.43-.56-.63-.86-.62-.91-1.54-1.6-1.91-2.69,3.12-3.23,4.58-7.21,5.26-11.55,1.75-.27,3.56-.18,5.27-.74,1.2-.4,1.74-1.22,1.43-2.24-.31-1.05-1.23-1.34-2.17-1.3-1.42.07-2.82.29-4.23.44.14-4.08-.73-8.12-.54-12.2.31-.04.69.03.93-.13,1.61-1.03,3.37-1.79,5.06-2.66.34-.18.58-.54.87-.81.47-.45.47-1.03.24-1.55-.21-.47-.6-.83-1.2-.85-1.09-.04-2.14.02-3.14.54-.81.42-1.58.93-2.49,1.15.75-4.2,4.96-6.32,8.27-4.16,1.66,1.08,1.93,2.86,2.17,4.57.25,1.84.47,3.7.31,5.58-1.3.16-2.59.34-3.89.47-1.41.14-2.14.84-2.09,2.07.04,1.17.78,1.79,2.18,1.76,1.27-.02,2.52-.21,3.77-.46-.51,6.89-.42,13.87-3.35,20.35-1.37-.44-2.55-1.26-3.81-1.92-1.46-.77-2.51-.58-3.1.49-.54.98-.17,1.84,1.14,2.73,1.32.89,2.73,1.61,4.16,2.3Z"/>
      <path class="cls-1" d="M40.97,18.35c-1.8,1.96-3.1,4.23-4.1,6.68-1.32.24-2.68.17-3.98.56-1.16.35-1.71,1.18-1.51,2.32.15.87,1.08,1.52,2.18,1.41.94-.09,1.87-.3,2.8-.45-.08.9.72,1.96.11,2.61-.51.54-1.61.5-2.44.78-2.56.85-5.1,1.73-7.65,2.61-.45.16-.82.32-.95-.36-.91-4.76-1.17-9.53-.12-14.31.11-.5.31-.97.46-1.46.9.02,1.68.44,2.53.67,2.02.53,3.88,1.67,6.08,1.56.93-.05,1.95.02,2.22-1.13.28-1.17-.64-1.68-1.49-2.16-.17-.1-.35-.19-.54-.25-2.39-.75-4.77-1.5-7.16-2.25,3.85-6.3,9.1-10.82,16.29-12.89.11-.03.24,0,.36,0,.16,1.87.56,3.68,1.29,5.41.3.7.75,1.34,1.57,1.51,1.35.27,2.23-.94,1.88-2.63-.34-1.67-.75-3.32-1.13-4.98,7.64-.35,13.09,3.22,17.01,9.51.56.91.94,1.92,1.41,2.89-1.05.3-1.9.92-2.7,1.64-.57.51-.85,1.12-.53,1.79.33.68.87,1.14,1.77,1.16,1.12.03,1.88-.79,2.88-.99,1.24,4.31,1.73,8.73,1.98,13.18-1.44.41-2.88.81-4.32,1.23-1.95.58-2.64,1.87-1.91,3.54-1.11.01-2.21,0-3.32.06-.67.04-.78-.25-.77-.83.02-2.05-.01-4.11-.02-6.16,1.59-.3,3.18-.64,4.78-.89.77-.12,1.47-.32,2.08-.8.55-.43,1.01-.94.82-1.72-.18-.75-.72-1.05-1.44-1.21-.68-.15-1.31-.18-1.99-.03-1.51.32-3.03.57-4.55.85-.58-3.18-1.5-6.21-3.86-8.59,1.29-1.1,2.25-2.45,2.89-4,.34-.81-.02-1.45-.67-1.98-.61-.5-1.2-.35-1.76.02-.52.34-1,.72-1.42,1.24-.76.95-1.41,2.01-2.36,2.81-2.67-.42-5.15.1-7.44,1.53-.45-.32-.57-.85-.84-1.28-.81-1.31-1.38-2.78-2.53-3.86-.49-.46-1.12-.74-1.74-.38-.61.36-1.12.87-1.04,1.73.09.94.47,1.75.94,2.54.73,1.22,1.47,2.43,1.96,3.78Z"/>
      <path class="cls-1" d="M22.25,40.31c.05-1.49.4-2.43,1.8-2.95,4.89-1.79,9.73-3.68,14.85-4.72,1.09-.22,1.52.2,1.85,1.11,1.17,3.22,1.92,6.56,2.8,9.86,1.03,3.87,1.86,7.8,2.82,11.69.23.94-.43.97-.97,1.15-4.17,1.43-8.35,2.84-12.52,4.27-.94.32-1.88.64-2.81.98-1.03.37-1.67,0-2.06-.99-.55-1.38-.72-2.85-1.05-4.28-.82-3.49-2.32-6.76-3.4-10.17-.64-2.02-1.04-4.08-1.3-5.96Z"/>
      <path class="cls-1" d="M38.37,82.04c-.44-4.64-1.42-9.17-2.72-13.65.78-.06,1.41-.52,2.09-.83,1.48-.67,3.03-1.24,4.29-2.31.52-.44,1.04-.99.76-1.74-.27-.7-.89-.93-1.65-.9-2.52.09-4.66,1.21-6.75,2.46-.37-.92-1.2-1.97-.98-2.71.24-.81,1.68-.78,2.6-1.11,2.49-.92,5.01-1.76,7.53-2.61.35-.12.79-.49,1.07.19,1.38,3.37,2.89,6.7,3.84,10.23-.42.1-.87.15-1.27.31-1.48.56-3.07.85-4.3,1.97-.59.53-.94,1.13-.63,1.89.31.76.99.92,1.78.9,1.96-.04,3.66-1,5.51-1.44,1.24,4.33,2.22,8.7,2.61,13.2.06.69-.14,1.01-.75,1.38-4.8,2.92-6.75,9.02-1.56,14.11.61.6,1.39.97,2.2,1.15.6.14.8.37.69.96-.66,3.52-1.35,7.03-3.11,10.21-.75,1.35-1.82,2.42-3.2,3.14-1.69.89-2.92.23-3.05-1.69-.07-1.07-.03-2.15.03-3.23.16-3.01-.08-5.97-1.03-8.84-.22-.65.21-.77.46-1.04,3.43-3.73,2.71-10.39-1.43-12.97-.37-.23-.76-.44-1.17-.57-.51-.17-1.42-.13-1.52-.4-.23-.68-.09-1.48-.1-2.23.97-.17,1.96-.27,2.91-.52,1.38-.35,2.83-.37,4.15-.95.92-.4,1.48-1.09,1.27-2.16-.21-1.02-.97-1.23-1.89-1.19-.87.04-1.73.02-2.6.22-1.34.31-2.71.5-4.07.75Z"/>
      <path class="cls-2" d="M60.37,94.2c-.23,2.2-1.28,4.54-3.52,6.19-2.42,1.78-5.36,1.15-7.06-1.33-2.42-3.52-2.05-6.22.95-9.52,1.84-2.02,4.19-1.62,6.42-.83,2.17.77,3.23,2.57,3.21,5.48ZM54.41,97.11c-.99.01-1.92.93-1.92,1.9,0,.87.88,1.71,1.8,1.71.98,0,1.93-.94,1.92-1.9-.01-.81-.97-1.72-1.8-1.71Z"/>
      <path class="cls-2" d="M43.67,97.32c-.33,2.25-1.77,3.93-3.78,5.16-1.59.98-3.24,1.16-4.94.14-1.53-.92-1.89-2.41-2.01-3.98-.23-3.09.5-5.87,3.13-7.81,2.45-1.81,4.9-1.22,6.38,1.48.82,1.5,1.09,3.14,1.23,5.01ZM36.84,102.42c1.21-.01,1.98-.62,1.87-1.55-.1-.86-.61-1.47-1.52-1.56-.85-.08-1.74.85-1.76,1.72-.02,1,.46,1.46,1.41,1.39Z"/>
      <path class="cls-4" d="M27.41,15.17c2.39.75,4.77,1.5,7.16,2.25.19.06.37.15.54.25.85.48,1.76.99,1.49,2.16-.27,1.15-1.29,1.08-2.22,1.13-2.19.11-4.06-1.03-6.08-1.56-.84-.22-1.63-.65-2.53-.67.36-1.28.9-2.47,1.64-3.57Z"/>
      <path class="cls-4" d="M38.37,82.04c1.36-.24,2.73-.43,4.07-.75.87-.2,1.73-.18,2.6-.22.92-.04,1.69.16,1.89,1.19.21,1.06-.35,1.75-1.27,2.16-1.32.58-2.77.6-4.15.95-.95.24-1.94.35-2.91.52-.08-1.28-.16-2.56-.23-3.84Z"/>
      <path class="cls-4" d="M34.38,65.09c2.09-1.25,4.22-2.37,6.75-2.46.77-.03,1.39.2,1.65.9.29.75-.24,1.29-.76,1.74-1.26,1.07-2.81,1.64-4.29,2.31-.68.31-1.31.76-2.09.83-.42-1.1-.84-2.2-1.26-3.31Z"/>
      <path class="cls-4" d="M100.09,41.08c-2.07-.52-4.12-1.1-6.31-1-.86.04-1.41-.63-1.55-1.52-.16-1.06.45-1.63,1.35-1.97,1.57-.59,3.13-.19,4.68.07.55.09,1.08.23,1.62.34.2,1.35.28,2.71.2,4.07Z"/>
      <path class="cls-4" d="M58.83,24.81c1.52-.28,3.04-.52,4.55-.85.68-.15,1.31-.12,1.99.03.73.16,1.27.46,1.44,1.21.18.78-.27,1.29-.82,1.72-.61.48-1.31.68-2.08.8-1.6.25-3.19.59-4.78.89-.31-1.25-.13-2.54-.3-3.81Z"/>
      <path class="cls-4" d="M87.8,49.21c1.51-1.7,3.48-2.45,5.67-2.57.81-.04,1.68.35,1.86,1.35.19,1.01-.5,1.57-1.25,1.96-1.51.78-3.16,1.28-4.57,2.28-.36.26-.73.48-.93.89-.41-1.28-.6-2.6-.78-3.92Z"/>
      <path class="cls-4" d="M132.5,32.22c.9-.22,1.67-.73,2.49-1.15,1-.51,2.05-.58,3.14-.54.6.02.99.38,1.2.85.23.52.23,1.09-.24,1.55-.29.28-.53.64-.87.81-1.69.88-3.45,1.63-5.06,2.66-.24.15-.62.09-.93.13-.21-1.46-.13-2.89.28-4.31Z"/>
      <path class="cls-4" d="M101.68,57.36c-.33.71-1.05.76-1.65,1.04-1.11.52-2.21,1.09-3.31,1.63-.9.44-1.67.18-2.2-.58-.52-.74-.63-1.56.16-2.25,1.71-1.49,3.59-2.6,5.93-2.72.36.96.72,1.92,1.07,2.87Z"/>
      <path class="cls-4" d="M40.97,18.35c-.49-1.34-1.24-2.56-1.96-3.78-.47-.79-.85-1.6-.94-2.54-.08-.86.43-1.37,1.04-1.73.62-.37,1.25-.08,1.74.38,1.15,1.08,1.72,2.55,2.53,3.86.27.43.39.97.84,1.28-1.16.73-2.22,1.6-3.24,2.52Z"/>
      <path class="cls-4" d="M47.68,1.59c.38,1.66.79,3.31,1.13,4.98.35,1.69-.53,2.9-1.88,2.63-.81-.16-1.27-.81-1.57-1.51-.74-1.73-1.13-3.54-1.29-5.41,1.16-.46,2.4-.54,3.62-.69Z"/>
      <path class="cls-4" d="M119.06,80.09c-.47-1.9-.57-3.84-.45-5.78.06-.99.7-1.56,1.72-1.6,1.04-.04,1.7.53,1.83,1.49.24,1.8.35,3.62.51,5.42-1.18.31-2.38.48-3.61.47Z"/>
      <path class="cls-4" d="M88.99,30.27c1.25-.18,2.28-1.1,3.65-.96.84.09,1.35.53,1.65,1.17.32.68.09,1.4-.57,1.77-2.07,1.14-4.18,2.22-6.27,3.33-.14-1.96.46-3.7,1.54-5.31Z"/>
      <path class="cls-4" d="M138.26,66c-1.43-.69-2.84-1.4-4.16-2.3-1.31-.89-1.68-1.75-1.14-2.73.59-1.07,1.65-1.26,3.1-.49,1.26.66,2.44,1.48,3.81,1.92-.41,1.26-.91,2.47-1.61,3.6Z"/>
      <path class="cls-4" d="M49.53,72.71c-1.85.44-3.55,1.41-5.51,1.44-.79.02-1.46-.14-1.78-.9-.31-.76.04-1.36.63-1.89,1.23-1.12,2.82-1.41,4.3-1.97.4-.15.85-.21,1.27-.31.51,1.16.77,2.4,1.08,3.62Z"/>
      <path class="cls-4" d="M63.25,35.55c-.73-1.67-.04-2.96,1.91-3.54,1.44-.42,2.88-.82,4.32-1.23.34,1.26.26,2.56.42,3.84-1.02.31-2.04.62-3.06.93-1.2,0-2.4,0-3.59,0Z"/>
      <path class="cls-4" d="M132.76,48.73c1.41-.15,2.82-.38,4.23-.44.94-.04,1.86.24,2.17,1.3.3,1.02-.23,1.85-1.43,2.24-1.71.56-3.51.47-5.27.74.1-1.28.2-2.56.29-3.84Z"/>
      <path class="cls-4" d="M95.39,68.39c1.33-.49,2.15-1.76,3.48-2.26.45-.17.85-.42,1.36-.39.62.03,1.38-.17,1.69.56.33.78.19,1.56-.38,2.23-.89,1.05-2.09,1.7-3.16,2.53-.18.14-.31.35-.46.53-.99-.95-1.78-2.06-2.53-3.21Z"/>
      <path class="cls-4" d="M51.66,14.3c.95-.79,1.6-1.85,2.36-2.81.42-.52.9-.89,1.42-1.24.56-.36,1.15-.52,1.76-.02.65.53,1.01,1.17.67,1.98-.65,1.55-1.61,2.9-2.89,4-1-.82-2.07-1.52-3.32-1.92Z"/>
      <path class="cls-4" d="M143.22,42.05c-1.24.25-2.5.44-3.77.46-1.41.03-2.14-.59-2.18-1.76-.04-1.23.69-1.92,2.09-2.07,1.3-.13,2.59-.31,3.89-.47.1,1.28.08,2.56-.03,3.84Z"/>
      <path class="cls-4" d="M127.21,64.12c.36,1.09,1.29,1.78,1.91,2.69.2.29.44.56.63.86.58.92.52,2.07-.22,2.57-.87.59-1.76.43-2.5-.26-.87-.81-1.76-1.61-2.37-2.65-.16-.28-.33-.54-.64-.67,1.17-.71,2.19-1.62,3.19-2.54Z"/>
      <path class="cls-4" d="M113.09,67.7c-.48,1.44-1.23,2.74-1.95,4.06-.3.55-.79.97-1.44.87-.6-.1-1.01-.5-1.23-1.15-.45-1.33.08-2.49.49-3.68.17-.49.39-.95.58-1.43,1.14.57,2.32,1.02,3.55,1.34Z"/>
      <path class="cls-4" d="M36.36,28.87c-.93.15-1.86.36-2.8.45-1.1.11-2.04-.54-2.18-1.41-.19-1.14.36-1.97,1.51-2.32,1.3-.39,2.66-.33,3.98-.56-.31,1.26-.54,2.53-.51,3.84Z"/>
      <path class="cls-4" d="M67.5,17.6c-1,.2-1.76,1.02-2.88.99-.9-.03-1.44-.48-1.77-1.16-.32-.67-.04-1.28.53-1.79.8-.72,1.65-1.34,2.7-1.64.66,1.12,1.07,2.35,1.41,3.6Z"/>
      <path class="cls-1" d="M66.84,35.55c1.02-.31,2.04-.62,3.06-.93.16.62.14,1.06-.72.98-.78-.07-1.56-.04-2.34-.06Z"/>
      <path class="cls-3" d="M54.41,97.11c.83,0,1.79.9,1.8,1.71.02.96-.94,1.9-1.92,1.9-.93,0-1.8-.84-1.8-1.71,0-.97.93-1.89,1.92-1.9Z"/>
      <path class="cls-3" d="M36.84,102.42c-.95.07-1.44-.39-1.41-1.39.02-.87.92-1.79,1.76-1.72.91.08,1.42.69,1.52,1.56.11.93-.66,1.54-1.87,1.55Z"/>
    </g>
  </g>
</svg>