<?xml version="1.0" encoding="UTF-8"?>
<svg id="Calque_2" data-name="Calque 2" xmlns="http://www.w3.org/2000/svg" viewBox="0 0 170.59 120.17">
  <defs>
    <style>
      .cls-1 {
        fill: #d39589;
      }

      .cls-1, .cls-2, .cls-3, .cls-4, .cls-5, .cls-6 {
        stroke-width: 0px;
      }

      .cls-2 {
        fill: #d17376;
      }

      .cls-3 {
        fill: #d27577;
      }

      .cls-4 {
        fill: #1a1415;
      }

      .cls-5 {
        fill: #fff;
      }

      .cls-6 {
        fill: #fdfdfd;
      }
    </style>
  </defs>
  <g id="Calque_1-2" data-name="Calque 1">
    <g>
      <path class="cls-5" d="M162.22,105.2c.03-1.51,0-2.84-.48-4.14-2.33-6.35-10.48-6.19-12.93-2.23-.27.44-.61.38-1.02.36-3.78-.16-7.08,1.81-8.61,5.23-.33.74-.58.7-1.12.26-2.48-2.02-4.1-4.62-5.23-7.57-.22-.57-.23-.96.23-1.46.73-.8,1.02-1.78.73-2.88-.73-2.8-1.51-5.59-2.18-8.4-.65-2.74-1.19-5.5-2.73-7.94-.54-.86-1.28-1.63-2.24-1.59-1.53.07-1.85-.77-2-1.95-.03-.27-.13-.54-.21-.8-1.58-5.52-3.41-10.99-4.4-16.66-1.28-7.29-3.01-14.44-6.02-21.24-3.26-7.37-6.49-14.77-11.6-21.12-3.63-4.52-7.72-8.5-13.23-10.71-8-3.21-16.09-2.88-24.22-.57-6.99,1.99-12.77,5.98-18.01,10.87-4.56,4.26-8.35,9.05-10.81,14.85-4.52,10.68-4.38,21.7-2.5,32.85,1.02,6.03,2.85,11.87,4.29,17.81,1.28,5.29,2.72,10.56,2.08,16.11-.79,6.91-4.34,11.86-10.7,14.6-4.27,1.84-8.84,2.5-13.48,2.77-3.31.19-6.63.03-9.92.47-1.57.21-3.19.31-4.58,1.16-1.72,1.05-1.8,2.68-.2,3.86.81.6,1.72,1.02,2.71,1.17,2.87.45,5.72,1.03,8.65.98,2-.04,4-.08,5.99.05,5.33.36,10.58-.03,15.83-1,6.43-1.18,11.83-3.92,15.93-9.18,4.18-5.37,6.13-11.36,5.2-18.06-.85-6.09-2.51-12.03-4.37-17.89-1.52-4.78-2.96-9.56-3.41-14.57-.52-5.79-.25-11.57.72-17.28,1.21-7.12,3.73-13.76,8.55-19.23,5.18-5.88,11.73-8.49,19.52-6.31,9.09,2.54,16.15,8.04,21.53,15.74,2.71,3.88,4.26,8.29,5.89,12.69,2.89,7.78,5.34,15.68,6.93,23.84.65,3.35.74,6.8,1.97,10.03.18.47-.19.54-.42.71-1.66,1.23-2.02,2.87-1.5,4.77.65,2.41,1.38,4.8,1.98,7.23.73,2.98,1.45,5.93,3.19,8.53.87,1.3,1.98,2.2,3.6,2.21.69,0,.94.31,1.18.88,1.92,4.45,4.73,8.28,8.29,11.55,3.6,3.31,7.95,5.07,12.71,5.77,4.52.67,9.07.42,13.61-.03,3.37-.33,6.43-1.37,9.07-3.57,3.63-3.03,5.8-6.81,6.11-11.55.08-1.26-.49-2.35-1.64-2.99-1.15-.64-2.2-.17-3.1.53-1.2.92-2.31,1.94-3.61,3.05Z"/>
      <path class="cls-4" d="M162.22,105.2c1.3-1.11,2.42-2.13,3.61-3.05.91-.7,1.96-1.16,3.1-.53,1.15.64,1.72,1.73,1.64,2.99-.31,4.74-2.49,8.53-6.11,11.55-2.64,2.2-5.7,3.24-9.07,3.57-4.54.45-9.09.7-13.61.03-4.76-.7-9.11-2.47-12.71-5.77-3.56-3.27-6.37-7.1-8.29-11.55-.24-.56-.49-.87-1.18-.88-1.61,0-2.73-.91-3.6-2.21-1.73-2.6-2.46-5.56-3.19-8.53-.59-2.42-1.33-4.81-1.98-7.23-.51-1.9-.16-3.55,1.5-4.77.23-.17.6-.23.42-.71-1.23-3.23-1.33-6.69-1.97-10.03-1.58-8.16-4.04-16.06-6.93-23.84-1.63-4.39-3.17-8.8-5.89-12.69-5.38-7.7-12.44-13.2-21.53-15.74-7.79-2.17-14.33.43-19.52,6.31-4.82,5.47-7.34,12.11-8.55,19.23-.97,5.72-1.23,11.49-.72,17.28.45,5.02,1.89,9.8,3.41,14.57,1.86,5.86,3.52,11.81,4.37,17.89.94,6.7-1.01,12.69-5.2,18.06-4.1,5.26-9.5,8-15.93,9.18-5.25.97-10.5,1.36-15.83,1-1.99-.14-3.99-.09-5.99-.05-2.93.06-5.78-.53-8.65-.98-.99-.16-1.9-.57-2.71-1.17-1.59-1.19-1.52-2.81.2-3.86,1.4-.85,3.02-.95,4.58-1.16,3.29-.44,6.62-.28,9.92-.47,4.64-.27,9.21-.93,13.48-2.77,6.36-2.74,9.9-7.69,10.7-14.6.64-5.55-.8-10.82-2.08-16.11-1.44-5.93-3.27-11.77-4.29-17.81-1.89-11.15-2.02-22.17,2.5-32.85,2.45-5.8,6.25-10.59,10.81-14.85,5.24-4.9,11.02-8.88,18.01-10.87,8.13-2.31,16.22-2.63,24.22.57,5.51,2.21,9.6,6.19,13.23,10.71,5.11,6.35,8.34,13.75,11.6,21.12,3,6.79,4.74,13.95,6.02,21.24.99,5.68,2.82,11.14,4.4,16.66.08.27.17.53.21.8.15,1.18.47,2.01,2,1.95.96-.04,1.7.73,2.24,1.59,1.54,2.44,2.08,5.2,2.73,7.94.67,2.81,1.44,5.6,2.18,8.4.29,1.1,0,2.08-.73,2.88-.45.5-.45.89-.23,1.46,1.13,2.95,2.75,5.55,5.23,7.57.54.44.79.48,1.12-.26,1.53-3.42,4.83-5.39,8.61-5.23.41.02.75.08,1.02-.36,2.44-3.97,10.59-4.13,12.93,2.23.48,1.3.51,2.63.48,4.14ZM137.93,106.45c-.93-.57-1.69-1.35-2.5-2.06-.82-1.11-1.64-2.22-2.46-3.33-.51-1.08-1.01-2.17-1.52-3.25-.12-.82-.53-.54-.97-.28-2.35,1.41-4.76,2.7-7.38,3.53-1.06.34-1.16.87-.65,1.77,1.07,1.86,2.2,3.67,3.49,5.38.62,1,1.44,1.84,2.26,2.66,3.63,4.43,8.52,6.58,14.01,7.4,3.91.58,7.89.46,11.82.01,2.47-.28,5.01-.36,7.28-1.63,4.09-2.28,6.37-5.9,7.57-10.29.21-.75.32-1.56.08-2.37-.32-1.1-.99-1.42-1.98-.81-.61.37-1.19.82-1.68,1.34-3.03,3.21-6.67,5.11-11.13,5.3-.53.02-.78.29-1.02.67-1.14,1.82-2.83,2.93-4.86,3.44-5.23,1.31-10.11-1.21-9.79-6.74.03-.46-.21-.64-.58-.76ZM113.61,75.45c.07.35.16.69.21,1.04.15,1.07.61,1.22,1.61.78,2.22-.99,4.55-1.67,6.94-2.11,1.07-.2,1.21-.65.92-1.61-1.07-3.54-2.08-7.09-3.11-10.64-.3-1.1-.59-2.21-.89-3.31-.31-1.59-.61-3.18-.93-4.77-.82-4.19-1.53-8.41-2.93-12.46-.43-1.21-.85-2.41-1.28-3.62-1.85-5.14-4.15-10.07-6.7-14.89-.58-1.24-1.22-2.45-1.99-3.58-.44-1.03-1.08-1.95-1.72-2.86-2.82-4.08-5.94-7.9-10.05-10.78-1.02-.87-2.16-1.53-3.37-2.08-.35-.18-.7-.38-1.06-.54-6.76-2.95-13.73-3-20.82-1.57-.95.24-1.89.49-2.84.73-6.25,1.74-11.59,5.05-16.29,9.44-1,.84-2,1.67-2.83,2.68-4.81,4.53-8.26,9.91-10.16,16.26-.5,1.17-.76,2.4-1.06,3.62-1.59,6.18-1.55,12.44-.92,18.73.15,1.27.3,2.53.44,3.8.73,5.21,1.99,10.29,3.49,15.32.23,1.3.54,2.58,1.01,3.83.89,4.05,1.87,8.08,2.4,12.2l.03,3.38c-.12,2.85-.51,5.65-1.79,8.25-.62,1.06-1.25,2.13-1.87,3.19-2.7,3.59-6.2,6.03-10.53,7.27-1.12.31-2.24.63-3.35.94-4.72.95-9.51,1.21-14.31,1.22-.43,0-.86.09-1.29.14-.88.02-1.77-.08-2.63.22-1.17.02-2.29.28-3.39.63-.41.13-.85.37-.93.85-.1.55.4.75.77.94.53.27,1.08.54,1.65.68,3.07.75,6.2.98,9.35.96,1.12.01,2.24.02,3.36.03,2.95.03,5.9.12,8.84.07,3.83-.06,7.58-.76,11.28-1.73,1.18-.23,2.33-.54,3.39-1.14,5.04-1.85,8.3-5.64,10.96-10.08.61-.98,1.18-1.98,1.47-3.12.09-.17.2-.34.26-.52,1.9-5.37,1.3-10.7-.28-16.01-.23-1.3-.51-2.58-.95-3.83-1.01-5.07-2.81-9.92-4.31-14.85-.25-1.2-.49-2.41-.74-3.61-.15-1.26-.31-2.51-.45-3.77-.42-3.69-.23-7.38-.2-11.08.13-1.28.26-2.55.39-3.83.06-.51.13-1.03.18-1.54.49-4.3,1.81-8.36,3.44-12.35.53-1.1,1.05-2.2,1.58-3.3,2.28-4.24,5.28-7.85,9.31-10.55,1.19-.56,2.37-1.12,3.56-1.68,3.33-1.19,6.73-1.64,10.24-1.09,1.28.33,2.57.67,3.85,1,.15.04.31.08.46.13,4.06,1.51,7.77,3.66,11.27,6.18.95.79,1.9,1.58,2.85,2.37,3.36,3.38,6.33,7.06,8.56,11.3.59,1.26,1.19,2.52,1.78,3.78,1.59,4.47,3.19,8.94,4.78,13.41.39,1.28.79,2.56,1.18,3.83.05.27.08.55.16.82,1.35,4.94,2.62,9.89,3.29,14.98.19,1.29.28,2.6.7,3.84ZM120.21,100.13c.81,0,1.59-.12,2.35-.4,2.69-1,5.32-2.12,7.8-3.61,1.8-1.08,2.35-2.01,1.75-4.02-1.06-3.55-1.89-7.15-2.76-10.74-.29-1.19-.73-2.35-1.33-3.44-.83-1.5-1.77-2.03-3.41-1.7-3.71.74-7.37,1.64-10.72,3.48-1.6.88-2.03,1.67-1.58,3.39.93,3.58,1.92,7.14,2.86,10.71.45,1.71,1.23,3.27,2.15,4.76.67,1.09,1.65,1.57,2.89,1.57ZM146.05,112.82c1.31-.02,2.86-.45,4.24-1.41,3.36-2.33,3.42-6.93.24-9.48-3.31-2.65-8.23-.64-9.86,2.79-1.56,3.29-.72,8.01,5.38,8.1ZM154.31,106.95s.04.19,0,.38c-.27.95.22,1.08.97.91.93-.2,1.85-.43,2.78-.64,1.45-.31,2.2-1.22,2.54-2.65.23-.94.19-1.82-.07-2.7-.63-2.13-1.81-3.77-4.09-4.41-2.14-.59-4.08-.31-5.82,1.12-.61.5-.72.85.11,1.35,2.38,1.44,3.72,3.53,3.59,6.63Z"/>
      <path class="cls-1" d="M38.28,73.06c-1.49-5.03-2.76-10.12-3.49-15.32,1.53.31,3.06.21,4.6-.01,1.07-.15,2.27-.94,2.22-1.68-.07-1.08-1.01-1.36-1.86-1.54-1.78-.37-3.58-.56-5.4-.57-.63-6.29-.67-12.55.92-18.73,1.55.52,3.14.85,4.74,1.15,1.39.26,2.73-.16,2.81-.95.14-1.33-.93-1.72-1.91-2.1-1.52-.59-3.05-1.15-4.58-1.72,1.9-6.35,5.35-11.73,10.16-16.26.38.34.76.69,1.14,1.03.95.84,1.93,1.66,3.11,2.15,1.3.54,2.13-.13,1.96-1.51-.05-.41-.26-.73-.47-1.08-.76-1.28-2.08-2.06-2.91-3.28,4.71-4.39,10.05-7.7,16.29-9.44-.02,1.79.13,3.56.68,5.27.21.66.63.97,1.35.85.68-.12.9-.5.88-1.17-.05-1.89-.05-3.79-.08-5.68,7.09-1.43,14.06-1.38,20.82,1.57.36.16.71.36,1.06.54,0,.3-.22.49-.39.71-.99,1.38-2.03,2.74-2.74,4.3-.47,1.05.13,1.92,1.28,1.89.55-.01,1-.24,1.38-.62,1.36-1.34,2.75-2.64,3.84-4.21,4.12,2.88,7.23,6.7,10.05,10.78.63.91,1.28,1.82,1.72,2.86-.28.63-.91.87-1.43,1.21-1.23.8-2.42,1.65-3.49,2.66-.6.56-.84,1.29-.52,2.06.31.75,1.04.57,1.66.6.5.02.92-.19,1.36-.37,1.6-.64,2.92-1.76,4.41-2.58,2.55,4.82,4.85,9.75,6.7,14.89-1.88.57-3.61,1.45-5.25,2.5-.39.25-.74.62-1,1-.58.84-.06,1.92.95,2.02.47.05.94-.01,1.42-.11,1.8-.37,3.42-1.25,5.16-1.79,1.41,4.05,2.11,8.27,2.93,12.46.31,1.59.62,3.18.93,4.77-1.51.04-2.84.7-4.21,1.21-.65.24-1.2.76-1,1.56.2.79.8,1.08,1.62,1.09,1.53.03,2.97-.46,4.47-.56,1.03,3.55,2.04,7.1,3.11,10.64.29.96.15,1.41-.92,1.61-2.39.44-4.73,1.12-6.94,2.11-1,.45-1.45.29-1.61-.78-.05-.35-.14-.7-.21-1.04,1.79-.64,3.59-1.25,5.04-2.56.64-.57.97-1.24.5-1.99-.47-.73-1.13-1.07-2.14-.83-1.45.34-2.64,1.28-4.1,1.54-.67-5.09-1.94-10.04-3.29-14.98-.07-.27-.11-.54-.16-.82,1.25-.91,2.54-1.77,3.56-2.94.64-.73.87-1.61.3-2.39-.56-.76-1.44-.51-2.18-.16-1,.47-2.02.92-2.87,1.67-1.59-4.47-3.19-8.94-4.78-13.41.48-.52.97-1.04,1.45-1.56.72-.78,1.64-1.4,2-2.46.23-.65.38-1.34-.16-1.89-.56-.57-1.23-.34-1.87-.08-1.23.51-2.13,1.48-3.2,2.22-2.23-4.24-5.2-7.92-8.56-11.3.07-.04.16-.06.2-.12,1.39-2.02,3-3.91,3.94-6.21.33-.81.6-1.8-.29-2.38-.82-.53-1.63-.16-2.31.58-1.65,1.78-3.01,3.77-4.39,5.76-3.5-2.53-7.21-4.68-11.27-6.18-.15-.06-.3-.09-.46-.13,0-2.23.01-4.45,0-6.68,0-.88-.41-1.64-1.25-1.83-.93-.22-1.25.64-1.58,1.32-.1.21-.18.45-.22.68-.28,1.83-.54,3.67-.81,5.51-3.51-.56-6.92-.1-10.24,1.09-.41-.17-.52-.58-.73-.91-.59-.94-1.16-1.89-1.99-2.67-.44-.42-.9-.72-1.48-.45-.57.26-.95.72-.88,1.42.15,1.56.55,3.03,1.52,4.29-4.03,2.7-7.03,6.31-9.31,10.55-2.38-.92-4.83-1.57-7.29-2.22-1-.26-1.96-.22-2.26.83-.25.86.62,1.42,1.3,1.79,2.13,1.17,4.33,2.18,6.67,2.89-1.63,3.98-2.95,8.05-3.44,12.35-.06.51-.12,1.03-.18,1.54-2.95,0-5.91.02-8.86,0-.82,0-1.6.16-2.28.6-.66.43-.76.98-.17,1.59.56.58,1.29.79,2.03.92,2.94.52,5.9.78,8.89.72-.03,3.69-.22,7.39.2,11.08.14,1.26.3,2.52.45,3.77-2.27.05-4.3,1.01-6.35,1.82-.56.22-1.26.75-.98,1.57.24.7.84.93,1.61.95,2.19.05,4.33-.23,6.46-.73,1.5,4.93,3.3,9.78,4.31,14.85-1.88.24-3.76.48-5.63.72-1.49.19-2.52.88-2.46,1.64.07.89,1.06,1.39,2.66,1.49,2.13.13,4.26.02,6.39-.01,1.59,5.31,2.19,10.64.28,16.01-.06.18-.17.35-.26.52-.37.03-.69-.15-1.02-.27-2.15-.8-4.31-1.58-6.46-2.38-.62-.23-1.03-.12-1.38.48-.37.64-.11,1.03.35,1.44,2.06,1.81,4.51,2.92,7.05,3.86-2.65,4.44-5.92,8.23-10.96,10.08-.16-.22-.33-.44-.48-.67-.95-1.41-1.69-2.96-3-4.1-.38-.33-.8-.73-1.37-.36-.54.35-.83.86-.69,1.52.08.34.23.67.38.99.58,1.25,1.18,2.5,1.77,3.76-3.7.97-7.45,1.67-11.28,1.73-2.95.05-5.9-.04-8.84-.07-.2-1.01-.33-2.03-.94-2.9-.34-.48-.81-.82-1.42-.6-.59.21-1,.63-.99,1.33,0,.71,0,1.43,0,2.14-3.15.02-6.28-.2-9.35-.96-.57-.14-1.12-.4-1.65-.68-.37-.19-.87-.38-.77-.94.08-.48.52-.72.93-.85,1.1-.36,2.22-.61,3.39-.63.04.88.46,1.5,1.36,1.47,1.01-.03,1.24-.83,1.27-1.69.43-.05.86-.14,1.29-.14,4.8-.01,9.59-.27,14.31-1.22.03,1.08.21,2.13.54,3.15.2.62.53,1.2,1.34,1.12.84-.08,1.13-.72,1.21-1.42.14-1.26.18-2.53.26-3.8,4.33-1.24,7.82-3.68,10.53-7.27,1,1.13,2.13,2.12,3.47,2.81.47.25,1.01.46,1.48-.14.43-.54.46-1.09.18-1.66-.17-.35-.43-.66-.68-.97-.86-1.08-1.72-2.16-2.59-3.24,1.29-2.6,1.67-5.4,1.79-8.25,1.07.29,2.14.55,3.27.48.57-.04,1.05-.18,1.2-.76.15-.6.11-1.22-.53-1.56-1.26-.66-2.53-1.3-3.96-1.54-.53-4.12-1.51-8.15-2.4-12.2.68,0,1.36.05,2.03-.02,1.61-.16,3.25-.25,4.8-.79.69-.24,1.25-.73,1.24-1.45-.01-.67-.63-1.07-1.22-1.33-.48-.21-.99-.26-1.52-.26-2.11.02-4.23.01-6.34.02Z"/>
      <path class="cls-1" d="M120.21,100.13c-1.25,0-2.22-.48-2.89-1.57-.93-1.5-1.7-3.05-2.15-4.76-.94-3.57-1.93-7.13-2.86-10.71-.45-1.72-.02-2.51,1.58-3.39,3.35-1.84,7.01-2.75,10.72-3.48,1.64-.33,2.58.2,3.41,1.7.6,1.09,1.04,2.25,1.33,3.44.87,3.59,1.7,7.19,2.76,10.74.6,2.01.05,2.94-1.75,4.02-2.47,1.49-5.1,2.61-7.8,3.61-.76.28-1.54.4-2.35.4Z"/>
      <path class="cls-1" d="M125.95,108.22c-1.3-1.71-2.42-3.52-3.49-5.38-.52-.9-.42-1.43.65-1.77,2.62-.83,5.03-2.13,7.38-3.53.45-.27.86-.55.97.28-1.43.85-2.86,1.7-4.27,2.57-.75.46-1.19,1.06-.73,1.99.44.89,1.16.68,1.85.44,1.57-.56,3.12-1.16,4.67-1.74.82,1.11,1.64,2.22,2.46,3.33-.61.52-.7,1.29-.99,1.97-.31.72-.34,1.41.42,1.85.81.47,1.44,0,1.94-.58.36-.41.6-.93,1.12-1.18.37.11.61.29.58.76-.32,5.53,4.56,8.05,9.79,6.74,2.03-.51,3.72-1.61,4.86-3.44.24-.38.49-.65,1.02-.67,4.46-.19,8.1-2.09,11.13-5.3.49-.52,1.07-.96,1.68-1.34.98-.61,1.66-.29,1.98.81.23.8.12,1.62-.08,2.37-1.2,4.39-3.49,8.01-7.57,10.29-2.27,1.27-4.81,1.35-7.28,1.63-3.94.45-7.91.57-11.82-.01-5.49-.82-10.38-2.97-14.01-7.4,1.33-1.4,2.68-2.78,3.78-4.38.43-.63.44-1.25-.08-1.84-.53-.6-1.21-.7-1.82-.28-1.56,1.08-3.09,2.21-4.14,3.84Z"/>
      <path class="cls-6" d="M146.05,112.82c-6.1-.09-6.94-4.81-5.38-8.1,1.63-3.43,6.56-5.45,9.86-2.79,3.18,2.55,3.12,7.16-.24,9.48-1.38.96-2.94,1.39-4.24,1.41ZM148.2,108.06c.74-.04,1.3-.39,1.31-1.21.01-.99-.79-1.23-1.54-1.32-.8-.09-1.15.54-1.18,1.22-.03.87.53,1.27,1.41,1.31Z"/>
      <path class="cls-6" d="M154.31,106.95c.13-3.1-1.21-5.18-3.59-6.63-.82-.5-.71-.85-.11-1.35,1.74-1.43,3.68-1.71,5.82-1.12,2.29.63,3.46,2.28,4.09,4.41.26.88.29,1.76.07,2.7-.34,1.43-1.09,2.33-2.54,2.65-.93.2-1.85.43-2.78.64-.75.17-1.24.03-.97-.91.05-.18,0-.4,0-.38ZM158.16,104.2c.57-.13,1.19-.37,1.17-1.15-.02-.9-.6-1.27-1.49-1.28-.86,0-1.1.55-1.1,1.21,0,.81.58,1.13,1.42,1.21Z"/>
      <path class="cls-2" d="M46.03,48.12c-2.99.06-5.95-.2-8.89-.72-.75-.13-1.47-.34-2.03-.92-.58-.61-.49-1.17.17-1.59.68-.44,1.45-.6,2.28-.6,2.95.02,5.91,0,8.86,0-.13,1.28-.26,2.55-.39,3.83Z"/>
      <path class="cls-2" d="M90.3,21.12c1.38-1.98,2.74-3.98,4.39-5.76.68-.73,1.48-1.11,2.31-.58.89.57.63,1.56.29,2.38-.94,2.3-2.55,4.19-3.94,6.21-.04.06-.13.08-.2.12-.95-.79-1.9-1.58-2.85-2.37Z"/>
      <path class="cls-2" d="M50.04,30.41c-2.33-.71-4.54-1.72-6.67-2.89-.68-.37-1.55-.94-1.3-1.79.3-1.04,1.26-1.09,2.26-.83,2.46.65,4.92,1.3,7.29,2.22-.53,1.1-1.05,2.2-1.58,3.3Z"/>
      <path class="cls-2" d="M38.28,73.06c2.11,0,4.23,0,6.34-.02.53,0,1.04.05,1.52.26.6.26,1.21.66,1.22,1.33.01.72-.55,1.21-1.24,1.45-1.55.54-3.18.62-4.8.79-.67.07-1.35.02-2.03.02-.46-1.24-.78-2.52-1.01-3.83Z"/>
      <path class="cls-2" d="M52.67,85.26c-2.13.04-4.25.15-6.39.01-1.59-.1-2.58-.59-2.66-1.49-.06-.76.97-1.45,2.46-1.64,1.88-.24,3.76-.48,5.63-.72.44,1.25.72,2.53.95,3.83Z"/>
      <path class="cls-3" d="M51.22,104.91c-2.54-.93-4.99-2.05-7.05-3.86-.46-.4-.72-.8-.35-1.44.35-.59.76-.71,1.38-.48,2.15.8,4.31,1.58,6.46,2.38.34.12.65.3,1.02.27-.29,1.13-.86,2.13-1.47,3.12Z"/>
      <path class="cls-2" d="M107.46,23.87c-1.49.82-2.81,1.94-4.41,2.58-.44.18-.86.39-1.36.37-.63-.03-1.36.14-1.66-.6-.32-.77-.08-1.5.52-2.06,1.07-1.01,2.26-1.85,3.49-2.66.52-.34,1.15-.58,1.43-1.21.77,1.13,1.41,2.34,1.99,3.58Z"/>
      <path class="cls-2" d="M115.43,42.38c-1.74.54-3.36,1.42-5.16,1.79-.48.1-.95.16-1.42.11-1.01-.1-1.53-1.18-.95-2.02.27-.38.61-.75,1-1,1.64-1.06,3.37-1.93,5.25-2.5.43,1.21.85,2.41,1.28,3.62Z"/>
      <path class="cls-2" d="M74.73,13.79c.27-1.84.53-3.67.81-5.51.04-.23.11-.47.22-.68.33-.68.65-1.54,1.58-1.32.83.2,1.24.96,1.25,1.83.01,2.23,0,4.45,0,6.68-1.28-.33-2.57-.67-3.85-1Z"/>
      <path class="cls-2" d="M47.41,66.58c-2.12.51-4.27.78-6.46.73-.77-.02-1.38-.25-1.61-.95-.28-.82.42-1.34.98-1.57,2.05-.82,4.07-1.78,6.35-1.82.25,1.2.49,2.41.74,3.61Z"/>
      <path class="cls-2" d="M93.7,6.65c-1.1,1.57-2.49,2.88-3.84,4.21-.38.37-.82.61-1.38.62-1.15.02-1.75-.85-1.28-1.89.71-1.56,1.75-2.92,2.74-4.3.16-.23.38-.41.39-.71,1.21.55,2.35,1.21,3.37,2.08Z"/>
      <path class="cls-2" d="M34.35,53.93c1.82,0,3.63.2,5.4.57.84.18,1.78.46,1.86,1.54.05.74-1.15,1.52-2.22,1.68-1.53.22-3.06.33-4.6.01-.15-1.27-.3-2.53-.44-3.8Z"/>
      <path class="cls-2" d="M36.32,31.58c1.53.57,3.06,1.13,4.58,1.72.97.38,2.04.77,1.91,2.1-.08.79-1.42,1.2-2.81.95-1.6-.3-3.19-.63-4.74-1.15.3-1.22.56-2.46,1.06-3.62Z"/>
      <path class="cls-2" d="M112.9,71.61c1.46-.25,2.66-1.2,4.1-1.54,1.01-.24,1.67.1,2.14.83.47.74.14,1.42-.5,1.99-1.46,1.3-3.25,1.92-5.04,2.56-.42-1.25-.51-2.56-.7-3.84Z"/>
      <path class="cls-2" d="M125.95,108.22c1.05-1.63,2.58-2.76,4.14-3.84.61-.42,1.29-.32,1.82.28.52.59.51,1.21.08,1.84-1.09,1.6-2.45,2.98-3.78,4.38-.82-.83-1.64-1.66-2.26-2.66Z"/>
      <path class="cls-2" d="M49.32,12.64c.83,1.21,2.15,2,2.91,3.28.2.34.42.67.47,1.08.17,1.38-.66,2.05-1.96,1.51-1.18-.49-2.16-1.32-3.11-2.15-.39-.34-.76-.69-1.14-1.03.84-1.01,1.84-1.84,2.83-2.68Z"/>
      <path class="cls-2" d="M101.71,34.79c1.06-.74,1.97-1.71,3.2-2.22.65-.27,1.31-.49,1.87.08.54.55.38,1.24.16,1.89-.37,1.06-1.28,1.69-2,2.46-.48.52-.96,1.04-1.45,1.56-.59-1.26-1.19-2.52-1.78-3.78Z"/>
      <path class="cls-3" d="M36.88,116.14c-.59-1.25-1.18-2.5-1.77-3.76-.15-.32-.3-.65-.38-.99-.15-.66.14-1.17.69-1.52.57-.37.99.03,1.37.36,1.31,1.14,2.05,2.69,3,4.1.15.23.32.44.48.67-1.06.6-2.21.92-3.39,1.14Z"/>
      <path class="cls-3" d="M132.97,101.07c-1.56.58-3.11,1.18-4.67,1.74-.68.24-1.4.45-1.85-.44-.46-.92-.02-1.53.73-1.99,1.41-.87,2.85-1.71,4.27-2.57.51,1.08,1.02,2.17,1.52,3.25Z"/>
      <path class="cls-2" d="M108.27,51.98c.85-.74,1.87-1.19,2.87-1.67.74-.35,1.62-.6,2.18.16.57.78.34,1.67-.3,2.39-1.03,1.17-2.32,2.03-3.56,2.94-.39-1.28-.79-2.56-1.18-3.83Z"/>
      <path class="cls-2" d="M60.93,16.56c-.98-1.26-1.38-2.73-1.52-4.29-.07-.7.31-1.16.88-1.42.58-.27,1.04.04,1.48.45.83.77,1.4,1.73,1.99,2.67.21.33.32.74.73.91-1.19.56-2.37,1.12-3.56,1.68Z"/>
      <path class="cls-3" d="M120.18,62.92c-1.5.09-2.95.59-4.47.56-.83-.02-1.42-.3-1.62-1.09-.2-.81.35-1.32,1-1.56,1.37-.51,2.7-1.17,4.21-1.21.3,1.1.59,2.21.89,3.31Z"/>
      <path class="cls-3" d="M68.45,2.47c.02,1.89.03,3.79.08,5.68.02.67-.21,1.05-.88,1.17-.72.12-1.13-.19-1.35-.85-.56-1.72-.7-3.48-.68-5.27.95-.24,1.89-.49,2.84-.73Z"/>
      <path class="cls-3" d="M39.92,100.71c.86,1.08,1.73,2.15,2.59,3.24.25.31.51.62.68.97.28.57.25,1.11-.18,1.66-.48.6-1.01.39-1.48.14-1.34-.7-2.47-1.68-3.47-2.81.62-1.06,1.25-2.13,1.87-3.19Z"/>
      <path class="cls-3" d="M41.69,89.08c1.43.24,2.7.88,3.96,1.54.64.33.69.95.53,1.56-.15.58-.62.73-1.2.76-1.13.07-2.2-.19-3.27-.48-.01-1.13-.02-2.25-.03-3.38Z"/>
      <path class="cls-3" d="M27.53,111.18c-.08,1.27-.13,2.54-.26,3.8-.07.69-.36,1.33-1.21,1.42-.81.08-1.14-.5-1.34-1.12-.34-1.02-.52-2.07-.54-3.15,1.12-.31,2.24-.63,3.35-.94Z"/>
      <path class="cls-3" d="M13.39,117.76c0-.71,0-1.43,0-2.14,0-.69.41-1.12.99-1.33.61-.22,1.08.12,1.42.6.61.87.75,1.9.94,2.9-1.12-.01-2.24-.02-3.36-.03Z"/>
      <path class="cls-3" d="M137.93,106.45c-.52.25-.77.77-1.12,1.18-.51.59-1.13,1.06-1.94.58-.76-.44-.73-1.13-.42-1.85.29-.68.37-1.46.99-1.97.82.71,1.57,1.49,2.5,2.06Z"/>
      <path class="cls-3" d="M8.57,113.48c-.03.86-.25,1.66-1.27,1.69-.9.03-1.33-.59-1.36-1.47.86-.3,1.75-.2,2.63-.22Z"/>
      <path class="cls-4" d="M148.2,108.06c-.88-.04-1.44-.44-1.41-1.31.02-.68.37-1.3,1.18-1.22.75.08,1.56.33,1.54,1.32-.01.82-.57,1.17-1.31,1.21Z"/>
      <path class="cls-4" d="M158.16,104.2c-.84-.08-1.42-.4-1.42-1.21,0-.66.24-1.22,1.1-1.21.89,0,1.47.38,1.49,1.28.02.78-.6,1.02-1.17,1.15Z"/>
    </g>
  </g>
</svg>