<?xml version="1.0" encoding="UTF-8"?>
<svg id="Calque_2" data-name="Calque 2" xmlns="http://www.w3.org/2000/svg" viewBox="0 0 185.91 197.89">
  <defs>
    <style>
      .cls-1 {
        fill: #d39589;
      }

      .cls-1, .cls-2, .cls-3, .cls-4, .cls-5, .cls-6 {
        stroke-width: 0px;
      }

      .cls-2 {
        fill: #d17275;
      }

      .cls-3 {
        fill: #1a1415;
      }

      .cls-4 {
        fill: #1a191c;
      }

      .cls-5 {
        fill: #fff;
      }

      .cls-6 {
        fill: #d17577;
      }
    </style>
  </defs>
  <g id="Calque_1-2" data-name="Calque 1">
    <g>
      <path class="cls-3" d="M104.39,125.92c.22,5.47.06,10.94-.79,16.35-.92,5.89-2.93,11.43-5.44,16.81-1.39,2.98-2.91,5.91-3.34,9.24-.16,1.19-.28,2.37-.15,3.57.22,1.93,1.24,3.26,3.03,3.71,1.76.44,3.3-.02,4.52-1.42,1.3-1.49,1.68-3.4,2.29-5.17,1.66-4.84,3.71-9.52,5.42-14.35,1.6-4.5,4.3-8.35,8.03-11.39,2.36-1.92,5.13-2.78,8.15-2.23,3.79.7,5.61,3.5,6.69,6.88.9,2.85.48,5.76.16,8.66-.74,6.62-3.37,12.71-5.29,19-.67,2.19-1.2,4.37-.65,6.67.45,1.9,1.9,2.85,3.81,2.48,3.37-.65,5.58-2.78,7.03-5.73,1.59-3.25,2.23-6.77,2.65-10.33.37-3.12.4-6.3,1.21-9.35,1.51-5.63,4.87-9.58,10.69-11.05,2.88-.73,5.16.22,6.88,2.62,1.58,2.21,2.47,4.69,3.01,7.33.31,1.51.63,3.05,1.87,4.17,1.43,1.29,2.96,1.48,4.44.38,3.54-2.65,5.47-6.26,5.89-10.62.47-4.91-.59-9.55-2.85-13.92-3.62-7.01-6.41-14.41-9.85-21.5-2.76-5.69-5.76-11.27-7.73-17.3-1.92-5.87-2.21-11.84-.85-17.86.39-1.7,1.16-3.3,2.2-4.73,1.72-2.38,4.25-3.37,7.01-3.91.61-.12,1.2.04,1.76.23,1.09.36,1.47,1.16,1.09,2.26-.39,1.12-1.04,2.1-1.91,2.85-3.16,2.7-3.36,6.23-2.9,9.95.73,5.86,3.26,11.16,5.26,16.63,3.51,9.62,8.17,18.66,13.24,27.53,2.8,4.9,5.25,9.97,6.45,15.54,1,4.66.52,9.12-1.48,13.49-1.1,2.4-2.18,4.77-3.91,6.78-3.32,3.85-7.61,6.01-12.57,6.68-5.38.72-9.55-2.14-11.13-7.31-.56-1.82-.9-3.71-1.92-5.36-.44-.71-.87-1.61-1.82-1.54-.86.06-1.22.96-1.57,1.66-1.09,2.17-1.28,4.58-1.66,6.92-1.2,7.28-3.15,14.28-7.37,20.46-1.84,2.7-4.16,5.02-6.92,6.7-3.08,1.88-6.56,1.83-9.93.69-5.13-1.73-7.96-5.57-9.33-10.64-1.39-5.13-.41-10.1,1.05-15.03,1.04-3.52,2.68-6.78,4.49-9.96.92-1.63,1.73-3.3,2.21-5.11.12-.44.17-.86.16-1.3-.03-1.07-.49-1.44-1.52-1.18-1.52.4-2.71,1.32-3.69,2.51-2.07,2.52-2.97,5.58-3.91,8.61-1.12,3.63-1.75,7.4-3.13,10.97-1.63,4.24-4.38,7.65-7.73,10.61-1.65,1.46-3.59,2.31-5.86,2.33-2.88.02-5.77.06-8.42-1.29-4.14-2.12-5.7-5.85-6.28-10.21-.92-7,1.06-13.45,3.49-19.86,2.43-6.41,4.66-12.9,6.2-19.6.83-3.62.81-7.31.56-10.96-.24-3.64-.14-7.26.1-10.89.29-4.25.98-8.45,2.36-12.5.65-1.92,1.59-3.72,2.49-5.53.2-.41.36-.68-.06-1.11-1.07-1.08-1.12-2.36-.59-3.75,1.01-2.66,2.87-4.76,4.47-7.03,2.66-3.78,6.06-6.89,9.35-10.08,1.7-1.64,3.29-1.61,5.07-.06.44.38.61.38,1.01-.04,5.66-5.93,12.48-10.03,20.15-12.79.53-.19.8-.38.82-1.04.15-4.57,3.8-7.33,7.43-7.96,2.12-.36,5.7,1.58,6.91,3.75.35.62.63.82,1.38.64,2.44-.58,4.45-1.89,6.35-3.43,1.33-1.08,2.69-2.11,4.51-1.1,1.44.79,2.35,3.11,2.05,5.04-.22,1.41-.78,2.66-1.62,3.8-1.67,2.24-3.75,4.02-6.2,5.35-5.55,3.03-11.4,5.38-17.24,7.76-3.93,1.6-7.89,3.13-11.72,4.96-1.63.78-3.15,1.69-4.49,2.9-.57.52-.95,1-.32,1.85.9,1.21.31,2.46-.36,3.56-1.73,2.83-3.88,5.35-5.84,8.01-1.63,2.22-3.42,4.32-5.28,6.34-1.24,1.34-2.67,2.33-4.64,1.69-.66-.21-.64.37-.8.63-3.24,5.1-4.45,10.73-4.35,16.7.02,1.08,0,2.16,0,3.23ZM122.48,73.58c-.94.72-1.88,1.46-2.64,2.39-.37.36-.73.72-1.11,1.07-.44.4-.44.76-.01,1.2,1.67,1.7,3.33,3.43,4.98,5.15.22.22.38.37.66.05,1.84-2.15,4.35-3.27,6.81-4.48,1.11-.5,2.22-1,3.32-1.5,8.59-3.46,17.35-6.56,25.4-11.25,1.82-1.06,3.26-2.55,4.53-4.22,1.04-1.37,1.49-2.9,1.2-4.61-.36-2.13-1.75-2.7-3.47-1.45-.26.19-.49.41-.74.61-1.77,1.46-3.68,2.75-5.9,3.29-1.33.32-1.77.65-1.83,2.16-.12,3.65-2.72,6.04-6.85,6.82-3.37.63-6.22-.47-7.38-3.17-.58-1.36-1.2-1.1-2.1-.64-1.16.37-2.3.81-3.36,1.42-4.18,1.84-8.02,4.23-11.52,7.15ZM95.24,176.13c-.9-.78-1.47-1.77-1.9-2.87-.26-1.2-.41-2.4-.24-3.63.14-1.01.26-2.02.39-3.04.35-1.11.71-2.21,1.06-3.32.8-1.73,1.62-3.44,2.39-5.18,1.61-3.62,3.21-7.24,4.01-11.16.49-1.15.72-2.37.91-3.59.41-1.39.47-2.82.61-4.25.47-4.57.66-9.14.37-13.73-.01-1.28-.02-2.56-.03-3.84.07-4.17.88-8.19,2.35-12.09.58-1.16,1.15-2.32,1.73-3.48.14-.6,1.42-.97.32-1.82-2.2-1.69-4.41-3.39-6.58-5.12-.61-.48-.85-.37-1.2.3-1.62,3.16-2.85,6.44-3.44,9.95-.26,1.36-.63,2.7-.58,4.1-.36,1.52-.34,3.08-.47,4.62-.47,5.25.43,10.5.04,15.75-.15,1.26-.29,2.52-.44,3.78-1.08,4.82-2.56,9.52-4.12,14.2-.41,1.2-.82,2.4-1.23,3.61-.8,2.11-1.63,4.21-2.38,6.34-1.03,2.92-1.97,5.86-2.15,8.99-.08,1.2-.2,2.4-.06,3.61-.11,1.44.05,2.86.27,4.28.81,5.2,4.41,8.56,9.34,8.7,1.11.34,2.24.18,3.36.16,1.49.1,2.87-.31,4.05-1.16,2.92-2.09,5.27-4.72,6.99-7.88.77-1.22,1.29-2.56,1.75-3.92,1.06-2.78,1.71-5.67,2.29-8.57.04-.05.05-.11.03-.17.67-1.93,1.34-3.85,2.01-5.78.45-.95.91-1.9,1.36-2.86,1.13-1.58,2.39-3.02,4.07-4.06,1.32-.44,2.6-1.29,4.04-.36.94.85,1.15,1.91,1.02,3.14-.09.84-.46,1.6-.55,2.42-.6,1.26-1.2,2.52-1.8,3.78-1.49,2.31-2.68,4.79-3.66,7.34-.91,2.36-1.77,4.76-1.97,7.32-.31,1.1-.46,2.22-.44,3.37-.36,3.2.2,6.27,1.6,9.12,1.29,2.64,3.16,4.83,5.98,6.02,1.19.65,2.5.9,3.83,1.05,2.78.34,5.31-.23,7.43-2.14,1.39-1.25,2.76-2.54,4.08-3.86,1.02-1.01,1.94-2.11,2.48-3.47.58-1.19,1.16-2.37,1.74-3.56.35-.93.7-1.85,1.04-2.78,1.5-4,2.47-8.12,2.93-12.37.23-1.2.47-2.4.7-3.6.61-2.01,1.27-3.99,3.15-5.25,1.16-.33,2.18-.03,3.09.73.44.97.91,1.92,1.33,2.9.81,1.88,1.29,3.89,2.27,5.7.49,1.27,1.27,2.33,2.38,3.13,2.25,1.95,4.95,1.82,7.6,1.47,2.78-.37,5.25-1.67,7.63-3.13,1.05-.7,1.95-1.54,2.6-2.63.51-.66,1.09-1.27,1.52-1.97,2.82-4.65,4.78-9.55,4.09-15.16-.21-1.27-.33-2.57-.84-3.78-.05-.27-.08-.55-.16-.81-1.56-5.06-3.95-9.74-6.64-14.27-.59-1.05-1.18-2.1-1.77-3.16-1.67-3.21-3.33-6.42-5-9.62-.56-1.19-1.12-2.37-1.67-3.56l-4.04-10.02c-.47-1.2-.95-2.4-1.42-3.6-1.31-3.5-2.57-7.02-3.47-10.66-.13-1.08-.26-2.17-.39-3.25-.38-3.07-.04-5.98,1.81-8.58.48-.53.96-1.06,1.44-1.6.51-.39.91-.89,1.24-1.44.22-.37.65-.77.37-1.17-.25-.35-.81-.25-1.23-.19-3.21.48-6.02,2.18-7.15,5.8-.51.98-.92,1.99-.98,3.11-.87,4.86-.48,9.64.79,14.38.34,1.11.68,2.21,1.22,3.24,1.16,3.55,2.83,6.86,4.52,10.17.51,1.05,1.02,2.11,1.53,3.16,1.67,3.68,3.34,7.36,5.01,11.05.51,1.11,1.03,2.22,1.54,3.33.05.19.09.38.17.57,1.37,3.53,3.25,6.81,4.94,10.18.39,1.12.78,2.25,1.16,3.37.02.28.02.56.08.83.7,3.12,1.18,6.25.68,9.45-.27,1.19-.54,2.39-.81,3.58-1.57,3.19-3.53,6.05-6.68,7.91-1.01.41-2.05.42-3.1.27-1.69-.66-2.92-1.82-3.75-3.43-.51-1.31-.81-2.68-1.14-4.05-.42-2.19-1.36-4.13-2.65-5.93-1.05-1.46-2.47-2.12-4.23-1.92-2.45.27-4.56,1.3-6.3,3.05-.98.79-1.82,1.69-2.35,2.85-.95,1.21-1.52,2.61-1.82,4.09-.81,3.97-1,8.02-1.49,12.03-.3,1.28-.6,2.56-.9,3.84-1.03,3.55-2.49,6.84-5.59,9.12-.96.48-1.91.95-2.87,1.43-2.28.48-4.45.51-6.11-1.51-.7-1.07-.73-2.34-1.03-3.53.01-1.56.19-3.09.67-4.59.78-2.46,1.57-4.92,2.35-7.37.38-1.18.76-2.36,1.14-3.55,1.23-3.34,1.87-6.81,2.24-10.32.22-2.04.58-4.11-.16-6.13-.15-1.32-.65-2.48-1.49-3.5-1.73-2.6-3.92-3.53-6.9-2.94-2.79.55-4.88,2.16-6.58,4.35-.85.77-1.54,1.67-2.12,2.66-.23.32-.47.63-.68.96-2.36,3.59-3.31,7.76-4.86,11.68-.61,1.16-1.07,2.38-1.48,3.62-.29.77-.62,1.54-.88,2.33-.87,2.63-1.52,5.35-3.39,7.53-.71.61-1.46,1.17-2.36,1.48-1.95.35-3.78.06-5.45-1.03ZM124.5,86.76c.01-.24-.34-.62-.7-1-2.6-2.75-5.18-5.52-7.8-8.25-1.32-1.38-2.16-1.44-3.58-.13-3.54,3.28-6.92,6.72-9.71,10.69-1.23,1.76-2.61,3.42-3.46,5.43-.47,1.11-.42,2.09.58,2.9,1.24,1.01,2.45,2.04,3.71,3.02,1.66,1.3,3.31,2.63,5.05,3.83,1.77,1.22,2.76,1.1,4.23-.37.76-.76,1.44-1.6,2.15-2.41,3.08-3.56,5.82-7.39,8.58-11.2.46-.64.91-1.32.95-2.5ZM152.25,61.21c.06-1.58-.58-3-2.09-4.08-3.11-2.24-5.78-1.54-8.31.96-1.8,1.78-2.24,4.81-1.09,6.97,1.06,2,3.09,2.8,5.88,2.31,3.52-.62,5.64-2.86,5.61-6.16Z"/>
      <path class="cls-4" d="M40.04,48.79c-1.13,1.54-2.23,2.95-3.23,4.43-1.9,2.83-4.56,4.49-7.8,5.31-3.01.76-6.02,1.67-9.16,1.39-5.56-.5-10.6-2.33-14.72-6.27-1.04-1-1.86-2.18-2.5-3.47-.71-1.42-1.37-2.87-2.35-4.14-.33-.43-.45-.88.05-1.25.52-.38.89-.07,1.2.35.9,1.22,1.61,2.56,2.24,3.92,1.31,2.83,3.44,4.86,6.14,6.3,3.11,1.66,6.41,2.79,9.94,3.08,2.5.2,4.88-.55,7.3-1,3.97-.73,7.07-2.69,9.2-6.18.81-1.32,1.81-2.52,2.72-3.78.94-1.3,1.4-1.27,2.18.17,2,3.69,5.26,6.03,9.12,6.99,8.15,2.03,15.05-3.17,16.57-10.57.84-4.07.44-8.09-.14-12.12-.18-1.26-.38-2.52-.55-3.78-.11-.86.27-1.5,1.15-1.46,3.67.16,5.99-1.96,7.73-4.76,1.86-2.99,2.04-6.26.94-9.64-.62-1.89-1.74-3.46-2.81-5.09-1.11-1.7-.77-2.23,1.26-2.41,3.68-.32,6.91-1.74,9.53-4.38.41-.41.8-.61,1.23-.27.55.44.24.9-.12,1.34-1.76,2.1-4.23,3.03-6.65,4.05-.96.4-1.95.69-3,.7-.86,0-.96.26-.45.95,1.87,2.51,3.07,5.29,3.15,8.46.13,5.26-2.16,9.17-6.71,11.79-.85.49-1.79.69-2.74.73-.79.03-.99.28-.85,1.08.42,2.35.64,4.73.96,7.1.4,3.03,0,5.97-.6,8.9-1.01,4.92-6.67,10.61-12.58,11.23-6.06.64-10.34-2.02-14.35-5.84-.5-.48-.81-1.15-1.29-1.86Z"/>
      <path class="cls-4" d="M92.72,35.87c.58.37,1.26.26,1.86.48,1.8.67,2.88,2.02,3.19,3.86.34,2.04-.57,3.66-2.17,4.87-1.9,1.44-4.89,1.7-7.95.72-.7,2.63-2.24,4.51-4.98,5.15-4.44,1.03-8.43-3.21-7.15-7.58.68-2.34,2.1-4.09,4.34-5.1.48-.22.63-.38.53-.94-.74-3.98,3.78-8.53,7.33-8.97,3.25-.4,6.33,3.4,5.33,6.51-.11.34-.21.68-.32,1.01ZM90.71,44.81c1.55.11,2.54-.11,3.47-.62,1.44-.8,2.34-2.4,2.09-3.71-.33-1.71-1.37-2.61-3.32-2.84-2.48-.3-2.52-.33-1.55-2.65.52-1.24.67-2.4-.33-3.43-.99-1.03-2.14-1.82-3.68-1.56-3.18.55-6.04,4.67-5.34,7.78.22.98-.02,1.35-.94,1.64-1.94.61-3.21,1.96-3.96,3.85-.72,1.82-.44,3.46.91,4.84,1.38,1.41,3.14,1.8,4.95,1.13,1.73-.65,2.85-1.98,3.07-3.92.05-.43.1-.88.23-1.29.18-.57.7-.84,1.08-.38,1.04,1.27,2.5.97,3.33,1.15Z"/>
      <path class="cls-4" d="M123.86,56.11c-1.12-.07-2.23-.24-3.17-.88-.61-.41-1-.3-1.56.13-3.14,2.41-6.28,2.07-8.39-.85-2.26-3.12-1.71-7.24,1.25-9.33.53-.38,1.12-.71,1.74-.72.89-.02.93-.4.87-1.15-.22-2.51.88-4.27,3.12-5.21,2.09-.87,4.51-.4,5.88,1.31,1.24,1.55,1.67,3.42,1.35,5.38-.14.84.07,1.15.88,1.23,1.46.14,2.62.92,3.62,1.91,2.15,2.16,1.74,5.16-.92,6.91-1.41.94-3.02,1.16-4.67,1.26ZM124.49,54.49c1,0,2.12-.23,3.12-.88,2.07-1.35,2.22-3.34.36-4.93-.83-.72-1.77-1.15-2.9-1.24-1.97-.16-2.06-.36-1.68-2.29.27-1.4.09-2.79-.51-4.08-.7-1.53-2.7-2.23-4.42-1.62-1.81.65-2.79,2.39-2.34,4.15.5,1.94.49,1.93-1.53,2.28-.58.1-1.19.13-1.69.53-1.52,1.21-2.24,2.77-1.94,4.72.29,1.9,1.22,3.33,3.05,4.07,1.96.79,3.39-.24,4.7-1.45.72-.67,1.35-.69,2.11-.16,1.05.72,2.21,1.06,3.66.92Z"/>
      <path class="cls-1" d="M117.22,176.65c.2-2.56,1.06-4.96,1.97-7.32.98-2.55,2.17-5.03,3.66-7.34.58.05,1.07-.26,1.6-.4.95-.25,1.93-.43,2.76-1.03.55-.4.69-.97.53-1.58-.17-.65-.69-.8-1.3-.77-.59.02-1.19,0-1.79,0,.08-.83.46-1.58.55-2.42.13-1.23-.08-2.29-1.02-3.14,0-.92,0-1.83,0-2.75,0-.6-.39-.97-.86-1.19-.52-.25-1.01-.09-1.39.36-.97,1.14-1.65,2.41-1.79,3.93-1.67,1.03-2.93,2.48-4.07,4.06-.29-.65-.9-.9-1.49-1.12-1.04-.4-2.13.45-1.87,1.54.25,1.08.76,2.1,1.99,2.44-.67,1.93-1.34,3.85-2.01,5.78.14-1.17-.49-1.86-1.45-2.33-.81-.4-1.63-.77-2.45-1.15,1.56-3.92,2.51-8.09,4.86-11.68.22-.33.45-.64.68-.96.38.34.75.7,1.16,1,.56.42,1.17.68,1.84.21.73-.52.82-1.31.5-2-.32-.68-.68-1.42-1.38-1.86,1.7-2.19,3.78-3.8,6.58-4.35,2.98-.59,5.18.33,6.9,2.94-1.37,1.21-2.74,2.41-3.7,4.01-.54.91-.43,1.68.35,2.33.7.59,1.43.48,2.19.02,1.15-.71,1.83-1.85,2.65-2.86.74,2.02.38,4.09.16,6.13-.37,3.52-1.01,6.99-2.24,10.32-1.83-.09-3.66-.17-5.48.04-.85.1-1.55.53-1.62,1.6-.07,1.07.37,1.64,1.36,1.91,1.54.41,3.06.25,4.6,0-.78,2.46-1.57,4.92-2.35,7.37-.47,1.49-.66,3.03-.67,4.59-1.99.8-3.61,2.13-5.15,3.58-.69.65-.99,1.48-.35,2.35.67.91,1.61,1.04,2.63.35,1.32-.89,2.6-1.83,3.89-2.74,1.66,2.03,3.83,1.99,6.11,1.51-.04.7.2,1.33.5,1.93.23.46.59.74,1.14.69.56-.04.82-.38,1.01-.87.39-1.05.15-2.13.22-3.19,3.1-2.28,4.56-5.57,5.59-9.12,1.24.03,2.45-.17,3.59-.65.63-.27,1.21-.68,1.12-1.5-.08-.72-.59-1.08-1.25-1.26-.84-.22-1.68-.45-2.56-.43.49-4.01.68-8.06,1.49-12.03.3-1.47.87-2.88,1.82-4.09.79,1.05,1.92,1.63,3.08,2.13.64.28,1.27,0,1.71-.52.48-.55.41-1.25.02-1.77-.74-.96-1.52-1.91-2.46-2.7,1.74-1.76,3.85-2.78,6.3-3.05,1.76-.19,3.18.47,4.23,1.92,1.29,1.8,2.24,3.74,2.65,5.93-1.26.3-1.84,1.45-2.7,2.23-1.16,1.06-1.25,1.97-.43,2.85.87.93,1.83.87,3.01-.19.38-.34.68-.8,1.25-.85.82,1.61,2.06,2.76,3.75,3.43.14,1.05.15,2.13.54,3.12.2.51.6,1.02,1.25.9.62-.12,1-.57,1.09-1.24.14-1.02.32-2.02.23-3.06,3.15-1.86,5.11-4.72,6.68-7.91,1.09.17,2.18.34,3.27.49.85.12,1.7-.02,1.96-.93.26-.89-.38-1.57-1.11-1.89-1.08-.48-2.1-1.13-3.32-1.25.5-3.2.02-6.34-.68-9.45-.06-.27-.05-.55-.08-.83,1.39-.43,2.51-1.31,3.57-2.27.56-.5,1.05-1.05.55-1.84-.47-.75-1.19-.87-1.98-.57-1.11.42-2.2.87-3.3,1.31-1.69-3.37-3.57-6.65-4.94-10.18-.07-.18-.11-.38-.17-.57.79-.76,1.6-1.51,2.38-2.28.49-.48.97-.98.45-1.73-.54-.78-1.25-.69-2-.38-.8.33-1.51.87-2.37,1.06-1.67-3.68-3.34-7.36-5.01-11.05.79-.37,1.49-.86,2.13-1.46.63-.59.86-1.25.39-1.99-.51-.8-1.26-.82-2.08-.48-.65.27-1.32.51-1.98.77-1.69-3.31-3.37-6.62-4.52-10.17.75-.73,1.81-.95,2.61-1.6.43-.35.77-.78.6-1.31-.15-.5-.64-.78-1.19-.81-.47-.03-.93-.03-1.41.1-.6.17-1.23.25-1.84.37-1.27-4.74-1.66-9.53-.79-14.38.95.03,1.88-.03,2.82-.23.7-.15,1.14-.51,1.26-1.21.13-.72-.4-1.01-.93-1.17-.71-.22-1.45-.34-2.17-.5,1.13-3.62,3.94-5.33,7.15-5.8.42-.06.98-.16,1.23.19.28.4-.15.8-.37,1.17-.33.55-.73,1.04-1.24,1.44-.67-.83-1.36-.68-1.91.07-.45.62-.44,1.25.47,1.53-1.85,2.6-2.18,5.52-1.81,8.58-.43,0-.87-.03-1.3.03-.89.12-1.39.77-1.63,1.53-.21.68.1,1.39.7,1.74.83.49,1.76.57,2.62-.05.9,3.64,2.15,7.16,3.47,10.66-.81.4-1.66.73-2.42,1.2-1.04.65-1.46,2.02-.97,2.86.48.83,1.65,1,2.87.43.64-.3,1.29-.59,1.94-.89,1.35,3.34,2.69,6.68,4.04,10.02-1.1.44-1.97,1.19-2.75,2.06-.72.8-.63,1.61.13,2.32.83.78,1.76.58,2.65.11.56-.3,1-.8,1.65-.93,1.67,3.21,3.33,6.42,5,9.62-1.21.34-2.24,1-3.18,1.81-.8.68-1.03,1.49-.3,2.4.77.96,1.56,1.13,2.6.51.88-.52,1.76-1.04,2.64-1.57,2.69,4.54,5.09,9.21,6.64,14.27.08.26.11.54.16.81-1.24,0-2.48,0-3.71,0-1.17,0-1.97.6-2.07,1.52-.13,1.06.44,1.82,1.63,2.11,1.65.4,3.33.18,5,.15.69,5.61-1.27,10.5-4.09,15.16-.43.7-1.01,1.32-1.52,1.97-.51-.23-.68-.77-.97-1.18-.65-.9-1.24-1.85-1.89-2.75-.58-.8-1.41-.93-2.22-.5-.86.46-1.3,1.34-.89,2.23.83,1.8,1.76,3.56,3.37,4.82-2.37,1.46-4.85,2.76-7.63,3.13-2.65.35-5.35.49-7.59-1.47.02-.48.35-.81.61-1.13.52-.65,1.02-1.3,1.48-2,.41-.63.56-1.28.01-1.84-.53-.54-1.26-.48-1.87-.13-.54.32-.99.78-1.48,1.18-.36.3-.6.76-1.15.78-.98-1.81-1.46-3.82-2.27-5.7-.42-.98-.88-1.93-1.33-2.9.04-.23.08-.47.12-.7.2-1.13.45-2.25.6-3.38.11-.81-.12-1.54-.99-1.82-.87-.28-1.29.47-1.54,1-.61,1.32-1.18,2.69-1.28,4.18-1.87,1.25-2.54,3.23-3.15,5.25-.8.02-1.53-.34-2.31-.46-.86-.14-1.63.06-1.93.95-.28.83.12,1.49.86,1.87.88.44,1.71,1,2.68,1.24-.47,4.24-1.44,8.37-2.93,12.37-.35.93-.7,1.85-1.04,2.78-.82-.53-1.44-1.33-2.39-1.72-.59-.24-1.08-.27-1.52.16-.42.4-.6.91-.37,1.51.55,1.42,1.3,2.69,2.55,3.61-.54,1.36-1.46,2.46-2.48,3.47-1.33,1.32-2.69,2.61-4.08,3.86-2.12,1.9-4.65,2.47-7.43,2.13.13-.74.23-1.48.39-2.21.33-1.46.1-2.46-.79-2.66-1.26-.28-1.65.77-2.19,1.59-.47.72-.48,1.69-1.25,2.22-2.82-1.18-4.69-3.37-5.98-6.02-1.4-2.85-1.96-5.93-1.6-9.12,1.7-.04,3.37-.28,5.01-.74.68-.19,1.26-.66,1.12-1.46-.14-.81-.78-1.1-1.58-1.17-1.37-.12-2.74-.35-4.11,0Z"/>
      <path class="cls-1" d="M108.62,178.36c-1.72,3.17-4.07,5.79-6.99,7.88-1.19.85-2.56,1.26-4.05,1.16.04-.66.27-1.3.26-1.98-.01-.73-.3-1.28-.93-1.49-.73-.25-1.32.19-1.67.81-.45.78-.79,1.62-1.01,2.5-4.93-.15-8.54-3.5-9.34-8.7-.22-1.42-.38-2.84-.27-4.28,1.73-.58,3.42-1.25,4.8-2.5.34-.31.64-.67.43-1.14-.22-.47-.57-.89-1.15-.9-.39,0-.8.02-1.17.12-.95.25-1.89.54-2.84.82.17-3.12,1.12-6.07,2.15-8.99.75-2.13,1.58-4.23,2.38-6.34,1.9.54,3.84.5,5.79.48.7,0,1.13-.4,1.34-.99.22-.61-.11-1.09-.6-1.43-.36-.25-.74-.49-1.15-.61-1.37-.38-2.76-.71-4.14-1.06,1.56-4.68,3.04-9.38,4.12-14.2,1.78.01,3.54-.12,5.3-.4.77-.13,1.54-.36,1.54-1.33,0-.93-.72-1.25-1.48-1.45-1.61-.44-3.25-.67-4.93-.59.38-5.25-.52-10.5-.04-15.75.14-1.54.12-3.1.47-4.62.59.22,1.2.41,1.78.67,1.17.52,2.41.76,3.65,1.01.94.19,1.72-.2,2.09-1.01.4-.87-.44-1.34-.95-1.85-.22-.22-.53-.35-.82-.48-1.72-.82-3.45-1.63-5.17-2.44.6-3.51,1.82-6.79,3.44-9.95.34-.67.59-.78,1.2-.3,2.17,1.73,4.37,3.43,6.58,5.12,1.1.84-.18,1.22-.32,1.81-.92-.38-1.83-.78-2.76-1.12-.53-.19-1.03-.09-1.38.4-.32.44-.46.88-.17,1.44.32.62.71,1.18,1.28,1.55.51.34.93.75,1.3,1.22-1.47,3.89-2.28,7.92-2.35,12.09-.8,0-1.6.04-2.39,0-.93-.05-1.84.06-2.71.29-.74.2-1.56.44-1.58,1.49-.01,1.04.57,1.44,1.51,1.65,1.72.38,3.46.45,5.21.41.29,4.59.1,9.16-.37,13.73-.15,1.42-.2,2.86-.61,4.25-1.65.16-3.31.3-4.96.49-.74.09-1.43.36-1.47,1.27-.04.87.61,1.16,1.29,1.32,1.39.33,2.79.6,4.24.51-.79,3.91-2.4,7.54-4.01,11.16-.77,1.74-1.59,3.45-2.39,5.18-1.36-.15-2.66.19-3.97.45-.73.15-1.16.62-1.17,1.42,0,.78.41,1.06,1.13,1.26.98.27,1.96.13,2.94.19-.13,1.01-.25,2.03-.39,3.04-.17,1.23-.02,2.43.24,3.63-1.39.94-2.64,2.03-3.61,3.42-.28.4-.43.77-.12,1.2.32.43.69.8,1.29.68.51-.1.98-.26,1.42-.57.95-.65,1.94-1.24,2.91-1.86,1.68,1.09,3.51,1.37,5.45,1.03.19.6.32,1.24.6,1.8.25.5.68.89,1.34.8.65-.08.91-.61.88-1.1-.06-1-.02-2.04-.47-2.98,1.87-2.18,2.52-4.9,3.39-7.53.26-.79.58-1.55.88-2.33,1.78.14,3.56,1.04,5.35.03-.58,2.91-1.24,5.79-2.3,8.57-.3-.82-.89-1.41-1.54-1.94-.37-.3-.8-.51-1.31-.21-.48.27-.84.58-.84,1.19,0,.56.01,1.1.29,1.62.57,1.08,1.1,2.18,1.65,3.27Z"/>
      <path class="cls-1" d="M124.5,86.76c-.05,1.18-.49,1.85-.95,2.5-2.76,3.81-5.5,7.64-8.58,11.2-.7.81-1.39,1.65-2.15,2.41-1.47,1.47-2.46,1.6-4.23.37-1.74-1.2-3.39-2.53-5.05-3.83-1.26-.98-2.47-2.01-3.71-3.02-1-.81-1.04-1.8-.58-2.9.84-2.01,2.23-3.67,3.46-5.43,2.79-3.98,6.16-7.41,9.71-10.69,1.42-1.31,2.26-1.24,3.58.13,2.62,2.73,5.2,5.5,7.8,8.25.36.38.72.76.7,1Z"/>
      <path class="cls-1" d="M137.36,65.01c.9-.46,1.52-.71,2.1.64,1.16,2.71,4.01,3.81,7.38,3.17,4.13-.78,6.72-3.17,6.85-6.82.05-1.51.5-1.84,1.83-2.16,2.23-.54,4.13-1.84,5.9-3.29.25-.2.48-.42.74-.61,1.72-1.25,3.11-.67,3.47,1.45.29,1.71-.17,3.24-1.2,4.61-1.26,1.67-2.7,3.15-4.53,4.22-8.05,4.69-16.81,7.78-25.4,11.25-.61-.9-1.46-1.57-2.22-2.33-.53-.53-1.12-1.16-1.95-.57-.91.64-.73,1.47-.32,2.34.34.72,1,1.25,1.16,2.06-2.46,1.21-4.97,2.33-6.81,4.48-.28.32-.44.17-.66-.05-1.65-1.72-3.31-3.45-4.98-5.15-.43-.44-.43-.79.01-1.2.38-.35.74-.71,1.11-1.07.93,1.53,2.04,2.91,3.55,3.91.58.39,1.23.73,1.84.16.68-.63.44-1.39.03-2.06-.91-1.48-1.85-2.94-2.78-4.4,3.5-2.92,7.34-5.32,11.52-7.15.37,1.4,1.17,2.58,1.98,3.75.13.19.34.33.49.51.52.64,1.18,1.04,1.97.64.91-.47.69-1.39.5-2.12-.36-1.45-.95-2.84-1.58-4.2Z"/>
      <path class="cls-5" d="M152.25,61.21c.03,3.3-2.09,5.54-5.61,6.16-2.78.49-4.81-.31-5.88-2.31-1.15-2.16-.71-5.19,1.09-6.97,2.53-2.5,5.2-3.2,8.31-.96,1.51,1.08,2.15,2.51,2.09,4.08ZM147.64,60.01c-.01-.99-.71-1.8-1.54-1.8-.95,0-1.87.99-1.84,1.98.03.94.76,1.7,1.64,1.72.95.01,1.75-.86,1.73-1.9Z"/>
      <path class="cls-2" d="M96,109.28c1.72.81,3.45,1.62,5.17,2.44.29.14.6.27.82.48.51.51,1.35.98.95,1.85-.37.81-1.14,1.2-2.09,1.01-1.24-.25-2.48-.49-3.65-1.01-.58-.26-1.18-.45-1.78-.67-.05-1.4.32-2.74.58-4.1Z"/>
      <path class="cls-2" d="M126.21,184.49c-1.3.92-2.58,1.86-3.89,2.74-1.02.69-1.96.56-2.63-.35-.64-.87-.34-1.7.35-2.35,1.53-1.44,3.16-2.78,5.15-3.58.3,1.19.33,2.46,1.03,3.53Z"/>
      <path class="cls-2" d="M176.04,169.99c-1.62-1.26-2.55-3.03-3.37-4.82-.41-.89.02-1.77.89-2.23.81-.43,1.64-.3,2.22.5.65.9,1.24,1.85,1.89,2.75.3.41.46.94.97,1.18-.65,1.09-1.55,1.93-2.6,2.63Z"/>
      <path class="cls-2" d="M128.2,169c-1.53.25-3.06.42-4.6,0-.99-.27-1.44-.85-1.36-1.91.07-1.07.77-1.5,1.62-1.6,1.82-.21,3.65-.13,5.48-.04-.38,1.18-.76,2.36-1.14,3.55Z"/>
      <path class="cls-2" d="M102.85,125.37c-1.75.04-3.49-.03-5.21-.41-.94-.21-1.52-.61-1.51-1.65.01-1.06.83-1.29,1.58-1.49.88-.23,1.79-.34,2.71-.29.8.04,1.59,0,2.39,0,.01,1.28.02,2.56.03,3.84Z"/>
      <path class="cls-2" d="M184.25,150.23c-1.67.03-3.34.26-5-.15-1.18-.29-1.75-1.04-1.63-2.11.11-.92.91-1.51,2.07-1.52,1.24,0,2.48,0,3.71,0,.51,1.21.62,2.51.84,3.78Z"/>
      <path class="cls-2" d="M131.42,149c-.82,1.01-1.5,2.15-2.65,2.86-.75.47-1.49.57-2.19-.02-.78-.66-.89-1.42-.35-2.33.96-1.6,2.33-2.8,3.7-4.01.84,1.02,1.34,2.19,1.49,3.5Z"/>
      <path class="cls-2" d="M90.43,151.72c1.38.35,2.77.67,4.14,1.06.41.11.8.36,1.15.61.49.34.82.82.6,1.43-.21.59-.64.98-1.34.99-1.94.02-3.89.07-5.79-.48.41-1.2.82-2.4,1.23-3.61Z"/>
      <path class="cls-2" d="M94.99,133.75c1.67-.07,3.31.15,4.93.59.75.21,1.48.52,1.48,1.45,0,.97-.77,1.21-1.54,1.33-1.75.28-3.52.41-5.3.4.15-1.26.29-2.52.44-3.78Z"/>
      <path class="cls-6" d="M122.48,73.58c.93,1.47,1.87,2.92,2.78,4.4.41.67.65,1.43-.03,2.06-.61.57-1.26.22-1.84-.16-1.51-1.01-2.62-2.38-3.55-3.91.76-.93,1.69-1.66,2.64-2.39Z"/>
      <path class="cls-2" d="M137.36,65.01c.64,1.36,1.22,2.75,1.58,4.2.18.73.41,1.66-.5,2.12-.79.4-1.44,0-1.97-.64-.15-.18-.36-.32-.49-.51-.81-1.17-1.61-2.35-1.98-3.75,1.06-.61,2.2-1.05,3.36-1.42Z"/>
      <path class="cls-2" d="M176.62,131.36c-.88.52-1.76,1.05-2.64,1.57-1.04.61-1.83.45-2.6-.51-.73-.91-.5-1.72.3-2.4.94-.8,1.97-1.47,3.18-1.81.59,1.05,1.18,2.1,1.77,3.16Z"/>
      <path class="cls-6" d="M117.22,176.65c1.37-.35,2.74-.12,4.11,0,.8.07,1.44.36,1.58,1.17.14.8-.44,1.27-1.12,1.46-1.63.46-3.31.71-5.01.74-.02-1.15.13-2.27.44-3.37Z"/>
      <path class="cls-6" d="M100.95,146.94c-1.44.09-2.85-.18-4.24-.51-.67-.16-1.33-.46-1.29-1.32.04-.91.73-1.18,1.47-1.27,1.65-.19,3.3-.33,4.96-.49-.18,1.23-.42,2.44-.91,3.59Z"/>
      <path class="cls-2" d="M161.66,161.5c-.58.05-.87.51-1.25.85-1.18,1.06-2.15,1.12-3.01.19-.82-.88-.73-1.79.43-2.85.86-.78,1.43-1.93,2.7-2.23.33,1.36.63,2.73,1.14,4.05Z"/>
      <path class="cls-6" d="M174.08,139.51c1.1-.44,2.2-.89,3.3-1.31.79-.3,1.51-.19,1.98.57.5.79,0,1.33-.55,1.84-1.06.96-2.17,1.84-3.57,2.27-.39-1.12-.78-2.25-1.16-3.37Z"/>
      <path class="cls-2" d="M164.14,105c-.65.3-1.3.58-1.94.89-1.22.57-2.4.4-2.87-.43-.49-.84-.07-2.21.97-2.86.76-.48,1.61-.81,2.42-1.2.47,1.2.95,2.4,1.42,3.6Z"/>
      <path class="cls-6" d="M95.24,176.13c-.97.62-1.96,1.21-2.91,1.86-.44.3-.92.47-1.42.57-.6.12-.98-.25-1.29-.68-.31-.42-.16-.8.12-1.2.97-1.39,2.22-2.48,3.61-3.42.42,1.09,1,2.09,1.9,2.87Z"/>
      <path class="cls-6" d="M84.67,170.65c.94-.28,1.88-.57,2.84-.82.38-.1.78-.12,1.17-.12.59.01.94.43,1.15.9.21.47-.09.83-.43,1.14-1.38,1.25-3.07,1.92-4.8,2.5-.13-1.21-.02-2.41.06-3.61Z"/>
      <path class="cls-2" d="M147.34,152.66c.94.79,1.72,1.73,2.46,2.7.39.52.46,1.21-.02,1.77-.44.51-1.07.8-1.71.52-1.16-.5-2.29-1.08-3.08-2.13.52-1.16,1.37-2.06,2.35-2.85Z"/>
      <path class="cls-2" d="M169.85,118.58c-.65.13-1.09.63-1.65.93-.89.47-1.82.67-2.65-.11-.75-.71-.84-1.51-.13-2.32.78-.87,1.65-1.62,2.75-2.06.56,1.19,1.12,2.37,1.67,3.56Z"/>
      <path class="cls-6" d="M151.75,159.19c.1-1.49.67-2.86,1.28-4.18.25-.53.67-1.29,1.54-1,.87.28,1.1,1.02.99,1.82-.15,1.13-.4,2.26-.6,3.38-.04.23-.08.47-.12.7-.91-.75-1.93-1.05-3.09-.73Z"/>
      <path class="cls-6" d="M176,153.16c1.21.13,2.24.78,3.32,1.25.73.33,1.37,1,1.11,1.89-.26.91-1.11,1.04-1.96.93-1.09-.15-2.18-.33-3.27-.49.27-1.19.54-2.39.81-3.58Z"/>
      <path class="cls-6" d="M112.66,165.86c-1.79,1.01-3.57.11-5.35-.03.4-1.24.86-2.46,1.48-3.62.82.38,1.64.75,2.45,1.15.96.47,1.6,1.16,1.45,2.33.02.06.01.12-.03.17Z"/>
      <path class="cls-2" d="M142.19,186.74c-1.26-.92-2.01-2.19-2.55-3.61-.23-.6-.04-1.11.37-1.51.44-.43.93-.4,1.52-.16.95.39,1.57,1.18,2.39,1.72-.58,1.19-1.16,2.37-1.74,3.56Z"/>
      <path class="cls-6" d="M158.44,168.52c.55-.02.79-.49,1.15-.78.49-.4.94-.87,1.48-1.18.61-.36,1.34-.42,1.87.13.54.56.4,1.21-.01,1.84-.46.7-.96,1.35-1.48,2-.26.32-.6.66-.61,1.13-1.11-.8-1.89-1.86-2.38-3.13Z"/>
      <path class="cls-6" d="M124.36,195.15c.78-.54.79-1.51,1.25-2.22.54-.82.92-1.87,2.19-1.59.89.2,1.12,1.19.79,2.66-.17.73-.27,1.47-.39,2.21-1.33-.15-2.64-.39-3.83-1.05Z"/>
      <path class="cls-2" d="M108.62,178.36c-.55-1.09-1.08-2.19-1.65-3.27-.28-.52-.29-1.06-.29-1.62,0-.61.36-.91.84-1.19.52-.29.94-.09,1.31.21.65.53,1.24,1.12,1.54,1.94-.45,1.37-.97,2.7-1.75,3.93Z"/>
      <path class="cls-6" d="M93.49,166.59c-.98-.07-1.96.08-2.94-.19-.71-.2-1.14-.48-1.13-1.26,0-.79.44-1.27,1.17-1.42,1.31-.26,2.61-.6,3.97-.45-.35,1.11-.71,2.21-1.06,3.32Z"/>
      <path class="cls-6" d="M141.68,171.62c.88-.02,1.72.21,2.56.43.66.18,1.17.53,1.25,1.26.09.82-.49,1.24-1.12,1.5-1.14.48-2.35.68-3.59.65.3-1.28.6-2.56.9-3.84Z"/>
      <path class="cls-6" d="M131.17,78.96c-.17-.81-.82-1.35-1.16-2.06-.41-.87-.59-1.7.32-2.34.84-.59,1.43.04,1.95.57.75.76,1.61,1.43,2.22,2.33-1.11.5-2.22,1-3.32,1.5Z"/>
      <path class="cls-6" d="M147.9,168.03c-.97-.24-1.8-.8-2.68-1.24-.75-.38-1.14-1.04-.86-1.87.3-.89,1.07-1.09,1.93-.95.77.13,1.5.49,2.31.46-.23,1.2-.47,2.4-.7,3.6Z"/>
      <path class="cls-6" d="M105.16,109.44c-.37-.47-.79-.88-1.3-1.22-.57-.37-.96-.93-1.28-1.55-.29-.56-.15-.99.17-1.44.35-.49.86-.6,1.38-.4.93.34,1.84.74,2.76,1.12-.58,1.16-1.15,2.32-1.73,3.48Z"/>
      <path class="cls-6" d="M167.43,125.43c.86-.19,1.57-.73,2.37-1.06.75-.31,1.45-.4,2,.38.52.75.04,1.25-.45,1.73-.78.77-1.59,1.52-2.38,2.28-.51-1.11-1.03-2.22-1.54-3.33Z"/>
      <path class="cls-6" d="M120.13,153c.14-1.52.82-2.79,1.79-3.93.38-.45.87-.61,1.39-.36.47.22.86.59.86,1.19,0,.92,0,1.83,0,2.75-1.44-.93-2.72-.08-4.04.36Z"/>
      <path class="cls-6" d="M124.65,158.21c.6,0,1.19.01,1.79,0,.61-.02,1.13.12,1.3.77.16.62.02,1.18-.53,1.58-.82.6-1.8.78-2.76,1.03-.53.14-1.02.44-1.6.4.6-1.26,1.2-2.52,1.8-3.78Z"/>
      <path class="cls-6" d="M160.89,111.23c.66-.25,1.32-.49,1.98-.77.82-.34,1.58-.32,2.08.48.47.74.24,1.4-.39,1.99-.64.6-1.34,1.09-2.13,1.46-.51-1.05-1.02-2.11-1.53-3.16Z"/>
      <path class="cls-6" d="M155.15,97.81c.61-.12,1.24-.2,1.84-.37.47-.13.94-.13,1.41-.1.55.03,1.03.32,1.19.81.16.52-.17.96-.6,1.31-.8.65-1.87.86-2.61,1.6-.54-1.03-.88-2.14-1.22-3.24Z"/>
      <path class="cls-6" d="M168.51,164.65c.09,1.03-.09,2.04-.23,3.06-.09.67-.46,1.12-1.09,1.24-.65.12-1.05-.38-1.25-.9-.39-.99-.39-2.08-.54-3.12,1.05.15,2.09.13,3.1-.27Z"/>
      <path class="cls-2" d="M159.25,90.74c-.86.62-1.78.54-2.62.05-.6-.35-.91-1.06-.7-1.74.24-.76.74-1.41,1.63-1.53.43-.06.87-.02,1.3-.03.13,1.08.26,2.17.39,3.25Z"/>
      <path class="cls-6" d="M94.22,187.24c.22-.88.56-1.72,1.01-2.5.36-.61.94-1.06,1.67-.81.63.21.92.76.93,1.49,0,.68-.22,1.32-.26,1.98-1.12.02-2.25.18-3.36-.16Z"/>
      <path class="cls-6" d="M155.34,80.32c.73.16,1.46.28,2.17.5.53.17,1.06.45.93,1.17-.12.7-.56,1.06-1.26,1.21-.93.2-1.87.26-2.82.23.06-1.12.47-2.14.98-3.11Z"/>
      <path class="cls-6" d="M116.45,146.91c.7.44,1.06,1.18,1.38,1.86.32.69.23,1.48-.5,2-.67.48-1.28.21-1.84-.21-.41-.3-.77-.66-1.16-1,.57-.99,1.27-1.89,2.12-2.66Z"/>
      <path class="cls-6" d="M114.7,159.92c-1.24-.34-1.74-1.36-1.99-2.44-.26-1.09.83-1.93,1.87-1.54.59.22,1.2.47,1.49,1.12-.45.95-.91,1.9-1.36,2.86Z"/>
      <path class="cls-6" d="M135.19,184.58c-.07,1.06.18,2.14-.22,3.19-.18.49-.45.82-1.01.87-.56.04-.91-.23-1.14-.69-.3-.61-.55-1.24-.5-1.93.96-.48,1.91-.95,2.87-1.43Z"/>
      <path class="cls-6" d="M103.05,175.68c.45.95.41,1.98.47,2.98.03.49-.23,1.02-.88,1.1-.66.09-1.09-.3-1.34-.8-.28-.56-.41-1.2-.6-1.8.9-.31,1.65-.87,2.36-1.48Z"/>
      <path class="cls-6" d="M160.67,78.9c-.91-.28-.93-.91-.47-1.53.55-.75,1.24-.9,1.91-.07-.48.53-.96,1.06-1.44,1.6Z"/>
      <path class="cls-3" d="M147.64,60.01c.02,1.04-.78,1.91-1.73,1.9-.88-.01-1.61-.77-1.64-1.72-.03-1,.88-1.98,1.84-1.98.83,0,1.53.81,1.54,1.8Z"/>
    </g>
  </g>
</svg>