<?xml version="1.0" encoding="UTF-8"?>
<svg id="Calque_2" data-name="Calque 2" xmlns="http://www.w3.org/2000/svg" viewBox="0 0 102.94 144.18">
  <defs>
    <style>
      .cls-1 {
        fill: #d39589;
      }

      .cls-1, .cls-2, .cls-3, .cls-4, .cls-5, .cls-6 {
        stroke-width: 0px;
      }

      .cls-2 {
        fill: #d17476;
      }

      .cls-3 {
        fill: #d17275;
      }

      .cls-4 {
        fill: #1a1415;
      }

      .cls-5 {
        fill: #fff;
      }

      .cls-6 {
        fill: #d17577;
      }
    </style>
  </defs>
  <g id="Calque_1-2" data-name="Calque 1">
    <g>
      <path class="cls-5" d="M34.21,22.77c-2.32-1.98-3.81-2.12-5.67-.32-3.23,3.14-6.58,6.18-9.2,9.9-1.49,2.11-3.19,4.08-4.28,6.46-.75,1.63-1.02,3.2.43,4.6.32.3.17.56.02.82-2.61,4.64-4.03,9.66-4.6,14.92-.48,4.48-.78,8.97-.47,13.5.26,3.86.36,7.74-.52,11.56-1.54,6.74-3.79,13.26-6.24,19.71-2.42,6.37-4.37,12.79-3.47,19.75.57,4.37,2.11,8.1,6.24,10.24,2.63,1.37,5.53,1.32,8.41,1.31,2.32-.01,4.28-.88,5.96-2.38,3.37-3,6.12-6.44,7.74-10.75,1.32-3.51,1.95-7.19,3.06-10.75.94-3.03,1.83-6.09,3.89-8.62,1.03-1.26,2.27-2.22,3.9-2.6.83-.19,1.22.19,1.32.93.06.51.02,1.02-.12,1.54-.49,1.86-1.31,3.56-2.26,5.22-1.81,3.18-3.45,6.44-4.48,9.96-1.43,4.89-2.4,9.82-1.04,14.92,1.38,5.12,4.21,9,9.4,10.71,3.37,1.11,6.85,1.16,9.92-.76,2.78-1.73,5.13-4.07,6.97-6.82,4.13-6.18,6.09-13.14,7.26-20.38.38-2.34.57-4.75,1.68-6.91.35-.69.7-1.59,1.61-1.6.89-.01,1.3.83,1.72,1.5,1.03,1.65,1.35,3.55,1.94,5.36,2.11,6.46,5.61,7.49,11.21,7.25,5.04-.22,9.39-2.82,12.69-6.8,1.61-1.95,2.64-4.21,3.69-6.5,2.04-4.44,2.5-8.97,1.45-13.72-1.22-5.49-3.61-10.49-6.37-15.32-5.09-8.9-9.77-17.99-13.29-27.64-1.98-5.43-4.49-10.7-5.22-16.52-.47-3.78-.26-7.33,2.94-10.05.78-.66,1.36-1.55,1.76-2.53.56-1.4.18-2.18-1.29-2.59-1.97-.54-3.67.35-5.35,1.13-3.09,1.44-4.53,4.25-5.29,7.3-1.49,5.99-1.11,11.99.8,17.86,1.91,5.89,4.81,11.34,7.52,16.88,3.59,7.33,6.47,14.98,10.21,22.24,1.77,3.43,2.69,7.1,2.81,10.96.16,5.24-1.53,9.69-5.66,13.05-1.74,1.42-3.55,1.23-5.07-.44-.98-1.08-1.28-2.46-1.56-3.82-.53-2.64-1.41-5.12-2.99-7.34-1.75-2.46-4.02-3.4-6.98-2.64-5.78,1.47-9.11,5.41-10.62,10.98-.83,3.04-.86,6.23-1.22,9.35-.41,3.57-1.06,7.08-2.64,10.34-1.44,2.97-3.63,5.09-7,5.77-1.93.39-3.39-.55-3.85-2.42-.56-2.31-.05-4.49.62-6.68,1.93-6.29,4.55-12.38,5.3-19,.33-2.94.77-5.89-.16-8.77-1.07-3.33-2.88-6.1-6.63-6.8-3.02-.57-5.79.28-8.16,2.19-3.78,3.05-6.49,6.95-8.09,11.49-1.7,4.82-3.78,9.5-5.42,14.35-.58,1.7-.96,3.52-2.16,4.98-1.21,1.47-2.76,2-4.58,1.57-1.81-.43-2.87-1.8-3.08-3.79-.13-1.16,0-2.31.15-3.46.42-3.16,1.78-5.99,3.13-8.82,2.75-5.76,4.93-11.72,5.81-18.06.86-6.14.9-12.33.67-18.53-.22-5.67.87-11.07,3.73-16.04.56-.97.98-2.08,2.53-1.41.5.22,1.16-.12,1.7-.41.89-.48,1.6-1.19,2.26-1.94,2.62-2.96,5.05-6.07,7.38-9.26,1.13-1.54,2.37-3.01,3.32-4.67.64-1.12,1.2-2.36.29-3.57-.55-.74-.28-1.18.23-1.67.26-.25.54-.48.82-.7,2.74-2.2,6.03-3.33,9.2-4.68,7.36-3.15,14.92-5.83,22.05-9.54,3.01-1.57,5.74-3.44,7.74-6.22,1.48-2.05,2.12-4.26,1.18-6.74-.93-2.44-2.99-3.11-5.15-1.69-.37.24-.7.52-1.04.8-1.85,1.47-3.79,2.75-6.13,3.34-.79.2-1.12.05-1.59-.64-1.61-2.38-3.9-3.93-6.81-3.66-3.51.33-7.25,3.19-7.47,7.74-.04.8-.36,1.05-1.01,1.28-1.38.5-2.76,1.02-4.08,1.63-6.15,2.86-11.75,6.52-16.36,11.55Z"/>
      <path class="cls-4" d="M34.21,22.77c4.62-5.03,10.21-8.69,16.36-11.55,1.33-.62,2.7-1.14,4.08-1.63.65-.23.98-.48,1.01-1.28.21-4.55,3.96-7.41,7.47-7.74,2.9-.27,5.2,1.28,6.81,3.66.47.7.8.84,1.59.64,2.34-.59,4.28-1.86,6.13-3.34.34-.27.68-.56,1.04-.8,2.16-1.42,4.22-.75,5.15,1.69.95,2.47.3,4.69-1.18,6.74-2.01,2.78-4.73,4.66-7.74,6.22-7.13,3.71-14.69,6.39-22.05,9.54-3.17,1.35-6.46,2.48-9.2,4.68-.28.22-.56.45-.82.7-.51.49-.78.93-.23,1.67.91,1.21.35,2.45-.29,3.57-.95,1.66-2.19,3.13-3.32,4.67-2.33,3.19-4.76,6.3-7.38,9.26-.66.75-1.37,1.45-2.26,1.94-.53.29-1.2.63-1.7.41-1.55-.67-1.97.43-2.53,1.41-2.86,4.97-3.94,10.37-3.73,16.04.24,6.2.19,12.39-.67,18.53-.88,6.33-3.06,12.3-5.81,18.06-1.35,2.83-2.71,5.66-3.13,8.82-.15,1.15-.27,2.3-.15,3.46.21,1.99,1.27,3.36,3.08,3.79,1.82.43,3.37-.1,4.58-1.57,1.2-1.45,1.58-3.27,2.16-4.98,1.64-4.85,3.71-9.52,5.42-14.35,1.6-4.54,4.32-8.44,8.09-11.49,2.37-1.91,5.14-2.76,8.16-2.19,3.74.7,5.55,3.48,6.63,6.8.93,2.88.49,5.83.16,8.77-.74,6.62-3.37,12.71-5.3,19-.67,2.19-1.18,4.37-.62,6.68.46,1.87,1.92,2.81,3.85,2.42,3.37-.67,5.56-2.8,7-5.77,1.58-3.26,2.22-6.77,2.64-10.34.36-3.12.39-6.3,1.22-9.35,1.51-5.57,4.84-9.51,10.62-10.98,2.96-.75,5.23.18,6.98,2.64,1.57,2.22,2.45,4.7,2.99,7.34.27,1.36.57,2.73,1.56,3.82,1.52,1.67,3.33,1.86,5.07.44,4.13-3.37,5.82-7.81,5.66-13.05-.12-3.86-1.04-7.53-2.81-10.96-3.75-7.26-6.62-14.91-10.21-22.24-2.71-5.54-5.61-10.99-7.52-16.88-1.91-5.87-2.28-11.87-.8-17.86.76-3.05,2.2-5.86,5.29-7.3,1.68-.78,3.38-1.67,5.35-1.13,1.47.4,1.85,1.19,1.29,2.59-.39.98-.98,1.87-1.76,2.53-3.2,2.72-3.41,6.28-2.94,10.05.73,5.83,3.24,11.09,5.22,16.52,3.52,9.65,8.2,18.74,13.29,27.64,2.76,4.83,5.16,9.83,6.37,15.32,1.05,4.75.59,9.28-1.45,13.72-1.05,2.29-2.08,4.55-3.69,6.5-3.31,3.99-7.65,6.59-12.69,6.8-5.59.24-9.09-.79-11.21-7.25-.59-1.81-.91-3.71-1.94-5.36-.42-.67-.83-1.51-1.72-1.5-.91.01-1.26.91-1.61,1.6-1.11,2.16-1.31,4.57-1.68,6.91-1.17,7.24-3.13,14.2-7.26,20.38-1.84,2.75-4.19,5.09-6.97,6.82-3.07,1.91-6.55,1.87-9.92.76-5.19-1.71-8.03-5.59-9.4-10.71-1.37-5.09-.4-10.02,1.04-14.92,1.03-3.52,2.67-6.79,4.48-9.96.95-1.66,1.76-3.37,2.26-5.22.14-.52.19-1.03.12-1.54-.09-.74-.49-1.13-1.32-.93-1.63.38-2.88,1.34-3.9,2.6-2.06,2.53-2.95,5.59-3.89,8.62-1.11,3.56-1.73,7.24-3.06,10.75-1.62,4.3-4.37,7.75-7.74,10.75-1.68,1.49-3.65,2.37-5.96,2.38-2.88.01-5.78.06-8.41-1.31-4.12-2.14-5.67-5.87-6.24-10.24-.9-6.96,1.05-13.38,3.47-19.75,2.45-6.45,4.7-12.97,6.24-19.71.87-3.82.78-7.7.52-11.56-.31-4.53-.01-9.02.47-13.5.57-5.26,1.99-10.28,4.6-14.92.15-.27.3-.52-.02-.82-1.45-1.4-1.18-2.97-.43-4.6,1.09-2.38,2.79-4.35,4.28-6.46,2.62-3.71,5.96-6.76,9.2-9.9,1.86-1.8,3.35-1.66,5.67.32ZM54.41,11.3c-1.16.37-2.3.81-3.36,1.42-4.18,1.84-8.02,4.23-11.52,7.15-.94.72-1.88,1.46-2.64,2.39-.37.36-.73.72-1.11,1.07-.44.4-.44.76-.01,1.2,1.67,1.7,3.33,3.43,4.98,5.15.22.22.38.37.66.05,1.84-2.15,4.35-3.27,6.81-4.48,1.11-.5,2.22-1,3.32-1.5,8.59-3.46,17.35-6.56,25.4-11.25,1.82-1.06,3.26-2.55,4.53-4.22,1.04-1.37,1.49-2.9,1.2-4.61-.36-2.13-1.75-2.7-3.47-1.45-.26.19-.49.41-.74.61-1.77,1.46-3.68,2.75-5.9,3.29-1.33.32-1.77.65-1.83,2.16-.12,3.65-2.71,6.04-6.85,6.82-3.37.64-6.22-.46-7.38-3.17-.58-1.36-1.2-1.1-2.1-.64ZM10.38,119.56c-.26-1.2-.41-2.4-.24-3.63.14-1.01.26-2.02.39-3.04.35-1.11.71-2.21,1.06-3.32.82-1.76,1.68-3.5,2.45-5.28,1.56-3.59,3.17-7.18,3.95-11.05.49-1.15.72-2.37.91-3.59.41-1.39.47-2.82.61-4.25.47-4.57.66-9.14.37-13.73-.01-1.28-.02-2.56-.03-3.84.07-4.17.88-8.19,2.35-12.09.58-1.16,1.15-2.32,1.73-3.48.14-.6,1.42-.97.32-1.82-2.2-1.69-4.41-3.39-6.58-5.12-.61-.48-.85-.37-1.2.3-1.62,3.16-2.85,6.44-3.44,9.95-.26,1.36-.63,2.7-.58,4.1-.36,1.52-.34,3.08-.47,4.62-.47,5.25.43,10.5.04,15.75-.15,1.26-.29,2.52-.44,3.78-1.08,4.82-2.56,9.52-4.12,14.2-.41,1.2-.82,2.4-1.23,3.61-.8,2.11-1.63,4.21-2.38,6.34-1.03,2.92-1.97,5.86-2.15,8.99-.08,1.2-.19,2.4-.06,3.61-.11,1.44.05,2.86.27,4.28.81,5.2,4.41,8.56,9.34,8.7,1.11.34,2.24.18,3.36.16,1.49.1,2.86-.31,4.05-1.16,2.92-2.09,5.27-4.72,6.99-7.88.77-1.22,1.3-2.56,1.75-3.93,1.05-2.78,1.71-5.67,2.29-8.57.04-.05.05-.11.03-.17.67-1.93,1.34-3.85,2.01-5.78l1.36-2.86c1.13-1.58,2.39-3.02,4.07-4.06,1.32-.44,2.6-1.29,4.04-.36.94.85,1.15,1.91,1.02,3.14-.09.84-.46,1.6-.55,2.42-.6,1.26-1.2,2.52-1.8,3.78-1.49,2.31-2.68,4.79-3.66,7.34-.91,2.36-1.77,4.76-1.97,7.32-.31,1.1-.46,2.22-.44,3.37-.36,3.2.2,6.27,1.6,9.12,1.29,2.64,3.16,4.83,5.98,6.02,1.19.65,2.5.9,3.83,1.05.16.03.31.08.47.08,2.88.16,5.39-.64,7.51-2.69,2.19-2.13,4.69-3.98,6.02-6.86.58-1.19,1.16-2.37,1.74-3.56.35-.93.7-1.85,1.04-2.78,1.5-4,2.47-8.12,2.93-12.37l.7-3.6c.61-2.01,1.27-3.99,3.15-5.25,1.16-.33,2.18-.03,3.09.73.44.97.91,1.92,1.33,2.9.81,1.88,1.29,3.89,2.27,5.7.48,1.28,1.28,2.32,2.38,3.13,2.25,1.95,4.95,1.82,7.6,1.47,2.78-.37,5.25-1.67,7.63-3.13.94-.61,1.76-1.36,2.36-2.31.58-.75,1.24-1.46,1.74-2.26,2.84-4.66,4.81-9.56,4.12-15.19-.21-1.27-.33-2.57-.84-3.78-.05-.27-.08-.55-.16-.81-1.56-5.06-3.95-9.74-6.64-14.27-.59-1.05-1.18-2.1-1.77-3.16-1.67-3.21-3.33-6.42-5-9.62-.56-1.19-1.12-2.37-1.67-3.56-1.35-3.34-2.69-6.68-4.04-10.03-.47-1.2-.95-2.4-1.42-3.6-1.31-3.5-2.57-7.02-3.47-10.66-.13-1.08-.26-2.17-.39-3.25-.38-3.07-.04-5.98,1.81-8.58.48-.53.96-1.06,1.44-1.6.51-.39.91-.89,1.24-1.44.22-.37.65-.77.37-1.17-.25-.35-.81-.25-1.23-.19-3.21.48-6.02,2.18-7.15,5.8-.51.98-.92,1.99-.98,3.11-.87,4.86-.48,9.64.79,14.38.34,1.11.68,2.21,1.22,3.24,1.15,3.55,2.83,6.86,4.52,10.17l1.53,3.16c1.67,3.68,3.34,7.36,5.01,11.05.51,1.11,1.03,2.22,1.54,3.33.05.19.09.38.16.57,1.37,3.53,3.25,6.81,4.94,10.18.39,1.12.78,2.25,1.16,3.37.02.28.02.56.08.83.7,3.12,1.18,6.25.68,9.46-.27,1.19-.54,2.39-.81,3.58-1.57,3.19-3.53,6.05-6.68,7.91-1.01.41-2.05.42-3.1.27-1.69-.66-2.92-1.82-3.75-3.43-.51-1.31-.81-2.68-1.14-4.05-.42-2.19-1.36-4.13-2.65-5.93-1.05-1.46-2.47-2.12-4.23-1.93-2.45.27-4.56,1.3-6.3,3.05-.98.79-1.82,1.69-2.35,2.85-.95,1.21-1.52,2.61-1.82,4.09-.81,3.97-1,8.02-1.49,12.03-.3,1.28-.6,2.56-.9,3.84-1.03,3.55-2.49,6.84-5.59,9.12-.96.48-1.91.95-2.87,1.43-2.28.48-4.45.51-6.11-1.51-.7-1.07-.73-2.34-1.03-3.53.01-1.56.19-3.1.67-4.59.78-2.46,1.57-4.92,2.35-7.37.38-1.18.76-2.36,1.14-3.55,1.23-3.34,1.87-6.81,2.24-10.32.22-2.04.58-4.11-.16-6.13-.15-1.32-.65-2.48-1.49-3.5-1.73-2.61-3.92-3.53-6.9-2.94-2.79.55-4.88,2.16-6.58,4.35-.85.77-1.54,1.67-2.12,2.66-.23.32-.47.63-.68.96-2.36,3.59-3.31,7.76-4.86,11.68-.61,1.16-1.07,2.38-1.48,3.62-.29.77-.62,1.54-.88,2.33-.87,2.63-1.52,5.35-3.39,7.53-.71.61-1.46,1.17-2.36,1.48-1.95.35-3.78.06-5.45-1.03-.9-.78-1.47-1.77-1.9-2.87ZM16.02,40.88c-.11.77.29,1.31.82,1.77,2.85,2.5,5.88,4.78,8.96,6.97,1.68,1.19,2.65,1.01,4.11-.5,2.21-2.3,4.23-4.78,6.11-7.36,1.66-2.29,3.51-4.45,5-6.86.67-1.08.7-2.02-.28-2.99-1.79-1.77-3.49-3.62-5.22-5.44-.93-.98-1.8-2.02-2.78-2.95-1.07-1.02-1.81-1.04-2.95-.11-.8.65-1.52,1.4-2.27,2.11-3.99,3.77-7.42,8.02-10.38,12.63-.53.83-1.01,1.72-1.12,2.73ZM69.29,7.47c.06-1.59-.61-3-2.11-4.08-3.06-2.19-5.69-1.54-8.22.92-1.86,1.8-2.32,4.88-1.14,7.06,1.08,2,3.11,2.78,5.9,2.28,3.52-.64,5.62-2.88,5.58-6.19Z"/>
      <path class="cls-1" d="M77.93,57.52c-1.69-3.31-3.37-6.62-4.52-10.17.75-.74,1.81-.95,2.61-1.6.43-.35.77-.78.6-1.31-.15-.5-.64-.78-1.19-.81-.47-.03-.93-.03-1.41.1-.6.17-1.23.25-1.84.37-1.27-4.74-1.66-9.53-.79-14.38.95.03,1.88-.03,2.82-.23.7-.15,1.14-.51,1.26-1.21.13-.72-.4-1.01-.93-1.17-.71-.22-1.45-.34-2.17-.5,1.13-3.62,3.94-5.33,7.15-5.8.42-.06.98-.16,1.23.19.28.4-.15.8-.37,1.17-.33.55-.73,1.04-1.24,1.44-.67-.83-1.36-.68-1.91.07-.45.62-.44,1.25.47,1.53-1.84,2.6-2.18,5.52-1.81,8.58-.43,0-.87-.03-1.3.03-.89.12-1.39.77-1.63,1.53-.21.68.1,1.39.7,1.74.83.49,1.76.57,2.62-.05.9,3.64,2.15,7.16,3.47,10.66-.9.22-1.65.76-2.42,1.21-1.07.63-1.46,2.01-.97,2.85.48.83,1.65,1,2.87.42.64-.3,1.29-.59,1.94-.89,1.35,3.34,2.69,6.68,4.04,10.03-1.1.44-1.97,1.19-2.75,2.06-.72.8-.63,1.61.13,2.32.83.78,1.76.58,2.65.11.56-.3,1-.8,1.65-.93,1.67,3.21,3.33,6.42,5,9.62-1.21.34-2.24,1-3.18,1.81-.8.68-1.03,1.49-.3,2.4.77.96,1.56,1.13,2.6.51.88-.52,1.76-1.04,2.64-1.57,2.69,4.54,5.09,9.21,6.64,14.27.08.26.11.54.16.81-1.24,0-2.48,0-3.71,0-1.17,0-1.97.6-2.07,1.52-.13,1.06.44,1.82,1.63,2.11,1.65.4,3.33.18,5,.15.7,5.62-1.28,10.53-4.12,15.19-.49.81-1.15,1.51-1.74,2.26-.56-1.61-1.68-2.87-2.62-4.24-.56-.81-1.41-.94-2.22-.51-.87.46-1.3,1.34-.89,2.23.83,1.8,1.76,3.57,3.38,4.83-2.37,1.46-4.85,2.76-7.63,3.13-2.65.35-5.35.49-7.59-1.47.02-.48.35-.81.61-1.13.52-.65,1.02-1.3,1.48-2,.41-.63.56-1.28.01-1.84-.53-.54-1.26-.48-1.87-.13-.54.32-.99.78-1.48,1.18-.36.3-.6.76-1.15.78-.98-1.81-1.46-3.82-2.27-5.7-.42-.98-.88-1.93-1.33-2.9.25-1.47.5-2.95.73-4.42.12-.74-.28-1.18-.93-1.47-.72-.32-1.1.22-1.35.64-.82,1.39-1.43,2.88-1.54,4.53-1.87,1.25-2.54,3.23-3.15,5.25-.8.02-1.53-.34-2.31-.46-.86-.14-1.63.06-1.93.95-.28.83.12,1.49.86,1.87.88.44,1.71,1,2.68,1.24-.47,4.24-1.44,8.37-2.93,12.37-.35.93-.7,1.85-1.04,2.78-.83-.54-1.45-1.33-2.41-1.72-.6-.25-1.06-.21-1.54.16-.53.41-.55.93-.35,1.5.53,1.44,1.29,2.71,2.55,3.63-1.33,2.88-3.83,4.73-6.02,6.86-2.12,2.05-4.63,2.85-7.51,2.69-.16,0-.31-.06-.47-.08.13-.74.23-1.48.4-2.21.33-1.46.1-2.46-.79-2.66-1.26-.28-1.65.77-2.19,1.59-.47.72-.48,1.69-1.25,2.23-2.82-1.18-4.69-3.37-5.98-6.02-1.4-2.85-1.96-5.93-1.6-9.12,1.7-.03,3.37-.28,5.01-.74.68-.19,1.26-.66,1.12-1.46-.14-.81-.78-1.1-1.58-1.17-1.37-.12-2.74-.35-4.11,0,.2-2.56,1.06-4.96,1.97-7.32.98-2.55,2.17-5.03,3.66-7.34,1.45-.25,2.85-.65,4.19-1.27.76-.35.83-1.03.69-1.73-.14-.66-.68-.81-1.29-.79-.6.02-1.19,0-1.79,0,.08-.83.46-1.58.55-2.42.13-1.23-.08-2.29-1.02-3.14,0-.92,0-1.83,0-2.75,0-.6-.39-.97-.86-1.19-.52-.25-1.01-.09-1.39.36-.97,1.14-1.65,2.41-1.79,3.93-1.67,1.03-2.93,2.48-4.07,4.06-.29-.65-.9-.9-1.49-1.12-1.04-.4-2.13.45-1.87,1.54.25,1.08.76,2.1,1.99,2.44-.67,1.93-1.34,3.85-2.01,5.78.14-1.17-.49-1.86-1.45-2.33-.81-.4-1.63-.77-2.45-1.15,1.56-3.92,2.51-8.09,4.86-11.68.22-.33.45-.64.68-.96.38.34.75.7,1.16,1,.56.42,1.17.68,1.84.21.73-.52.82-1.31.5-2-.32-.68-.68-1.42-1.38-1.86,1.7-2.19,3.78-3.8,6.58-4.35,2.98-.59,5.18.33,6.9,2.94-1.37,1.21-2.74,2.41-3.7,4.02-.54.91-.43,1.68.35,2.33.7.59,1.43.48,2.19.02,1.15-.71,1.83-1.85,2.65-2.86.74,2.02.38,4.09.16,6.13-.37,3.52-1.01,6.99-2.24,10.32-1.83-.09-3.66-.17-5.48.04-.85.1-1.55.53-1.62,1.6-.07,1.07.37,1.64,1.36,1.91,1.54.41,3.06.25,4.6,0-.78,2.46-1.57,4.92-2.35,7.37-.47,1.49-.66,3.03-.67,4.59-1.99.8-3.61,2.13-5.15,3.58-.69.65-.99,1.48-.35,2.35.67.91,1.61,1.04,2.63.35,1.32-.89,2.6-1.83,3.89-2.74,1.66,2.03,3.83,1.99,6.11,1.51-.04.7.2,1.33.5,1.93.23.46.59.74,1.14.69.56-.04.82-.38,1.01-.87.39-1.05.15-2.13.22-3.19,3.1-2.28,4.56-5.57,5.59-9.12,1.17.09,2.29-.22,3.39-.52.7-.19,1.29-.68,1.32-1.5.02-.8-.54-1.19-1.24-1.38-.84-.23-1.68-.46-2.56-.43.49-4.01.68-8.06,1.49-12.03.3-1.47.87-2.88,1.82-4.09.79,1.05,1.92,1.63,3.08,2.13.64.28,1.27,0,1.71-.52.48-.55.41-1.25.02-1.77-.74-.96-1.52-1.91-2.46-2.7,1.74-1.76,3.85-2.78,6.3-3.05,1.76-.19,3.18.47,4.23,1.93,1.29,1.8,2.24,3.74,2.65,5.93-1.58.7-2.61,1.99-3.53,3.37-.36.54-.14,1.06.23,1.53.84,1.06,1.91,1.09,3.09.08.42-.36.72-.88,1.34-.94.82,1.61,2.06,2.77,3.75,3.43.14,1.05.15,2.13.54,3.12.2.51.6,1.02,1.25.9.62-.12,1-.57,1.09-1.24.14-1.02.32-2.02.23-3.06,3.15-1.86,5.11-4.72,6.68-7.91,1.09.17,2.18.34,3.27.49.85.12,1.7-.02,1.96-.93.26-.89-.38-1.57-1.11-1.89-1.08-.48-2.1-1.13-3.32-1.25.5-3.2.02-6.34-.68-9.46-.06-.27-.05-.55-.08-.83,1.39-.44,2.51-1.31,3.57-2.27.56-.5,1.05-1.05.55-1.84-.47-.75-1.19-.87-1.98-.57-1.11.42-2.2.87-3.3,1.31-1.69-3.37-3.57-6.65-4.94-10.18-.07-.18-.11-.38-.16-.57.78-.74,1.56-1.47,2.33-2.22.53-.51,1.06-1.05.46-1.84-.58-.77-1.3-.61-2.04-.29-.77.33-1.45.84-2.29,1.02-1.67-3.68-3.34-7.36-5.01-11.05.79-.37,1.49-.86,2.13-1.46.63-.59.86-1.25.39-1.99-.51-.8-1.26-.82-2.08-.48-.65.27-1.32.51-1.98.77Z"/>
      <path class="cls-1" d="M13.04,55.57c.6-3.51,1.82-6.8,3.44-9.95.34-.67.59-.78,1.2-.3,2.17,1.73,4.38,3.43,6.58,5.12,1.1.84-.18,1.22-.32,1.82-.92-.38-1.83-.78-2.76-1.12-.53-.19-1.03-.09-1.38.4-.32.44-.46.88-.17,1.44.32.62.71,1.18,1.28,1.55.51.34.92.75,1.3,1.22-1.48,3.89-2.28,7.92-2.35,12.09-.8,0-1.6.04-2.39,0-.93-.05-1.84.06-2.71.29-.74.2-1.56.44-1.58,1.49-.01,1.04.57,1.44,1.51,1.65,1.72.38,3.46.45,5.21.41.29,4.59.1,9.16-.37,13.73-.15,1.42-.2,2.86-.61,4.25-1.65.16-3.31.3-4.96.49-.74.09-1.43.36-1.47,1.27-.04.87.62,1.15,1.29,1.33,1.38.37,2.79.61,4.24.51-.77,3.88-2.38,7.46-3.95,11.05-.77,1.78-1.63,3.52-2.45,5.28-1.36-.15-2.66.19-3.97.45-.73.15-1.16.62-1.17,1.42,0,.78.41,1.06,1.13,1.26.98.27,1.96.13,2.94.19-.13,1.01-.25,2.03-.39,3.04-.17,1.23-.02,2.43.24,3.63-1.39.94-2.64,2.03-3.61,3.42-.28.4-.43.77-.12,1.2.32.43.69.8,1.29.68.51-.1.98-.26,1.42-.57.95-.65,1.94-1.24,2.91-1.86,1.68,1.09,3.51,1.37,5.45,1.03.19.6.32,1.24.6,1.8.25.5.68.89,1.34.8.65-.08.91-.61.88-1.1-.06-1-.02-2.04-.47-2.98,1.87-2.18,2.52-4.9,3.39-7.53.26-.79.58-1.55.88-2.33,1.78.14,3.56,1.04,5.35.03-.58,2.91-1.24,5.79-2.29,8.57-.3-.82-.89-1.41-1.54-1.94-.37-.3-.8-.51-1.31-.21-.48.27-.84.58-.84,1.19,0,.56.01,1.1.29,1.62.57,1.08,1.1,2.18,1.65,3.27-1.72,3.17-4.07,5.79-6.99,7.88-1.19.85-2.56,1.26-4.05,1.16.04-.66.27-1.3.26-1.98-.01-.73-.3-1.28-.93-1.49-.73-.25-1.32.19-1.67.81-.45.78-.79,1.62-1.01,2.5-4.93-.14-8.54-3.5-9.34-8.7-.22-1.42-.38-2.84-.27-4.28,1.73-.58,3.42-1.25,4.8-2.5.34-.31.64-.67.43-1.14-.22-.47-.57-.89-1.15-.9-.39,0-.8.02-1.17.12-.95.25-1.89.54-2.84.82.17-3.13,1.12-6.07,2.15-8.99.75-2.13,1.58-4.23,2.38-6.34,1.9.54,3.84.5,5.79.48.7,0,1.13-.4,1.34-.99.22-.61-.11-1.09-.6-1.43-.36-.25-.74-.49-1.15-.61-1.37-.38-2.76-.71-4.14-1.06,1.56-4.68,3.04-9.38,4.12-14.2,1.82,0,3.63-.11,5.42-.42.68-.12,1.36-.37,1.42-1.2.07-.87-.52-1.24-1.25-1.49-1.67-.58-3.4-.68-5.15-.67.38-5.25-.52-10.5-.04-15.75.14-1.54.12-3.1.47-4.62.59.22,1.2.41,1.78.67,1.17.52,2.41.76,3.65,1.01.94.19,1.72-.2,2.09-1.01.4-.87-.44-1.34-.95-1.85-.22-.22-.53-.35-.82-.48-1.72-.82-3.45-1.63-5.17-2.44Z"/>
      <path class="cls-1" d="M16.02,40.88c.11-1.01.58-1.9,1.12-2.73,2.96-4.62,6.38-8.86,10.38-12.63.75-.71,1.47-1.46,2.27-2.11,1.14-.93,1.88-.91,2.95.11.97.93,1.85,1.97,2.78,2.95,1.73,1.82,3.44,3.67,5.22,5.44.99.98.95,1.91.28,2.99-1.49,2.42-3.33,4.57-5,6.86-1.88,2.58-3.89,5.06-6.11,7.36-1.45,1.51-2.43,1.69-4.11.5-3.08-2.19-6.11-4.47-8.96-6.97-.53-.46-.93-1-.82-1.77Z"/>
      <path class="cls-1" d="M48.22,25.25c-2.46,1.21-4.97,2.33-6.81,4.48-.28.32-.44.17-.66-.05-1.65-1.72-3.31-3.45-4.98-5.15-.43-.44-.43-.8.01-1.2.38-.35.74-.71,1.11-1.07.93,1.54,2.04,2.92,3.54,3.93.59.4,1.31.76,1.94.07.57-.63.34-1.35-.05-1.98-.91-1.48-1.86-2.94-2.79-4.4,3.5-2.92,7.34-5.32,11.52-7.15.48,1.76,1.46,3.22,2.73,4.51.29.29.58.51,1.02.52,1.12.03,1.61-.79,1.21-2.25-.4-1.45-.96-2.84-1.6-4.2.9-.46,1.52-.71,2.1.64,1.16,2.71,4.01,3.81,7.38,3.17,4.13-.78,6.72-3.17,6.85-6.82.05-1.52.5-1.84,1.83-2.16,2.23-.54,4.13-1.84,5.9-3.29.25-.2.48-.42.74-.61,1.72-1.25,3.11-.67,3.47,1.45.29,1.71-.17,3.24-1.2,4.61-1.26,1.67-2.7,3.15-4.53,4.22-8.05,4.69-16.81,7.78-25.4,11.25-.61-.9-1.46-1.57-2.22-2.33-.53-.53-1.12-1.16-1.95-.57-.91.64-.73,1.47-.32,2.34.34.72,1,1.25,1.16,2.06Z"/>
      <path class="cls-5" d="M69.29,7.47c.04,3.31-2.06,5.55-5.58,6.19-2.79.5-4.81-.28-5.9-2.28-1.18-2.18-.72-5.26,1.14-7.06,2.53-2.46,5.16-3.11,8.22-.92,1.51,1.07,2.18,2.49,2.11,4.08ZM62.95,8.19c.95.01,1.75-.86,1.74-1.89-.01-.99-.71-1.81-1.54-1.81-.9,0-1.81.92-1.85,1.86-.03.99.71,1.83,1.64,1.84Z"/>
      <path class="cls-3" d="M13.04,55.57c1.72.81,3.45,1.62,5.17,2.44.29.14.6.27.82.48.51.51,1.35.98.95,1.85-.37.81-1.14,1.2-2.09,1.01-1.24-.25-2.48-.49-3.65-1.01-.58-.26-1.18-.45-1.78-.67-.05-1.4.32-2.74.58-4.1Z"/>
      <path class="cls-3" d="M43.26,130.78c-1.3.92-2.58,1.86-3.89,2.74-1.02.69-1.96.56-2.63-.35-.64-.87-.34-1.7.35-2.35,1.53-1.44,3.16-2.78,5.15-3.58.3,1.19.33,2.46,1.03,3.53Z"/>
      <path class="cls-3" d="M93.08,116.28c-1.62-1.26-2.55-3.03-3.38-4.83-.41-.89.03-1.77.89-2.23.82-.43,1.66-.3,2.22.51.94,1.37,2.06,2.63,2.62,4.24-.6.96-1.42,1.7-2.36,2.31Z"/>
      <path class="cls-3" d="M45.24,115.29c-1.53.25-3.06.42-4.6,0-.99-.27-1.44-.85-1.36-1.91.07-1.07.77-1.5,1.62-1.6,1.82-.21,3.65-.13,5.48-.04-.38,1.18-.76,2.36-1.14,3.55Z"/>
      <path class="cls-2" d="M19.89,71.66c-1.75.04-3.49-.03-5.21-.41-.94-.21-1.52-.61-1.51-1.65.01-1.06.83-1.3,1.58-1.49.88-.23,1.79-.34,2.71-.29.8.04,1.59,0,2.39,0,.01,1.28.02,2.56.03,3.84Z"/>
      <path class="cls-3" d="M101.3,96.52c-1.67.03-3.34.26-5-.15-1.18-.29-1.75-1.04-1.63-2.11.11-.92.91-1.51,2.07-1.52,1.24,0,2.48,0,3.71,0,.51,1.21.62,2.51.84,3.78Z"/>
      <path class="cls-3" d="M48.47,95.29c-.82,1.01-1.5,2.15-2.65,2.86-.75.47-1.49.57-2.19-.02-.78-.66-.89-1.42-.35-2.33.96-1.6,2.33-2.8,3.7-4.02.84,1.02,1.34,2.19,1.49,3.5Z"/>
      <path class="cls-2" d="M7.47,98.02c1.38.35,2.77.67,4.14,1.06.41.11.8.36,1.15.61.49.34.82.82.6,1.43-.21.59-.64.99-1.34.99-1.94.02-3.89.07-5.79-.48.41-1.2.82-2.4,1.23-3.61Z"/>
      <path class="cls-2" d="M12.03,80.04c1.75-.01,3.47.08,5.15.67.73.26,1.32.63,1.25,1.49-.07.83-.74,1.08-1.42,1.2-1.79.31-3.6.42-5.42.42.15-1.26.29-2.52.44-3.78Z"/>
      <path class="cls-6" d="M39.53,19.87c.93,1.47,1.87,2.93,2.79,4.4.39.63.62,1.35.05,1.98-.62.69-1.34.33-1.94-.07-1.5-1.01-2.61-2.39-3.54-3.93.76-.93,1.69-1.66,2.64-2.39Z"/>
      <path class="cls-2" d="M54.41,11.3c.64,1.36,1.2,2.75,1.6,4.2.4,1.46-.09,2.28-1.21,2.25-.45-.01-.74-.23-1.02-.52-1.27-1.29-2.24-2.75-2.73-4.51,1.06-.61,2.2-1.05,3.36-1.42Z"/>
      <path class="cls-3" d="M93.66,77.65c-.88.52-1.76,1.05-2.64,1.57-1.04.62-1.83.45-2.6-.51-.73-.91-.5-1.72.3-2.4.94-.8,1.97-1.47,3.18-1.81.59,1.05,1.18,2.1,1.77,3.16Z"/>
      <path class="cls-6" d="M17.99,93.23c-1.44.1-2.85-.14-4.24-.51-.67-.18-1.33-.46-1.29-1.33.04-.91.73-1.18,1.47-1.27,1.65-.19,3.31-.33,4.96-.49-.18,1.23-.42,2.44-.91,3.59Z"/>
      <path class="cls-6" d="M34.27,122.94c1.37-.35,2.74-.12,4.11,0,.8.07,1.44.36,1.58,1.17.14.8-.44,1.27-1.12,1.46-1.63.46-3.31.71-5.01.74-.02-1.15.13-2.27.44-3.37Z"/>
      <path class="cls-3" d="M78.7,107.79c-.62.06-.92.58-1.34.94-1.18,1.01-2.26.98-3.09-.08-.37-.47-.59-.99-.23-1.53.92-1.38,1.95-2.67,3.53-3.37.33,1.36.63,2.73,1.14,4.05Z"/>
      <path class="cls-3" d="M81.18,51.29c-.65.3-1.3.58-1.94.89-1.22.57-2.4.4-2.87-.42-.49-.85-.09-2.22.97-2.85.77-.46,1.52-.99,2.42-1.21.47,1.2.95,2.4,1.42,3.6Z"/>
      <path class="cls-6" d="M91.12,85.8c1.1-.44,2.2-.89,3.3-1.31.79-.3,1.51-.19,1.98.57.5.79,0,1.33-.55,1.84-1.06.96-2.17,1.84-3.57,2.27-.39-1.12-.78-2.25-1.16-3.37Z"/>
      <path class="cls-6" d="M12.28,122.43c-.97.62-1.96,1.21-2.91,1.86-.44.3-.92.47-1.42.57-.6.12-.98-.25-1.29-.68-.31-.42-.16-.8.12-1.2.97-1.39,2.22-2.48,3.61-3.42.42,1.09,1,2.09,1.9,2.87Z"/>
      <path class="cls-6" d="M1.72,116.95c.94-.28,1.88-.57,2.84-.82.38-.1.78-.12,1.17-.12.59.01.94.43,1.15.9.21.47-.09.83-.43,1.14-1.38,1.25-3.07,1.92-4.8,2.5-.13-1.21-.02-2.41.06-3.61Z"/>
      <path class="cls-2" d="M64.39,98.95c.94.79,1.72,1.73,2.46,2.7.39.52.46,1.21-.02,1.77-.44.51-1.07.8-1.71.52-1.16-.5-2.29-1.08-3.08-2.13.52-1.16,1.37-2.06,2.35-2.85Z"/>
      <path class="cls-6" d="M68.79,105.48c.11-1.65.72-3.14,1.54-4.53.25-.42.63-.97,1.35-.64.65.29,1.04.73.93,1.47-.23,1.48-.49,2.95-.73,4.42-.91-.75-1.93-1.05-3.09-.73Z"/>
      <path class="cls-3" d="M86.89,64.87c-.65.13-1.09.63-1.65.93-.89.47-1.82.67-2.65-.11-.75-.71-.84-1.51-.13-2.32.78-.87,1.65-1.62,2.75-2.06.56,1.19,1.12,2.37,1.67,3.56Z"/>
      <path class="cls-2" d="M93.04,99.45c1.21.13,2.24.78,3.32,1.25.73.33,1.37,1,1.11,1.89-.26.91-1.11,1.04-1.96.93-1.09-.15-2.18-.33-3.27-.49.27-1.19.54-2.39.81-3.58Z"/>
      <path class="cls-6" d="M29.7,112.15c-1.79,1.01-3.57.11-5.35-.03.4-1.24.86-2.46,1.48-3.62.82.38,1.64.75,2.45,1.15.96.47,1.6,1.16,1.45,2.33.02.06.01.12-.03.17Z"/>
      <path class="cls-2" d="M59.23,133.03c-1.26-.92-2.03-2.19-2.55-3.63-.21-.57-.18-1.09.35-1.5.48-.37.94-.4,1.54-.16.95.39,1.58,1.18,2.41,1.72-.58,1.19-1.16,2.38-1.74,3.56Z"/>
      <path class="cls-6" d="M75.48,114.81c.54-.02.79-.49,1.15-.78.49-.4.94-.87,1.48-1.18.61-.36,1.34-.42,1.87.13.54.56.4,1.21-.01,1.84-.46.7-.96,1.35-1.48,2-.26.32-.6.66-.61,1.13-1.1-.81-1.9-1.85-2.38-3.13Z"/>
      <path class="cls-2" d="M41.4,141.45c.78-.54.78-1.51,1.25-2.23.54-.82.92-1.87,2.19-1.59.89.2,1.12,1.19.79,2.66-.17.73-.27,1.47-.4,2.21-1.33-.15-2.64-.4-3.83-1.05Z"/>
      <path class="cls-2" d="M25.66,124.65c-.55-1.09-1.08-2.19-1.65-3.27-.28-.52-.29-1.06-.29-1.62,0-.61.36-.91.84-1.19.52-.29.94-.09,1.31.21.65.53,1.24,1.12,1.54,1.94-.45,1.37-.97,2.7-1.75,3.93Z"/>
      <path class="cls-6" d="M10.54,112.89c-.98-.07-1.96.08-2.94-.19-.71-.2-1.14-.48-1.13-1.26,0-.79.44-1.27,1.17-1.42,1.31-.26,2.61-.6,3.97-.45-.35,1.11-.71,2.21-1.06,3.32Z"/>
      <path class="cls-2" d="M58.73,117.92c.88-.02,1.73.2,2.56.43.7.2,1.26.58,1.24,1.38-.02.82-.61,1.31-1.32,1.5-1.1.3-2.22.61-3.39.52.3-1.28.6-2.56.9-3.84Z"/>
      <path class="cls-6" d="M48.22,25.25c-.17-.81-.82-1.35-1.16-2.06-.41-.87-.59-1.7.32-2.34.84-.59,1.43.04,1.95.57.75.76,1.61,1.43,2.22,2.33-1.11.5-2.22,1-3.32,1.5Z"/>
      <path class="cls-6" d="M64.95,114.33c-.97-.24-1.8-.8-2.68-1.24-.75-.38-1.14-1.04-.86-1.87.3-.89,1.07-1.09,1.93-.95.77.13,1.5.49,2.31.46-.23,1.2-.47,2.4-.7,3.6Z"/>
      <path class="cls-2" d="M22.21,55.73c-.38-.47-.79-.88-1.3-1.22-.57-.37-.96-.93-1.28-1.55-.29-.56-.15-.99.17-1.44.35-.49.86-.6,1.38-.4.93.34,1.84.75,2.76,1.12-.58,1.16-1.15,2.32-1.73,3.48Z"/>
      <path class="cls-6" d="M84.47,71.72c.83-.19,1.52-.69,2.29-1.02.74-.32,1.46-.48,2.04.29.6.8.07,1.33-.46,1.84-.77.75-1.55,1.48-2.33,2.22-.51-1.11-1.03-2.22-1.54-3.33Z"/>
      <path class="cls-2" d="M37.17,99.3c.14-1.52.82-2.79,1.79-3.93.38-.45.87-.61,1.39-.36.47.22.86.59.86,1.19,0,.92,0,1.83,0,2.75-1.44-.93-2.72-.08-4.04.36Z"/>
      <path class="cls-6" d="M41.69,104.5c.6,0,1.19.01,1.79,0,.62-.02,1.15.13,1.29.79.15.69.07,1.38-.69,1.73-1.34.62-2.74,1.02-4.19,1.27.6-1.26,1.2-2.52,1.8-3.78Z"/>
      <path class="cls-6" d="M77.93,57.52c.66-.25,1.32-.49,1.98-.77.82-.34,1.58-.32,2.08.48.47.74.24,1.4-.39,1.99-.64.6-1.34,1.09-2.13,1.46-.51-1.05-1.02-2.11-1.53-3.16Z"/>
      <path class="cls-6" d="M72.19,44.1c.61-.12,1.24-.2,1.84-.37.47-.13.94-.13,1.41-.1.55.03,1.03.32,1.19.81.16.52-.17.96-.6,1.31-.8.65-1.87.86-2.61,1.6-.54-1.03-.88-2.14-1.22-3.24Z"/>
      <path class="cls-6" d="M85.55,110.95c.09,1.03-.09,2.04-.23,3.06-.09.67-.46,1.12-1.09,1.24-.65.12-1.05-.38-1.25-.9-.39-.99-.39-2.08-.54-3.12,1.05.15,2.09.13,3.1-.27Z"/>
      <path class="cls-3" d="M76.29,37.02c-.86.62-1.78.54-2.62.05-.6-.35-.91-1.06-.7-1.74.24-.76.74-1.41,1.63-1.53.43-.06.87-.02,1.3-.03.13,1.08.26,2.17.39,3.25Z"/>
      <path class="cls-6" d="M11.26,133.53c.22-.88.56-1.72,1.01-2.5.36-.61.94-1.06,1.67-.81.63.21.92.76.93,1.49,0,.68-.22,1.32-.26,1.98-1.12.02-2.25.18-3.36-.16Z"/>
      <path class="cls-6" d="M72.38,26.61c.73.16,1.46.28,2.17.5.53.17,1.06.45.93,1.17-.12.7-.56,1.06-1.26,1.21-.93.2-1.87.26-2.82.23.06-1.12.47-2.13.98-3.11Z"/>
      <path class="cls-2" d="M33.5,93.2c.7.44,1.06,1.18,1.38,1.86.32.69.23,1.48-.5,2-.67.48-1.28.21-1.84-.21-.41-.3-.77-.66-1.16-1,.57-.99,1.27-1.89,2.12-2.66Z"/>
      <path class="cls-2" d="M31.75,106.21c-1.24-.34-1.74-1.36-1.99-2.44-.26-1.09.83-1.93,1.87-1.54.59.22,1.2.48,1.49,1.12-.45.95-.91,1.9-1.36,2.86Z"/>
      <path class="cls-6" d="M52.24,130.87c-.07,1.06.18,2.14-.22,3.19-.18.49-.45.82-1.01.87-.56.04-.91-.23-1.14-.69-.3-.61-.55-1.24-.5-1.93.96-.48,1.91-.95,2.87-1.43Z"/>
      <path class="cls-6" d="M20.09,121.97c.45.95.41,1.98.47,2.98.03.49-.23,1.02-.88,1.1-.66.09-1.09-.3-1.34-.8-.28-.56-.41-1.2-.6-1.8.9-.31,1.65-.87,2.36-1.48Z"/>
      <path class="cls-6" d="M77.71,25.19c-.91-.28-.93-.91-.47-1.53.55-.75,1.24-.9,1.91-.07-.48.53-.96,1.06-1.44,1.6Z"/>
      <path class="cls-4" d="M62.95,8.19c-.93-.01-1.67-.85-1.64-1.84.03-.94.94-1.86,1.85-1.86.83,0,1.52.82,1.54,1.81.01,1.04-.79,1.91-1.74,1.89Z"/>
    </g>
  </g>
</svg>