<?xml version="1.0" encoding="UTF-8"?>
<svg id="Calque_2" data-name="Calque 2" xmlns="http://www.w3.org/2000/svg" viewBox="0 0 148.13 228.6">
  <defs>
    <style>
      .cls-1 {
        fill: #1c181a;
      }

      .cls-1, .cls-2, .cls-3, .cls-4, .cls-5, .cls-6 {
        stroke-width: 0px;
      }

      .cls-2 {
        fill: #1d1c20;
      }

      .cls-3 {
        fill: #d2797a;
      }

      .cls-4 {
        fill: #fff;
      }

      .cls-5 {
        fill: #fdd971;
      }

      .cls-6 {
        fill: #d4998d;
      }
    </style>
  </defs>
  <g id="Calque_1-2" data-name="Calque 1">
    <g>
      <path class="cls-4" d="M107.28,77.32c-.4.86-1.09,1.59-1.21,2.58-.08.66-.05,1.28.57,1.71.62.43,1.15.08,1.65-.22.37-.22.73-.5,1.02-.82.75-.83,1.46-1.69,2.18-2.54.34-.4.62-.73,1.12-.13,1.43,1.73,3.25,2.93,5.32,3.74.51.2.65.52.54,1.02-.71,3.3-.56,6.57.45,9.8.18.57.03.88-.48,1.15-2.72,1.46-4.94,3.51-6.81,5.92-.78,1-1.42,1.33-2.51.56-.45-.31-1.05-.42-1.55.04-.48.43-.35.93-.18,1.44-.28.61-.02.96.53,1.23,1.04.5,2.08.98,3.07,1.58,1.08.65,1.82.54,2.58-.55,2.46-3.53,5.86-5.76,10.01-6.87,1.67-.45,1.81-.86.81-2.31-1.56-2.26-2.44-4.73-2.27-7.5.13-2.13.94-4.08,1.86-5.99.65-1.34.47-1.62-.98-1.88-4.46-.81-7.54-3.36-9.26-7.54-.5-1.21-.89-1.37-1.86-.45-1.56,1.48-3.04,3.05-4.57,4.57-.49.49-.48.96-.02,1.46ZM65.6,103.93c-.57.81-1.07,1.52-1.58,2.23-1.49,2.07-2.99,4.13-4.11,6.43-1.01,2.06-.02,3.6,2.24,3.6.77,0,1.49-.18,2.21-.44,4.74-1.71,9.06-4.24,13.24-6.99,1.53-1.01,2.94-1.6,4.87-1.48,4.03.24,7.01-1.98,8.1-5.67.43-1.45.76-2.93.46-4.47-.2-1.01.76-1.07,1.27-1.24.69-.22.61.55.65.96.1,1.02-.21,1.98-.64,2.88-1.26,2.7-2.52,5.4-3.83,8.08-.51,1.04-.68,2.53-2.53,2-.36-.1-.9.26-1.3.5-1.08.63-1.96,1.48-2.71,2.49-2.12,2.84-4.13,5.75-6.23,8.6-1.76,2.39-3.49,4.85-4.44,7.72-.31.95-.59,2.09.18,2.83,1.12,1.08.7,2.08.26,3.18-4.52,11.22-9.23,22.36-13.75,33.58-5.24,13.03-10.65,25.98-14.76,39.44-1.69,5.54.26,11.71,4.76,15.32,2.66,2.13,5.79,2.7,8.96,3.17,2.79.41,5.62.59,8.43.92,4.24.49,8.46,1.13,12.74,1.03,7.02-.15,14.05.18,21.07-.23,8.05-.46,16.13-.18,24.17-.78,2.52-.19,5.11-.68,6.72-3.03,1.2-1.75,1.55-3.81,1.84-5.84.6-4.22,1.21-8.42,1.57-12.68.48-5.72,1.15-11.42,1.36-17.17.14-3.75.45-7.49.75-11.23.42-5.21.91-10.41,1.38-15.61.34-3.69.71-7.38,1.05-11.08.38-4.09.79-8.18,1.09-12.28.45-6.19.31-12.38-.25-18.55-.21-2.33-.33-4.69-1.16-6.93-.32-.88-.73-1.73-1.82-1.8-1.12-.07-1.77.67-2.19,1.57-.86,1.81-1.41,3.73-1.51,5.73-.34,6.54-1.22,13-2.25,19.46-.9,5.59-1.56,11.2-2.05,16.84-.31,3.53-.69,7.06-1.1,10.59-.47,4.07-1.03,8.14-1.53,12.21-.43,3.52-.71,7.06-1.28,10.56-1.14,6.92-2.06,13.87-2.75,20.84-.32,3.32-3.53,6.6-5.74,7.16-7.32,1.86-14.8,2.15-22.31,2.01-6.31-.12-12.51-1.22-18.72-2.25-4.5-.75-8.69-2.45-12.83-4.29-1.76-.78-2.79-2.04-3.08-4.04-.37-2.49.17-4.83.76-7.19.66-2.64,2.02-5.01,2.92-7.56,4.3-12.25,9.42-24.17,14.67-36.03,2.71-6.13,5.12-12.4,8.18-18.39.29-.58.56-.97,1.32-.87,2,.25,3.34-.73,4.22-2.46,1.69-3.32,3.49-6.6,5.07-9.97,1.21-2.58,2.57-5.11,3.32-7.89.52-1.94.39-3.65-1.45-4.83-.51-.33-.17-.62-.04-.89,1.38-2.86,2.6-5.79,3.66-8.79,1.97-5.58,3.23-11.29,2.26-17.22-.9-5.46-3.49-6.71-7.53-6.39-.71.06-1.42.19-2.11.37-7.59,1.93-13.67,6.58-19.8,11.1-.66.49-.86.5-1.33-.14-1.08-1.46-2.56-2.08-4.4-2.3-3.11-.37-8.01,3.77-8.67,6.66-.8,3.53.78,6.96,4.11,8.34.58.24,1.21.38,1.94.6ZM1.72,93.07c0-3.19-.02-6.22,0-9.25.02-2.88.08-5.75.13-8.63,0-.42-.02-.82-.51-.95-.27-.08-.55-.06-.77.18-.25.27-.18.6-.19.91C.24,81.24.12,87.15,0,93.06c-.03,1.45.91,2.05,2.26,1.44,5.29-2.36,10.57-4.73,15.87-7.06.32-.14.67-.63,1.14-.07.97,1.17,2.24,2.03,3.38,3.02,2.22,1.94,4.46,3.86,6.66,5.83.31.28.5.63.96.5.46-.13.51-.52.59-.93.77-4.3,1.59-8.6,2.32-12.91.13-.8.45-1.27,1.09-1.7,7.06-4.76,14.12-9.53,21.14-14.35.81-.55,1.31-.53,2.05.07,3.17,2.55,6.42,4.99,9.58,7.54,2.94,2.37,6.09,4.5,8.84,7.11.28.26.58.45.95.16.37-.3.49-.63.38-1.14-1.83-8.79-3.62-17.58-5.46-26.37-.13-.64-.01-.99.49-1.4,3.78-3,7.54-6.02,11.3-9.04.93-.75,1.72-1.22,3.15-1.12,4.29.3,8.62.15,12.93.16,1.29,0,1.54-.39,1.07-1.6-1.1-2.81-2.17-5.63-3.33-8.41-.32-.76-.18-1.16.41-1.69,3.56-3.14,7.08-6.33,10.62-9.5.5-.44.92-.88.76-1.61-.17-.78-.87-.73-1.41-.89-3.01-.88-6.01-1.75-9.04-2.57-.62-.17-.91-.43-1.11-1.04-.91-2.83-1.88-5.63-2.83-8.44-.7-2.07-1.42-4.13-2.1-6.2-.15-.46-.37-.83-.86-.85-.26-.01-.54.15-.64.46-.14.41.03.78.15,1.15,1.35,4.02,2.91,7.99,3.97,12.08.77,2.98,2.22,4.56,5.3,5.01,2.2.32,4.31,1.19,6.61,1.86-.33.31-.52.5-.72.69-3.35,3.02-6.67,6.08-10.07,9.04-1.01.88-1.05,1.7-.59,2.82.97,2.34,1.85,4.73,2.82,7.07.34.81.29,1.08-.69,1.06-3.83-.06-7.66-.05-11.5-.07-.27,0-.6.03-.8-.1-.6-.39-1.03-.15-1.5.23-1.86,1.51-3.7,3.03-5.6,4.49-2.74,2.1-5.21,4.55-8.2,6.33-.44.26-.48.63-.38,1.13.99,4.74,1.96,9.49,2.93,14.24.76,3.73,1.5,7.47,2.27,11.28-.2-.1-.31-.13-.39-.2-5.15-4.02-10.3-8.05-15.45-12.08-.53-.42-1.36-.76-1.52-1.3-.49-1.7-1.25-.95-2.06-.4-6.98,4.74-13.96,9.47-20.95,14.21-.59.4-1.15.98-1.81,1.13-.87.21-1.04.76-1.16,1.44-.35,1.96-.67,3.92-1.03,5.88-.4,2.24-.82,4.48-1.26,6.86-3.19-2.7-6.22-5.28-9.26-7.85-.11-.09-.22-.22-.26-.36-.22-.9-.76-.86-1.45-.55-2.2,1-4.41,1.99-6.62,2.97-3.4,1.51-6.8,3.02-10.26,4.57ZM148.11,132.53c-.05-.55-.12-1.11-.15-1.66-.19-3.34-.37-6.68-.56-10.03-.03-.57-.07-1.2-.88-1.13-.7.06-.72.62-.69,1.16.09,1.91.16,3.82.28,5.73.12,1.95.29,3.89.46,5.84.05.54.19,1.06.91,1,.56-.05.71-.43.64-.92ZM117.33,192.99c.05-.27-.23-.63-.7-.7-.69-.11-.84.46-.91.99-.34,2.43-.66,4.87-1,7.3-.07.5.07.88.59,1,.53.12.87-.18.93-.66.37-2.55.7-5.1,1.08-7.93ZM111.03,203.4s.04,0,.06,0c-.03.44-.08.87-.1,1.31-.02.48.11.89.68.92.53.02.79-.28.83-.8.19-2.49.27-4.99.72-7.45.08-.43-.03-.81-.54-.9-.45-.08-.77.1-.9.56-.07.23-.18.45-.2.68-.19,1.89-.37,3.79-.55,5.68ZM143.66,128.43h-.02c0-1.03,0-2.07,0-3.1,0-.54-.19-.98-.78-.98-.6,0-.79.47-.78.99.03,2.03.09,4.05.13,6.08.01.5.19.86.75.86.65,0,.73-.45.72-.98-.02-.95,0-1.91,0-2.86Z"/>
      <path class="cls-1" d="M65.6,103.93c-.74-.22-1.36-.36-1.94-.6-3.33-1.38-4.91-4.81-4.11-8.34.65-2.89,5.56-7.03,8.67-6.66,1.83.22,3.32.84,4.4,2.3.47.63.67.62,1.33.14,6.13-4.53,12.22-9.17,19.8-11.1.69-.18,1.4-.31,2.11-.37,4.04-.32,6.64.93,7.53,6.39.97,5.93-.29,11.64-2.26,17.22-1.06,3-2.28,5.92-3.66,8.79-.13.28-.47.56.04.89,1.85,1.19,1.97,2.89,1.45,4.83-.74,2.79-2.11,5.31-3.32,7.89-1.58,3.38-3.37,6.65-5.07,9.97-.88,1.73-2.22,2.71-4.22,2.46-.77-.1-1.03.29-1.32.87-3.06,5.98-5.46,12.25-8.18,18.39-5.25,11.86-10.37,23.78-14.67,36.03-.89,2.55-2.26,4.92-2.92,7.56-.59,2.36-1.12,4.69-.76,7.19.29,2,1.32,3.26,3.08,4.04,4.14,1.84,8.33,3.54,12.83,4.29,6.2,1.03,12.41,2.13,18.72,2.25,7.51.14,14.98-.14,22.31-2.01,2.21-.56,5.41-3.84,5.74-7.16.68-6.97,1.6-13.92,2.75-20.84.58-3.5.85-7.04,1.28-10.56.5-4.07,1.05-8.14,1.53-12.21.41-3.52.79-7.05,1.1-10.59.5-5.64,1.16-11.26,2.05-16.84,1.04-6.45,1.92-12.92,2.25-19.46.1-1.99.65-3.92,1.51-5.73.42-.89,1.07-1.63,2.19-1.57,1.09.07,1.5.92,1.82,1.8.83,2.23.95,4.6,1.16,6.93.56,6.17.7,12.36.25,18.55-.3,4.1-.71,8.18-1.09,12.28-.34,3.69-.71,7.38-1.05,11.08-.47,5.2-.96,10.41-1.38,15.61-.3,3.74-.61,7.48-.75,11.23-.21,5.75-.88,11.45-1.36,17.17-.36,4.26-.97,8.46-1.57,12.68-.29,2.03-.64,4.09-1.84,5.84-1.61,2.36-4.2,2.85-6.72,3.03-8.04.6-16.12.32-24.17.78-7.02.4-14.05.07-21.07.23-4.28.09-8.51-.54-12.74-1.03-2.81-.33-5.64-.5-8.43-.92-3.17-.47-6.3-1.03-8.96-3.17-4.5-3.61-6.45-9.79-4.76-15.32,4.11-13.45,9.51-26.4,14.76-39.44,4.51-11.22,9.22-22.36,13.75-33.58.44-1.1.86-2.1-.26-3.18-.77-.74-.49-1.88-.18-2.83.94-2.87,2.68-5.34,4.44-7.72,2.1-2.85,4.11-5.77,6.23-8.6.75-1.01,1.64-1.85,2.71-2.49.4-.24.94-.6,1.3-.5,1.85.53,2.02-.96,2.53-2,1.3-2.68,2.57-5.37,3.83-8.08.42-.9.74-1.86.64-2.88-.04-.42.04-1.18-.65-.96-.51.16-1.47.23-1.27,1.24.31,1.54-.03,3.02-.46,4.47-1.09,3.69-4.06,5.92-8.1,5.67-1.94-.12-3.34.48-4.87,1.48-4.18,2.75-8.5,5.28-13.24,6.99-.71.26-1.44.44-2.21.44-2.26,0-3.25-1.54-2.24-3.6,1.12-2.3,2.62-4.36,4.11-6.43.51-.71,1.01-1.42,1.58-2.23ZM99.08,103.95c2.25-5.69,3.73-11.53,2.87-17.69-.59-4.25-2.18-6.08-6.67-5.36-3.31.53-6.31,1.84-9.16,3.54-1.16.57-2.27,1.23-3.31,2-3.03,1.7-5.73,3.89-8.53,5.93-.49.36-.29.72-.18,1.15,1.15,4.46-.9,8.3-5.13,9.86-.75.28-1.39.65-1.85,1.24-2.07,2.63-4.11,5.3-5.66,8.29-.24.47-.74.97-.25,1.52.43.48,1.02.33,1.58.2,1.92-.44,3.69-1.26,5.41-2.18,3.4-1.82,6.85-3.56,9.97-5.9-.65-.47-1.3-.85-1.84-1.35-3.34-3.12-2.35-9.27,1.88-11.83,1.06-.64,2.18-1.17,3.36-1.51,2.73-.8,5.47-.62,7.39,1.59,1.15,1.32,2.05,1.47,3.42.81,1.72.13,1.95,1.45,2.2,2.76-.17,1.73-.81,3.31-1.54,4.86-1.19,2.51-2.42,5-3.62,7.51-.16.34-.58.72.22.91,1.85.45,3.68.95,5.51,1.48.49.14.65-.08.81-.43.54-1.15,1.16-2.26,1.52-3.49.65-1.25,1.17-2.56,1.61-3.9ZM73.72,217.57c-4.64-.96-9.01-2.72-13.33-4.6-.97-.69-1.99-1.33-2.63-2.39-1.16-2.72-.97-5.52-.5-8.34.32-1.11.65-2.22.97-3.34.84-1.49,1.36-3.12,1.94-4.72,1.48-4.11,2.97-8.21,4.46-12.31.59-1.16,1.04-2.36,1.43-3.6,2.73-6.45,5.46-12.89,8.2-19.34.64-1.18,1.19-2.4,1.65-3.67.07-.09.16-.18.2-.28,2.46-5.74,4.77-11.55,7.65-17.11.25-.49.12-.68-.36-.83-3.02-.98-6.09-1.83-9.02-3.08-.54-.23-.7.05-.84.46-.53,1.5-1.07,3-1.61,4.49l-1.39,3.35c-.83,1.84-1.68,3.67-2.5,5.52-2.48,5.59-4.8,11.24-6.75,17.04-.35.91-.71,1.82-1.06,2.74-.65,1.54-1.31,3.07-1.96,4.61-1.84,4.41-3.86,8.74-5.48,13.24-.53,1.09-.99,2.22-1.33,3.39-2.21,5.3-3.89,10.79-5.55,16.28-.55,1.25-.99,2.54-1.3,3.87-.1.99-.21,1.98-.31,2.97-.51,5.12,2.54,10.24,7.21,11.98,1.97.74,4.05,1.11,6.15,1.29,1.6.16,3.2.32,4.79.47,1.19.14,2.38.23,3.56.42,6.92,1.12,13.89,1.17,20.87.82,1.2.02,2.39.03,3.59.05,1.05.2,2.11.18,3.16.11.58.06,1.17.12,1.73-.11,3.56-.12,7.12-.24,10.68-.36,1.2-.06,2.4-.12,3.6-.17,4.43.09,8.85,0,13.26-.29,1.55-.1,3.05-.51,4.46-1.19,1.54-.77,1.95-2.22,2.28-3.73.04-.15.09-.31.12-.46,1.32-6.92,2.01-13.93,2.81-20.92.04-1.29.39-2.55.28-3.84.38-2,.26-4.04.4-6.06.24-3.33.37-6.66.54-9.99.17-1.2.35-2.39.29-3.6.07-.35.17-.7.2-1.05.47-5.32.92-10.63,1.38-15.95.03-1.21.38-2.4.28-3.62.67-5.81,1.24-11.63,1.61-17.47.16-1.2.13-2.41.09-3.61.21-5.59.1-11.17-.6-16.72-.18-1.46-.29-2.94-.84-4.32-.1-.25-.19-.57-.51-.61-.32-.03-.5.25-.6.5-.29.65-.55,1.32-.78,1.99-1.12,3.27-.78,6.7-1.16,10.05-.11,1.2-.22,2.4-.34,3.6-.76,5.19-1.72,10.35-2.3,15.57-.16,1.28-.32,2.56-.48,3.85-.55,5.43-1.1,10.86-1.65,16.29l-.45,3.8c-.23,1.69-.47,3.39-.7,5.08-.51,3.82-.96,7.66-1.27,11.5-.22,1.28-.49,2.55-.52,3.85-.39,1.01-.45,2.1-.59,3.15-.69,5.09-1.33,10.19-1.99,15.28,0,1.2-.22,2.37-.45,3.54-.93,3.09-3,5.16-5.83,6.56-1.28.32-2.56.64-3.85.96-2.71.4-5.42.82-8.16,1.06-1.67.14-3.35-.06-5,.29l-3.83.08c-6.19-.08-12.32-.85-18.42-1.86-1.2-.19-2.41-.37-3.61-.56ZM97.69,115.99c.02-1.39-.47-2.08-1.74-2.45-2.25-.66-4.5-1.29-6.76-1.89-2.84-.76-4.16-.44-5.84,1.83-2.28,3.07-4.46,6.22-6.62,9.37-1.44,2.1-2.77,4.28-3.64,6.7-.64,1.79-.58,1.96,1.13,2.72,3.53,1.57,7.25,2.61,10.93,3.75,2.39.74,3.18.28,4.34-1.89,2.53-4.74,4.95-9.54,7.09-14.47.54-1.24,1-2.51,1.12-3.66ZM81.96,105.87c4.33-.01,6.5-1.73,7.44-5.71,1.26-5.3-3.4-8.38-7.23-6.75-.76.33-1.57.53-2.34.84-2.79,1.14-4.45,4.32-3.97,7.31.31,1.92,3.34,4.86,6.1,4.31ZM73,95.28c.03-3.69-3.38-6.43-6.61-5.27-1.98.71-3.57,2.01-4.69,3.73-1.27,1.94-1.41,4.12-.09,6.1,1.34,2.02,3.29,2.91,5.78,2.49,3.25-.56,5.64-2.99,5.62-7.04Z"/>
      <path class="cls-2" d="M29.57,94.3c.44-2.38.86-4.62,1.26-6.86.35-1.96.67-3.92,1.03-5.88.12-.67.4-.91,1.16-1.44.63-.37,1.21-.73,1.81-1.13,6.98-4.73,13.96-9.47,20.95-14.21.81-.55.82-.69,2.06.4.42.37.98.88,1.52,1.3,5.15,4.03,10.3,8.05,15.45,12.08.09.07.2.1.39.2-.77-3.82-1.51-7.55-2.27-11.28-.96-4.75-1.93-9.5-2.93-14.24-.11-.5-.06-.87.38-1.13,2.99-1.78,5.46-4.23,8.2-6.33,1.9-1.45,3.75-2.98,5.6-4.49.47-.38.55-.34,1.5-.23.31.04.45.07.8.1,2.68.23,7.67,0,11.5.07.98.02,1.03-.25.69-1.06-.97-2.34-1.85-4.73-2.82-7.07-.46-1.12-.42-1.94.59-2.82,3.4-2.96,6.72-6.02,10.07-9.04.2-.18.39-.37.72-.69-2.3-.67-4.41-1.54-6.61-1.86-3.08-.45-4.53-2.03-5.3-5.01-1.06-4.1-2.62-8.06-3.97-12.08-.13-.38-.29-.74-.15-1.15.1-.31.38-.47.64-.46.49.03.71.39.86.85.68,2.07,1.4,4.13,2.1,6.2.95,2.81,1.92,5.62,2.83,8.44.2.61.49.87,1.11,1.04,3.02.82,6.03,1.69,9.04,2.57.54.16,1.24.11,1.41.89.16.74-.26,1.17-.76,1.61-3.54,3.16-7.06,6.35-10.62,9.5-.6.53-.73.93-.41,1.69,1.16,2.78,2.23,5.6,3.33,8.41.48,1.21.22,1.6-1.07,1.6-4.31-.01-8.63.13-12.93-.16-1.44-.1-2.23.37-3.15,1.12-3.76,3.03-7.52,6.05-11.3,9.04-.51.4-.63.75-.49,1.4,1.84,8.78,3.63,17.58,5.46,26.37.11.51-.02.85-.38,1.14-.37.3-.67.11-.95-.16-2.76-2.61-5.9-4.73-8.84-7.11-3.17-2.55-6.41-5-9.58-7.54-.74-.6-1.24-.62-2.05-.07-7.02,4.82-14.08,9.58-21.14,14.35-.64.43-.95.91-1.09,1.7-.73,4.31-1.55,8.61-2.32,12.91-.07.42-.13.81-.59.93-.46.13-.65-.22-.96-.5-2.19-1.97-4.44-3.89-6.66-5.83-1.14-1-2.41-1.85-3.38-3.02-.47-.56-.81-.07-1.14.07-5.3,2.34-10.58,4.71-15.87,7.06-1.35.6-2.29,0-2.26-1.44.11-5.91.24-11.82.37-17.73,0-.31-.06-.64.19-.91.22-.24.5-.26.77-.18.49.14.51.53.51.95-.05,2.88-.1,5.75-.13,8.63-.02,3.03,0,6.07,0,9.25,3.47-1.54,6.87-3.05,10.26-4.57,2.21-.99,4.42-1.97,6.62-2.97.69-.31.54-.26,1.45.55"/>
      <path class="cls-5" d="M107.38,101.57c-.17-.51-.3-1.01.18-1.44.51-.46,1.1-.35,1.55-.04,1.1.77,1.74.43,2.51-.56,1.87-2.41,4.1-4.46,6.81-5.92.51-.27.66-.58.48-1.15-1.01-3.22-1.16-6.49-.45-9.8.11-.51-.03-.83-.54-1.02-2.08-.81-3.89-2.01-5.32-3.74-.5-.6-.79-.26-1.12.13-.72.85-1.43,1.71-2.18,2.54-.29.32-.65.6-1.02.82-.5.3-1.03.65-1.65.22-.62-.43-.65-1.05-.57-1.71.12-.99.82-1.72,1.21-2.58.6.15.95-.24,1.33-.61,1.28-1.28,2.58-2.54,3.92-3.86,2.01,4.27,5.34,6.87,9.98,7.96-2.56,5.01-2.66,9.89.63,14.66-.44.15-.8.27-1.17.4-2.94,1.01-5.59,2.5-7.72,4.8-.75.81-1.4,2.19-2.24,2.32-.94.14-2.05-.85-3.08-1.36-.51-.25-1.01-.52-1.54-.05Z"/>
      <path class="cls-1" d="M107.38,101.57c.53-.47,1.03-.2,1.54.05,1.03.51,2.14,1.5,3.08,1.36.84-.12,1.49-1.51,2.24-2.32,2.14-2.3,4.78-3.79,7.72-4.8.36-.12.73-.25,1.17-.4-3.29-4.77-3.19-9.65-.63-14.66-4.64-1.09-7.97-3.69-9.98-7.96-1.34,1.32-2.64,2.58-3.92,3.86-.37.37-.72.76-1.33.61-.46-.49-.46-.97.02-1.46,1.52-1.52,3-3.09,4.57-4.57.97-.92,1.36-.76,1.86.45,1.72,4.18,4.8,6.73,9.26,7.54,1.45.27,1.63.54.98,1.88-.92,1.9-1.72,3.86-1.86,5.99-.17,2.76.71,5.23,2.27,7.5.99,1.45.86,1.86-.81,2.31-4.15,1.11-7.54,3.34-10.01,6.87-.76,1.09-1.5,1.2-2.58.55-.98-.59-2.03-1.08-3.07-1.58-.56-.27-.81-.62-.53-1.23Z"/>
      <path class="cls-2" d="M148.11,132.53c.07.49-.08.87-.64.92-.72.06-.86-.46-.91-1-.17-1.94-.34-3.89-.46-5.84-.12-1.91-.18-3.82-.28-5.73-.03-.55-.01-1.1.69-1.16.8-.07.84.56.88,1.13.19,3.34.37,6.68.56,10.03.03.55.1,1.11.15,1.66Z"/>
      <path class="cls-2" d="M117.33,192.99c-.38,2.82-.71,5.38-1.08,7.93-.07.48-.4.79-.93.66-.52-.12-.66-.5-.59-1,.33-2.43.66-4.87,1-7.3.07-.53.22-1.09.91-.99.46.07.75.43.7.7Z"/>
      <path class="cls-2" d="M111.03,203.4c.18-1.89.36-3.79.55-5.68.02-.23.14-.45.2-.68.13-.46.45-.64.9-.56.5.09.62.47.54.9-.45,2.46-.53,4.96-.72,7.45-.04.52-.3.82-.83.8-.58-.03-.7-.44-.68-.92.02-.44.07-.87.1-1.31-.02,0-.04,0-.06,0Z"/>
      <path class="cls-2" d="M143.66,128.43c0,.95-.01,1.91,0,2.86.01.53-.07.98-.72.98-.56,0-.74-.36-.75-.86-.04-2.03-.1-4.05-.13-6.08,0-.52.18-.99.78-.99.59,0,.78.44.78.98,0,1.03,0,2.07,0,3.1h.02Z"/>
      <path class="cls-6" d="M60.39,212.97c4.32,1.89,8.69,3.64,13.33,4.6-.14,1.37-1.09,2.46-1.32,3.8-.11.67-.36,1.32.45,1.77.88.49,1.39-.09,1.79-.66.98-1.39,1.94-2.8,2.69-4.34,6.1,1.01,12.22,1.78,18.42,1.86,0,1.27.23,2.51.47,3.76.17.9.55,1.53,1.64,1.51,1.17-.02,1.3-.87,1.47-1.68.25-1.21.31-2.43.25-3.67,1.65-.35,3.34-.15,5-.29,2.74-.24,5.44-.66,8.16-1.06.64,1.55,1.78,2.7,3.05,3.73.54.44,1.25.52,1.88.05.64-.47.66-1.06.43-1.8-.33-1.09-1.19-1.87-1.52-2.94,2.82-1.41,4.9-3.48,5.83-6.56,1.13.33,2.28.12,3.41.04.89-.06,1.64-.49,1.76-1.47.13-1.02-.49-1.45-1.43-1.7-1.09-.29-2.17-.47-3.29-.42.66-5.09,1.3-10.19,1.99-15.28.14-1.06.2-2.14.59-3.15,1.67.04,3.18-.52,4.69-1.15.83-.35.95-1.03.81-1.78-.14-.74-.64-1.16-1.43-1.16-1.19,0-2.38-.08-3.54.23.32-3.85.76-7.68,1.27-11.5.23-1.69.46-3.39.7-5.08,1.43.24,2.75-.28,4.07-.67.97-.29,1.24-1.11,1.08-2-.15-.8-.76-1.14-1.59-1.12-1.03.03-2.07,0-3.11,0,.55-5.43,1.1-10.86,1.65-16.29,1.13-.18,2.28-.28,3.39-.57.99-.25,1.56-.96,1.36-2.06-.18-.96-.84-1.25-1.75-1.22-.83.03-1.67,0-2.51,0,.58-5.22,1.54-10.38,2.3-15.57.16,0,.32.01.48,0,1.31-.09,2.4-.91,2.45-1.83.05-.99-.53-1.47-2.12-1.75-.15-.03-.32-.01-.48-.02.38-3.35.05-6.79,1.16-10.05.23-.68.5-1.34.78-1.99.11-.24.28-.53.6-.5.32.03.41.35.51.61.55,1.39.66,2.86.84,4.32.7,5.56.81,11.13.6,16.72-.92-.09-1.81.13-2.71.23-.86.1-1.41.62-1.57,1.39-.19.91.54,1.36,1.25,1.63.93.36,1.93.39,2.92.36-.36,5.84-.94,11.66-1.61,17.47-1.38.2-2.73-.55-4.13-.08-.68.23-1.27.53-1.34,1.32-.07.82.51,1.24,1.15,1.49,1.29.51,2.61.97,4.03.9-.46,5.32-.92,10.63-1.38,15.95-.03.35-.13.7-.2,1.05-1.05-.16-2.1-.35-3.15-.47-.76-.08-1.4.13-1.76.91-.4.84.18,1.3.7,1.69,1.16.85,2.45,1.41,3.92,1.48-.18,3.33-.31,6.67-.54,9.99-.14,2.02-.02,4.06-.4,6.06-1.51.03-3.02-.12-4.51.23-.69.16-1.21.6-1.37,1.19-.19.68.53,1,.99,1.34.27.2.66.26,1.01.34,1.2.26,2.4.5,3.6.74-.8,6.99-1.49,14-2.81,20.92-.03.16-.08.31-.12.46-.57-.05-.9-.48-1.26-.85-.67-.69-1.34-1.37-2.19-1.83-.59-.32-1.22-.46-1.8-.01-.57.44-.43,1.09-.33,1.67.06.33.34.62.49.94.7,1.44,1.99,2.45,2.8,3.82-1.41.68-2.91,1.09-4.46,1.19-4.42.29-8.84.38-13.26.29.01-1.12-.17-2.22-.51-3.28-.21-.64-.68-1.03-1.43-1.05-.73-.02-.97.46-1.18.99-.44,1.13-.52,2.32-.49,3.52-3.56.12-7.12.24-10.68.36-.58-.02-1.17-.19-1.73.11-1.06.07-2.12.09-3.16-.11,0-.87-.03-1.74.02-2.61.04-.86-.49-1.38-1.13-1.65-.68-.29-1.07.45-1.36.9-.63,1-1.2,2.05-1.12,3.31-6.98.35-13.95.3-20.87-.82-1.18-.19-2.37-.28-3.56-.42.42-1.11,1.64-1.62,2.07-2.71.26-.66.59-1.34-.18-1.94-.67-.52-1.28-.41-1.96.03-1.78,1.16-3.35,2.54-4.73,4.15-2.1-.18-4.18-.55-6.15-1.29-4.67-1.75-7.72-6.86-7.21-11.98.1-.99.2-1.98.31-2.97,1.39,0,2.79.09,4.17-.04,1.53-.15,3.09-.07,4.6-.45.63-.16,1.08-.53,1.16-1.19.09-.76-.4-1.17-1.03-1.42-.33-.13-.69-.19-1.03-.25-1.77-.33-3.56-.23-5.34-.26-.42,0-.89.15-1.23-.25,1.66-5.49,3.34-10.97,5.55-16.28.45.05.79.34,1.17.55,1.56.88,3.24,1.46,4.99,1.82.61.13,1.34.15,1.64-.6.28-.7.08-1.32-.53-1.79-.22-.17-.43-.35-.66-.49-1.49-.9-2.98-1.8-4.48-2.68-.23-.13-.53-.13-.79-.19,1.62-4.5,3.64-8.83,5.48-13.24.64-1.54,1.3-3.08,1.96-4.61,1.2,1.13,2.71,1.7,4.18,2.35.63.28,1.13.24,1.56-.36.44-.63.18-1.12-.26-1.58-1.27-1.33-2.82-2.27-4.43-3.14,1.96-5.8,4.28-11.45,6.75-17.04.82-1.85,1.67-3.68,2.5-5.52,2.17,1.19,4.45,2.1,6.89,2.6.84.17,1.54.04,1.93-.75.41-.83-.15-1.42-.75-1.8-2.12-1.34-4.33-2.52-6.68-3.4.54-1.5,1.08-2.99,1.61-4.49.15-.41.3-.69.84-.46,2.93,1.25,6,2.1,9.02,3.08.48.16.62.34.36.83-2.88,5.55-5.19,11.36-7.65,17.11-.04.1-.13.19-.2.28-1.53-.38-3.04-.81-4.65-.76-.83.03-1.75,0-1.97.91-.23.93.58,1.47,1.34,1.87.45.24.96.39,1.4.63.72.4,1.6.43,2.24,1.01-2.73,6.45-5.46,12.89-8.2,19.34-.51-.03-1.02-.08-1.53-.13-1.33-.13-2.66-.42-4.01-.36-.83.04-1.58.39-1.77,1.16-.16.65.33,1.24,1,1.59,1.53.8,3.17,1.19,4.88,1.34-1.49,4.1-2.98,8.21-4.46,12.31-.58,1.6-1.1,3.23-1.94,4.72-1.95.03-3.89-.18-5.84.15-.81.14-1.6.33-1.63,1.23-.04.99.88,1.29,1.65,1.41,1.6.25,3.22.37,4.84.55-.46,2.82-.66,5.62.5,8.34-1.85,1.24-3.59,2.61-5.13,4.23-.54.57-1.09,1.28-.53,1.99.57.72,1.41.71,2.24.18,2.04-1.3,4.13-2.52,6.04-4.02Z"/>
      <path class="cls-6" d="M86.11,84.44c2.85-1.7,5.85-3.01,9.16-3.54,4.49-.72,6.08,1.11,6.67,5.36.86,6.16-.61,12-2.87,17.69-.95,0-1.91.02-2.86-.01-.99-.04-1.68.48-1.84,1.34-.15.84.49,1.43,1.27,1.8.6.29,1.3.32,1.83.77-.36,1.22-.98,2.34-1.52,3.49-.16.34-.32.57-.81.43-1.83-.53-3.66-1.03-5.51-1.48-.81-.19-.38-.57-.22-.91,1.2-2.51,2.43-5,3.62-7.51.73-1.55,1.37-3.13,1.54-4.86.21-.03.36-.13.48-.31,1.14-1.72,2.31-3.42,3.4-5.17.46-.73.78-1.57,1.05-2.39.21-.63.12-1.25-.54-1.67-.63-.39-1.24-.37-1.76.1-2.09,1.88-3.54,4.22-4.83,6.69-1.36.67-2.26.52-3.42-.81-1.92-2.21-4.66-2.38-7.39-1.59-1.18.34-2.3.87-3.36,1.51-4.23,2.56-5.22,8.72-1.88,11.83.54.5,1.19.88,1.84,1.35-3.12,2.34-6.57,4.08-9.97,5.9-1.72.92-3.49,1.74-5.41,2.18-.55.13-1.15.27-1.58-.2-.49-.55,0-1.05.25-1.52,1.55-2.99,3.59-5.65,5.66-8.29.46-.59,1.1-.96,1.85-1.24,4.23-1.56,6.27-5.4,5.13-9.86-.11-.43-.31-.79.18-1.15,2.8-2.04,5.49-4.23,8.53-5.93,1.09,1.52,2.61,2.53,4.16,3.48.48.29,1.11.58,1.65.05.54-.54.56-1.22.26-1.87-.16-.35-.49-.62-.69-.95-.6-.97-1.69-1.57-2.07-2.7Z"/>
      <path class="cls-6" d="M97.69,115.99c-.12,1.15-.58,2.42-1.12,3.66-2.14,4.93-4.56,9.73-7.09,14.47-1.16,2.17-1.95,2.64-4.34,1.89-3.68-1.14-7.39-2.19-10.93-3.75-1.71-.76-1.77-.93-1.13-2.72.87-2.42,2.2-4.6,3.64-6.7,2.16-3.16,4.34-6.3,6.62-9.37,1.68-2.27,3.01-2.59,5.84-1.83,2.26.61,4.52,1.24,6.76,1.89,1.27.37,1.76,1.06,1.74,2.45Z"/>
      <path class="cls-4" d="M81.96,105.87c-2.76.55-5.79-2.39-6.1-4.31-.48-2.99,1.18-6.17,3.97-7.31.77-.31,1.58-.52,2.34-.84,3.83-1.64,8.49,1.44,7.23,6.75-.95,3.99-3.11,5.7-7.44,5.71ZM81.5,100.52c-.63,0-1.13.15-1.09.92.03.65.36,1.06,1.03,1.06.64,0,1.07-.37,1.11-1,.04-.68-.39-.99-1.05-.98Z"/>
      <path class="cls-4" d="M73,95.28c.02,4.05-2.36,6.49-5.62,7.04-2.49.43-4.44-.47-5.78-2.49-1.31-1.98-1.18-4.15.09-6.1,1.13-1.72,2.72-3.03,4.69-3.73,3.23-1.15,6.64,1.58,6.61,5.27ZM64.79,97.35c.09.85.37,1.39,1.18,1.33.61-.04,1.09-.36,1.06-1.03-.03-.76-.58-1.12-1.28-1.08-.5.03-1.06.18-.96.78Z"/>
      <path class="cls-3" d="M92.38,94.25c1.28-2.47,2.74-4.81,4.83-6.69.52-.47,1.14-.49,1.76-.1.66.42.75,1.04.54,1.67-.28.82-.6,1.66-1.05,2.39-1.09,1.75-2.27,3.45-3.4,5.17-.12.18-.27.28-.48.31-.25-1.31-.48-2.63-2.2-2.76Z"/>
      <path class="cls-3" d="M45.89,205.08c.34.4.81.25,1.23.25,1.78.03,3.57-.08,5.34.26.35.07.71.12,1.03.25.62.25,1.11.67,1.03,1.42-.08.66-.52,1.04-1.16,1.19-1.51.38-3.06.3-4.6.45-1.38.13-2.78.04-4.17.04.31-1.33.75-2.62,1.3-3.87Z"/>
      <path class="cls-3" d="M71.91,138.91c2.35.88,4.56,2.06,6.68,3.4.6.38,1.17.97.75,1.8-.39.79-1.09.93-1.93.75-2.44-.5-4.71-1.41-6.89-2.6.46-1.12.93-2.23,1.39-3.35Z"/>
      <path class="cls-3" d="M60.39,212.97c-1.91,1.49-4,2.71-6.04,4.02-.84.53-1.68.55-2.24-.18-.56-.71-.02-1.42.53-1.99,1.54-1.62,3.28-2.99,5.13-4.23.64,1.06,1.66,1.69,2.63,2.39Z"/>
      <path class="cls-3" d="M52.78,185.42c.27.06.57.06.79.19,1.5.88,2.99,1.78,4.48,2.68.23.14.44.33.66.49.61.47.81,1.1.53,1.79-.3.75-1.02.73-1.64.6-1.75-.36-3.43-.94-4.99-1.82-.38-.21-.71-.5-1.17-.55.34-1.17.8-2.29,1.33-3.39Z"/>
      <path class="cls-3" d="M64.62,181.87c-1.71-.15-3.34-.54-4.88-1.34-.68-.35-1.16-.94-1-1.59.18-.76.94-1.12,1.77-1.16,1.35-.07,2.68.22,4.01.36.51.05,1.02.1,1.53.13-.39,1.23-.84,2.44-1.43,3.6Z"/>
      <path class="cls-3" d="M127.37,224.96c-.81-1.36-2.1-2.37-2.8-3.82-.16-.32-.44-.61-.49-.94-.1-.57-.25-1.23.33-1.67.58-.44,1.21-.31,1.8.01.85.46,1.53,1.14,2.19,1.83.36.37.68.8,1.26.85-.32,1.51-.74,2.96-2.28,3.73Z"/>
      <path class="cls-3" d="M57.25,202.24c-1.61-.17-3.24-.3-4.84-.55-.78-.12-1.69-.42-1.65-1.41.03-.9.81-1.09,1.63-1.23,1.94-.33,3.89-.12,5.84-.15-.32,1.11-.65,2.22-.97,3.34Z"/>
      <path class="cls-3" d="M57.65,225.2c1.38-1.6,2.95-2.99,4.73-4.15.67-.44,1.29-.55,1.96-.03.77.59.44,1.27.18,1.94-.43,1.1-1.65,1.6-2.07,2.71-1.6-.16-3.2-.32-4.79-.47Z"/>
      <path class="cls-3" d="M86.11,84.44c.38,1.13,1.47,1.73,2.07,2.7.21.33.53.6.69.95.3.66.28,1.34-.26,1.87-.54.53-1.17.24-1.65-.05-1.56-.95-3.08-1.96-4.16-3.48,1.04-.77,2.15-1.43,3.31-2Z"/>
      <path class="cls-3" d="M74.25,158.93c-.64-.58-1.52-.61-2.24-1.01-.45-.25-.95-.4-1.4-.63-.76-.4-1.56-.94-1.34-1.87.22-.91,1.14-.89,1.97-.91,1.61-.05,3.12.38,4.65.76-.45,1.27-1.01,2.49-1.65,3.67Z"/>
      <path class="cls-3" d="M125.96,185.2c1.17-.31,2.36-.23,3.54-.23.79,0,1.29.41,1.43,1.16.14.74.02,1.43-.81,1.78-1.5.63-3.02,1.19-4.69,1.15.03-1.3.3-2.57.52-3.85Z"/>
      <path class="cls-3" d="M132.57,199.85c-1.2-.25-2.4-.48-3.6-.74-.35-.08-.74-.13-1.01-.34-.46-.34-1.17-.67-.99-1.34.16-.59.67-1.03,1.37-1.19,1.5-.35,3.01-.2,4.51-.23.11,1.3-.24,2.56-.28,3.84Z"/>
      <path class="cls-3" d="M99.58,219.91c.06,1.23,0,2.46-.25,3.67-.17.81-.29,1.66-1.47,1.68-1.09.02-1.46-.61-1.64-1.51-.24-1.24-.47-2.48-.47-3.76,1.28-.03,2.55-.05,3.83-.08Z"/>
      <path class="cls-3" d="M61.27,164.83c1.6.87,3.15,1.81,4.43,3.14.44.46.7.95.26,1.58-.43.6-.93.64-1.56.36-1.47-.65-2.99-1.21-4.18-2.35.35-.91.71-1.82,1.06-2.74Z"/>
      <path class="cls-3" d="M116.59,217.6c.33,1.07,1.19,1.86,1.52,2.94.22.74.21,1.33-.43,1.8-.63.47-1.34.39-1.88-.05-1.26-1.02-2.41-2.18-3.05-3.73,1.28-.32,2.56-.64,3.84-.96Z"/>
      <path class="cls-3" d="M135.68,159.34c-1.43.07-2.74-.39-4.03-.9-.64-.25-1.22-.67-1.15-1.49.07-.79.66-1.09,1.34-1.32,1.39-.47,2.75.29,4.13.08.1,1.22-.25,2.41-.28,3.62Z"/>
      <path class="cls-3" d="M77.33,218.13c-.75,1.54-1.71,2.95-2.69,4.34-.4.57-.91,1.15-1.79.66-.81-.45-.56-1.09-.45-1.77.23-1.34,1.18-2.43,1.32-3.8,1.2.19,2.41.37,3.61.56Z"/>
      <path class="cls-3" d="M128.39,164.82c1.04,0,2.07.03,3.11,0,.83-.02,1.44.32,1.59,1.12.16.89-.1,1.71-1.08,2-1.32.39-2.64.91-4.07.67.15-1.27.3-2.53.45-3.8Z"/>
      <path class="cls-3" d="M122.86,207.49c1.12-.05,2.2.14,3.29.42.94.25,1.56.67,1.43,1.7-.12.98-.87,1.41-1.76,1.47-1.13.07-2.28.28-3.41-.04.22-1.17.45-2.34.45-3.54Z"/>
      <path class="cls-3" d="M133.8,179.95c-1.47-.07-2.76-.62-3.92-1.48-.52-.39-1.1-.85-.7-1.69.36-.77,1.01-.99,1.76-.91,1.05.12,2.1.31,3.15.47.06,1.21-.12,2.41-.29,3.6Z"/>
      <path class="cls-3" d="M130.52,144.69c.84,0,1.67.03,2.51,0,.91-.03,1.58.26,1.75,1.22.2,1.1-.37,1.81-1.36,2.06-1.1.28-2.26.39-3.39.57.16-1.28.32-2.56.48-3.85Z"/>
      <path class="cls-3" d="M106.04,226.61c-.04-1.2.05-2.39.49-3.52.2-.52.44-1.01,1.18-.99.75.02,1.22.41,1.43,1.05.34,1.06.52,2.16.51,3.28-1.2.06-2.4.12-3.6.17Z"/>
      <path class="cls-3" d="M137.57,138.25c-.99.03-1.99,0-2.92-.36-.72-.28-1.44-.72-1.25-1.63.16-.76.7-1.29,1.57-1.39.9-.1,1.79-.32,2.71-.23.04,1.21.06,2.41-.09,3.61Z"/>
      <path class="cls-3" d="M97.47,107.85c-.53-.45-1.23-.48-1.83-.77-.78-.38-1.42-.96-1.27-1.8.16-.86.85-1.38,1.84-1.34.95.04,1.91.01,2.86.01-.44,1.34-.95,2.65-1.61,3.9Z"/>
      <path class="cls-3" d="M86.87,226.92c-.08-1.26.49-2.31,1.12-3.31.28-.45.67-1.18,1.36-.9.63.26,1.17.79,1.13,1.65-.04.87-.01,1.74-.02,2.61-1.2-.02-2.39-.03-3.59-.05Z"/>
      <path class="cls-3" d="M133.16,125.52c.16,0,.32-.01.48.02,1.59.28,2.17.76,2.12,1.75-.05.92-1.14,1.73-2.45,1.83-.16.01-.32,0-.48,0,.11-1.2.22-2.4.34-3.6Z"/>
      <path class="cls-3" d="M93.63,227.08c.56-.3,1.15-.13,1.73-.11-.56.23-1.15.16-1.73.11Z"/>
      <path class="cls-2" d="M81.5,100.52c.66-.01,1.09.3,1.05.98-.04.64-.47,1.01-1.11,1-.67,0-1-.41-1.03-1.06-.04-.77.46-.92,1.09-.92Z"/>
      <path class="cls-2" d="M64.79,97.35c-.09-.6.46-.76.96-.78.7-.04,1.25.32,1.28,1.08.03.67-.45.99-1.06,1.03-.81.06-1.09-.48-1.18-1.33Z"/>
    </g>
  </g>
</svg>