<?xml version="1.0" encoding="UTF-8"?>
<svg id="Calque_2" data-name="Calque 2" xmlns="http://www.w3.org/2000/svg" viewBox="0 0 157.53 118.78">
  <defs>
    <style>
      .cls-1 {
        fill: #d39589;
      }

      .cls-1, .cls-2, .cls-3, .cls-4 {
        stroke-width: 0px;
      }

      .cls-2 {
        fill: #fdfcfd;
      }

      .cls-3 {
        fill: #1b1617;
      }

      .cls-4 {
        fill: #d17275;
      }
    </style>
  </defs>
  <g id="Calque_1-2" data-name="Calque 1">
    <g>
      <path class="cls-3" d="M43.45,37.33c.69,2.55,1.37,5.11,2.07,7.66.9,3.29,1.32,6.69,2.38,9.94.37,1.14-.03,2.16-1.11,2.58-1.03.4-.79.9-.48,1.59,2.85,6.23,4.8,12.75,6.25,19.44.52,2.41.96,4.84,1.08,7.31.03.64.24.73.81.81,1.33.18,2.69.24,3.91.93,3.31,1.86,4.47,5.54,2.83,9.42-1.23,2.9-3.04,5.25-6.39,5.86-.74.13-.55.74-.6,1.11-.4,2.68-1.14,5.28-2.01,7.83-.92,2.7-2.44,5.01-5.05,6.4-2.55,1.36-4.69.3-5.24-2.53-.16-.84-.16-1.66-.08-2.5.29-2.92.06-5.8-.58-8.67-.16-.69-.31-.85-.99-.5-1.4.72-2.91.81-4.42.41-3-.8-4.34-2.53-4.43-5.97-.1-4.12,1.14-7.63,5.1-9.61.56-.28.47-.7.5-1.08.19-2.6-.06-5.19-.39-7.76-.73-5.66-2.19-11.12-4.48-16.36-.35-.8-.67-.84-1.4-.55-2.15.84-3.24.32-4.16-1.89-.69-1.66-.83-3.47-1.29-5.19-.79-2.95-1.99-5.76-2.97-8.65-.64-1.89-1.09-3.82-1.41-5.78-.24-1.45-.24-2.93.62-4.37-1.89,0-3.61,0-5.32,0-4.99.01-9.98.02-14.97.04-.55,0-1.22.11-1.21-.73.01-.85.7-.71,1.24-.71,7.11-.08,14.21-.15,21.32-.22,1.6-.02,1.53,0,1.28-1.53-.96-5.87-1.53-11.83,1.13-17.36C29.34,7.61,36.45,1.68,46.61.2c6.35-.92,11.83,1.33,16.26,6,3.7,3.89,5.71,8.64,6.82,13.81.98,4.61,1.27,9.3,1.69,13.98.14,1.59.11,1.59,1.73,1.59,3.87,0,7.75-.04,11.62.02.89.01,1.14-.24,1.2-1.09.2-2.87,1.53-5.24,3.46-7.29,2.95-3.14,7.33-2.76,9.68.84,1.33,2.03,2.06,4.3,2.23,6.71.05.72.15,1.03.99,1.02,9.14-.1,18.29-.16,27.43-.19.82,0,.86-.32.88-.97.08-2.39.61-4.64,2.25-6.51,1.79-2.03,4.03-2.85,6.65-2.27,2.69.61,4.17,2.5,4.69,5.13.25,1.25.4,2.52.48,3.79.04.68.14.91.91.89,3.31-.07,6.63-.04,9.94-.05.2,0,.4,0,.6,0,.65-.01,1.44-.05,1.42.83-.02.77-.75.77-1.37.77-3.31,0-6.63.07-9.94-.03-1.2-.03-1.33.33-1.37,1.44-.23,6.49-.22,13.03-1.89,19.34-1.55,5.86-3.91,11.44-8.07,16.01-3.4,3.73-7.41,6.47-12.53,7.32-5.42.9-10.54-.09-15.65-1.99-7.17-2.66-11.8-7.92-15.38-14.33-3.99-7.14-5.72-14.84-5.37-23.01.06-1.36.09-2.71-.1-4.07-.07-.5-.14-.77-.76-.77-13.78.03-27.55.04-41.33.06-.07,0-.15.05-.34.12ZM69.9,34.62c-.16-1.28-.08-2.58-.42-3.84-.25-4.46-.73-8.88-1.98-13.18-.34-1.25-.75-2.47-1.41-3.6-.46-.96-.84-1.98-1.4-2.88-3.86-6.22-9.24-9.8-16.79-9.53-1.3.1-2.6.24-3.84.7-.12,0-.25-.03-.36,0-7.19,2.07-12.45,6.59-16.29,12.89-.74,1.1-1.28,2.29-1.64,3.57-.16.49-.35.96-.46,1.46-1.05,4.78-.79,9.54.12,14.31.13.68.5.52.95.36,2.55-.88,5.09-1.76,7.65-2.61.82-.27,1.93-.24,2.44-.78.61-.65-.19-1.71-.11-2.61-.03-1.31.19-2.58.51-3.84,1.01-2.45,2.31-4.72,4.1-6.68,1.02-.92,2.08-1.79,3.24-2.52,2.29-1.43,4.77-1.95,7.44-1.53,1.25.4,2.32,1.1,3.32,1.92,2.36,2.38,3.28,5.41,3.86,8.59.17,1.26,0,2.55.3,3.81.01,2.05.04,4.11.02,6.16,0,.58.11.87.77.83,1.1-.06,2.21-.04,3.32-.06,1.2,0,2.4,0,3.59,0,.78.02,1.56-.01,2.34.06.86.08.88-.36.72-.98ZM35.65,68.4c1.3,4.47,2.28,9,2.72,13.65.08,1.28.16,2.56.23,3.84,0,.75-.13,1.55.1,2.23.09.27,1,.23,1.52.4.41.14.81.34,1.17.57,4.14,2.58,4.86,9.24,1.43,12.97-.25.27-.68.39-.46,1.04.95,2.86,1.19,5.83,1.03,8.84-.06,1.07-.11,2.16-.03,3.23.13,1.92,1.36,2.59,3.05,1.69,1.37-.73,2.45-1.8,3.2-3.14,1.76-3.18,2.45-6.69,3.11-10.21.11-.59-.08-.82-.69-.96-.81-.19-1.59-.55-2.2-1.15-5.19-5.09-3.24-11.19,1.56-14.11.61-.37.81-.69.75-1.38-.4-4.5-1.37-8.87-2.61-13.2-.31-1.22-.57-2.46-1.08-3.62-.95-3.54-2.46-6.86-3.84-10.23-.28-.69-.72-.31-1.07-.19-2.52.85-5.04,1.69-7.53,2.61-.91.33-2.35.3-2.6,1.11-.22.74.61,1.79.98,2.71.42,1.1.84,2.2,1.26,3.31ZM88.99,30.27c-1.07,1.61-1.68,3.35-1.54,5.31,0,3.44-.01,6.89-.03,10.33,0,1.11.16,2.21.37,3.3.18,1.32.37,2.64.78,3.92.95,5.68,3.37,10.7,6.81,15.27.75,1.15,1.54,2.26,2.53,3.21,1.8,2.2,4.06,3.77,6.6,5,4.6,2.22,9.33,3.85,14.54,3.48,1.22,0,2.42-.17,3.61-.47.16,0,.32,0,.47-.03,7.37-1.93,11.99-6.93,15.12-13.58.7-1.13,1.2-2.34,1.61-3.6,2.93-6.49,2.84-13.47,3.35-20.35.11-1.28.13-2.56.03-3.84.16-1.87-.06-3.74-.31-5.58-.23-1.71-.51-3.49-2.17-4.57-3.31-2.16-7.52-.04-8.27,4.16-.41,1.42-.49,2.85-.28,4.31-.19,4.08.69,8.12.54,12.2-.1,1.28-.2,2.56-.29,3.84-.67,4.34-2.14,8.32-5.26,11.55-1.01.92-2.02,1.82-3.19,2.54-.83.26-1.64.62-2.49.77-2.79.49-5.61.64-8.43.28-1.23-.32-2.41-.77-3.55-1.34-3.55-2.19-5.83-5.49-7.86-9.01l-1.07-2.87c-.36-2.31-.84-4.61-.6-6.97.21-2.14.14-4.29.09-6.43.08-1.37,0-2.72-.2-4.07.06-2.92-.5-5.68-2.13-8.15-1.29-1.96-3.07-2.63-5.12-1.99-1.76.55-2.75,1.93-3.65,3.4ZM116.06,37.17v.08c-4.55,0-9.1.01-13.65-.01-.63,0-.88.1-.87.83.04,3.99-.07,7.98.03,11.97.14,6,3.15,10.56,7.63,14.24,3.3,2.71,7.25,2.15,11.1,1.84,2.3-.19,4.07-1.36,5.67-2.96,3.45-3.43,4.66-7.73,5.1-12.4.4-4.25-.25-8.44-.44-12.65-.04-.83-.31-.95-1.04-.94-4.51.03-9.02.02-13.53.02ZM39.52,32.53c-.16.04-.28.07-.4.09-5.15.95-10,2.84-14.86,4.68-1.75.67-2.23,1.58-1.97,3.4.28,1.89.68,3.75,1.26,5.58,1.07,3.37,2.56,6.6,3.36,10.06.29,1.28.52,2.57.89,3.83.51,1.72,1.05,1.95,2.72,1.38.79-.27,1.57-.56,2.36-.83,4.17-1.42,8.35-2.84,12.52-4.27.54-.19,1.2-.23.95-1.16-1.24-4.48-1.93-9.09-3.29-13.54-.81-2.66-1.34-5.4-2.34-8-.23-.6-.44-1.22-1.22-1.21ZM50.29,35.6h0c2.19,0,4.39-.03,6.58.01.69.01.87-.21.85-.87-.11-2.71-.1-5.43-.28-8.13-.16-2.47-.67-4.88-1.87-7.08-2-3.66-5.57-4.84-9.32-3.06-1.15.55-2.26,1.2-3.18,2.08-3.34,3.2-5.76,6.81-5,11.76.08.55.05.93.89.78,1.6-.29,2.44.26,3.09,1.78.28.65.51,1.33.68,2.02.14.57.42.72.99.71,2.19-.03,4.39-.01,6.58-.01ZM60.37,94.22c.03-2.91-1.02-4.7-3.19-5.48-2.23-.8-4.58-1.2-6.43.8-2.98,3.25-3.4,5.99-.98,9.51,1.74,2.53,4.69,3.13,7.15,1.29,2.19-1.64,3.21-3.96,3.44-6.12ZM43.67,97.16c-.17-1.9-.45-3.51-1.28-4.95-1.49-2.62-3.9-3.17-6.32-1.39-2.63,1.94-3.36,4.72-3.14,7.81.11,1.56.47,3.06,2,3.98,1.75,1.06,3.44.83,5.05-.19,2.02-1.28,3.5-2.98,3.68-5.26Z"/>
      <path class="cls-1" d="M119.06,80.09c-5.21.37-9.94-1.26-14.54-3.48-2.54-1.23-4.8-2.8-6.6-5,.15-.18.28-.39.46-.53,1.06-.83,2.27-1.48,3.16-2.53.57-.67.72-1.45.38-2.23-.31-.74-1.07-.53-1.69-.57-.51-.03-.92.21-1.36.39-1.3.54-2.21,1.68-3.48,2.25-3.44-4.57-5.86-9.59-6.81-15.27.2-.41.57-.63.93-.89,1.4-1.01,3.06-1.51,4.57-2.28.75-.39,1.44-.95,1.25-1.96-.19-1.01-1.05-1.4-1.86-1.35-2.19.12-4.16.87-5.67,2.57-.22-1.09-.38-2.18-.37-3.3.02-3.44.02-6.89.03-10.33.86.06,1.36-.6,1.97-1.01,1.2-.81,2.6-1.2,3.83-1.93.74-.44,1.41-1.07,1.07-2.04-.32-.89-1.02-1.28-2.05-1.29-1.23-.02-2.14.85-3.29.96.9-1.47,1.89-2.85,3.65-3.4,2.05-.64,3.83.03,5.12,1.99,1.62,2.47,2.18,5.23,2.13,8.15-.54-.11-1.08-.25-1.62-.34-1.56-.26-3.12-.67-4.68-.07-.89.34-1.51.91-1.35,1.97.14.88.68,1.55,1.55,1.52,2.19-.1,4.24.48,6.31,1,.05,2.15.12,4.29-.09,6.43-.23,2.36.24,4.66.6,6.97-2.34.12-4.23,1.23-5.93,2.72-.79.69-.68,1.51-.16,2.25.54.76,1.31,1.02,2.2.58,1.1-.54,2.19-1.11,3.31-1.63.6-.28,1.33-.34,1.65-1.04,2.03,3.52,4.31,6.82,7.86,9.01-.2.48-.42.94-.58,1.43-.41,1.19-.93,2.36-.49,3.68.22.65.63,1.05,1.23,1.15.65.11,1.14-.31,1.44-.87.72-1.32,1.47-2.62,1.95-4.06,2.83.36,5.64.21,8.43-.28.85-.15,1.66-.51,2.49-.77.31.13.48.39.64.67.61,1.04,1.5,1.85,2.38,2.65.74.68,1.63.85,2.5.26.73-.5.8-1.65.22-2.57-.19-.3-.43-.56-.63-.86-.62-.91-1.54-1.6-1.91-2.69,3.12-3.23,4.58-7.21,5.26-11.55,1.75-.27,3.56-.18,5.27-.74,1.2-.4,1.74-1.22,1.43-2.24-.31-1.05-1.23-1.34-2.17-1.3-1.42.07-2.82.29-4.23.44.15-4.08-.73-8.12-.54-12.2.4,0,.81.02,1.16-.22,1.39-.94,2.91-1.62,4.42-2.32.53-.24.88-.68,1.28-1.06.47-.45.48-1.03.25-1.55-.21-.47-.6-.83-1.2-.85-1.09-.04-2.14.02-3.14.54-.81.42-1.58.93-2.49,1.15.75-4.2,4.96-6.32,8.27-4.16,1.66,1.08,1.93,2.86,2.17,4.57.25,1.84.47,3.7.31,5.58-1.34.16-2.67.32-4.01.48-1.38.16-2.06.92-1.97,2.18.08,1.06.85,1.67,2.18,1.64,1.27-.02,2.52-.21,3.77-.46-.51,6.89-.42,13.87-3.35,20.35-1.37-.44-2.55-1.26-3.81-1.92-1.46-.77-2.51-.58-3.1.49-.54.98-.17,1.84,1.14,2.73,1.32.89,2.73,1.61,4.16,2.3-3.13,6.66-7.75,11.65-15.12,13.58-.15.04-.31.02-.47.03-.16-1.81-.27-3.63-.51-5.42-.13-.96-.79-1.53-1.83-1.49-1.02.04-1.66.62-1.72,1.6-.12,1.94-.02,3.88.45,5.78Z"/>
      <path class="cls-1" d="M40.97,18.35c-1.8,1.96-3.1,4.23-4.1,6.68-1.32.24-2.69.17-3.99.57-1.27.39-1.71,1.05-1.5,2.3.14.88,1.07,1.53,2.18,1.43.94-.09,1.87-.3,2.81-.45-.08.9.72,1.96.11,2.61-.51.54-1.61.5-2.44.78-2.56.85-5.1,1.73-7.65,2.61-.45.16-.82.32-.95-.36-.91-4.76-1.17-9.53-.12-14.31.11-.5.31-.97.46-1.46.9.02,1.68.44,2.53.67,2.02.53,3.88,1.67,6.08,1.56.93-.05,1.95.02,2.22-1.13.28-1.17-.64-1.68-1.49-2.16-.17-.1-.35-.19-.54-.25-2.39-.75-4.77-1.5-7.16-2.25,3.85-6.3,9.1-10.82,16.29-12.89.11-.03.24,0,.36,0,.18,1.9.54,3.77,1.35,5.5.56,1.21,1.51,1.69,2.45,1.39.72-.23,1.17-1.43.95-2.59-.02-.12-.09-.22-.11-.34-.17-1.57-.95-3.04-.81-4.66,7.55-.27,12.93,3.31,16.79,9.53.56.9.94,1.92,1.4,2.88-1.05.3-1.9.92-2.7,1.64-.57.51-.85,1.12-.53,1.79.33.68.87,1.14,1.77,1.16,1.12.03,1.88-.8,2.88-.99,1.24,4.31,1.73,8.73,1.98,13.18-1.44.41-2.88.81-4.32,1.23-1.95.58-2.64,1.87-1.91,3.54-1.11.01-2.21,0-3.32.06-.67.04-.78-.25-.77-.83.02-2.05-.01-4.11-.02-6.16,1.59-.3,3.18-.64,4.78-.89.77-.12,1.47-.32,2.08-.8.55-.43,1.01-.94.82-1.72-.18-.75-.72-1.05-1.44-1.21-.68-.15-1.31-.18-1.99-.03-1.51.32-3.03.57-4.55.85-.58-3.18-1.5-6.21-3.86-8.59,1.29-1.1,2.25-2.45,2.89-4,.34-.81-.02-1.45-.67-1.98-.61-.5-1.2-.35-1.76.02-.52.34-1,.72-1.42,1.24-.76.95-1.41,2.01-2.36,2.81-2.67-.42-5.15.1-7.44,1.53-.45-.32-.57-.85-.84-1.28-.81-1.31-1.38-2.78-2.53-3.86-.49-.46-1.12-.74-1.74-.38-.61.36-1.12.87-1.04,1.73.09.94.47,1.75.94,2.54.73,1.22,1.47,2.43,1.96,3.78Z"/>
      <path class="cls-1" d="M39.52,32.53c.78-.01.99.61,1.22,1.21,1,2.61,1.53,5.35,2.34,8,1.36,4.45,2.05,9.06,3.29,13.54.26.93-.4.98-.95,1.16-4.17,1.43-8.35,2.84-12.52,4.27-.79.27-1.57.56-2.36.83-1.67.57-2.21.34-2.72-1.38-.37-1.25-.6-2.55-.89-3.83-.79-3.46-2.29-6.69-3.36-10.06-.58-1.83-.98-3.69-1.26-5.58-.27-1.83.21-2.74,1.97-3.4,4.86-1.85,9.72-3.73,14.86-4.68.12-.02.23-.05.4-.09Z"/>
      <path class="cls-1" d="M38.37,82.04c-.44-4.64-1.42-9.17-2.72-13.65.78-.06,1.41-.52,2.09-.83,1.48-.67,3.03-1.24,4.29-2.31.52-.44,1.04-.99.76-1.74-.27-.7-.89-.93-1.65-.9-2.52.09-4.66,1.21-6.75,2.46-.37-.92-1.2-1.97-.98-2.71.24-.81,1.68-.78,2.6-1.11,2.49-.91,5.01-1.76,7.53-2.61.35-.12.79-.49,1.07.19,1.38,3.37,2.89,6.7,3.84,10.23-.42.1-.87.15-1.27.31-1.48.56-3.07.85-4.3,1.97-.59.53-.94,1.13-.63,1.89.31.76.99.92,1.78.9,1.96-.04,3.66-1,5.51-1.44,1.24,4.33,2.22,8.7,2.61,13.2.06.69-.14,1.01-.75,1.38-4.8,2.92-6.75,9.02-1.56,14.11.61.6,1.39.97,2.2,1.15.6.14.8.37.69.96-.66,3.52-1.35,7.03-3.11,10.21-.75,1.35-1.82,2.42-3.2,3.14-1.69.89-2.92.23-3.05-1.69-.07-1.07-.03-2.15.03-3.23.16-3.01-.08-5.97-1.03-8.84-.22-.65.21-.77.46-1.04,3.43-3.73,2.71-10.39-1.43-12.97-.37-.23-.76-.44-1.17-.57-.51-.17-1.42-.13-1.52-.4-.23-.68-.09-1.48-.1-2.23.97-.17,1.96-.27,2.91-.52,1.38-.35,2.83-.37,4.15-.95.92-.4,1.48-1.09,1.27-2.16-.21-1.02-.97-1.23-1.89-1.19-.87.04-1.73.02-2.6.22-1.34.31-2.71.5-4.07.75Z"/>
      <path class="cls-2" d="M60.37,94.22c-.23,2.16-1.26,4.48-3.44,6.12-2.46,1.85-5.41,1.24-7.15-1.29-2.42-3.52-2-6.26.98-9.51,1.84-2.01,4.2-1.6,6.43-.8,2.17.78,3.21,2.57,3.19,5.48ZM54.42,97.11c-.99,0-1.92.92-1.93,1.9,0,.87.86,1.71,1.79,1.72.98,0,1.94-.93,1.93-1.89,0-.81-.96-1.73-1.79-1.72Z"/>
      <path class="cls-2" d="M43.67,97.16c-.18,2.28-1.67,3.98-3.68,5.26-1.61,1.02-3.29,1.25-5.05.19-1.53-.93-1.89-2.42-2-3.98-.22-3.09.5-5.87,3.14-7.81,2.42-1.78,4.82-1.22,6.32,1.39.82,1.45,1.1,3.05,1.28,4.95ZM36.86,102.42c1.17-.02,1.83-.56,1.86-1.46.02-.79-.79-1.66-1.56-1.66-.86,0-1.73.88-1.74,1.76-.01,1.02.51,1.44,1.44,1.36Z"/>
      <path class="cls-4" d="M27.41,15.17c2.39.75,4.77,1.5,7.16,2.25.19.06.37.15.54.25.85.48,1.76.99,1.49,2.16-.27,1.15-1.29,1.08-2.22,1.13-2.19.11-4.06-1.03-6.08-1.56-.84-.22-1.63-.65-2.53-.67.36-1.28.9-2.47,1.64-3.57Z"/>
      <path class="cls-4" d="M38.37,82.04c1.36-.24,2.73-.43,4.07-.75.87-.2,1.73-.18,2.6-.22.92-.04,1.69.16,1.89,1.19.21,1.06-.35,1.75-1.27,2.16-1.32.58-2.77.6-4.15.95-.95.24-1.94.35-2.91.52-.08-1.28-.16-2.56-.23-3.84Z"/>
      <path class="cls-4" d="M34.38,65.09c2.09-1.25,4.22-2.37,6.75-2.46.77-.03,1.39.2,1.65.9.29.75-.24,1.29-.76,1.74-1.26,1.07-2.81,1.64-4.29,2.31-.68.31-1.31.76-2.09.83-.42-1.1-.84-2.2-1.26-3.31Z"/>
      <path class="cls-4" d="M100.09,41.08c-2.07-.52-4.12-1.1-6.31-1-.86.04-1.41-.63-1.55-1.52-.16-1.06.45-1.63,1.35-1.97,1.57-.59,3.13-.19,4.68.07.55.09,1.08.23,1.62.34.2,1.35.28,2.71.2,4.07Z"/>
      <path class="cls-4" d="M58.83,24.81c1.52-.28,3.04-.52,4.55-.85.68-.15,1.31-.12,1.99.03.73.16,1.27.46,1.44,1.21.18.78-.27,1.29-.82,1.72-.61.48-1.31.68-2.08.8-1.6.25-3.19.59-4.78.89-.31-1.25-.13-2.54-.3-3.81Z"/>
      <path class="cls-4" d="M87.8,49.21c1.51-1.7,3.48-2.45,5.67-2.57.81-.04,1.68.35,1.86,1.35.19,1.01-.5,1.57-1.25,1.96-1.51.78-3.16,1.28-4.57,2.28-.36.26-.73.48-.93.89-.41-1.28-.6-2.6-.78-3.92Z"/>
      <path class="cls-4" d="M132.5,32.22c.9-.22,1.68-.73,2.49-1.15,1-.51,2.05-.58,3.14-.54.6.02.99.38,1.2.85.23.52.22,1.09-.25,1.55-.4.38-.75.82-1.28,1.06-1.51.7-3.04,1.38-4.42,2.32-.35.24-.76.22-1.16.22-.21-1.46-.13-2.89.28-4.31Z"/>
      <path class="cls-4" d="M101.68,57.36c-.33.71-1.05.76-1.65,1.04-1.11.52-2.21,1.09-3.31,1.63-.9.44-1.67.18-2.2-.58-.52-.74-.63-1.56.16-2.25,1.71-1.49,3.59-2.6,5.93-2.72.36.96.72,1.92,1.07,2.87Z"/>
      <path class="cls-4" d="M47.9,1.59c-.14,1.62.64,3.09.81,4.66.01.12.09.22.11.34.21,1.16-.23,2.37-.95,2.59-.94.3-1.89-.19-2.45-1.39-.81-1.74-1.17-3.6-1.35-5.5,1.24-.46,2.53-.6,3.84-.7Z"/>
      <path class="cls-4" d="M40.97,18.35c-.49-1.34-1.24-2.56-1.96-3.78-.47-.79-.85-1.6-.94-2.54-.08-.86.43-1.37,1.04-1.73.62-.37,1.25-.08,1.74.38,1.15,1.08,1.72,2.55,2.53,3.86.27.43.39.97.84,1.28-1.16.73-2.22,1.6-3.24,2.52Z"/>
      <path class="cls-4" d="M119.06,80.09c-.47-1.9-.57-3.84-.45-5.78.06-.99.7-1.56,1.72-1.6,1.04-.04,1.7.53,1.83,1.49.24,1.8.35,3.62.51,5.42-1.18.31-2.38.48-3.61.47Z"/>
      <path class="cls-4" d="M88.99,30.27c1.15-.11,2.06-.98,3.29-.96,1.03.01,1.74.39,2.05,1.29.34.97-.33,1.6-1.07,2.04-1.23.72-2.63,1.12-3.83,1.93-.61.41-1.11,1.08-1.97,1.01-.14-1.96.46-3.7,1.54-5.31Z"/>
      <path class="cls-4" d="M138.26,66c-1.43-.69-2.84-1.4-4.16-2.3-1.31-.89-1.68-1.75-1.14-2.73.59-1.07,1.65-1.26,3.1-.49,1.26.66,2.44,1.48,3.81,1.92-.41,1.26-.91,2.47-1.61,3.6Z"/>
      <path class="cls-4" d="M49.53,72.71c-1.85.44-3.55,1.41-5.51,1.44-.79.02-1.46-.14-1.78-.9-.31-.76.04-1.36.63-1.89,1.23-1.12,2.82-1.41,4.3-1.97.4-.15.85-.21,1.27-.31.51,1.16.77,2.4,1.08,3.62Z"/>
      <path class="cls-4" d="M63.25,35.55c-.73-1.67-.04-2.96,1.91-3.54,1.44-.42,2.88-.82,4.32-1.23.34,1.26.26,2.56.42,3.84-1.02.31-2.04.62-3.06.93-1.2,0-2.4,0-3.59,0Z"/>
      <path class="cls-4" d="M132.76,48.73c1.41-.15,2.82-.38,4.23-.44.94-.04,1.86.24,2.17,1.3.3,1.02-.23,1.85-1.43,2.24-1.71.56-3.51.47-5.27.74.1-1.28.2-2.56.29-3.84Z"/>
      <path class="cls-4" d="M95.39,68.39c1.27-.57,2.18-1.72,3.48-2.25.44-.18.85-.42,1.36-.39.62.03,1.38-.17,1.69.57.33.78.19,1.56-.38,2.23-.89,1.05-2.09,1.7-3.16,2.53-.18.14-.31.35-.46.53-.99-.95-1.78-2.06-2.53-3.21Z"/>
      <path class="cls-4" d="M51.66,14.3c.95-.79,1.6-1.85,2.36-2.81.42-.52.9-.89,1.42-1.24.56-.36,1.15-.52,1.76-.02.65.53,1.01,1.17.67,1.98-.65,1.55-1.61,2.9-2.89,4-1-.82-2.07-1.52-3.32-1.92Z"/>
      <path class="cls-4" d="M143.22,42.05c-1.24.25-2.5.44-3.77.46-1.33.03-2.11-.58-2.18-1.64-.09-1.26.59-2.01,1.97-2.18,1.34-.16,2.67-.32,4.01-.48.1,1.28.08,2.56-.03,3.84Z"/>
      <path class="cls-4" d="M127.21,64.12c.36,1.09,1.29,1.78,1.91,2.69.2.29.44.56.63.86.58.92.52,2.07-.22,2.57-.87.59-1.76.43-2.5-.26-.87-.81-1.76-1.61-2.38-2.65-.16-.28-.33-.54-.64-.67,1.17-.71,2.19-1.62,3.19-2.54Z"/>
      <path class="cls-4" d="M113.09,67.7c-.48,1.44-1.23,2.74-1.95,4.06-.3.55-.79.97-1.44.87-.6-.1-1.01-.5-1.23-1.15-.45-1.33.08-2.49.49-3.68.17-.49.39-.95.58-1.43,1.14.57,2.32,1.02,3.55,1.34Z"/>
      <path class="cls-4" d="M36.36,28.87c-.94.15-1.87.36-2.81.45-1.11.11-2.03-.55-2.18-1.43-.21-1.25.23-1.91,1.5-2.3,1.3-.4,2.67-.33,3.99-.57-.32,1.26-.54,2.53-.51,3.84Z"/>
      <path class="cls-4" d="M67.5,17.6c-1,.2-1.76,1.02-2.88.99-.9-.03-1.44-.48-1.77-1.16-.32-.67-.04-1.28.53-1.79.8-.72,1.65-1.34,2.7-1.64.66,1.12,1.07,2.35,1.41,3.6Z"/>
      <path class="cls-1" d="M66.84,35.55c1.02-.31,2.04-.62,3.06-.93.16.62.14,1.06-.72.98-.78-.07-1.56-.04-2.34-.06Z"/>
      <path class="cls-3" d="M54.42,97.11c.83,0,1.78.91,1.79,1.72,0,.96-.95,1.9-1.93,1.89-.93,0-1.8-.85-1.79-1.72,0-.97.94-1.89,1.93-1.9Z"/>
      <path class="cls-3" d="M36.86,102.42c-.93.08-1.45-.35-1.44-1.36,0-.88.87-1.76,1.74-1.76.77,0,1.58.86,1.56,1.66-.02.91-.69,1.44-1.86,1.46Z"/>
    </g>
  </g>
</svg>