<?xml version="1.0" encoding="UTF-8"?>
<svg id="Calque_2" data-name="Calque 2" xmlns="http://www.w3.org/2000/svg" viewBox="0 0 169.54 176.38">
  <defs>
    <style>
      .cls-1 {
        fill: #d39589;
      }

      .cls-1, .cls-2, .cls-3, .cls-4, .cls-5, .cls-6 {
        stroke-width: 0px;
      }

      .cls-2 {
        fill: #d17476;
      }

      .cls-3 {
        fill: #19181b;
      }

      .cls-4 {
        fill: #fcfcfc;
      }

      .cls-5 {
        fill: #181213;
      }

      .cls-6 {
        fill: #fff;
      }
    </style>
  </defs>
  <g id="Calque_1-2" data-name="Calque 1">
    <g>
      <path class="cls-5" d="M66.88,169.61c-3.18,1.09-6.17,2.1-9.26,2.84-6.82,1.62-13.71,2.77-20.7,3.3-4.5.34-9,.7-13.51.62-4.62-.08-9.23-.49-13.61-2.12-6.92-2.58-10.56-9.16-9.66-16.4,1.24-10.07,7.55-15.7,16.3-19.19,6.54-2.61,13.49-3.84,20.39-5.12,4.92-.91,9.83-1.88,14.76-2.74,4.74-.83,9.49-1.61,14.29-2.02.99-.09,1.01-.55,1.01-1.31-.02-15.49-.02-30.99-.03-46.48,0-.24-.02-.48,0-.72.04-.55-.22-1.34.72-1.34.94,0,.73.77.73,1.33.02,15.65.04,31.31.02,46.96,0,1.01.11,1.34,1.28,1.18,1.73-.24,3.46-.53,5.17-.85.57-.11.93-.26,1.02-1.01.13-1.09,1.06-1.63,2-2.03.95-.41,1.91-.77,2.78-1.36,1.49-1.02,2.19-2.45,2.38-4.19.3-2.64,1.43-3.95,4.12-4.54.89-.2,1.2-.57,1.28-1.45.42-4.53,1.33-8.95,2.99-13.2,2.55-6.49,7.76-9.95,14.01-12.2,1.6-.58,3.26-1,4.9-1.44.51-.13.64-.32.73-.85.52-2.92,2.21-4.85,5.08-5.73,2.75-.84,5.19-.4,7.19,1.76,1.16,1.25,1.33,2.86,1.32,4.47,0,.67.12.94.83,1.12,1.79.44,3.48.04,5.18-.39.58-.14,1.13-.36,1.71-.52,2.08-.58,3.63.53,3.8,2.71.17,2.24-1.09,4.36-3.32,5.49-2.41,1.22-5.05,1.62-7.69,1.98-4.41.61-8.92.44-13.25,1.67-7.06,2-11.18,7.06-12.41,14.48-.05.28-.09.55-.14.83-.22,1.11,0,1.81,1.3,2.16,2.97.8,3.75,2.49,3.07,5.91-.7,3.53-2.48,6.51-4.63,9.31-2.58,3.37-5.34,6.55-9.12,8.67-1.76.99-3.59,1.65-5.61,1.85-1.82.18-3.19-.48-4.15-2-.26-.42-.45-.78-1.07-.7-3.24.4-6.51.55-9.73,1.1-.88.15-.95.49-.95,1.22,0,10.38-.02,20.76-.04,31.15,0,.4,0,.8,0,1.2,0,.52-.09,1.01-.73,1.01-.61,0-.77-.44-.76-.99.01-1.08,0-2.15,0-3.41ZM90.61,108.37c-.42,1.5-.59,3.03-.75,4.57-.08.76.14,1.04.94,1.07,2.1.08,4.22-.03,6.3.39.5.1.67-.01.7-.57.21-4.47,1.83-8.4,4.55-11.92.96-.88,1.92-1.75,2.87-2.63,2.01-1.32,4.13-2.36,6.47-2.99,4.15-1.12,8.45-1.04,12.68-1.57,2.65-.34,5.29-.68,7.73-1.9,1.24-.62,2.12-1.54,2.39-2.95.41-2.14-.37-2.89-2.4-2.26-2.46.78-4.92,1.37-7.5.6-.56-.17-.68.22-.88.55-1.2,1.92-2.98,2.95-5.19,3.26-3.26.46-6.13-.81-6.98-3.32-.38-1.13-.83-1.32-1.8-.91-.22.09-.45.17-.67.25-1.23.32-2.45.63-3.61,1.17-.19.04-.39.05-.57.12-7.14,2.7-11.87,7.55-13.46,15.17-.35,1.27-.71,2.54-.81,3.87ZM65.92,138.36c4.36-.54,8.7-1.29,13.19-1.47-.72-1.95-1.44-3.79-2.07-5.66-.83-2.43-.8-2.44-3.27-1.91-1.03.17-2.05.34-3.08.52-5.16.34-10.27,1.03-15.36,1.91l-3.54.62c-2.62.28-5.16.96-7.74,1.42-3.01.54-6.02,1.13-9.03,1.69-1.23.1-2.43.38-3.61.73-.82.15-1.64.28-2.45.46-4.47.96-8.88,2.1-13.11,3.86-1.24.42-2.4,1-3.5,1.71-2.72,1.57-4.97,3.7-6.95,6.11-3.11,3.8-3.97,8.28-3.8,13.05.08,1.23.19,2.46.8,3.57.75,2.3,2.1,4.19,4.01,5.65,4.35,3.31,9.51,3.74,14.69,4.1,1.28.1,2.56.16,3.84.05,6.37.05,12.7-.46,19.01-1.29,1.18-.21,2.39-.22,3.54-.59,4.88-.65,9.66-1.77,14.36-3.2,1.31-.38,2.6-.8,3.84-1.36.98.01,1.27-.49,1.21-1.43-.08-1.15-.02-2.31-.02-3.47,0-1.25,0-2.49,0-3.94-3.68,1.97-7.5,2.56-11.27,3.35-1.2.22-2.4.44-3.6.67-1.58.16-3.16.33-4.75.46-4.01.34-8.01.65-12.02.98-1.28-.04-2.56-.05-3.83.22-.56,0-1.11,0-1.67,0-4.02.02-8.05.26-11.94-1.08-.99-.46-1.98-.93-2.98-1.39-.42-.31-.84-.6-1.25-.92-2.02-1.57-3.35-3.43-2.48-6.17.53-1.09,1.26-2.02,2.1-2.89,3.5-2.8,7.57-4.39,11.82-5.62,1.02-.27,2.04-.55,3.07-.82,5.15-.95,10.25-2.11,15.34-3.32,1.14-.11,2.25-.4,3.35-.72,5.22-.9,10.38-2.12,15.56-3.21,1.2-.22,2.39-.44,3.59-.66ZM66.88,139.86c-4.87.65-9.53,1.83-14.23,2.79-9.17,1.88-18.34,3.77-27.43,6.01-3.91.96-7.66,2.43-10.79,5.08-2.95,2.5-2.76,4.83.37,7.07,3.27,2.34,7.02,2.84,10.87,2.91,3.31.07,6.61-.29,9.92-.41,6.61-.25,13.19-.85,19.71-1.98,3.71-.64,7.42-1.37,10.82-3.11.45-.23.77-.4.77-1.02-.03-5.74-.02-11.49-.02-17.34ZM92.29,115.56c-1.34,0-2.3-.05-3.25,0-3.06.18-4.07,1.06-4.61,4.02-.42,2.3-1.46,4.09-3.75,4.98-.81.32-1.58.75-2.36,1.15-1.05.53-1.38,1.27-.88,2.35.66,1.45,1.08,2.99,1.65,4.47.63,1.63,1.25,3.26,1.94,4.87.82,1.91,1.88,2.41,3.89,2.05,1.67-.3,3.21-.91,4.63-1.82,5.32-3.42,9.03-8.22,11.78-13.82.63-1.29.93-2.71,1.02-4.15.11-1.86-.28-2.39-2.07-2.93-2.72-.82-5.49-1.33-7.96-1.17ZM122.98,85.5c0-2.81-1.2-4.33-3.69-4.7-3.62-.54-6.57,1.99-6.66,5.69-.05,2.2,1.1,3.56,3.29,3.95.96.17,1.88.18,2.84,0,2.6-.46,4.22-2.33,4.21-4.95Z"/>
      <path class="cls-3" d="M103.12,43.23c5.79,0,11.58,0,17.36,0,1.42,0,2.69.25,3.85,1.25,2.73,2.37,5.99,4.12,8.24,7.06,2.82,3.68,5.01,7.63,5.41,12.37.17,2.01-.15,3.96-.61,5.91-.08.34-.4.86.02,1.07.43.22.66-.33.89-.61,4.13-5.08,7.49-10.57,8.77-17.1.53-2.71.53-5.47.3-8.22-.14-1.65-.02-1.82,1.53-1.83,3.15-.03,6.31-.14,9.46-.04,1.83.06,3.22-.65,4.53-1.76,3.27-2.77,4.32-6.44,4.69-10.57.87-9.68.15-19.35.27-29.03,0-.67-.31-1.69.73-1.73,1.16-.04.83,1.04.83,1.73.04,8.9.31,17.82-.01,26.71-.16,4.48-.62,9.15-4.14,12.72-1.34,1.36-2.79,2.46-4.5,3.28-.43.21-.84.18-1.27.18-3.27,0-6.55,0-9.82.02-.39,0-.91-.2-.81.6.72,6.01-.57,11.62-3.36,16.93-2.35,4.46-5.02,8.69-8.98,11.94-.42.34-.8.75-1.35.43-.58-.34-.35-.9-.22-1.39.56-2.15,1.25-4.27,1.46-6.49.37-3.91-.79-7.4-2.66-10.8-2.32-4.21-6.07-6.88-9.71-9.73-1.23-.96-2.47-1.29-4.01-1.3-11.86-.09-23.71-.27-35.57-.42-.59,0-1.31.12-1.27-.81.04-.86.75-.67,1.27-.67M137.24,71.18s.05-.05.08-.08c-.05-.02-.1-.06-.15-.07-.02,0-.05.04-.07.07.05.03.1.05.15.08Z"/>
      <path class="cls-1" d="M25.01,147.1c-4.25,1.22-8.32,2.82-11.81,5.62-1.38-.04-2.75-.36-4.15-.25-.73.05-1.05.5-1.26,1.08-.22.59.26.91.63,1.15.81.51,1.73.78,2.68.91-.88,2.74.45,4.59,2.48,6.17.41.32.83.61,1.25.92-1.63,1.17-2.46,2.96-3.5,4.59-.43.67-.42,1.35.27,1.91.71.57,1.42.34,1.93-.18,1.52-1.56,3.11-3.06,4.28-4.92,3.89,1.35,7.93,1.1,11.94,1.08.56,0,1.11,0,1.67,0,.05,1.11-.12,2.23.22,3.32.22.71.4,1.47,1.31,1.45.91-.02,1.41-.65,1.59-1.5.25-1.16.47-2.33.71-3.49,4.01-.32,8.01-.64,12.02-.98,1.58-.13,3.16-.31,4.75-.46-.12,1.29.23,2.52.6,3.73.22.71.73,1.54,1.52,1.44.83-.11,1.22-.94,1.24-1.81.03-1.34.38-2.67.24-4.02,3.77-.78,7.59-1.38,11.27-3.35,0,1.45,0,2.7,0,3.94,0,1.16-.06,2.32.02,3.47.06.94-.23,1.44-1.21,1.43-.04-1.1.04-2.2-.24-3.3-.18-.72-.35-1.46-1.23-1.51-.93-.05-1.45.59-1.65,1.4-.39,1.56-.59,3.16-.73,4.77-4.71,1.43-9.48,2.55-14.36,3.2,0-1.19-.03-2.39,0-3.58.02-.91-.28-1.58-1.24-1.72-1.01-.16-1.26.62-1.49,1.35-.46,1.48-.66,3-.8,4.54-6.31.83-12.64,1.34-19.01,1.29-.03-1.08.58-2.05.51-3.15-.04-.59-.08-1.16-.72-1.35-.6-.18-1.2-.11-1.6.46-.88,1.23-1.68,2.5-2.02,3.99-5.18-.35-10.35-.78-14.69-4.1-1.91-1.46-3.27-3.35-4.01-5.65,1.01-.41,2.04-.81,3.04-1.25,1.01-.44,2.08-.77,2.94-1.51.47-.4.7-.9.42-1.47-.26-.52-.75-.86-1.36-.78-2,.26-3.95.73-5.84,1.44-.16-4.77.69-9.26,3.8-13.05,1.97-2.41,4.23-4.54,6.95-6.11.73.93,1.46,1.87,2.2,2.79.62.77,1.43,1.31,2.39.83.95-.48.69-1.44.37-2.22-.43-1.06-.97-2.08-1.46-3.11,4.23-1.76,8.64-2.91,13.11-3.86.81-.17,1.63-.3,2.45-.46.15,1.67.64,3.26,1.27,4.8.25.6.78,1.14,1.46,1.05.77-.1,1.21-.73,1.33-1.51.05-.31.02-.64-.01-.95-.14-1.38-.29-2.75-.44-4.12,3.01-.57,6.02-1.15,9.03-1.69,2.58-.47,5.12-1.15,7.74-1.42.3,1.83.41,3.7,1.17,5.43.28.64.79.86,1.46.77.67-.09.83-.54.99-1.14.54-1.92-.21-3.79-.08-5.69,5.09-.87,10.21-1.56,15.36-1.91-.06,1.1.36,2.11.72,3.11.23.65.73,1.22,1.54,1.04.8-.17,1.1-.76,1.13-1.59.04-1.05-.18-2.06-.31-3.08,2.46-.53,2.44-.52,3.27,1.91.64,1.87,1.35,3.7,2.07,5.66-4.48.19-8.82.93-13.19,1.47-.08-1.48-.41-2.9-.83-4.31-.19-.63-.4-1.27-1.23-1.21-.79.06-1.14.57-1.32,1.3-.4,1.62-.11,3.26-.21,4.88-5.18,1.1-10.34,2.31-15.56,3.21-.22-1.25-.46-2.51-1-3.66-.28-.59-.74-1.09-1.5-.94-.75.15-1.06.75-1.08,1.4-.03,1.31-.21,2.63.23,3.91-5.09,1.21-10.2,2.38-15.34,3.32-.21-1.43-.9-2.69-1.5-3.97-.34-.74-.8-1.39-1.72-1-.86.37-1.01,1.12-.78,2,.33,1.26.62,2.53.93,3.79Z"/>
      <path class="cls-1" d="M92.29,115.56c2.48-.16,5.24.35,7.96,1.17,1.79.54,2.18,1.06,2.07,2.93-.09,1.44-.39,2.86-1.02,4.15-2.75,5.6-6.46,10.4-11.78,13.82-1.42.91-2.96,1.52-4.63,1.82-2.01.37-3.08-.14-3.89-2.05-.69-1.61-1.31-3.24-1.94-4.87-.57-1.48-.99-3.02-1.65-4.47-.49-1.08-.17-1.81.88-2.35.78-.39,1.55-.83,2.36-1.15,2.3-.89,3.33-2.69,3.75-4.98.54-2.95,1.56-3.84,4.61-4.02.95-.06,1.91,0,3.25,0Z"/>
      <path class="cls-1" d="M109.05,88.05c.22-.08.45-.15.67-.25.97-.41,1.41-.22,1.8.91.85,2.51,3.72,3.78,6.98,3.32,2.21-.31,3.98-1.34,5.19-3.26.21-.33.32-.72.88-.55,2.57.77,5.04.17,7.5-.6,2.02-.64,2.8.12,2.4,2.26-.27,1.41-1.14,2.33-2.39,2.95-2.43,1.22-5.08,1.56-7.73,1.9-4.22.54-8.52.45-12.68,1.57-2.33.63-4.46,1.66-6.47,2.99-.21-.09-.43-.18-.64-.28-1.65-.83-3.04-2.17-4.88-2.63-.96-.24-1.58.44-1.33,1.41.12.46.33.87.69,1.22,1.05,1.02,2.04,2.11,3.28,2.91-2.71,3.52-4.34,7.45-4.55,11.92-.03.56-.2.67-.7.57-2.08-.42-4.2-.31-6.3-.39-.8-.03-1.02-.31-.94-1.07.16-1.54.34-3.07.75-4.57,1.92.46,3.68,1.48,5.73,1.46.83,0,1.58-.12,1.85-.96.27-.82-.46-1.17-1.02-1.54-1.8-1.18-3.83-1.9-5.75-2.83,1.59-7.63,6.32-12.47,13.46-15.17.18-.07.38-.08.57-.12.39,2.05,1.26,3.9,2.45,5.61.51.74,1.18,1.14,2.02.74.84-.41.95-1.17.69-2.04-.54-1.82-1.04-3.65-1.55-5.47Z"/>
      <path class="cls-4" d="M122.98,85.5c0,2.62-1.61,4.49-4.21,4.95-.96.17-1.89.16-2.84,0-2.19-.39-3.35-1.75-3.29-3.95.09-3.71,3.04-6.23,6.66-5.69,2.49.37,3.69,1.89,3.69,4.7ZM121.98,85.02c-.1-.61-.06-1.36-.98-1.35-.9.02-1.24.67-1.28,1.44-.04.75.25,1.37,1.14,1.33.87-.03,1.06-.69,1.11-1.42Z"/>
      <path class="cls-2" d="M109.05,88.05c.52,1.82,1.02,3.65,1.55,5.47.26.87.15,1.63-.69,2.04-.85.41-1.51,0-2.02-.74-1.19-1.71-2.05-3.55-2.45-5.61,1.15-.54,2.38-.85,3.61-1.17Z"/>
      <path class="cls-2" d="M91.42,104.51c1.92.94,3.95,1.65,5.75,2.83.56.37,1.29.72,1.02,1.54-.27.84-1.02.95-1.85.96-2.05.01-3.82-1-5.73-1.46.1-1.32.46-2.59.81-3.87Z"/>
      <path class="cls-2" d="M17.8,164.08c-1.17,1.86-2.76,3.36-4.28,4.92-.52.53-1.22.76-1.93.18-.69-.56-.7-1.24-.27-1.91,1.04-1.62,1.87-3.41,3.5-4.59.99.46,1.99.93,2.98,1.39Z"/>
      <path class="cls-2" d="M1.59,161.4c1.89-.71,3.84-1.18,5.84-1.44.6-.08,1.1.26,1.36.78.28.57.06,1.07-.42,1.47-.86.73-1.93,1.07-2.94,1.51-1,.44-2.03.83-3.04,1.25-.61-1.11-.72-2.34-.8-3.57Z"/>
      <path class="cls-2" d="M55.32,131.74c-.13,1.9.62,3.77.08,5.69-.17.6-.32,1.05-.99,1.14-.67.09-1.17-.13-1.46-.77-.77-1.73-.87-3.6-1.17-5.43,1.18-.21,2.36-.42,3.54-.62Z"/>
      <path class="cls-2" d="M102.34,101.91c-1.25-.8-2.23-1.89-3.28-2.91-.36-.35-.57-.75-.69-1.22-.25-.97.36-1.65,1.33-1.41,1.84.46,3.22,1.8,4.88,2.63.21.1.43.19.64.28-.96.88-1.92,1.75-2.87,2.63Z"/>
      <path class="cls-2" d="M35.01,135.48c.15,1.37.3,2.75.44,4.12.03.32.06.64.01.95-.12.78-.56,1.4-1.33,1.51-.68.09-1.21-.45-1.46-1.05-.63-1.54-1.12-3.13-1.27-4.8,1.18-.35,2.38-.63,3.61-.73Z"/>
      <path class="cls-2" d="M62.33,139.02c.09-1.63-.2-3.26.21-4.88.18-.74.53-1.25,1.32-1.3.84-.06,1.05.58,1.23,1.21.42,1.41.75,2.84.83,4.31-1.2.22-2.39.44-3.59.66Z"/>
      <path class="cls-2" d="M61.84,169.69c.14-1.61.34-3.21.73-4.77.2-.81.72-1.46,1.65-1.4.88.05,1.04.79,1.23,1.51.28,1.09.2,2.2.24,3.3-1.24.56-2.53.99-3.84,1.36Z"/>
      <path class="cls-2" d="M15.84,140.53c.49,1.04,1.03,2.05,1.46,3.11.31.78.58,1.74-.37,2.22-.95.48-1.76-.06-2.39-.83-.74-.92-1.47-1.86-2.2-2.79,1.1-.71,2.26-1.29,3.5-1.71Z"/>
      <path class="cls-2" d="M43.94,173.48c.14-1.54.35-3.06.8-4.54.23-.73.48-1.51,1.49-1.35.96.15,1.26.81,1.24,1.72-.03,1.19,0,2.39,0,3.58-1.15.37-2.36.38-3.54.59Z"/>
      <path class="cls-2" d="M55.61,162.83c.14,1.35-.21,2.68-.24,4.02-.02.87-.41,1.7-1.24,1.81-.79.1-1.3-.72-1.52-1.44-.37-1.2-.72-2.43-.6-3.73,1.2-.22,2.4-.44,3.6-.67Z"/>
      <path class="cls-2" d="M25.01,147.1c-.31-1.27-.6-2.54-.93-3.79-.23-.88-.08-1.63.78-2,.92-.39,1.37.26,1.72,1,.6,1.29,1.29,2.54,1.5,3.97-1.02.27-2.04.55-3.07.82Z"/>
      <path class="cls-2" d="M35.24,164.94c-.23,1.16-.46,2.33-.71,3.49-.18.85-.68,1.48-1.59,1.5-.91.02-1.09-.74-1.31-1.45-.34-1.1-.17-2.22-.22-3.32,1.26-.27,2.55-.26,3.83-.22Z"/>
      <path class="cls-2" d="M43.42,142.95c-.44-1.28-.27-2.61-.23-3.91.02-.65.33-1.26,1.08-1.4.76-.15,1.23.35,1.5.94.54,1.16.78,2.41,1,3.66-1.1.32-2.21.6-3.35.72Z"/>
      <path class="cls-2" d="M21.09,174.72c.34-1.5,1.14-2.77,2.02-3.99.41-.57,1.01-.64,1.6-.46.64.2.68.76.72,1.35.07,1.1-.54,2.07-.51,3.15-1.28.11-2.56.05-3.84-.05Z"/>
      <path class="cls-2" d="M73.76,129.32c.14,1.02.35,2.03.31,3.08-.03.83-.33,1.42-1.13,1.59-.81.18-1.31-.39-1.54-1.04-.35-1-.77-2.01-.72-3.11,1.03-.17,2.05-.34,3.08-.52Z"/>
      <path class="cls-2" d="M11.09,155.6c-.95-.13-1.87-.4-2.68-.91-.38-.24-.85-.56-.63-1.15.21-.58.53-1.03,1.26-1.08,1.4-.1,2.76.22,4.15.25-.83.86-1.57,1.8-2.1,2.89Z"/>
      <path class="cls-6" d="M137.24,71.18s-.1-.05-.15-.08c.02-.02.05-.07.07-.07.05.01.1.04.15.07-.02.02-.05.05-.08.08Z"/>
      <path class="cls-3" d="M121.98,85.02c-.05.73-.24,1.39-1.11,1.42-.89.03-1.18-.59-1.14-1.33.04-.77.38-1.42,1.28-1.44.92-.02.88.73.98,1.35Z"/>
    </g>
  </g>
</svg>