<?xml version="1.0" encoding="UTF-8"?>
<svg id="Calque_2" data-name="Calque 2" xmlns="http://www.w3.org/2000/svg" viewBox="0 0 105.49 157.91">
  <defs>
    <style>
      .cls-1 {
        fill: #d39589;
      }

      .cls-1, .cls-2, .cls-3, .cls-4, .cls-5, .cls-6 {
        stroke-width: 0px;
      }

      .cls-2 {
        fill: #1f1e21;
      }

      .cls-3 {
        fill: #d17376;
      }

      .cls-4 {
        fill: #fdd769;
      }

      .cls-5 {
        fill: #1a1415;
      }

      .cls-6 {
        fill: #fff;
      }
    </style>
  </defs>
  <g id="Calque_1-2" data-name="Calque 1">
    <g>
      <path class="cls-6" d="M64.72,30.88c-.33.69.06,1.01.63,1.29,1.03.5,2.1.96,3.07,1.57,1.09.68,1.77.41,2.47-.58,2.47-3.52,5.85-5.75,10-6.88,1.72-.47,1.83-.84.79-2.39-1.41-2.09-2.26-4.36-2.23-6.91.03-2.36.92-4.48,1.9-6.57.59-1.27.42-1.55-.97-1.8-4.5-.82-7.62-3.37-9.32-7.62-.44-1.09-.87-1.28-1.71-.49-1.62,1.53-3.17,3.15-4.74,4.74-.38.39-.48.82-.08,1.27-.18.96-.95,1.64-1.15,2.62-.15.74-.13,1.37.5,1.82.6.43,1.21.22,1.77-.19,1.1-.81,2.02-1.79,2.86-2.87.83-1.08,1-1.11,1.9-.15,1.34,1.42,2.89,2.51,4.71,3.2.65.24.77.56.64,1.26-.59,3.18-.57,6.36.45,9.46.28.86-.13,1.15-.74,1.46-2.62,1.34-4.61,3.42-6.43,5.64-.8.98-1.38,1.52-2.56.68-.45-.32-1.04-.43-1.55.03-.48.43-.36.93-.18,1.43ZM22.92,33.25c-.54.77-1.03,1.48-1.54,2.18-1.49,2.06-2.99,4.13-4.12,6.42-1.04,2.12-.06,3.66,2.27,3.65.73,0,1.42-.18,2.09-.41,4.46-1.56,8.51-3.93,12.44-6.46,2.04-1.31,3.94-2.57,6.49-2,.04,0,.08,0,.12,0,3.21-.13,6.03-2.15,7.06-5.18.55-1.62.93-3.29.62-5.04-.17-.97.78-1.03,1.3-1.21.59-.2.56.5.6.9.12,1.02-.18,1.98-.6,2.89-1.25,2.7-2.52,5.4-3.83,8.08-.52,1.08-.74,2.24-2.6,2.16-1.62-.07-2.85,1.43-3.85,2.75-2.19,2.88-4.23,5.88-6.38,8.79-1.74,2.35-3.44,4.78-4.38,7.61-.43,1.31-.47,2.59.66,3.62.4.37.41.7.2,1.16-.2.43-.3.9-.47,1.34-4.41,11.04-9.08,21.98-13.51,33.02-5.29,13.22-10.77,26.34-15,39.95-1.3,4.18-.17,11.92,4.76,15.37,2.78,1.94,5.8,2.66,8.97,3.13,2.79.42,5.62.59,8.43.91,4.2.48,8.38,1.13,12.62,1.03,6.94-.16,13.89.18,20.83-.22,8.17-.46,16.37-.19,24.53-.78,2.57-.19,5.2-.7,6.81-3.11,1.17-1.75,1.51-3.82,1.79-5.86.59-4.18,1.19-8.34,1.55-12.56.49-5.76,1.15-11.5,1.36-17.29.14-3.75.46-7.49.76-11.23.42-5.13.9-10.25,1.36-15.37.34-3.73.7-7.46,1.05-11.19.38-4.13.79-8.26,1.09-12.39.45-6.15.3-12.29-.25-18.43-.21-2.37-.34-4.77-1.18-7.04-.31-.83-.71-1.65-1.75-1.73-1.12-.09-1.74.65-2.22,1.52-.23.41-.38.87-.55,1.31-.91,2.38-1.02,4.89-1.18,7.39-.36,5.53-1.17,11.01-2.04,16.47-.9,5.63-1.57,11.28-2.07,16.96-.31,3.53-.7,7.06-1.11,10.58-.47,4.07-1.02,8.14-1.52,12.21-.43,3.52-.72,7.06-1.3,10.56-1.13,6.88-1.99,13.79-2.75,20.71-.37,3.35-3.05,6.52-6.22,7.33-4.19,1.06-8.44,1.6-12.74,1.79-4.02.18-8.06.3-12.09,0-5.16-.38-10.27-1.24-15.37-2.09-4.78-.79-9.24-2.54-13.59-4.57-1.51-.7-2.29-1.91-2.6-3.59-.5-2.74.16-5.31.85-7.88.66-2.46,1.95-4.7,2.79-7.1,4.32-12.28,9.44-24.23,14.71-36.12,2.68-6.06,5.05-12.25,8.07-18.16.34-.66.63-1.09,1.49-.98,1.9.23,3.19-.71,4.04-2.35,1.83-3.52,3.8-6.97,5.39-10.61,1.08-2.47,2.41-4.83,3.09-7.46.49-1.89.33-3.57-1.47-4.73-.58-.37-.15-.69,0-.98,1.37-2.86,2.61-5.79,3.65-8.78,1.94-5.58,3.21-11.3,2.2-17.22-.89-5.22-3.35-6.63-7.49-6.31-.71.06-1.42.18-2.11.36-7.58,1.93-13.67,6.57-19.8,11.09-.74.54-.92.48-1.4-.16-1.06-1.42-2.52-2.01-4.3-2.24-3.18-.4-8.12,3.84-8.73,6.72-.75,3.53.84,6.95,4.18,8.31.58.24,1.2.37,1.88.58ZM103.43,50.93c0,1.71-.06,3.43.02,5.14.08,1.91.28,3.82.44,5.72.05.54.22,1.06.93.97.63-.08.72-.51.65-1.05-.45-3.6-.55-7.23-.72-10.86-.03-.67.31-1.81-.81-1.8-1.27,0-.62,1.19-.52,1.88ZM74.58,122.91c.14-.78-.05-1.26-.68-1.33-.61-.06-.77.46-.84.95-.34,2.44-.66,4.87-1,7.31-.08.56.08.97.66,1.06.61.09.84-.35.91-.86.33-2.44.65-4.88.94-7.13ZM68.37,132.71s.04,0,.06,0c-.04.44-.09.87-.1,1.31-.02.48.11.89.68.92.53.02.79-.28.83-.8.19-2.49.27-4.99.72-7.45.08-.43-.03-.81-.54-.9-.45-.08-.77.1-.9.56-.07.23-.18.45-.2.68-.19,1.89-.37,3.79-.55,5.68ZM100.99,57.69h-.02c0-1.03,0-2.07,0-3.1,0-.49-.19-.89-.72-.93-.61-.04-.86.4-.85.92.02,2.07.09,4.13.13,6.2.01.52.25.84.8.81.57-.03.68-.42.67-.92-.02-.99,0-1.99,0-2.98Z"/>
      <path class="cls-5" d="M22.92,33.25c-.67-.2-1.3-.34-1.88-.58-3.34-1.35-4.93-4.77-4.18-8.31.61-2.88,5.55-7.13,8.73-6.72,1.78.23,3.24.83,4.3,2.24.48.64.67.7,1.4.16,6.14-4.52,12.22-9.16,19.8-11.09.69-.18,1.4-.3,2.11-.36,4.14-.32,6.6,1.09,7.49,6.31,1,5.92-.26,11.64-2.2,17.22-1.04,3-2.28,5.92-3.65,8.78-.14.3-.57.61,0,.98,1.79,1.15,1.95,2.83,1.47,4.73-.68,2.64-2.01,5-3.09,7.46-1.59,3.64-3.56,7.09-5.39,10.61-.85,1.64-2.14,2.58-4.04,2.35-.86-.11-1.15.32-1.49.98-3.02,5.91-5.39,12.1-8.07,18.16-5.27,11.89-10.39,23.84-14.71,36.12-.84,2.4-2.13,4.64-2.79,7.1-.69,2.57-1.35,5.14-.85,7.88.31,1.68,1.09,2.89,2.6,3.59,4.36,2.04,8.81,3.78,13.59,4.57,5.1.85,10.2,1.7,15.37,2.09,4.03.3,8.06.18,12.09,0,4.29-.19,8.55-.73,12.74-1.79,3.18-.81,5.86-3.98,6.22-7.33.76-6.92,1.63-13.83,2.75-20.71.57-3.5.86-7.04,1.3-10.56.5-4.07,1.04-8.14,1.52-12.21.41-3.52.8-7.05,1.11-10.58.5-5.68,1.17-11.33,2.07-16.96.87-5.47,1.68-10.94,2.04-16.47.16-2.5.27-5.01,1.18-7.39.17-.44.33-.9.55-1.31.48-.87,1.1-1.61,2.22-1.52,1.04.08,1.45.9,1.75,1.73.84,2.27.97,4.67,1.18,7.04.55,6.13.7,12.28.25,18.43-.3,4.14-.72,8.26-1.09,12.39-.34,3.73-.71,7.46-1.05,11.19-.47,5.12-.94,10.24-1.36,15.37-.31,3.74-.63,7.48-.76,11.23-.21,5.79-.87,11.53-1.36,17.29-.36,4.21-.97,8.38-1.55,12.56-.29,2.04-.63,4.11-1.79,5.86-1.6,2.41-4.23,2.92-6.81,3.11-8.16.59-16.36.32-24.53.78-6.94.39-13.89.06-20.83.22-4.24.1-8.42-.55-12.62-1.03-2.81-.32-5.64-.5-8.43-.91-3.17-.47-6.2-1.19-8.97-3.13-4.93-3.44-6.06-11.18-4.76-15.37,4.23-13.61,9.7-26.74,15-39.95,4.42-11.04,9.1-21.97,13.51-33.02.18-.44.27-.91.47-1.34.21-.46.2-.79-.2-1.16-1.13-1.03-1.09-2.31-.66-3.62.94-2.83,2.65-5.26,4.38-7.61,2.15-2.91,4.19-5.91,6.38-8.79,1.01-1.32,2.23-2.83,3.85-2.75,1.87.09,2.08-1.08,2.6-2.16,1.3-2.68,2.58-5.37,3.83-8.08.42-.9.71-1.87.6-2.89-.05-.4-.01-1.1-.6-.9-.52.18-1.48.24-1.3,1.21.32,1.75-.07,3.42-.62,5.04-1.02,3.03-3.85,5.05-7.06,5.18-.04,0-.08.01-.12,0-2.55-.57-4.46.69-6.49,2-3.93,2.54-7.98,4.9-12.44,6.46-.68.24-1.36.41-2.09.41-2.33.01-3.32-1.53-2.27-3.65,1.13-2.29,2.63-4.36,4.12-6.42.51-.7.99-1.41,1.54-2.18ZM49.71,23.56c1.72.14,1.96,1.45,2.2,2.76-.17,1.73-.81,3.31-1.54,4.86-1.19,2.51-2.42,5-3.62,7.51-.16.34-.58.71.22.91,1.85.45,3.68.95,5.51,1.48.49.14.64-.09.81-.43.55-1.15,1.16-2.26,1.52-3.49.65-1.25,1.17-2.56,1.61-3.89,2.25-5.68,3.72-11.52,2.87-17.68-.59-4.2-2.15-6.09-6.67-5.36-3.47.56-6.59,1.98-9.58,3.76-1.01.52-1.99,1.09-2.9,1.77-3.03,1.7-5.73,3.89-8.52,5.94-.48.35-.29.72-.18,1.15,1.13,4.46-.91,8.28-5.14,9.85-.62.23-1.2.5-1.6.99-2.31,2.81-4.49,5.7-6.11,8.97-.47.94-.08,1.49.97,1.36.78-.1,1.56-.33,2.3-.61,3.71-1.4,7.08-3.46,10.49-5.42,1.1-.63,2.12-1.39,3.21-2.1-.69-.5-1.35-.88-1.89-1.38-3.39-3.18-2.29-9.5,2.1-11.95.97-.54,1.99-1.01,3.05-1.34,2.77-.88,5.53-.69,7.49,1.54,1.16,1.32,2.06,1.46,3.41.8ZM31.58,88.24c.64-1.18,1.2-2.4,1.65-3.67.07-.09.16-.18.2-.28,2.46-5.74,4.76-11.55,7.64-17.1.25-.48.12-.68-.36-.84-3.02-.98-6.09-1.82-9.02-3.08-.53-.23-.7.05-.84.46-.53,1.5-1.07,3-1.61,4.49l-1.38,3.36c-.84,1.84-1.69,3.67-2.51,5.52-2.48,5.59-4.79,11.24-6.75,17.04-.35.91-.71,1.83-1.06,2.74-.65,1.54-1.31,3.07-1.95,4.61-1.84,4.4-3.86,8.73-5.48,13.23-.54,1.09-.98,2.22-1.34,3.39-2.27,5.38-3.88,10.98-5.67,16.52-.41,1.19-.93,2.35-1.14,3.61-.11,1.03-.25,2.05-.34,3.08-.47,5.07,2.59,10.18,7.2,11.89,1.98.73,4.05,1.12,6.16,1.3,1.6.16,3.2.32,4.8.47,1.15.13,2.3.2,3.44.39,6.96,1.16,13.96,1.19,20.98.85,1.2.02,2.39.03,3.59.05.89.17,1.79.19,2.69.11.67.05,1.33.15,1.98-.11,3.63-.12,7.27-.24,10.9-.36,1.2-.06,2.4-.12,3.6-.18,4.39.09,8.77-.01,13.15-.28,1.59-.1,3.13-.51,4.58-1.2,1.53-.77,1.96-2.22,2.27-3.73.04-.15.09-.31.12-.46,1.32-6.92,2.01-13.93,2.81-20.92.03-1.29.39-2.55.28-3.84.38-2,.26-4.04.4-6.06.24-3.33.37-6.66.55-9.99.16-1.2.35-2.39.29-3.61.07-.35.17-.7.21-1.05.47-5.32.92-10.63,1.38-15.95l.28-3.62c.67-5.81,1.24-11.63,1.61-17.47.16-1.2.13-2.41.09-3.62.2-5.59.1-11.16-.6-16.72-.18-1.42-.29-2.85-.8-4.21-.11-.29-.19-.68-.55-.71-.37-.04-.54.31-.66.6-.27.62-.51,1.25-.73,1.89-1.12,3.27-.78,6.7-1.16,10.05-.11,1.2-.22,2.4-.33,3.6-.76,5.19-1.72,10.35-2.3,15.57-.16,1.28-.32,2.56-.48,3.85-.55,5.43-1.1,10.86-1.65,16.29-.15,1.27-.3,2.53-.45,3.8-.23,1.69-.47,3.39-.7,5.08-.52,3.82-.95,7.66-1.27,11.5-.22,1.28-.49,2.55-.52,3.85-.35.49-.24,1.08-.34,1.62-.96,5.57-1.55,11.2-2.25,16.81.03,1.23-.25,2.42-.46,3.62-.95,3.05-3.01,5.1-5.81,6.49-1.28.32-2.56.64-3.85.96-2.71.4-5.42.82-8.16,1.06-1.67.14-3.35-.06-5,.29-1.28.03-2.55.05-3.83.08-6.19-.08-12.32-.85-18.42-1.86l-3.61-.56c-4.64-.97-9.01-2.71-13.33-4.6-.98-.68-1.99-1.34-2.63-2.39-1.16-2.72-.96-5.52-.51-8.34.37-1.2.73-2.4,1.1-3.6,1.02-1.85,1.58-3.88,2.3-5.85,1.33-3.64,2.65-7.28,3.97-10.93.59-1.16,1.04-2.36,1.43-3.6,2.73-6.45,5.46-12.89,8.2-19.34ZM55.02,45.26c.05-1.38-.6-2.09-1.72-2.41-2.25-.64-4.5-1.28-6.76-1.89-2.83-.77-4.19-.44-5.85,1.8-2.28,3.07-4.45,6.22-6.62,9.37-1.49,2.17-2.86,4.41-3.73,6.92-.54,1.56-.46,1.8,1.07,2.46,3.61,1.58,7.39,2.68,11.15,3.82,2.32.7,3.1.25,4.24-1.89,2.53-4.74,4.95-9.54,7.09-14.47.54-1.25,1-2.51,1.14-3.72ZM39.32,35.18c4.34,0,6.57-1.8,7.45-5.85,1.15-5.29-3.55-8.18-7.17-6.63-.87.37-1.8.6-2.67.97-2.73,1.14-4.42,4.74-3.59,7.57.71,2.41,3.04,3.95,5.98,3.95ZM30.33,24.61c.03-3.69-3.37-6.44-6.6-5.29-1.98.7-3.56,2.01-4.69,3.73-1.28,1.94-1.41,4.11-.1,6.09,1.33,2.02,3.28,2.92,5.77,2.5,3.26-.55,5.65-2.99,5.63-7.03Z"/>
      <path class="cls-4" d="M64.72,30.88c-.18-.51-.3-1.01.18-1.43.51-.46,1.11-.35,1.55-.03,1.18.84,1.76.3,2.56-.68,1.82-2.22,3.81-4.31,6.43-5.64.61-.31,1.02-.6.74-1.46-1.01-3.1-1.04-6.28-.45-9.46.13-.7,0-1.01-.64-1.26-1.82-.68-3.37-1.78-4.71-3.2-.9-.96-1.07-.93-1.9.15-.83,1.08-1.76,2.06-2.86,2.87-.55.41-1.16.61-1.77.19-.63-.45-.65-1.08-.5-1.82.2-.97.97-1.66,1.15-2.62.58.38.94.01,1.33-.37,1.32-1.31,2.65-2.6,4.02-3.95,1.99,4.25,5.32,6.84,9.95,7.94-2.52,5-2.67,9.88.65,14.65-.44.15-.8.27-1.16.4-2.98,1.02-5.66,2.53-7.81,4.89-.72.79-1.35,2.12-2.16,2.24-.91.14-1.98-.82-2.98-1.3-.54-.26-1.06-.62-1.64-.11Z"/>
      <path class="cls-5" d="M64.72,30.88c.59-.5,1.11-.15,1.64.11,1,.49,2.07,1.44,2.98,1.3.81-.12,1.44-1.45,2.16-2.24,2.15-2.35,4.83-3.86,7.81-4.89.36-.12.72-.25,1.16-.4-3.32-4.77-3.17-9.66-.65-14.65-4.63-1.1-7.96-3.69-9.95-7.94-1.38,1.35-2.71,2.64-4.02,3.95-.39.38-.75.75-1.33.37-.4-.45-.3-.88.08-1.27,1.57-1.59,3.11-3.2,4.74-4.74.85-.8,1.27-.61,1.71.49,1.71,4.25,4.82,6.8,9.32,7.62,1.39.25,1.57.54.97,1.8-.98,2.09-1.87,4.21-1.9,6.57-.03,2.55.82,4.82,2.23,6.91,1.05,1.55.94,1.92-.79,2.39-4.15,1.12-7.53,3.35-10,6.88-.7,1-1.38,1.27-2.47.58-.97-.61-2.03-1.07-3.07-1.57-.57-.27-.95-.6-.63-1.29Z"/>
      <path class="cls-2" d="M103.43,50.93c-.1-.68-.76-1.87.52-1.88,1.11,0,.77,1.13.81,1.8.17,3.62.27,7.25.72,10.86.07.54-.02.98-.65,1.05-.72.09-.88-.43-.93-.97-.17-1.91-.36-3.81-.44-5.72-.07-1.71-.02-3.42-.02-5.14Z"/>
      <path class="cls-2" d="M74.58,122.91c-.3,2.26-.61,4.69-.94,7.13-.07.51-.31.95-.91.86-.58-.09-.74-.5-.66-1.06.34-2.44.66-4.87,1-7.31.07-.49.24-1.01.84-.95.63.06.82.55.68,1.33Z"/>
      <path class="cls-5" d="M68.37,132.71c.18-1.89.36-3.79.55-5.68.02-.23.14-.45.2-.68.13-.46.45-.64.9-.56.51.09.61.47.54.9-.45,2.46-.53,4.96-.72,7.45-.04.52-.3.82-.83.8-.58-.02-.7-.44-.68-.92.02-.44.07-.87.1-1.31-.02,0-.04,0-.06,0Z"/>
      <path class="cls-2" d="M100.99,57.69c0,.99-.01,1.99,0,2.98,0,.5-.1.88-.67.92-.55.03-.79-.28-.8-.81-.05-2.07-.11-4.13-.13-6.2,0-.52.24-.96.85-.92.53.04.72.44.72.93,0,1.03,0,2.07,0,3.1h.02Z"/>
      <path class="cls-1" d="M80.19,136.8c.7-5.61,1.28-11.24,2.25-16.81.09-.54,0-1.13.34-1.62,1.69-.02,3.28-.46,4.79-1.21.76-.37.82-1.04.7-1.73-.12-.69-.58-1.15-1.31-1.14-1.22,0-2.46-.18-3.66.22.32-3.84.76-7.68,1.27-11.5.23-1.69.46-3.39.7-5.08,1.46.23,2.81-.3,4.16-.7.89-.27,1.17-1.02,1.01-1.89-.16-.87-.76-1.22-1.63-1.2-1.03.02-2.06,0-3.08,0,.55-5.43,1.1-10.86,1.65-16.29,1.2-.03,2.37-.25,3.5-.6.93-.29,1.44-.99,1.24-2.02-.18-.96-.84-1.25-1.75-1.22-.83.03-1.67,0-2.51,0,.58-5.22,1.54-10.38,2.3-15.57.2,0,.4.02.6,0,1.24-.12,2.28-.95,2.33-1.83.05-.99-.53-1.47-2.12-1.75-.15-.03-.32-.01-.48-.02.38-3.35.05-6.79,1.16-10.05.22-.64.46-1.27.73-1.89.12-.28.29-.64.66-.6.36.04.44.42.55.71.52,1.36.62,2.79.8,4.21.71,5.55.81,11.13.6,16.72-.92-.09-1.8.13-2.7.23-.86.1-1.4.62-1.57,1.39-.19.85.47,1.3,1.15,1.59.96.41,2,.43,3.03.41-.36,5.84-.94,11.66-1.61,17.47-1.38.14-2.73-.55-4.12-.08-.68.23-1.27.53-1.34,1.32-.07.82.51,1.24,1.15,1.49,1.29.51,2.61.97,4.03.9-.46,5.32-.91,10.63-1.38,15.95-.03.35-.14.7-.21,1.05-1.17-.16-2.33-.36-3.51-.46-.69-.06-1.19.34-1.45,1.01-.26.67.14,1.07.57,1.42,1.19.98,2.54,1.57,4.09,1.63-.18,3.33-.31,6.67-.55,9.99-.14,2.02-.02,4.06-.4,6.06-1.5.03-3.01-.11-4.51.22-.73.16-1.33.48-1.39,1.25-.07.79.51,1.19,1.22,1.39,1.45.41,2.9.79,4.4.98-.8,6.99-1.49,14-2.81,20.92-.03.16-.08.31-.12.46-.23-.06-.41-.18-.61-.33-.97-.74-1.68-1.8-2.8-2.34-.63-.31-1.3-.51-1.88.03-.57.54-.42,1.24-.19,1.88.26.71.78,1.28,1.16,1.92.56.96,1.64,1.5,2.04,2.57-1.45.69-2.99,1.1-4.58,1.2-4.38.27-8.76.37-13.15.28,0-1.12-.17-2.22-.51-3.28-.21-.64-.68-1.03-1.43-1.05-.73-.02-.94.47-1.18.99-.52,1.12-.49,2.32-.48,3.51-3.63.12-7.27.24-10.9.36-.66-.02-1.34-.19-1.98.11-.9.07-1.8.05-2.69-.11,0-.83-.03-1.67.02-2.5.04-.78-.29-1.34-.99-1.57-.79-.26-1.29.26-1.62.88-.52.98-.96,2-1,3.14-7.02.34-14.02.31-20.98-.85-1.14-.19-2.29-.27-3.44-.39.08-.62.62-.9.99-1.29.47-.49.89-1.01,1.16-1.64.26-.61.39-1.2-.24-1.72-.58-.47-1.17-.45-1.77-.15-.42.21-.8.51-1.17.8-1.34,1.09-2.76,2.08-3.77,3.51-2.1-.18-4.18-.57-6.16-1.3-4.61-1.71-7.68-6.82-7.2-11.89.1-1.03.23-2.05.34-3.08,2.9.06,5.79.05,8.66-.46.7-.12,1.17-.52,1.24-1.24.07-.76-.43-1.17-1.06-1.4-.37-.13-.77-.17-1.15-.25-2.17-.42-4.36-.16-6.54-.27,1.8-5.54,3.41-11.14,5.67-16.52.21.1.43.18.64.29,1.87.95,3.71,1.97,5.87,2.11.55.04,1.08-.05,1.29-.62.2-.53.24-1.13-.27-1.53-1.88-1.52-3.93-2.75-6.18-3.63,1.61-4.5,3.64-8.83,5.48-13.23.64-1.54,1.3-3.07,1.95-4.61,1.15,1.07,2.58,1.65,3.99,2.27.58.26,1.26.52,1.68-.24.36-.65.22-1.27-.34-1.82-1.26-1.22-2.73-2.12-4.26-2.96,1.96-5.8,4.27-11.45,6.75-17.04.82-1.85,1.67-3.68,2.51-5.52.75.37,1.48.79,2.25,1.11,1.61.68,3.25,1.28,5,1.54.72.11,1.27-.21,1.57-.83.32-.64.02-1.18-.51-1.56-2.13-1.56-4.5-2.65-6.93-3.63.54-1.5,1.07-2.99,1.61-4.49.15-.41.31-.69.84-.46,2.93,1.25,6,2.1,9.02,3.08.48.16.61.35.36.84-2.88,5.55-5.19,11.36-7.64,17.1-.04.1-.13.19-.2.28-1.34-.33-2.68-.65-4.07-.8-1.07-.12-2.17-.12-2.52.94-.33,1.01.68,1.54,1.49,2,1.11.62,2.41.79,3.45,1.53-2.73,6.45-5.46,12.89-8.2,19.34-.51-.03-1.03-.08-1.54-.13-1.38-.14-2.74-.45-4.14-.35-.78.06-1.46.45-1.67,1.16-.2.67.35,1.16.93,1.51,1.54.9,3.22,1.29,4.98,1.41-1.32,3.64-2.64,7.29-3.97,10.93-.72,1.97-1.28,4-2.3,5.85-1.24.31-2.51.23-3.77.23-.95,0-1.9-.04-2.82.27-.51.17-.92.51-1.01,1.06-.1.61.37.93.8,1.21.26.16.59.27.89.3,1.6.19,3.21.36,4.81.53-.45,2.82-.66,5.62.51,8.34-1.89,1.19-3.56,2.64-5.12,4.23-.55.57-1.09,1.28-.53,1.99.56.72,1.4.7,2.24.18,2.07-1.26,4.06-2.62,6.04-4.02,4.32,1.89,8.69,3.64,13.33,4.6.04.46-.2.84-.38,1.24-.46,1.01-.9,2.03-1.05,3.14-.07.5.02.93.56,1.19.54.26.99.23,1.39-.23.23-.27.47-.53.68-.82.9-1.26,1.7-2.58,2.41-3.96,6.1,1.01,12.22,1.79,18.42,1.86-.02,1.31.21,2.6.49,3.87.18.85.6,1.4,1.62,1.4,1.03,0,1.24-.71,1.44-1.45.34-1.28.32-2.59.29-3.9,1.65-.36,3.34-.15,5-.29,2.74-.24,5.44-.66,8.16-1.06.59,1.6,1.8,2.7,3.06,3.73.57.47,1.32.54,1.97-.03.65-.57.63-1.26.29-1.95-.46-.92-.98-1.81-1.47-2.71,2.8-1.39,4.86-3.44,5.81-6.49,1.13.29,2.26.03,3.38-.03.94-.05,1.7-.49,1.81-1.52.11-1.02-.54-1.41-1.46-1.65-1.08-.29-2.15-.46-3.27-.42Z"/>
      <path class="cls-1" d="M54.81,37.16c-.36,1.23-.97,2.34-1.52,3.49-.16.34-.31.57-.81.43-1.83-.53-3.66-1.03-5.51-1.48-.81-.19-.38-.57-.22-.91,1.2-2.51,2.43-5,3.62-7.51.73-1.55,1.37-3.13,1.54-4.86.49-.02.63-.42.85-.75.84-1.25,1.71-2.48,2.51-3.76.67-1.08,1.29-2.21,1.6-3.45.15-.61.06-1.18-.55-1.57-.62-.4-1.24-.39-1.77.07-2.11,1.87-3.57,4.21-4.84,6.7-1.36.66-2.26.51-3.41-.8-1.96-2.23-4.72-2.42-7.49-1.54-1.05.34-2.08.8-3.05,1.34-4.39,2.44-5.49,8.77-2.1,11.95.54.5,1.19.88,1.89,1.38-1.08.71-2.11,1.47-3.21,2.1-3.41,1.97-6.79,4.03-10.49,5.42-.74.28-1.52.51-2.3.61-1.05.13-1.44-.42-.97-1.36,1.63-3.27,3.81-6.17,6.11-8.97.4-.49.97-.75,1.6-.99,4.24-1.57,6.27-5.39,5.14-9.85-.11-.44-.3-.8.18-1.15,2.79-2.05,5.49-4.23,8.52-5.94,1.13,1.46,2.54,2.58,4.13,3.5.58.34,1.14.53,1.71-.08.55-.59.59-1.28.19-1.85-.87-1.26-1.74-2.55-3.12-3.34,2.98-1.79,6.1-3.21,9.58-3.76,4.52-.72,6.08,1.16,6.67,5.36.86,6.16-.62,12-2.87,17.68-.95,0-1.91.02-2.86-.01-.99-.04-1.68.48-1.84,1.34-.15.84.49,1.43,1.27,1.8.6.29,1.3.32,1.83.77Z"/>
      <path class="cls-1" d="M55.02,45.26c-.13,1.21-.6,2.47-1.14,3.72-2.14,4.93-4.56,9.73-7.09,14.47-1.14,2.14-1.92,2.59-4.24,1.89-3.76-1.14-7.54-2.24-11.15-3.82-1.52-.67-1.6-.91-1.07-2.46.87-2.51,2.24-4.75,3.73-6.92,2.16-3.15,4.34-6.3,6.62-9.37,1.66-2.24,3.02-2.57,5.85-1.8,2.26.61,4.51,1.25,6.76,1.89,1.12.32,1.77,1.03,1.72,2.41Z"/>
      <path class="cls-6" d="M39.32,35.18c-2.94,0-5.28-1.53-5.98-3.95-.83-2.83.86-6.43,3.59-7.57.87-.37,1.8-.59,2.67-.97,3.62-1.55,8.32,1.34,7.17,6.63-.88,4.05-3.12,5.84-7.45,5.85ZM38.85,29.83c-.61.01-1.14.13-1.11.91.02.65.34,1.06,1.01,1.08.64.02,1.08-.35,1.13-.98.05-.68-.37-1-1.03-1Z"/>
      <path class="cls-6" d="M30.33,24.61c.02,4.04-2.37,6.48-5.63,7.03-2.48.42-4.43-.47-5.77-2.5-1.31-1.98-1.17-4.15.1-6.09,1.13-1.72,2.72-3.03,4.69-3.73,3.22-1.15,6.63,1.6,6.6,5.29ZM22.13,26.73c.06.69.28,1.27,1.1,1.26.61,0,1.11-.3,1.13-.97.03-.79-.53-1.15-1.21-1.16-.48,0-1.07.11-1.03.86Z"/>
      <path class="cls-3" d="M49.71,23.56c1.27-2.48,2.73-4.83,4.84-6.7.53-.47,1.14-.47,1.77-.07.61.39.71.96.55,1.57-.32,1.25-.93,2.37-1.6,3.45-.8,1.28-1.67,2.51-2.51,3.76-.22.33-.36.73-.85.75-.24-1.31-.48-2.63-2.2-2.76Z"/>
      <path class="cls-3" d="M3.11,134.63c2.18.1,4.37-.15,6.54.27.39.08.79.12,1.15.25.64.23,1.13.64,1.06,1.4-.07.72-.54,1.12-1.24,1.24-2.87.51-5.76.52-8.66.46.22-1.26.73-2.42,1.14-3.61Z"/>
      <path class="cls-3" d="M29.25,68.23c2.43.97,4.8,2.07,6.93,3.63.52.38.82.92.51,1.56-.31.62-.85.94-1.57.83-1.74-.26-3.38-.86-5-1.54-.77-.33-1.5-.74-2.25-1.11.46-1.12.92-2.24,1.38-3.36Z"/>
      <path class="cls-3" d="M17.72,142.28c-1.97,1.4-3.97,2.76-6.04,4.02-.85.51-1.68.54-2.24-.18-.56-.71-.02-1.42.53-1.99,1.56-1.59,3.23-3.04,5.12-4.23.65,1.05,1.65,1.7,2.63,2.39Z"/>
      <path class="cls-3" d="M10.12,114.73c2.25.89,4.3,2.11,6.18,3.63.51.41.47,1,.27,1.53-.21.57-.74.66-1.29.62-2.16-.14-4-1.17-5.87-2.11-.21-.1-.42-.19-.64-.29.35-1.17.8-2.3,1.34-3.39Z"/>
      <path class="cls-3" d="M21.96,111.18c-1.76-.13-3.44-.52-4.98-1.41-.59-.34-1.13-.84-.93-1.51.21-.71.89-1.1,1.67-1.16,1.4-.1,2.76.21,4.14.35.51.05,1.02.1,1.54.13-.39,1.23-.84,2.44-1.43,3.6Z"/>
      <path class="cls-3" d="M84.7,154.27c-.4-1.07-1.48-1.61-2.04-2.57-.38-.64-.9-1.21-1.16-1.92-.23-.64-.38-1.35.19-1.88.58-.54,1.25-.34,1.88-.03,1.12.55,1.83,1.6,2.8,2.34.2.15.38.27.61.33-.32,1.51-.74,2.96-2.27,3.73Z"/>
      <path class="cls-3" d="M14.58,131.55c-1.6-.17-3.21-.34-4.81-.53-.31-.04-.63-.14-.89-.3-.43-.27-.9-.6-.8-1.21.09-.55.5-.89,1.01-1.06.92-.31,1.87-.27,2.82-.27,1.26,0,2.53.08,3.77-.23-.37,1.2-.73,2.4-1.1,3.6Z"/>
      <path class="cls-3" d="M14.98,154.51c1.02-1.43,2.44-2.43,3.77-3.51.37-.3.75-.6,1.17-.8.6-.3,1.19-.33,1.77.15.63.52.5,1.1.24,1.72-.27.63-.69,1.14-1.16,1.64-.37.39-.91.67-.99,1.29-1.6-.16-3.2-.32-4.8-.47Z"/>
      <path class="cls-3" d="M43.04,13.99c1.38.79,2.25,2.08,3.12,3.34.4.57.36,1.26-.19,1.85-.57.61-1.13.42-1.71.08-1.58-.92-3-2.04-4.13-3.5.91-.68,1.89-1.26,2.9-1.77Z"/>
      <path class="cls-3" d="M31.58,88.24c-1.05-.74-2.35-.91-3.45-1.53-.82-.46-1.82-.99-1.49-2,.35-1.06,1.45-1.06,2.52-.94,1.39.15,2.73.47,4.07.8-.45,1.27-1.01,2.48-1.65,3.67Z"/>
      <path class="cls-3" d="M83.29,114.51c1.2-.4,2.44-.21,3.66-.22.73,0,1.19.45,1.31,1.14.12.69.06,1.35-.7,1.73-1.51.74-3.1,1.19-4.79,1.21.03-1.3.3-2.57.52-3.85Z"/>
      <path class="cls-3" d="M89.9,129.16c-1.5-.19-2.95-.56-4.4-.98-.71-.2-1.29-.61-1.22-1.39.06-.76.66-1.08,1.39-1.25,1.5-.33,3-.19,4.51-.22.11,1.3-.25,2.56-.28,3.84Z"/>
      <path class="cls-3" d="M56.91,149.23c.03,1.31.05,2.62-.29,3.9-.19.73-.4,1.44-1.44,1.45-1.02,0-1.43-.54-1.62-1.4-.27-1.27-.51-2.56-.49-3.87,1.28-.03,2.55-.05,3.83-.08Z"/>
      <path class="cls-3" d="M73.92,146.91c.49.9,1.01,1.79,1.47,2.71.35.69.37,1.38-.29,1.95-.65.57-1.4.5-1.97.03-1.26-1.03-2.47-2.13-3.06-3.73,1.28-.32,2.56-.64,3.85-.96Z"/>
      <path class="cls-3" d="M18.61,94.14c1.53.83,3,1.73,4.26,2.96.56.55.7,1.17.34,1.82-.41.76-1.09.5-1.68.24-1.4-.62-2.84-1.2-3.99-2.27.35-.91.71-1.83,1.06-2.74Z"/>
      <path class="cls-3" d="M93.01,88.65c-1.42.07-2.74-.39-4.03-.9-.64-.25-1.22-.67-1.15-1.49.07-.79.66-1.09,1.34-1.32,1.39-.47,2.75.22,4.12.08-.09,1.21-.19,2.41-.28,3.62Z"/>
      <path class="cls-3" d="M34.67,147.44c-.71,1.37-1.51,2.7-2.41,3.96-.21.29-.45.55-.68.82-.4.46-.85.49-1.39.23-.54-.26-.63-.69-.56-1.19.15-1.11.59-2.13,1.05-3.14.18-.4.42-.77.38-1.24,1.2.19,2.41.37,3.61.56Z"/>
      <path class="cls-3" d="M85.72,94.13c1.03,0,2.06.03,3.08,0,.87-.02,1.47.33,1.63,1.2.16.87-.12,1.62-1.01,1.89-1.35.41-2.69.94-4.16.7.15-1.27.3-2.53.45-3.8Z"/>
      <path class="cls-3" d="M80.19,136.8c1.11-.04,2.18.13,3.27.42.92.24,1.57.63,1.46,1.65-.11,1.03-.87,1.47-1.81,1.52-1.12.06-2.25.31-3.38.03.21-1.2.49-2.39.46-3.62Z"/>
      <path class="cls-3" d="M91.13,109.26c-1.56-.06-2.91-.66-4.09-1.63-.43-.35-.83-.75-.57-1.42.26-.67.76-1.06,1.45-1.01,1.17.09,2.34.3,3.51.46.06,1.21-.13,2.41-.29,3.61Z"/>
      <path class="cls-3" d="M87.85,74c.84,0,1.67.03,2.51,0,.91-.03,1.57.26,1.75,1.22.19,1.03-.31,1.73-1.24,2.02-1.13.35-2.3.57-3.5.6.16-1.28.32-2.56.48-3.85Z"/>
      <path class="cls-3" d="M63.37,155.92c0-1.19-.04-2.39.48-3.51.24-.51.45-1.01,1.18-.99.75.02,1.22.41,1.43,1.05.34,1.06.52,2.16.51,3.28-1.2.06-2.4.12-3.6.18Z"/>
      <path class="cls-3" d="M94.9,67.56c-1.03.02-2.07,0-3.03-.41-.68-.29-1.34-.73-1.15-1.59.17-.76.7-1.29,1.57-1.39.9-.1,1.79-.32,2.7-.23.04,1.21.07,2.41-.09,3.62Z"/>
      <path class="cls-3" d="M54.81,37.16c-.53-.45-1.23-.48-1.83-.77-.78-.38-1.42-.96-1.27-1.8.16-.86.85-1.38,1.84-1.34.95.04,1.91.01,2.86.01-.44,1.34-.95,2.65-1.61,3.89Z"/>
      <path class="cls-3" d="M44.21,156.23c.04-1.14.48-2.16,1-3.14.33-.62.83-1.15,1.62-.88.7.23,1.03.79.99,1.57-.04.83-.01,1.66-.02,2.5-1.2-.02-2.39-.03-3.59-.05Z"/>
      <path class="cls-3" d="M90.49,54.83c.16,0,.32-.01.48.02,1.59.28,2.17.76,2.12,1.75-.04.88-1.09,1.71-2.33,1.83-.2.02-.4,0-.6,0,.11-1.2.22-2.4.33-3.6Z"/>
      <path class="cls-3" d="M50.49,156.39c.65-.3,1.32-.12,1.98-.11-.65.25-1.32.15-1.98.11Z"/>
      <path class="cls-5" d="M38.85,29.83c.66,0,1.08.32,1.03,1-.05.63-.48,1-1.13.98-.67-.02-.99-.43-1.01-1.08-.03-.78.5-.9,1.11-.91Z"/>
      <path class="cls-2" d="M22.13,26.73c-.05-.75.54-.87,1.02-.86.68.01,1.24.37,1.21,1.16-.03.67-.52.96-1.13.97-.83.01-1.04-.57-1.1-1.26Z"/>
    </g>
  </g>
</svg>